<?xml version="1.0" encoding="utf-8"?>
<!-- Generator: Adobe Illustrator 24.0.3, SVG Export Plug-In . SVG Version: 6.00 Build 0)  -->
<svg version="1.1" id="レイヤー_1" xmlns="http://www.w3.org/2000/svg" xmlns:xlink="http://www.w3.org/1999/xlink" x="0px"
	 y="0px" viewBox="0 0 425.2 425.2" style="enable-background:new 0 0 425.2 425.2;" xml:space="preserve">
<style type="text/css">
	.st0{fill:url(#SVGID_1_);stroke:#000000;stroke-miterlimit:10;}
	.st1{clip-path:url(#SVGID_3_);}
	.st2{clip-path:url(#SVGID_5_);}
	.st3{fill:#70C8DD;}
	.st4{fill:#65A2A3;}
	.st5{fill:#82CBCC;}
	.st6{fill:#7EC6C6;}
	.st7{fill:#F0F2F7;}
	.st8{fill:none;stroke:#000000;stroke-width:0.25;stroke-miterlimit:10;}
	.st9{fill:none;}
	.st10{fill:#F2DCCD;}
	.st11{fill:#D9B799;}
	.st12{fill:#C2A289;}
	.st13{fill:#B59680;}
	.st14{fill:#73172F;}
	.st15{fill:#65142D;}
	.st16{fill:#A80228;}
	.st17{fill:#5B0D27;}
	.st18{fill:#323333;}
	.st19{fill:#863156;}
	.st20{fill:#F1F9FE;}
	.st21{fill:#EAF6FD;}
	.st22{fill:#FCFEFF;}
	.st23{fill:#FFFFFF;}
	.st24{fill:#D8EFFC;}
	.st25{fill:#DFF2FC;}
	.st26{fill:#E6C6B0;}
	.st27{fill:#C8A68D;}
	.st28{fill:#323333;stroke:#000000;stroke-width:0.25;stroke-miterlimit:10;}
	.st29{fill:#F2F3F7;}
	.st30{fill:#F5F3F7;}
	.st31{fill:#EEF1F7;}
	.st32{fill:#E3E8F4;}
	.st33{fill:#F9F5F8;}
	.st34{fill:#ECECF4;}
	.st35{fill:#F1D0BC;}
	.st36{fill:#F3CCC2;}
	.st37{fill:#F2D7D1;}
	.st38{fill:#EECAC3;}
	.st39{fill:#F3E1DE;}
	.st40{fill:#5F1B32;}
	.st41{fill:#FFFFFF;stroke:#000000;stroke-miterlimit:10;}
	.st42{fill:#B29583;}
	.st43{fill:#C4A591;}
	.st44{fill:#CDAC97;}
	.st45{fill:#DEBBA3;}
	.st46{fill:#EEC7AD;}
	.st47{fill:#E3BFA6;}
	.st48{fill:#EDF7FD;}
	.st49{fill:#E6F4FD;}
	.st50{fill:#B77878;}
	.st51{fill:#E19492;}
	.st52{fill:#D2A090;}
	.st53{fill:#C09284;}
	.st54{fill:#ECB3A0;}
	.st55{fill:#E4AD9B;}
	.st56{fill:#EAEDEF;}
	.st57{fill:#70B1B2;}
	.st58{fill:#75B8B9;}
	.st59{fill:#59C4F1;}
	.st60{fill:#885D85;}
	.st61{fill:#835981;}
	.st62{fill:#91648E;}
	.st63{fill:#8D618A;}
	.st64{fill:#0E2B2B;}
	.st65{fill:#B3DCCF;}
	.st66{fill:#C5D7E2;}
	.st67{fill:#9AD3CD;}
	.st68{fill:#95D5F6;}
	.st69{fill:#82CACB;}
	.st70{fill:#8ACDCC;}
	.st71{fill:#7ABFC0;}
	.st72{fill:#A3D6CE;}
	.st73{fill:#B1DBCF;}
	.st74{fill:#6BA9AA;}
	.st75{fill:#609A9B;}
	.st76{fill:#80C8C9;}
	.st77{fill:#9BD5E0;}
	.st78{fill:#4E8182;}
	.st79{fill:#7CC3C4;}
	.st80{fill:none;stroke:#000000;stroke-miterlimit:10;}
	.st81{stroke:#000000;stroke-miterlimit:10;}
	.st82{fill:#ACA399;}
	.st83{fill:#D2C7BB;}
	.st84{fill:#C0B5AB;}
	.st85{fill:#E4D7CA;}
	.st86{fill:#727171;}
	.st87{fill:#595757;}
	.st88{fill:#DAAB9E;}
	.st89{fill:#E8B7A8;}
	.st90{fill:#898989;}
	.st91{fill:#D58289;}
	.st92{fill:#E38B92;}
	.st93{fill:#E2B1A3;}
	.st94{fill:#A36B6D;}
	.st95{fill:#B9BABA;}
	.st96{fill:#3E3A39;}
	.st97{fill:#B79086;}
	.st98{fill:#AEBBC2;}
	.st99{fill:#553D37;}
	.st100{fill:#4C4948;}
	.st101{fill:#B5B5B6;}
	.st102{fill:#9FA0A0;}
	.st103{fill:#F4E5D7;}
	.st104{fill:#F4E9D9;}
	.st105{fill:#6F1B05;}
	.st106{fill:#F4F6F7;}
	.st107{fill:#F1F3F4;}
	.st108{fill:#822510;}
	.st109{fill:#4E0500;}
	.st110{fill:#A2341F;}
	.st111{fill:#DFE1E2;}
	.st112{fill:#76200A;}
	.st113{fill:#5F1200;}
	.st114{fill:#3D0000;}
	.st115{fill:#E6EBEE;stroke:#9FA0A0;stroke-width:0.25;stroke-miterlimit:10;}
	.st116{fill:#F8FAFB;}
	.st117{fill:#F0F5F8;}
	.st118{fill:#CED9DF;stroke:#9FA0A0;stroke-width:0.25;stroke-miterlimit:10;}
	.st119{fill:#D3DEE5;stroke:#9FA0A0;stroke-width:0.25;stroke-miterlimit:10;}
	.st120{fill:#8C2A16;}
	.st121{fill:#A63620;}
	.st122{fill:#99301B;}
	.st123{fill:#A13019;}
	.st124{fill:#751B03;}
	.st125{fill:#460000;}
	.st126{fill:#7E230E;}
	.st127{fill:#E3E5E6;}
	.st128{fill:#DEE6EB;stroke:#9FA0A0;stroke-width:0.25;stroke-miterlimit:10;}
	.st129{fill:#BE3518;}
	.st130{fill:#290000;}
	.st131{fill:#320000;}
	.st132{fill:#2C0000;}
	.st133{fill:#EAEDEF;stroke:#9FA0A0;stroke-width:0.25;stroke-miterlimit:10;}
	.st134{fill:#9D9FA0;}
	.st135{fill:#110C0E;}
	.st136{fill:#181718;}
	.st137{fill:#202020;}
	.st138{fill:#252526;}
	.st139{fill:#DCDDDD;}
	.st140{fill:#1B1B1B;}
	.st141{fill:#3E3E3E;}
	.st142{fill:#3A3B3B;}
	.st143{fill:#363737;}
	.st144{fill:#2E2F2F;}
	.st145{fill:#161415;}
	.st146{fill:#530000;}
	.st147{fill:#680000;}
	.st148{fill:#7D0000;}
	.st149{fill:#910000;}
	.st150{fill:#A40000;}
	.st151{fill:#B60005;}
	.st152{fill:#470000;}
	.st153{fill:#292A2A;}
	.st154{fill:#414242;}
	.st155{fill:#D19C77;}
	.st156{fill:#D9A57D;}
	.st157{fill:#D09A77;}
	.st158{fill:#D8A07B;}
	.st159{fill:#C99A74;}
	.st160{fill:#D8A27B;}
	.st161{fill:#CC9A75;}
	.st162{fill:#BF906E;}
	.st163{fill:#D5A57C;}
	.st164{fill:#CA9D76;}
	.st165{fill:#E4AA80;}
	.st166{fill:#E1A77E;}
	.st167{fill:#E4A87F;}
	.st168{fill:#DDA37B;}
	.st169{fill:#7C3021;}
	.st170{fill:#D6A07A;}
	.st171{fill:#D59F7A;}
	.st172{fill:#644633;}
	.st173{fill:#D9A97E;}
	.st174{fill:#CEA178;}
	.st175{fill:#DCAB80;}
	.st176{fill:#E0AE82;}
	.st177{fill:#D4A07A;}
	.st178{fill:#CB9974;}
	.st179{fill:#DBA67E;}
	.st180{fill:#CF9D77;}
	.st181{fill:#DFA880;}
	.st182{fill:#D69D77;}
	.st183{fill:#D49E79;}
	.st184{fill:#E9EFF3;}
	.st185{fill:#CD9A76;}
	.st186{fill:#F0F4F7;}
	.st187{fill:#A2B4BD;}
	.st188{fill:#C6DBE7;}
	.st189{fill:#BED2DE;}
	.st190{fill:#D2E8F4;}
	.st191{fill:#C3D7E3;}
	.st192{fill:#BBCFDA;}
	.st193{fill:#CAE0EC;}
	.st194{fill:#32363A;}
	.st195{fill:#B3C6D1;}
	.st196{fill:#CCE1EE;}
	.st197{fill:#4A5257;}
	.st198{fill:#EDEFF1;}
	.st199{fill:#6A0F00;}
	.st200{fill:#C4361E;}
	.st201{fill:#772C16;}
	.st202{fill:#E85706;}
	.st203{fill:#CFE5F1;}
	.st204{fill:url(#背景_5_);}
	.st205{fill:#620F13;}
	.st206{fill:#BF1A20;}
	.st207{fill:#901D22;}
	.st208{fill:#EDF6F8;}
	.st209{fill:#F0F8F9;}
	.st210{fill:#BBCACA;}
	.st211{fill:#E83A37;}
	.st212{fill:url(#SVGID_8_);}
	.st213{fill:url(#SVGID_9_);}
	.st214{fill:#F3EEF6;}
	.st215{fill:#FBE2DE;}
	.st216{fill:#E4F3F6;}
	.st217{fill:#C13432;}
	.st218{fill:#D0C9CA;}
	.st219{fill:#00003D;}
	.st220{fill:url(#SVGID_10_);}
	.st221{fill:url(#SVGID_11_);}
	.st222{fill:#FFFFFF;stroke:#000000;stroke-width:0.5;stroke-miterlimit:10;}
	.st223{fill:url(#SVGID_12_);}
	.st224{fill:url(#SVGID_13_);}
	.st225{fill:url(#SVGID_14_);}
	.st226{fill:url(#SVGID_15_);}
	.st227{fill:url(#SVGID_16_);}
	.st228{fill:url(#SVGID_17_);}
	.st229{fill:url(#SVGID_18_);}
	.st230{fill:url(#SVGID_19_);}
	.st231{fill:url(#SVGID_20_);}
	.st232{fill:url(#SVGID_21_);}
	.st233{fill:url(#SVGID_22_);}
	.st234{fill:url(#SVGID_23_);}
	.st235{fill:url(#SVGID_24_);}
	.st236{fill:url(#SVGID_25_);}
	.st237{fill:url(#SVGID_26_);}
	.st238{fill:url(#SVGID_27_);}
	.st239{fill:url(#SVGID_28_);}
	.st240{fill:url(#SVGID_29_);}
	.st241{fill:url(#SVGID_30_);}
	.st242{fill:url(#SVGID_31_);}
	.st243{fill:url(#SVGID_32_);}
	.st244{fill:url(#SVGID_33_);}
	.st245{fill:url(#SVGID_34_);}
	.st246{fill:url(#SVGID_35_);}
	.st247{fill:url(#SVGID_36_);}
	.st248{fill:url(#SVGID_37_);}
	.st249{fill:url(#SVGID_38_);}
	.st250{fill:url(#SVGID_39_);}
	.st251{fill:url(#SVGID_40_);}
	.st252{fill:url(#SVGID_41_);}
	.st253{fill:url(#SVGID_42_);}
	.st254{fill:url(#SVGID_43_);}
	.st255{fill:url(#SVGID_44_);}
	.st256{fill:url(#SVGID_45_);}
	.st257{fill:url(#SVGID_46_);}
	.st258{fill:url(#SVGID_47_);}
	.st259{fill:url(#SVGID_48_);}
	.st260{fill:url(#SVGID_49_);}
	.st261{fill:url(#SVGID_50_);}
	.st262{fill:url(#SVGID_51_);}
	.st263{fill:url(#SVGID_52_);}
	.st264{fill:url(#SVGID_53_);}
	.st265{fill:url(#SVGID_54_);}
	.st266{fill:url(#SVGID_55_);}
	.st267{fill:url(#SVGID_56_);}
	.st268{fill:url(#SVGID_57_);}
	.st269{fill:url(#SVGID_58_);}
	.st270{fill:url(#SVGID_59_);}
	.st271{fill:url(#SVGID_60_);}
	.st272{fill:url(#SVGID_61_);}
	.st273{fill:url(#SVGID_62_);}
	.st274{fill:url(#SVGID_63_);}
	.st275{fill:url(#SVGID_64_);}
	.st276{fill:url(#SVGID_65_);}
	.st277{fill:url(#SVGID_66_);}
	.st278{fill:url(#SVGID_67_);}
	.st279{fill:url(#SVGID_68_);}
	.st280{fill:url(#SVGID_69_);}
	.st281{fill:url(#SVGID_70_);}
	.st282{fill:url(#SVGID_71_);}
	.st283{fill:url(#SVGID_72_);}
	.st284{fill:url(#SVGID_73_);}
	.st285{fill:url(#SVGID_74_);}
	.st286{fill:url(#SVGID_75_);}
	.st287{fill:url(#SVGID_76_);}
	.st288{fill:url(#SVGID_77_);}
	.st289{fill:url(#SVGID_78_);}
	.st290{fill:url(#SVGID_79_);}
	.st291{fill:url(#SVGID_80_);}
	.st292{fill:url(#SVGID_81_);}
	.st293{fill:url(#SVGID_82_);}
	.st294{fill:url(#SVGID_83_);}
	.st295{fill:url(#SVGID_84_);}
	.st296{fill:url(#SVGID_85_);}
	.st297{fill:url(#SVGID_86_);}
	.st298{fill:url(#SVGID_87_);}
	.st299{fill:url(#SVGID_88_);}
	.st300{fill:url(#SVGID_89_);}
	.st301{fill:url(#SVGID_90_);}
	.st302{fill:url(#SVGID_91_);}
	.st303{fill:url(#SVGID_92_);}
	.st304{fill:url(#SVGID_93_);}
	.st305{fill:url(#SVGID_94_);}
	.st306{fill:url(#SVGID_95_);}
	.st307{fill:url(#SVGID_96_);}
	.st308{fill:url(#SVGID_97_);}
	.st309{fill:url(#SVGID_98_);}
	.st310{fill:url(#SVGID_99_);}
	.st311{fill:url(#SVGID_100_);}
	.st312{fill:url(#SVGID_101_);}
	.st313{fill:url(#SVGID_102_);}
	.st314{fill:url(#SVGID_103_);}
	.st315{fill:url(#SVGID_104_);}
	.st316{fill:url(#SVGID_105_);}
	.st317{fill:url(#SVGID_106_);}
	.st318{fill:url(#SVGID_107_);}
	.st319{fill:url(#SVGID_108_);}
	.st320{fill:url(#SVGID_109_);}
	.st321{fill:url(#SVGID_110_);}
	.st322{fill:url(#SVGID_111_);}
	.st323{fill:url(#SVGID_112_);}
	.st324{fill:url(#SVGID_113_);}
	.st325{fill:url(#SVGID_114_);}
	.st326{fill:url(#SVGID_115_);}
	.st327{fill:url(#SVGID_116_);}
	.st328{fill:url(#SVGID_117_);}
	.st329{fill:url(#SVGID_118_);}
	.st330{fill:url(#SVGID_119_);}
	.st331{fill:url(#SVGID_120_);}
	.st332{fill:url(#SVGID_121_);}
	.st333{fill:url(#SVGID_122_);}
	.st334{fill:url(#SVGID_123_);}
	.st335{fill:url(#SVGID_124_);}
	.st336{fill:url(#SVGID_125_);}
	.st337{fill:#E60012;}
	.st338{fill:url(#SVGID_126_);}
	.st339{fill:#070001;}
	.st340{fill:#989898;}
	.st341{fill:#040000;}
	.st342{fill:#666767;}
	.st343{fill:#333333;}
	.st344{fill:#E5E144;}
	.st345{fill:#BCBC29;}
	.st346{fill:#EAE673;}
	.st347{fill:#681217;}
	.st348{fill:#636332;}
	.st349{fill:#8A1E22;}
	.st350{fill:#DFDCE3;}
	.st351{fill:#A62224;}
</style>
<radialGradient id="SVGID_1_" cx="212.869" cy="213.0126" r="222.7614" gradientUnits="userSpaceOnUse">
	<stop  offset="0.1788" style="stop-color:#FFF100"/>
	<stop  offset="1" style="stop-color:#00913A"/>
</radialGradient>
<rect x="-7.63" y="-11.99" class="st0" width="441" height="450"/>
<g>
	<g>
		<path class="st10" d="M208.38,136.29c-23.33,7.12-37.02,30.02-30.58,51.14c6.45,21.12,30.59,32.48,53.92,25.36
			s37.02-30.02,30.58-51.14C255.86,140.52,231.72,129.17,208.38,136.29z M226.2,206.83c-19.07,5.82-38.8-3.46-44.06-20.72
			c-5.27-17.26,5.92-35.98,24.99-41.79c19.07-5.82,38.8,3.46,44.06,20.72C256.46,182.3,245.27,201.01,226.2,206.83z"/>
		<g>
			<path class="st11" d="M249.69,186.62L249.69,186.62c0.02-0.03,0.03-0.06,0.04-0.09C249.71,186.55,249.7,186.59,249.69,186.62z"/>
			<path class="st11" d="M225.39,137.87c-3.85,1.02-0.66,5.2-0.66,5.2l0,0c12.38,2.01,22.83,10.1,26.46,21.97
				c1.51,4.95,1.66,10.02,0.67,14.88C261.51,143.37,225.39,137.87,225.39,137.87z"/>
		</g>
	</g>
	<g>
		<path class="st12" d="M119.93,163.28c-23.33,7.12-37.02,30.02-30.58,51.14c6.45,21.12,30.59,32.48,53.92,25.36
			c23.33-7.12,37.02-30.02,30.58-51.14C167.41,167.51,143.26,156.16,119.93,163.28z M144.54,231.75
			c-19.07,5.82-38.8-3.46-44.06-20.72c-5.27-17.26,5.92-35.98,24.99-41.79c19.07-5.82,38.8,3.46,44.06,20.72
			C174.79,207.22,163.6,225.93,144.54,231.75z"/>
		<path class="st13" d="M88,199.65c-0.54,4.87-0.14,9.87,1.35,14.77c4.12,13.49,15.45,22.98,29.18,26.24
			C118.54,240.66,92.37,223.27,88,199.65z"/>
	</g>
	<g>
		<path class="st14" d="M329.05,159.93c5.67,1.51,5.72,10.7,11.35,37.2c10.6,49.85,17.92,52.65,17.02,77.32
			c-0.81,22-7.31,38.4-10.79,46.94c-7.34,18.05-15.2,37.37-34,49.24c-12.2,7.71-16.9,4.63-40.57,15.97
			c-14.63,7.01-22.2,12.68-28.46,16.4c-28.6,17.01-79.1,22.76-113.58,0.78c-8.11-5.17-19.97-22.73-43.68-57.84
			c-29.46-43.62-31.15-52.87-27.78-57.43c6.38-8.64,25.41,7.42,46.89-1.15c30.38-12.13,28.6-58.74,50.44-61.17
			c15.08-1.68,22.51,19.8,36.68,16.64c16.15-3.59,12.42-32.78,31.81-41.89c18.37-8.64,31.59,12.93,54.79,7.1
			C309.07,200.51,317.1,156.73,329.05,159.93z"/>
		<path class="st15" d="M192.08,242.92c-13.86,2.56-21.29-18.38-36.2-16.73c-21.84,2.43-20.06,49.04-50.44,61.17
			c-21.47,8.58-40.5-7.48-46.89,1.15c-3.37,4.56-1.68,13.8,27.78,57.43c23.71,35.11,35.56,52.66,43.68,57.84
			c33.59,21.41,82.37,16.5,111.31,0.51L192.08,242.92z"/>
		<path class="st16" d="M308.2,326.41c5.99-6.06,14.92-16.61,21.43-32.02c5.84-13.84,7.45-26.23,7.87-34.37
			C337.5,260.02,357.1,301.36,308.2,326.41z"/>
		<path class="st17" d="M82.05,289.08c-11-1.91-19.61-5.84-23.5-0.56c-3.37,4.56-1.68,13.8,27.78,57.43
			c23.71,35.11,35.56,52.66,43.68,57.84c28.84,18.38,68.87,17.35,97.94,6.58c2.72-1.1,5.5-2.27,8.35-3.5
			c-11.54-19.3-31.47-47.11-63.69-72.23C140.46,309.57,107.75,296.29,82.05,289.08z"/>
		<path class="st18" d="M312.03,220.51c16.11,5.2,23.45,46.01,9.55,75.56c-3.8,8.08-8.16,12.89-16.87,22.5
			c-29.89,32.98-62.11,45.96-68.96,48.61c-13.77,5.33-26.82,10.38-44.5,9.83c-19.5-0.6-33.45-5.4-36.81-6.78
			c-7-2.87-12.76-5.23-18.61-10.4c-19.8-17.5-21.87-50.58-21.87-50.58l0,0c0,0,25.51-5.31,27.81-5.79
			c13.85-2.9,36.73-8.62,76.61-20.93c7.73-4.02,22.19-14.78,51.11-36.29C300.08,223.5,305.23,218.31,312.03,220.51z"/>
		<path class="st19" d="M220.12,291.98c-46.03,20.24-76.23,52.81-67.47,72.75c1.13,2.57,2.87,4.81,5.12,6.71
			c5.94,1.95,17.93,5.1,33.48,5.58c17.68,0.54,30.73-4.5,44.5-9.83c6.85-2.65,39.06-15.63,68.96-48.61
			c8.13-8.97,12.46-13.75,16.09-20.92c-0.13-2.18-0.6-4.27-1.46-6.24C310.57,271.49,266.15,271.73,220.12,291.98z"/>
		<path class="st20" d="M136.16,304.64L136.16,304.64c-1.8,4.62,8.09,21.2,8.09,21.2c7.19,9.65,14.75-2.04,14.75-2.04
			c11.6,10.24,22.93-0.11,22.93-0.11l-10.89-27.36c-12.8,3.44-22.2,5.65-29.26,7.13C141.18,303.59,139.02,304.04,136.16,304.64z"/>
		<path class="st21" d="M117.14,326.76c0.61,1.28,2.54,4.92,6.43,6.17c4.99,1.6,9.92-1.78,12.08-3.26c1.41-0.96,3.55-4.86,3.62-5.54
			c0.15-1.42-0.48-6.35-3.11-19.49c-8.19,1.71-22.19,4.62-22.19,4.62l2.94,16.67C116.99,326.2,117.06,326.48,117.14,326.76z"/>
		<path class="st21" d="M142.49,347.02c-6.39-8.03-16.21,1.33-16.21,1.34c2.61,4.17,5.75,8.11,9.56,11.48
			c5.86,5.18,11.62,7.54,18.61,10.4l1.29-6.66C165.18,345.83,142.49,347.02,142.49,347.02z"/>
		<path class="st20" d="M175.39,352.42c-3.22-10.55-12.58-3.44-12.58-3.44c-6.4-1.08-8.36,21.26-8.36,21.26
			c3.36,1.38,17.31,6.18,36.81,6.78l0.09-18.04C191.43,340.94,175.39,352.42,175.39,352.42z"/>
		<path class="st22" d="M212.66,284.29L212.66,284.29c-16.88,5.15-30.53,9.06-41.62,12.04l10.89,27.36c0,0,2.03,17.4,18.24,2.91
			c0,0,20.58,3.79,20.47-14.2C220.64,312.41,219.62,296.67,212.66,284.29z"/>
		<g>
			<path class="st23" d="M212.88,284.22c1.08,2.14,4.01,8.34,11.29,24.38c0,0,5.2,18.1,15.47-2c0,0,27.35,8.08,28.92-9.35
				c0,0-3.96-21.67-12.52-41.01l0,0c-20.15,14.95-31.23,22.95-37.66,26.29C216.51,283.11,214.68,283.67,212.88,284.22z"/>
		</g>
		<path class="st23" d="M256.05,256.25L256.05,256.25l9.3,26.62c0,0,15.25,2.24,17.28-14.81c0,0,22.94-2.39,19.12-18.37
			l-13.51-17.48c-4.92,3.67-11.01,8.29-18.74,14.04C264.61,249.88,260.15,253.21,256.05,256.25z"/>
		<path class="st23" d="M288.24,232.21l13.51,17.48c0,0,17.71-4.12,14-16.65l-3.71-12.53l-3.82-0.39
			C304.22,220.63,299.14,224.07,288.24,232.21z"/>
		<path class="st22" d="M210.74,350.13c-16.4-13.81-18.24,1.93-18.24,1.93l-1.25,24.96c17.68,0.54,30.73-4.5,44.5-9.83l-6.67-14.77
			C220.52,328.33,210.74,350.13,210.74,350.13z"/>
		<path class="st23" d="M263.11,324.73c-9-10.62-23.29,3.21-23.29,3.21c-16.85,2.45-13.51,18.24-13.51,18.24l9.45,21.01
			c4.41-1.71,19.36-7.71,37.43-20.58L263.11,324.73z"/>
		<path class="st23" d="M275.89,313.68c-21.88-5.58-2.82,32.71-2.71,32.93c9.98-7.11,20.9-16.29,31.53-28.03l-13.79-8.22
			C279.1,302.24,275.89,313.68,275.89,313.68z"/>
		<path class="st23" d="M321.58,296.07c2.1-4.47,3.71-9.2,4.88-14.02l-7.91-5.53c-9.23-10.58-20.45,13.92-20.45,13.92
			c-14.87,3.84,6.61,28.13,6.61,28.13C313.43,308.96,317.78,304.16,321.58,296.07z"/>
		<path class="st20" d="M193.71,348.27c-0.05,0.09-0.09,0.17-0.14,0.26c-0.6,1.18-0.92,2.38-1.07,3.52l-1.25,24.96
			c6.12,0.19,11.67-0.3,16.9-1.23C203.34,366.61,198.52,357.44,193.71,348.27z"/>
		<path class="st21" d="M166.85,346.98c-2.27,0.65-4.04,2-4.04,2c-6.4-1.08-8.36,21.26-8.36,21.26c1.1,0.45,3.34,1.27,6.52,2.18
			L166.85,346.98z"/>
		<path class="st20" d="M182.91,293.06c-4.25,1.2-8.2,2.29-11.87,3.27l10.89,27.36c0,0,1.53,13.06,12.5,7.11L182.91,293.06z"/>
		<path class="st21" d="M149.17,314.94c-1.15-4.57-1.79-8.81-2.14-12.62c-1.88,0.42-3.63,0.8-5.25,1.14
			c-0.6,0.12-2.76,0.57-5.62,1.17c-1.8,4.62,8.09,21.2,8.09,21.2c3.43,4.61,6.95,4.35,9.69,2.82
			C152.16,324.68,150.47,320.1,149.17,314.94z"/>
		<path class="st24" d="M142.87,306.65l8.69,18.88C151.56,325.53,141.01,319.32,142.87,306.65z"/>
		<path class="st25" d="M177.25,304.42l8.69,18.88C185.95,323.3,175.39,317.1,177.25,304.42z"/>
		<path class="st24" d="M149.36,365.78l2.48-13.43C151.84,352.35,157.29,360.91,149.36,365.78z"/>
		<path class="st24" d="M132.23,324.54l-1.47-13.58C130.76,310.96,138.43,317.6,132.23,324.54z"/>
		<path class="st25" d="M184.71,372l1.53-17.12C186.23,354.88,192.4,364.15,184.71,372z"/>
		<path class="st20" d="M228.4,338.28c3.81,8.39,7.61,16.78,11.42,25.17c-0.05,0.02-4.13,1.93-4.13,1.93l0,0l0,0
			c-0.08-0.16-3.47-9.37-7.08-17.33c-0.46-1.02-1.42-3.12-1.24-5.86C227.49,340.48,228.01,339.12,228.4,338.28z"/>
		<path class="st20" d="M268.51,318.41c3.54,7.15,7.08,14.31,10.62,21.46c-3.4,2.46-5.19,3.76-5.19,3.76l0,0
			c0,0-6.23-9.25-6.23-19.1C267.71,321.91,268.15,319.77,268.51,318.41z"/>
		<path class="st20" d="M293.75,293.68c5.21,6.05,10.41,12.1,15.62,18.15c-2.68,3.23-4.09,4.94-4.09,4.94l0,0
			c0,0-8.33-7.41-10.78-16.96C293.85,297.27,293.74,295.09,293.75,293.68z"/>
		<path class="st20" d="M221.45,283.71c2.13,2.57,7.92,10.28,7.21,20.54c-0.18,2.64-0.76,4.96-1.45,6.89
			c-7.05-15.3-11.58-25.13-11.58-25.13l0,0C215.64,286.01,215.83,285.93,221.45,283.71z"/>
		<path class="st20" d="M257.29,258.88c3.52,7.71,7.04,15.42,10.56,23.13c-1.63-1.26-3.75-3.06-5.94-5.47
			c-5.61-6.16-9.49-13.85-9.49-13.85l0,0C252.42,262.69,252.62,262.53,257.29,258.88z"/>
		<path class="st20" d="M294.93,229.16c2.87,6.28,5.74,12.56,8.6,18.84c-1.33-1.02-3.05-2.49-4.84-4.46
			c-4.57-5.02-7.73-11.28-7.73-11.28l0,0C290.97,232.26,291.13,232.13,294.93,229.16z"/>
	</g>
	<g>
		<g>
			<path class="st18" d="M186.67,248.45c-1.98,3.63-16.17-6.16-32.58,0.33c-6.65,2.63-9.84,6.42-11.65,5.05
				c-2.63-2,0-13.16,7.6-18.93c5.74-4.36,12.25-4.26,14.37-4.12C177.98,231.62,188.56,244.97,186.67,248.45z"/>
			<path class="st18" d="M201.08,244.05c3.67,1.91,9.98-14.14,27.21-17.92c6.99-1.53,11.75-0.16,12.48-2.31
				c1.07-3.13-7.35-10.92-16.88-11.46c-7.2-0.41-12.54,3.31-14.22,4.6C198.9,225.23,197.57,242.23,201.08,244.05z"/>
			<path class="st26" d="M251.67,189.28c-3.85-6.95-13.76-8.6-16.5-9.05c-4.54-0.75-9.81-0.46-11.02-0.82
				c-15.38-4.6-27.54-14.59-27.54-14.59c-21.62-17.76-23.84-30.99-33.67-32.97c-1.18-0.24-1.8-0.09-2.44,0.21
				c-0.53,0.25-2.62,0.88-3.19,0.97c-0.7,0.11-1.29,0.34-2.14,1.19c-7.05,7.13-1.51,19.34-9.53,46.15c0,0-4.51,15.07-14.7,27.48
				c-0.81,0.98-5.34,3.68-8.69,6.84c-2.02,1.91-9.33,8.8-8.64,16.72c0.4,4.58,3.58,7.65,9.93,13.78c7.25,7,12.41,11.97,16.54,10.61
				c5.98-1.97,1.9-14.57,9.96-20.91c6.92-5.45,18.99-3.29,26.47,1.21c5.9,3.55,5.74,11,13.16,14.12c2.12,0.89,4.11,1.71,5.52,1.27
				c1.42-0.42,2.61-2.21,3.87-4.13c4.41-6.73,0.12-12.83,3.03-19.07c3.7-7.91,12.5-16.44,21.29-15.79
				c10.22,0.76,13.88,13.48,19.94,11.78c4.19-1.18,5.69-8.18,7.8-18.04C252.97,197.63,253.9,193.31,251.67,189.28z"/>
			<path class="st11" d="M157.3,133.03c-0.7,0.11-1.29,0.34-2.14,1.19c-7.05,7.13-1.51,19.34-9.53,46.15c0,0-4.51,15.07-14.7,27.48
				c-0.81,0.98-5.34,3.68-8.69,6.84c-2.02,1.91-9.33,8.8-8.64,16.72c0.4,4.58,3.58,7.65,9.93,13.78c7.25,7,12.41,11.97,16.54,10.61
				c5.98-1.97,1.9-14.57,9.96-20.91c6.92-5.45,18.99-3.29,26.47,1.21c5.9,3.55,5.74,11,13.16,14.12c2.12,0.89,4.11,1.71,5.52,1.27
				l-36.28-118.89C158.26,132.81,157.59,132.99,157.3,133.03z"/>
			<path class="st27" d="M138.78,254.37c0,0-20.41-22.94-14.22-39.95c-1.62,0.95-6.19,3.81-8.89,8.44
				c-0.01,0.02-0.03,0.05-0.04,0.07c-0.07,0.12-0.13,0.24-0.19,0.36c-0.61,1.19-1.12,2.46-1.46,3.79c0,0.02-0.01,0.04-0.01,0.06
				c-0.08,0.34-0.15,0.7-0.21,1.05c-0.22,1.49-0.18,3.02,0.07,4.57c0.87,3.88,4.01,6.92,9.71,12.42c2.65,2.56,5.01,4.84,7.16,6.64
				C133.17,252.92,135.86,253.79,138.78,254.37z"/>
		</g>
		<g>
			<path class="st11" d="M159.03,134.34l-0.12-0.09c0,0,0.23,1.04,0.68,2.8C159.41,136.26,159.22,135.35,159.03,134.34z"/>
			<path class="st11" d="M197.1,181.18c-14.51,1.38-28.6-17.79-34.93-35.28c5.62,17.21,18.61,46.11,39.95,34.01
				C200.5,180.59,198.82,181.02,197.1,181.18z"/>
		</g>
		<path class="st10" d="M229.9,186.9c0,0-6.03,6.11-4.24,11.96c0,0,6.04,4.56,9.14,4.08c0,0,6.18-2.36,5.39-8.28
			C240.18,194.66,236.28,186.61,229.9,186.9z"/>
	</g>
	<g>
		<path class="st28" d="M91.96,137.72c-1.64,0.31-6.87,1.06-12.35-1.84c-4.12-2.18-6.33-5.34-7.26-6.86
			c-1.02-1.29-3.27-4.48-3.84-9.19c-0.59-4.93,0.99-8.7,1.71-10.17c0.42-0.33,1.24-0.9,1.7-0.64c0.55,0.31,0.49,1.73-0.2,3.55
			c-0.13,0.57-2.26,10.39,4.45,16.75c3.32,3.15,7.21,3.94,8.98,4.19c3.45,0.02,6.91,0.03,10.36,0.05L91.96,137.72z"/>
		<path class="st28" d="M96.01,116.99c-0.67-0.25-7.33-2.81-9.06-9.58c-0.93-3.65,0.03-6.74,0.53-8.06
			c0.61-1.77,2.13-5.29,5.68-8.02c1.41-1.08,2.8-1.78,3.95-2.24c0.54,0,1.53,0.07,1.73,0.56c0.23,0.58-0.69,1.65-2.37,2.66
			c-6.91,4.48-8.61,12.38-5.65,16.76c2.74,4.04,8.72,3.99,9.34,3.97c-0.44,1.16-0.88,2.31-1.32,3.47
			C97.91,116.67,96.96,116.83,96.01,116.99z"/>
		<path class="st28" d="M119.61,107.81c-0.56-0.45-6.05-5-5.53-11.97c0.28-3.75,2.18-6.38,3.08-7.47c1.15-1.48,3.71-4.33,7.94-5.79
			c1.68-0.58,3.22-0.8,4.46-0.86c0.51,0.17,1.43,0.55,1.46,1.08c0.04,0.63-1.18,1.35-3.09,1.77c-7.98,2.04-12.11,8.99-10.7,14.08
			c1.3,4.7,6.99,6.56,7.58,6.75c-0.79,0.96-1.57,1.91-2.36,2.87C121.51,108.11,120.56,107.96,119.61,107.81z"/>
		<path class="st29" d="M160.8,139.04c6.59,18.27,7.2,47.59-7.27,55.44c-16.39,8.9-46.91-10.64-57.05-35.82
			c-6.79-16.85-7.38-43.13,7.13-52.24c10.55-6.63,24.52-1.29,28.35,0.17C151.84,114.19,159.07,134.24,160.8,139.04z"/>
		<path class="st18" d="M154.53,150.7c4.5-2.42,5.4-9.88,4.38-16.46c-2.08-4.76-5.74-11.65-11.77-17.69
			c-0.35-0.16-0.7-0.32-1.07-0.45c-1.53-0.57-7.12-2.64-11.37,0c-5.84,3.62-5.66,13.99-2.97,20.62
			C135.74,146.62,147.93,154.25,154.53,150.7z"/>
		<path class="st30" d="M154.65,146.88c3.7-2,4.57-8,3.87-13.52c-2.11-4.65-5.63-10.99-11.19-16.62c-0.02-0.01-0.04-0.02-0.06-0.03
			c-1.33-0.5-6.16-2.32-9.83-0.03c-5.04,3.14-4.86,12.17-2.52,17.95C138.41,143.28,148.96,149.96,154.65,146.88z"/>
		<path class="st18" d="M155.25,142.42c2.65-1.54,3.04-6.57,2.28-11.13c-2.03-4.1-5.04-9.07-9.35-13.67
			c-1.48-0.58-4.08-1.3-6.09,0.07c-3.49,2.37-3.09,9.61-1.25,14.31C143.58,139.04,151.3,144.71,155.25,142.42z"/>
		<path class="st31" d="M160.75,160.49c-2.09,2.25-5.56,5.3-10.52,6.73c-10.14,2.93-19.54-2.95-27.11-7.84
			c-15.72-10.15-25.07-24.11-30.42-34.55c-2.02,10.97-0.18,24,3.78,33.83c10.14,25.18,40.66,44.72,57.05,35.82
			c0.33-0.18,0.64-0.38,0.96-0.58c1.65-1.16,3.12-2.51,4.35-4.03c0.08-0.1,0.16-0.19,0.23-0.29c0.13-0.17,0.25-0.35,0.37-0.52
			c0.97-1.39,1.81-2.95,2.52-4.63C164.75,177.4,164.19,168.58,160.75,160.49z"/>
		<path class="st32" d="M150.85,189.26c-10.27,2.73-19.44-2.94-27.11-7.84c-15.67-10.01-25.03-23.93-30.42-34.55
			c-0.04,0.24-0.06,0.46-0.1,0.7c0.79,3.93,1.9,7.7,3.26,11.09c10.14,25.18,40.66,44.72,57.05,35.82c0.33-0.18,0.64-0.38,0.96-0.58
			c1.65-1.16,3.12-2.51,4.35-4.03c0.08-0.1,0.16-0.19,0.23-0.29c0.13-0.17,0.25-0.35,0.37-0.52c0.97-1.39,1.81-2.95,2.52-4.63
			c0.36-0.92,0.67-1.87,0.92-2.85C160.61,184.1,156.63,187.73,150.85,189.26z"/>
		<path class="st33" d="M153.39,124.17c-0.91-1.34-1.92-2.7-3.03-4.05c-0.45-0.05-0.91-0.01-1.36,0.13
			c-1.82,0.56-2.85,2.49-2.29,4.31s2.49,2.85,4.31,2.29C152.29,126.47,153.16,125.4,153.39,124.17z"/>
	</g>
	<g>
		<path class="st28" d="M201.64,84.96c0.42-0.58,4.52-6.43,2.17-13.01c-1.27-3.54-3.79-5.57-4.94-6.39c-1.5-1.12-4.72-3.2-9.19-3.48
			c-1.77-0.11-3.31,0.08-4.53,0.35c-0.45,0.3-1.23,0.91-1.12,1.43c0.13,0.61,1.5,0.99,3.45,0.89c8.23-0.14,14.06,5.47,14.04,10.75
			c-0.02,4.88-5.01,8.18-5.53,8.51c1.01,0.71,2.02,1.43,3.03,2.14C199.89,85.75,200.77,85.36,201.64,84.96z"/>
		<path class="st28" d="M176.94,90.52c0.21-0.69,2.23-7.53-2.1-13.02c-2.33-2.95-5.37-4.07-6.72-4.48
			c-1.78-0.59-5.49-1.53-9.82-0.37c-1.71,0.46-3.11,1.14-4.18,1.78c-0.33,0.43-0.88,1.25-0.61,1.71c0.32,0.54,1.73,0.46,3.55-0.26
			c7.76-2.76,15.07,0.69,16.74,5.71c1.54,4.63-2.14,9.35-2.52,9.83c1.19,0.35,2.37,0.71,3.56,1.06
			C175.53,91.83,176.23,91.18,176.94,90.52z"/>
		<path class="st33" d="M160.12,139.25c4.74,18.83,20.6,43.5,36.99,41.94c18.56-1.77,32.98-35.01,27.33-61.57
			c-3.78-17.77-17.96-39.91-35.08-39.36c-12.46,0.4-21.06,12.62-23.43,15.97C153.68,113.63,158.87,134.3,160.12,139.25z"/>
		<path class="st7" d="M225.66,131.23c-1.47,2.35-10.28,15.9-26.82,18.54c-15.31,2.44-31.34-5.42-40.48-19.95
			c0.5,4.41,1.35,7.79,1.76,9.43c4.74,18.83,20.6,43.5,36.99,41.94C213.03,179.67,225.89,154.98,225.66,131.23z"/>
		<path class="st28" d="M216.58,99.89c1.53-0.66,6.29-2.95,9.22-8.42c2.2-4.11,2.27-7.97,2.19-9.75c0.13-1.64,0.21-5.54-1.95-9.77
			c-2.26-4.42-5.68-6.67-7.1-7.49c-0.54-0.04-1.53-0.05-1.76,0.42c-0.28,0.56,0.56,1.7,2.15,2.84c0.43,0.4,7.68,7.36,5.66,16.38
			c-1,4.46-3.78,7.3-5.11,8.49c-2.86,1.94-5.71,3.88-8.57,5.82L216.58,99.89z"/>
		<path class="st28" d="M171.84,145.42c-5.08,0.5-10-5.18-12.83-11.21c-0.93-5.11-1.74-12.87-0.11-21.25
			c0.2-0.33,0.4-0.65,0.63-0.97c0.96-1.33,4.43-6.17,9.43-6.35c6.87-0.25,12.5,8.44,13.98,15.44
			C185.14,131.54,179.29,144.68,171.84,145.42z"/>
		<path class="st33" d="M169.6,142.32c-4.19,0.41-8.26-4.08-10.76-9.06c-0.85-5.04-1.46-12.26,0.01-20.04
			c0.01-0.02,0.02-0.04,0.04-0.05c0.82-1.16,3.82-5.36,8.13-5.51c5.93-0.2,10.83,7.39,12.12,13.49
			C181.06,130.26,176.04,141.7,169.6,142.32z"/>
		<path class="st28" d="M166.61,138.95c-3.06,0.21-6.18-3.75-8.1-7.96c-0.6-4.54-0.88-10.34,0.13-16.56c0.9-1.3,2.66-3.35,5.09-3.35
			c4.22,0.02,7.93,6.25,9.03,11.18C174.4,129.63,171.17,138.65,166.61,138.95z"/>
		<path class="st34" d="M160.63,141.15c-0.99,0.65,14.48,42.13,36.47,40.03c4.8-0.46,9.33-3.03,13.3-7.05
			c-2.28,0.33-6.17,0.7-10.81,0C174.48,170.35,161.48,140.59,160.63,141.15z"/>
		<circle class="st33" cx="167.55" cy="117.86" r="3.33"/>
	</g>
	<g>
		<g>
			<path class="st26" d="M356.55,107.31c1.83,2.49,5.03,6.92,7.04,13.5c0,0,0,0,0,0c2.48,8.13,3.92,14.83,4.18,16.56
				c1,6.53-4.27,10.97-21.34,33.78c-3.16,4.22-5.67,7.67-7.17,9.74c-0.46,1.77-1.1,4.49-1.66,7.88c-0.57,3.48-0.38,3.99-0.98,4.51
				c-4.78,4.19-22.08-3.31-23.01-12.25c-0.03-0.29-0.05-0.55-0.03-0.82c0.22-4.85,2.32-8.41,2.95-9.44
				c3.88-6.37,0.12-13.37,3.69-21.33c1.6-3.56,5.04-8.14,13.33-11.9c-1.36-16.25-33.66-53.82-58.2-57.03
				c-4.75-0.62-8.64-0.2-10.57,0.08c0,0,0-0.01,0-0.03c1.46-10.79,11.51-25.34,11.51-25.34c0,0,0.04,0.02,0.04,0.02
				c43.6,20.96,48.25,20.65,59.15,29.11C335.49,84.32,345.17,91.84,356.55,107.31z"/>
			<path class="st26" d="M258.27,41.69c3.56,5.18,5.44,7.91,9.15,10.4c7.39,4.96,11.39,1.93,16.29,6.16
				c5.49,4.74,7.68,15.35,3.75,20.01c-5.45,6.46-19.13-2.74-28.02,5.12c-3.38,2.99-2.34,4.47-6.57,11.14
				c-1.43,2.25-7.45,10.95-15.77,13.05c-15.83,3.99-33.5-17.54-34.45-25.2c-0.07-0.59-0.34-3.41-1.58-6.97
				c-0.73-2.08-1.59-3.79-2.19-4.87c-0.32-0.58-0.57-0.99-0.63-1.09c-5.37-8.98-4.46-18.5-4.46-18.5c0.96-4.53,2.35-8.08,3.48-10.52
				c2.66-5.77,6.56-14.2,14.44-17.4c3.73-1.52,5.36-0.64,7.29-2.72c3.55-3.83,1.84-10.94,3.81-11.33c0.24-0.05,0.98,0.33,2.47,1.09
				c1.06,0.54,1.59,0.81,2.57,1.39c4.24,2.52,13.15,3.46,18.98,9.6C252.38,26.92,250.35,30.17,258.27,41.69z"/>
			<g>
				<path class="st11" d="M192.75,43.88c-0.63,0.38-1.19,0.67-1.73,0.92c1.86-0.19,3.76-0.65,5.66-1.58c0-0.01,0.01-0.02,0.01-0.02
					c1.1-2.21,2.53-3.91,2.29-4.11C198.67,38.83,196.6,41.57,192.75,43.88z"/>
				<path class="st11" d="M163.85,65.41c-0.29-0.55-0.59-1.17-0.9-1.88c0.34-0.25,0.67-0.51,0.95-0.81c1.76-1.88,1.03-3.6,2.98-8.37
					c-2.82,0.6-4.74,0.78-4.8,0.58c0,0,0,0,0,0c-0.04,0-6.83-0.38-11.72,2.09c-0.26,0.55-0.49,1.12-0.65,1.7
					c-0.95,1.7-1.18,2.63-0.66,3.64c0.09,0.17,0.21,0.32,0.32,0.48c0.57,5.5,4.76,10.26,4.97,10.5c0.18,0.2,0.39,0.43,0.64,0.69
					c1.66-3.03,1.6-4.2,2.8-5.52C159.52,66.59,161.51,65.8,163.85,65.41z"/>
			</g>
			<path class="st11" d="M222.05,64.91c-5.4,5.93-7.85,12.68-7.85,12.68c-0.62,1.4-1.35,3.3-1.94,5.62c0,0,0,0,0,0
				c0,0-0.7,4.06-1.06,7.33c-1.57,14.28,5.37,19.42,5.37,19.42c4.78,3.55,12.42,3.5,17,0.45c0,0,0.13-0.09,0.28-0.19
				c6.83-4.76,10.56-20.99,10.89-33.5c0.5-19.11-0.68-20.61-1.77-21.33C238.14,52.19,227.49,58.94,222.05,64.91z"/>
			<path class="st26" d="M228.11,62.78c-7.64,8.39-9.97,19.97-10.32,19.85c-0.21-0.08,1.94-3.99,0.45-6.03
				c-1.96-2.69-10.2-2.12-13.81,2.1c-5.05,5.92-0.18,18.08,5.29,24.73c1.89,2.3,5.73,6.84,12.5,8.53c0.97,0.24,10.46,2.47,17.89-3.4
				c4.98-3.93,6.26-9.32,8.02-16.7c0.33-1.4,1.04-4.63,1.39-17.94c0.47-18.05-0.65-19.46-1.67-20.14
				C243.53,50.92,233.84,56.48,228.11,62.78z"/>
			<path class="st35" d="M228.11,62.78c-5.1,5.6-7.41,11.97-7.41,11.97c-0.77,2.11-1.29,4.26-2.9,7.88
				c-1.72,3.85-2.72,4.99-3.48,6.66c-2.42,5.33-1.89,15.01,4.55,20.12c6.51,5.16,15.97,3.17,21.26-0.84
				c4.94-3.74,6.24-9.24,8.02-16.7c0.33-1.4,1.04-4.63,1.39-17.94c0.47-18.05-0.65-19.46-1.67-20.14
				C243.31,50.77,233.25,57.14,228.11,62.78z"/>
			<path class="st11" d="M195.44,50.43c-1.06,0.02-0.9,3.77-2.6,7.56c-3.19,7.1-11.35,10.89-17.52,13.75
				c-3.93,1.82-9.01,3.74-11.43,8.44c-0.33,0.63-0.54,1.28-0.67,1.64c-1.3,3.82-0.05,5.73-0.05,11.46c0,2.42-0.22,2.81-0.08,5.11
				c0,0.01,0,0.01,0,0.02c-0.55,2.59,0.1,7.06,2.29,10.46c3,4.68,8.59,6.92,11.02,7.08c0.35,0.02,2.07,0.11,4.3,0.57
				c0.69,0.14,1.31,0.3,1.88,0.46c2.16,0.62,3.76,1.3,4.26,1.52c4.78,2.04,7.16,3.07,8.04,2.32c1.89-1.6-1.95-11.01-7.65-14.17
				c-0.46-0.25-1.32-0.75-2.35-1.13c-2.3-0.84-4.02-0.7-7.63-2.16c-0.36-1.28-0.84-2.9-1.19-5.02c-0.28-1.73-0.34-3.04-0.39-4.24
				c-0.17-3.68-0.26-5.51,0.34-7.14c0.72-1.96,2.01-3.08,3.54-4.41c1.23-1.07,2.33-1.76,3.32-2.24c2.58-1.25,8.65-4.71,11.11-5.64
				c0.84-0.32,7.25-1.57,9.05,1.12c1.52,2.28-1.06,6.22-0.39,6.56c0.5,0.26,2.87-1.54,3.47-4.19c1.15-5.19-5.69-7.65-7.15-16.15
				c-0.21-1.21-0.33-2.69-0.95-5.25C197.38,54.23,196.46,50.41,195.44,50.43z"/>
			<path class="st26" d="M193.78,50.94c-1.06,0.02-0.9,3.77-2.6,7.56c-3.19,7.1-11.35,10.89-17.52,13.75
				c-3.93,1.82-9.01,3.74-11.43,8.44c-0.33,0.63-0.54,1.28-0.67,1.64c-1.3,3.82-0.05,5.73-0.05,11.46c0,2.42-0.22,2.81-0.08,5.11
				c0,0.01,0,0.01,0,0.02c-0.55,2.59,0.1,7.06,2.29,10.46c3,4.68,8.59,6.92,11.02,7.08c0.35,0.02,2.07,0.11,4.3,0.57
				c2.73,0.57,4.32,1.31,6.14,1.98c3.82,1.4,8.57,3.14,9.71,1.81c1.49-1.74-2.5-9.66-9.32-13.66c-3.77-2.21-5.26-1.38-9.98-3.29
				c-0.57-2.03-1.45-4.89-1.58-9.25c-0.12-4.07-0.15-6.09,0.81-8.3c0.01-0.03,0.14-0.31,0.3-0.62c2.04-3.9,6.15-5.75,12.23-9.03
				c5.71-3.09,5.61-3.37,6.79-3.42c2.46-0.1,5.68,0.74,7.23,3.07c1.73,2.6,0.67,5.95,1.27,6.06c0.44,0.08,1.53-1.62,1.8-3.69
				c0.76-5.77-5.73-7.91-7.15-16.15c-0.21-1.21-0.33-2.69-0.95-5.25C195.72,54.73,194.8,50.92,193.78,50.94z"/>
			<g>
				<path class="st11" d="M199.02,43.7c1.1-2.21,2.53-3.91,2.29-4.11c-0.3-0.25-2.37,2.49-6.23,4.8c-1.82,1.09-3.03,1.48-5.02,2.26
					c-6.03,2.38-6,3.19-10.81,5.15c-7.34,2.97-14.69,4.03-14.81,3.64c0,0,0,0,0,0c-0.04,0-9.18-0.52-13.89,3.5
					c-0.66,0.57-1.25,1.28-1.25,1.28c-2.56,2.95-3.03,5.8-3.91,8.47c-1.45,4.42-2.41,3.44-4.9,9.26c-0.01,0.02-0.01,0.03-0.02,0.05
					c-1.27,1.75-2.25,3.94-2.46,6.16c-0.01,0.12-0.01,0.24-0.01,0.37c-0.32,1.33-0.3,2.33,0.23,2.95c1.14,5.38,5.73,9.67,5.97,9.88
					c0.64,0.58,1.72,1.45,3.11,3.02c0.47,0.53,0.87,1.02,1.23,1.49c1.36,1.78,2.52,3.76,2.52,3.76c2.6,4.49,3.91,6.73,4.38,6.74
					c2.5,0.03,5.14-11.14,3-16.02c-0.55-1.25-1.21-2.31-1.21-2.31c-1.52-2.31-3.19-3.16-5.66-7.72c-0.49-0.91-0.91-1.77-1.27-2.58
					c0.55-0.44,1.08-0.91,1.55-1.38c1.76-1.77,3.08-3.85,4.38-5.91c2.85-4.52,2.5-5.86,3.93-7.43c5.26-5.82,12.79-1.34,26.19-6.34
					c7.23-2.7,9.73-5.99,10.29-6.77C198.9,52.68,196.39,49.01,199.02,43.7z"/>
				<path class="st26" d="M196.69,43.2c1.1-2.21,2.53-3.91,2.29-4.11c-0.3-0.25-2.37,2.49-6.23,4.8c-1.82,1.09-3.03,1.48-5.02,2.26
					c-6.03,2.38-6,3.19-10.81,5.15c-7.34,2.97-14.69,4.03-14.81,3.64c0,0,0,0,0,0c-0.04,0-9.18-0.52-13.89,3.5
					c-0.66,0.57-1.25,1.28-1.25,1.28c-2.56,2.95-3.03,5.8-3.91,8.47c-1.45,4.42-2.41,3.44-4.9,9.26c-0.01,0.02-0.01,0.03-0.02,0.05
					c-1.27,1.75-2.25,3.94-2.46,6.16c-0.01,0.12-0.01,0.24-0.01,0.37c-0.32,1.33-0.3,2.33,0.23,2.95c1.14,5.38,5.73,9.67,5.97,9.88
					c0.64,0.58,1.72,1.45,3.11,3.02c1.85,2.09,2.68,3.63,3.75,5.25c2.23,3.4,5.01,7.63,6.71,7.24c2.23-0.51,3.76-9.25,0.66-16.53
					c-1.88-4.43-3.74-4.23-6.88-10.03c-0.49-0.91-0.91-1.77-1.27-2.58c0.55-0.44,1.08-0.91,1.55-1.38c1.76-1.77,3.08-3.85,4.38-5.91
					c2.85-4.52,2.5-5.86,3.93-7.43c5.26-5.82,12.79-1.34,26.19-6.34c7.23-2.7,9.73-5.99,10.29-6.77
					C196.57,52.18,194.05,48.51,196.69,43.2z"/>
			</g>
			<path class="st11" d="M199.02,43.7c1.1-2.21,2.53-3.91,2.29-4.11c-0.3-0.25-2.37,2.49-6.23,4.8c-1.82,1.09-3.03,1.48-5.02,2.26
				c-6.03,2.38-6,3.19-10.81,5.15c-7.34,2.97-14.69,4.03-14.81,3.64c0,0,0,0,0,0c-0.04,0-9.18-0.52-13.89,3.5
				c-0.66,0.57-1.25,1.28-1.25,1.28c-2.56,2.95-3.03,5.8-3.91,8.47c-1.45,4.42-2.41,3.44-4.9,9.26c-0.01,0.02-0.01,0.03-0.02,0.05
				c-1.27,1.75-2.25,3.94-2.46,6.16c-0.01,0.12-0.01,0.24-0.01,0.37c-0.32,1.33-0.3,2.33,0.23,2.95c1.14,5.38,5.73,9.67,5.97,9.88
				c0.64,0.58,1.72,1.45,3.11,3.02c0.47,0.53,0.87,1.02,1.23,1.49c1.36,1.78,2.52,3.76,2.52,3.76c2.6,4.49,3.91,6.73,4.38,6.74
				c2.5,0.03,5.14-11.14,3-16.02c-0.55-1.25-1.21-2.31-1.21-2.31c-1.52-2.31-3.19-3.16-5.66-7.72c-0.49-0.91-0.91-1.77-1.27-2.58
				c0.55-0.44,1.08-0.91,1.55-1.38c1.76-1.77,3.08-3.85,4.38-5.91c2.85-4.52,2.5-5.86,3.93-7.43c5.26-5.82,12.79-1.34,26.19-6.34
				c7.23-2.7,9.73-5.99,10.29-6.77C198.9,52.68,196.39,49.01,199.02,43.7z"/>
			<path class="st26" d="M196.69,43.2c1.1-2.21,2.53-3.91,2.29-4.11c-0.3-0.25-2.37,2.49-6.23,4.8c-1.82,1.09-3.03,1.48-5.02,2.26
				c-6.03,2.38-6,3.19-10.81,5.15c-7.34,2.97-14.69,4.03-14.81,3.64c0,0,0,0,0,0c-0.04,0-9.18-0.52-13.89,3.5
				c-0.66,0.57-1.25,1.28-1.25,1.28c-2.56,2.95-3.03,5.8-3.91,8.47c-1.45,4.42-2.41,3.44-4.9,9.26c-0.01,0.02-0.01,0.03-0.02,0.05
				c-1.27,1.75-2.25,3.94-2.46,6.16c-0.01,0.12-0.01,0.24-0.01,0.37c-0.32,1.33-0.3,2.33,0.23,2.95c1.14,5.38,5.73,9.67,5.97,9.88
				c0.64,0.58,1.72,1.45,3.11,3.02c1.85,2.09,2.68,3.63,3.75,5.25c2.23,3.4,5.01,7.63,6.71,7.24c2.23-0.51,3.76-9.25,0.66-16.53
				c-1.88-4.43-3.74-4.23-6.88-10.03c-0.49-0.91-0.91-1.77-1.27-2.58c0.55-0.44,1.08-0.91,1.55-1.38c1.76-1.77,3.08-3.85,4.38-5.91
				c2.85-4.52,2.5-5.86,3.93-7.43c5.26-5.82,12.79-1.34,26.19-6.34c7.23-2.7,9.73-5.99,10.29-6.77
				C196.57,52.18,194.05,48.51,196.69,43.2z"/>
			<g>
				<path class="st11" d="M225.54,22.24c-0.14-0.6-8.29,0.6-15.63,2.35c-8.31,1.98-12.24,3.46-16.02,4.88
					c-8.01,3.01-9.67,4.72-15.07,4.07c-2.07-0.25-8.94-1.24-13.73,2.12c-2.59,1.82-2.87,3.51-6.57,10.49
					c-1.48,2.78-2.75,4.99-3.83,6.81c-1.47,1.48-2.75,3.45-3.37,5.58c-0.95,1.7-1.18,2.63-0.66,3.64c0.09,0.17,0.21,0.32,0.32,0.48
					c0.57,5.5,4.76,10.26,4.97,10.5c0.58,0.64,1.57,1.62,2.8,3.32c1.64,2.26,2.31,3.87,3.21,5.59c1.88,3.6,4.23,8.09,5.96,7.87
					c2.27-0.29,4.65-8.83,2.29-16.38c-1.4-4.48-3.2-4.59-5.65-10.2c0.34-0.25,0.67-0.51,0.95-0.81c1.88-2.01,0.9-3.85,3.46-9.47
					c0.73-1.59,2.22-4.76,4.47-6.82c6.3-5.77,16.05,1.96,25.86-3.76c1.06-0.61,2.13-1.4,4.24-3.03
					c9.24-7.19,10.43-12.06,17.96-15.48C223.81,22.93,225.61,22.53,225.54,22.24z"/>
				<path class="st26" d="M224.86,20.03c-0.14-0.6-8.29,0.6-15.63,2.35c-8.31,1.98-12.24,3.46-16.02,4.88
					c-8.01,3.01-9.67,4.72-15.07,4.07c-2.07-0.25-8.94-1.24-13.73,2.12c-2.59,1.82-2.87,3.51-6.57,10.49
					c-1.48,2.78-2.75,4.99-3.83,6.81c-1.47,1.48-2.75,3.45-3.37,5.58c-0.95,1.7-1.18,2.63-0.66,3.64c0.09,0.17,0.21,0.32,0.32,0.48
					c0.57,5.5,4.76,10.26,4.97,10.5c0.58,0.64,1.57,1.62,2.8,3.32c1.64,2.26,2.31,3.87,3.21,5.59c1.88,3.6,4.23,8.09,5.96,7.87
					c2.27-0.29,4.65-8.83,2.29-16.38c-1.4-4.48-3.2-4.59-5.65-10.2c0.34-0.25,0.67-0.51,0.95-0.81c1.88-2.01,0.9-3.85,3.46-9.47
					c0.73-1.59,2.22-4.76,4.47-6.82c6.3-5.77,16.05,1.96,25.86-3.76c1.06-0.61,2.13-1.4,4.24-3.03
					c9.24-7.19,10.43-12.06,17.96-15.48C223.13,20.72,224.93,20.31,224.86,20.03z"/>
			</g>
			<path class="st11" d="M209.07,8.52c-6.88,0.67-11.88,3.65-21.89,9.6c-1.35,0.8-2.61,1.55-3.79,2.27
				c-2.89-0.05-7.52,3.04-9.29,7.14c-0.3,0.51-0.48,1.01-0.5,1.5c-1.55,5.98,2.2,12.65,2.37,12.95c0.43,0.75,1.19,1.91,2.04,3.83
				c0.29,0.65,0.52,1.24,0.72,1.79c0.74,2.07,1.25,4.35,1.25,4.35c1.1,4.93,1.64,7.4,2.63,7.67c2.51,0.68,7.77-9.06,7.23-14.27
				c-0.14-1.36-0.45-2.57-0.45-2.57c-0.74-2.66-2.08-3.98-3.04-9.08c4.45-1.1,4.45-3.87,10.2-7.25c6.54-3.84,13.64-4.42,16.39-4.51
				c6.86-0.24,9.81,1.73,13.5-0.65c1.87-1.2,4.34-3.78,3.91-6.19C229.53,10.52,218.33,7.62,209.07,8.52z"/>
			<path class="st35" d="M207.51,7.25c-6.88,0.67-11.88,3.65-21.89,9.6c-1.35,0.8-2.61,1.55-3.79,2.27
				c-2.89-0.05-7.52,3.04-9.29,7.14c-0.3,0.51-0.48,1.01-0.5,1.5c-1.55,5.98,2.2,12.65,2.37,12.95c0.43,0.75,1.19,1.91,2.04,3.83
				c1.13,2.55,1.45,4.27,1.97,6.14c1.09,3.92,2.45,8.8,4.19,8.94c2.28,0.19,6.39-7.67,5.66-15.54c-0.44-4.8-2.27-5.16-3.5-11.64
				c4.45-1.1,4.45-3.87,10.2-7.25c6.54-3.84,13.64-4.42,16.39-4.51c6.86-0.24,9.81,1.73,13.5-0.65c1.87-1.2,4.34-3.78,3.91-6.19
				C227.97,9.25,216.77,6.35,207.51,7.25z"/>
			<path class="st35" d="M233.05,16.2c0,0-0.71,6.6-4.16,7.6c4.02,2.54,8.26,5.52,12.58,9c9.95,8.01,17.48,16.39,23.08,23.72
				c-2.73-3.24-4.62-6.12-5.84-8.16c-1.89-3.16-3.27-6.14-6.03-12.1c-2.48-5.36-2.49-5.73-3.61-7.53c-1.33-2.15-3.23-5.15-6.74-7.91
				C239.01,18.21,235.61,16.89,233.05,16.2z"/>
			<path class="st35" d="M253.01,40.9c1.9,3.21,6.08,9.27,13.74,13.8c5.36,3.17,10.41,4.41,13.73,4.93c0,0,5.15,4.22,2.35,10.86
				c-3.23-1.75-6.71-3.95-10.26-6.72C262.75,56.11,256.66,47.38,253.01,40.9z"/>
			<path class="st11" d="M214.66,106.1c0,0-7.99-10.51,1.89-22.86C216.55,83.24,202.52,93.47,214.66,106.1z"/>
			<path class="st11" d="M149.72,82.35l-0.31,2.48c-0.74-0.22-1.54-0.53-2.37-0.97c-3.54-1.88-5.34-4.95-6.14-6.61
				c0.21,0.51,1.75,4.09,5.42,5.04C147.7,82.65,148.91,82.52,149.72,82.35z"/>
			<path class="st11" d="M175.91,102.47l1.36,2.09c-0.71,0.31-1.52,0.59-2.43,0.78c-3.92,0.84-7.28-0.36-8.95-1.11
				c0.49,0.26,3.97,2.01,7.39,0.38C174.56,104,175.41,103.12,175.91,102.47z"/>
			<path class="st11" d="M164.19,60.9c0.08,0.02,0.59,0.12,0.85,0.58c0.26,0.46,0.17,1.08-0.23,1.52c-0.55,0.14-1.47,0.29-2.55,0.08
				c-2.21-0.42-3.56-2.02-3.51-2.1c0.05-0.07,0.89,0.81,2.21,0.96C162.19,62.09,163.32,61.53,164.19,60.9z"/>
			<path class="st11" d="M187.19,32.18c0.03,0.08,0.23,0.55,0.01,1.03c-0.23,0.47-0.78,0.76-1.38,0.68
				c-0.43-0.37-1.08-1.04-1.53-2.05c-0.92-2.05-0.38-4.08-0.28-4.07c0.08,0-0.16,1.19,0.47,2.36
				C185.08,31.22,186.18,31.82,187.19,32.18z"/>
			<path class="st11" d="M208.14,20.39c-0.01,0.11-0.05,0.76-0.55,1.26c-0.5,0.5-1.26,0.64-1.85,0.32c-0.26-0.61-0.6-1.67-0.55-3.08
				c0.11-2.85,1.79-5.13,1.89-5.1c0.09,0.03-0.81,1.4-0.76,3.07C206.37,18.43,207.24,19.58,208.14,20.39z"/>
			<polygon class="st11" points="166.02,65.15 163.87,61.14 164.19,60.9 166.53,65.11 			"/>
			<path class="st11" d="M164.19,64.26c0,0,6.12,7.41,5.44,10.99L164.19,64.26z"/>
			<path class="st36" d="M229.14,77.77c0,0,5.28-17.3,12.72-18.67c7.43-1.37,6.33,6.36,6.33,6.36l-1.96,18.15
				C246.23,83.61,236.4,75.93,229.14,77.77z"/>
			<path class="st37" d="M229.14,77.77L229.14,77.77c0,0,4.36-2.89,8.91-2.8c1.04,0.02,3.35,0.07,5.34,1.69
				c2.94,2.39,2.86,6.34,2.84,6.95l0,0C246.23,83.61,236.4,75.93,229.14,77.77z"/>
			<path class="st11" d="M247.85,59.42c0.52,6.92,0.83,13.01,1.03,18.06c0.31,7.76,0.27,11.21-0.9,15.48
				c-1.11,4.07-2.79,7.2-4.06,9.24c-0.16,0.54-0.47,1.22-0.92,1.95c-0.64,1.03-1.63,2.16-3.06,2.58c2.64-5.65,5.67-13.7,7.28-23.71
				C248.73,73.56,248.48,65.42,247.85,59.42z"/>
			<path class="st36" d="M182.04,112.6c0.12,4.46-1.01,4.94-1.01,4.94c0,0,0,0,0,0c1.61,0.47,2.81,0.99,4.14,1.48
				c1.83,0.67,3.88,1.42,5.65,1.88c0.6,0.14,0.99,0.22,1.09,0.25c0.02,0,0.04,0.01,0.05,0.01
				C190.32,114.68,182.04,112.6,182.04,112.6z"/>
			<path class="st37" d="M182.04,112.6c0.12,4.46-1.01,4.94-1.01,4.94c0,0,0,0,0,0c0.22,0.07,0.45,0.14,0.68,0.21
				c0.66,0.21,1.3,0.43,1.91,0.66c0.01-0.62-0.03-1.37-0.18-2.19C183.14,114.63,182.53,113.4,182.04,112.6z"/>
			<path class="st36" d="M150.66,97.35c-1.03,3.17-2.36,4.64-3.56,5.3c0.58,0.86,1.06,1.65,1.59,2.47c1.64,2.5,3.57,5.45,5.16,6.68
				C157.95,108.49,150.66,97.35,150.66,97.35z"/>
			<path class="st37" d="M147.11,102.65c0.58,0.86,1.06,1.65,1.59,2.47c0.06,0.09,0.12,0.18,0.18,0.27
				c1.65-2.25,1.79-8.04,1.79-8.04C149.63,100.52,148.3,101.99,147.11,102.65z"/>
			<path class="st36" d="M165.78,74.48c-2.23-0.44-4.67,0.79-6.33,1.92c0.73,1.25,1.23,2.33,1.82,3.46
				c1.34,2.56,2.92,5.57,4.34,7.01C168.61,86.68,165.78,74.48,165.78,74.48z"/>
			<path class="st37" d="M159.45,76.39c0.53,0.9,0.93,1.72,1.34,2.52c3.24,0.07,4.99-4.44,4.99-4.44
				C163.56,74.03,161.11,75.27,159.45,76.39z"/>
			<path class="st38" d="M182.12,44.81c-1.8,1.63-3.55,2.05-4.75,2.11c0.45,1.37,0.71,2.54,1.05,3.76c0.72,2.6,1.57,5.62,2.56,7.4
				C187.58,53.82,182.12,44.81,182.12,44.81z"/>
			<path class="st39" d="M177.37,46.92c0.19,0.57,0.34,1.09,0.48,1.6c3.17,0.56,4.28-3.71,4.28-3.71
				C180.32,46.44,178.58,46.86,177.37,46.92z"/>
		</g>
		<path class="st26" d="M337.26,181.46c-2.03-10.65-3.99-20.4-8.21-21.53c-4.28-1.14-8.05,3.73-12.5,10.8
			c0,0.01-0.01,0.02-0.01,0.02c-0.37,0.6-0.71,1.14-1.03,1.66c-1.59,2.57-3.27,5.36-5.09,8.23c-0.94,8.72,25.33,21.6,29.99,16.49
			c-0.38-1.78-0.73-3.49-1.06-5.11c-0.35-1.74-0.63-3.14-0.93-4.66c-0.29-1.49-0.47-2.4-0.53-2.71
			C337.53,182.87,337.28,181.59,337.26,181.46z"/>
		<path class="st11" d="M359.81,150.58c-6.23,0.88-9.57,1.35-9.57,1.35l0,0c0,0-6.28,6.97-17.99,19.95
			c-0.45,2.95-0.73,6.59-0.47,10.74c0.41,6.54,2.04,11.86,3.51,15.57c1.23,1.54,2.83,1.89,3.54,1.34c0.54-0.43,0.49-1.36,0.47-1.65
			c-0.22-2.46-0.09-3.7-1.16-6.5c0,0-1.72-4.52-0.87-9.92c0.62-3.9,2.91-6.49,4.48-8.3C346.43,167.72,352.34,160.23,359.81,150.58z"
			/>
		<path class="st40" d="M335.28,198.19c1.79,9.09,3.59,18.18,5.38,27.27c1.15,0.61,6.17,4.38,6.17,4.38
			c-1.53-5.49-3.01-11.23-4.41-17.22c-1.18-5.05-2.21-9.97-3.14-14.75C338.28,198.29,336.89,198.37,335.28,198.19z"/>
		<g>
			<path class="st11" d="M332.78,133.69C332.78,133.69,332.78,133.69,332.78,133.69c0.39,1.37,0.67,2.66,0.77,3.83
				c0,0,11.53-6.09,23.39-2.7C352.21,133.37,339.48,130.03,332.78,133.69z"/>
			<path class="st11" d="M356.94,134.82c0.73,0.22,1.26,0.4,1.56,0.5C357.98,135.13,357.46,134.97,356.94,134.82z"/>
			<path class="st11" d="M358.5,135.32c0.09,0.03,0.19,0.06,0.28,0.1C358.78,135.41,358.67,135.38,358.5,135.32z"/>
		</g>
		<path class="st11" d="M338.27,132.16c-1.6-3.94-4.39-10.17-8.86-17.21c-3-4.72-27.31-43.06-54.05-38.93
			c-2.51,0.39-6.19,1.33-10.48,3.94c-0.03,0.19-0.07,0.39-0.09,0.58c0,0.02,0,0.03,0,0.03c1.92-0.28,5.82-0.7,10.57-0.08
			c22.77,2.98,52.22,35.55,57.42,53.21l0,0c0.08-0.04,0.61-0.33,1.4-0.64C335.82,132.42,337.29,132.23,338.27,132.16z"/>
		<path class="st10" d="M328.7,144.41c0,0,6.36-9.74,17.16-6.21C345.86,138.2,332.13,143.74,328.7,144.41z"/>
	</g>
	<path class="st33" d="M101.37,110.26c0,0,16.53-13.6,34.55,3.02C135.92,113.28,109.71,105.07,101.37,110.26z"/>
</g>
<g id="レイヤー_5">
</g>
<g id="レイヤー_4">
</g>
<g id="レイヤー_3">
</g>
<g id="レイヤー_2">
</g>
<g id="レイヤー_6">
	<g id="レイヤー_7">
	</g>
</g>
</svg>
