<?xml version="1.0" encoding="utf-8"?>
<!-- Generator: Adobe Illustrator 24.0.3, SVG Export Plug-In . SVG Version: 6.00 Build 0)  -->
<svg version="1.1" id="レイヤー_1" xmlns="http://www.w3.org/2000/svg" xmlns:xlink="http://www.w3.org/1999/xlink" x="0px"
	 y="0px" viewBox="0 0 425.2 425.2" style="enable-background:new 0 0 425.2 425.2;" xml:space="preserve">
<style type="text/css">
	.st0{fill:url(#SVGID_1_);stroke:#000000;stroke-miterlimit:10;}
	.st1{clip-path:url(#SVGID_3_);}
	.st2{fill:#70C8DD;}
	.st3{fill:#65A2A3;}
	.st4{fill:#82CBCC;}
	.st5{fill:#7EC6C6;}
	.st6{fill:#F0F2F7;}
	.st7{fill:none;stroke:#000000;stroke-width:0.25;stroke-miterlimit:10;}
	.st8{fill:none;}
	.st9{fill:#F2DCCD;}
	.st10{fill:#D9B799;}
	.st11{fill:#C2A289;}
	.st12{fill:#B59680;}
	.st13{fill:#73172F;}
	.st14{fill:#65142D;}
	.st15{fill:#A80228;}
	.st16{fill:#5B0D27;}
	.st17{fill:#323333;}
	.st18{fill:#863156;}
	.st19{fill:#F1F9FE;}
	.st20{fill:#EAF6FD;}
	.st21{fill:#FCFEFF;}
	.st22{fill:#FFFFFF;}
	.st23{fill:#D8EFFC;}
	.st24{fill:#DFF2FC;}
	.st25{fill:#E6C6B0;}
	.st26{fill:#C8A68D;}
	.st27{fill:#323333;stroke:#000000;stroke-width:0.25;stroke-miterlimit:10;}
	.st28{fill:#F2F3F7;}
	.st29{fill:#F5F3F7;}
	.st30{fill:#EEF1F7;}
	.st31{fill:#E3E8F4;}
	.st32{fill:#F9F5F8;}
	.st33{fill:#ECECF4;}
	.st34{fill:#F1D0BC;}
	.st35{fill:#F3CCC2;}
	.st36{fill:#F2D7D1;}
	.st37{fill:#EECAC3;}
	.st38{fill:#F3E1DE;}
	.st39{fill:#5F1B32;}
	.st40{fill:#FFFFFF;stroke:#000000;stroke-miterlimit:10;}
	.st41{fill:#B29583;}
	.st42{fill:#C4A591;}
	.st43{fill:#CDAC97;}
	.st44{fill:#DEBBA3;}
	.st45{fill:#EEC7AD;}
	.st46{fill:#E3BFA6;}
	.st47{fill:#EDF7FD;}
	.st48{fill:#E6F4FD;}
	.st49{fill:#B77878;}
	.st50{fill:#E19492;}
	.st51{fill:#D2A090;}
	.st52{fill:#C09284;}
	.st53{fill:#ECB3A0;}
	.st54{fill:#E4AD9B;}
	.st55{fill:#EAEDEF;}
	.st56{fill:#70B1B2;}
	.st57{fill:#75B8B9;}
	.st58{fill:#59C4F1;}
	.st59{fill:#885D85;}
	.st60{fill:#835981;}
	.st61{fill:#91648E;}
	.st62{fill:#8D618A;}
	.st63{fill:#0E2B2B;}
	.st64{fill:#B3DCCF;}
	.st65{fill:#C5D7E2;}
	.st66{fill:#9AD3CD;}
	.st67{fill:#95D5F6;}
	.st68{fill:#82CACB;}
	.st69{fill:#8ACDCC;}
	.st70{fill:#7ABFC0;}
	.st71{fill:#A3D6CE;}
	.st72{fill:#B1DBCF;}
	.st73{fill:#6BA9AA;}
	.st74{fill:#609A9B;}
	.st75{fill:#80C8C9;}
	.st76{fill:#9BD5E0;}
	.st77{fill:#4E8182;}
	.st78{fill:#7CC3C4;}
	.st79{fill:none;stroke:#000000;stroke-miterlimit:10;}
	.st80{stroke:#000000;stroke-miterlimit:10;}
	.st81{fill:#ACA399;}
	.st82{fill:#D2C7BB;}
	.st83{fill:#C0B5AB;}
	.st84{fill:#E4D7CA;}
	.st85{fill:#727171;}
	.st86{fill:#595757;}
	.st87{fill:#DAAB9E;}
	.st88{fill:#E8B7A8;}
	.st89{fill:#898989;}
	.st90{fill:#D58289;}
	.st91{fill:#E38B92;}
	.st92{fill:#E2B1A3;}
	.st93{fill:#A36B6D;}
	.st94{fill:#B9BABA;}
	.st95{fill:#3E3A39;}
	.st96{fill:#B79086;}
	.st97{fill:#AEBBC2;}
	.st98{fill:#553D37;}
	.st99{fill:#4C4948;}
	.st100{fill:#B5B5B6;}
	.st101{fill:#9FA0A0;}
	.st102{fill:#F4E5D7;}
	.st103{fill:#F4E9D9;}
	.st104{fill:#6F1B05;}
	.st105{fill:#F4F6F7;}
	.st106{fill:#F1F3F4;}
	.st107{fill:#822510;}
	.st108{fill:#4E0500;}
	.st109{fill:#A2341F;}
	.st110{fill:#DFE1E2;}
	.st111{fill:#76200A;}
	.st112{fill:#5F1200;}
	.st113{fill:#3D0000;}
	.st114{fill:#E6EBEE;stroke:#9FA0A0;stroke-width:0.25;stroke-miterlimit:10;}
	.st115{fill:#F8FAFB;}
	.st116{fill:#F0F5F8;}
	.st117{fill:#CED9DF;stroke:#9FA0A0;stroke-width:0.25;stroke-miterlimit:10;}
	.st118{fill:#D3DEE5;stroke:#9FA0A0;stroke-width:0.25;stroke-miterlimit:10;}
	.st119{fill:#8C2A16;}
	.st120{fill:#A63620;}
	.st121{fill:#99301B;}
	.st122{fill:#A13019;}
	.st123{fill:#751B03;}
	.st124{fill:#460000;}
	.st125{fill:#7E230E;}
	.st126{fill:#E3E5E6;}
	.st127{fill:#DEE6EB;stroke:#9FA0A0;stroke-width:0.25;stroke-miterlimit:10;}
	.st128{fill:#BE3518;}
	.st129{fill:#290000;}
	.st130{fill:#320000;}
	.st131{fill:#2C0000;}
	.st132{fill:#EAEDEF;stroke:#9FA0A0;stroke-width:0.25;stroke-miterlimit:10;}
	.st133{fill:#9D9FA0;}
	.st134{fill:#110C0E;}
	.st135{fill:#181718;}
	.st136{fill:#202020;}
	.st137{fill:#252526;}
	.st138{fill:#DCDDDD;}
	.st139{fill:#1B1B1B;}
	.st140{fill:#3E3E3E;}
	.st141{fill:#3A3B3B;}
	.st142{fill:#363737;}
	.st143{fill:#2E2F2F;}
	.st144{fill:#161415;}
	.st145{fill:#530000;}
	.st146{fill:#680000;}
	.st147{fill:#7D0000;}
	.st148{fill:#910000;}
	.st149{fill:#A40000;}
	.st150{fill:#B60005;}
	.st151{fill:#470000;}
	.st152{fill:#292A2A;}
	.st153{fill:#414242;}
	.st154{fill:#D19C77;}
	.st155{fill:#D9A57D;}
	.st156{fill:#D09A77;}
	.st157{fill:#D8A07B;}
	.st158{fill:#C99A74;}
	.st159{fill:#D8A27B;}
	.st160{fill:#CC9A75;}
	.st161{fill:#BF906E;}
	.st162{fill:#D5A57C;}
	.st163{fill:#CA9D76;}
	.st164{fill:#E4AA80;}
	.st165{fill:#E1A77E;}
	.st166{fill:#E4A87F;}
	.st167{fill:#DDA37B;}
	.st168{fill:#7C3021;}
	.st169{fill:#D6A07A;}
	.st170{fill:#D59F7A;}
	.st171{fill:#644633;}
	.st172{fill:#D9A97E;}
	.st173{fill:#CEA178;}
	.st174{fill:#DCAB80;}
	.st175{fill:#E0AE82;}
	.st176{fill:#D4A07A;}
	.st177{fill:#CB9974;}
	.st178{fill:#DBA67E;}
	.st179{fill:#CF9D77;}
	.st180{fill:#DFA880;}
	.st181{fill:#D69D77;}
	.st182{fill:#D49E79;}
	.st183{fill:#E9EFF3;}
	.st184{fill:#CD9A76;}
	.st185{fill:#F0F4F7;}
	.st186{fill:#A2B4BD;}
	.st187{fill:#C6DBE7;}
	.st188{fill:#BED2DE;}
	.st189{fill:#D2E8F4;}
	.st190{fill:#C3D7E3;}
	.st191{fill:#BBCFDA;}
	.st192{fill:#CAE0EC;}
	.st193{fill:#32363A;}
	.st194{fill:#B3C6D1;}
	.st195{fill:#CCE1EE;}
	.st196{fill:#4A5257;}
	.st197{fill:#EDEFF1;}
	.st198{fill:#6A0F00;}
	.st199{fill:#C4361E;}
	.st200{fill:#772C16;}
	.st201{fill:#E85706;}
	.st202{fill:#CFE5F1;}
	.st203{fill:url(#背景_5_);}
	.st204{fill:#620F13;}
	.st205{fill:#BF1A20;}
	.st206{fill:#901D22;}
	.st207{fill:#EDF6F8;}
	.st208{fill:#F0F8F9;}
	.st209{fill:#BBCACA;}
	.st210{fill:#E83A37;}
	.st211{fill:url(#SVGID_4_);}
	.st212{fill:url(#SVGID_5_);}
	.st213{fill:#F3EEF6;}
	.st214{fill:#FBE2DE;}
	.st215{fill:#E4F3F6;}
	.st216{fill:#C13432;}
	.st217{fill:#D0C9CA;}
	.st218{fill:#00003D;}
	.st219{fill:url(#SVGID_6_);}
	.st220{fill:url(#SVGID_7_);}
	.st221{fill:#FFFFFF;stroke:#000000;stroke-width:0.5;stroke-miterlimit:10;}
	.st222{fill:url(#SVGID_8_);}
	.st223{fill:url(#SVGID_9_);}
	.st224{fill:url(#SVGID_10_);}
	.st225{fill:url(#SVGID_11_);}
	.st226{fill:url(#SVGID_12_);}
	.st227{fill:url(#SVGID_13_);}
	.st228{fill:url(#SVGID_14_);}
	.st229{fill:url(#SVGID_15_);}
	.st230{fill:url(#SVGID_16_);}
	.st231{fill:url(#SVGID_17_);}
	.st232{fill:url(#SVGID_18_);}
	.st233{fill:url(#SVGID_19_);}
	.st234{fill:url(#SVGID_20_);}
	.st235{fill:url(#SVGID_21_);}
	.st236{fill:url(#SVGID_22_);}
	.st237{fill:url(#SVGID_23_);}
	.st238{fill:url(#SVGID_24_);}
	.st239{fill:url(#SVGID_25_);}
	.st240{fill:url(#SVGID_26_);}
	.st241{fill:url(#SVGID_27_);}
	.st242{fill:url(#SVGID_28_);}
	.st243{fill:url(#SVGID_29_);}
	.st244{fill:url(#SVGID_30_);}
	.st245{fill:url(#SVGID_31_);}
	.st246{fill:url(#SVGID_32_);}
	.st247{fill:url(#SVGID_33_);}
	.st248{fill:url(#SVGID_34_);}
	.st249{fill:url(#SVGID_35_);}
	.st250{fill:url(#SVGID_36_);}
	.st251{fill:url(#SVGID_37_);}
	.st252{fill:url(#SVGID_38_);}
	.st253{fill:url(#SVGID_39_);}
	.st254{fill:url(#SVGID_40_);}
	.st255{fill:url(#SVGID_41_);}
	.st256{fill:url(#SVGID_42_);}
	.st257{fill:url(#SVGID_43_);}
	.st258{fill:url(#SVGID_44_);}
	.st259{fill:url(#SVGID_45_);}
	.st260{fill:url(#SVGID_46_);}
	.st261{fill:url(#SVGID_47_);}
	.st262{fill:url(#SVGID_48_);}
	.st263{fill:url(#SVGID_49_);}
	.st264{fill:url(#SVGID_50_);}
	.st265{fill:url(#SVGID_51_);}
	.st266{fill:url(#SVGID_52_);}
	.st267{fill:url(#SVGID_53_);}
	.st268{fill:url(#SVGID_54_);}
	.st269{fill:url(#SVGID_55_);}
	.st270{fill:url(#SVGID_56_);}
	.st271{fill:url(#SVGID_57_);}
	.st272{fill:url(#SVGID_58_);}
	.st273{fill:url(#SVGID_59_);}
	.st274{fill:url(#SVGID_60_);}
	.st275{fill:url(#SVGID_61_);}
	.st276{fill:url(#SVGID_62_);}
	.st277{fill:url(#SVGID_63_);}
	.st278{fill:url(#SVGID_64_);}
	.st279{fill:url(#SVGID_65_);}
	.st280{fill:url(#SVGID_66_);}
	.st281{fill:url(#SVGID_67_);}
	.st282{fill:url(#SVGID_68_);}
	.st283{fill:url(#SVGID_69_);}
	.st284{fill:url(#SVGID_70_);}
	.st285{fill:url(#SVGID_71_);}
	.st286{fill:url(#SVGID_72_);}
	.st287{fill:url(#SVGID_73_);}
	.st288{fill:url(#SVGID_74_);}
	.st289{fill:url(#SVGID_75_);}
	.st290{fill:url(#SVGID_76_);}
	.st291{fill:url(#SVGID_77_);}
	.st292{fill:url(#SVGID_78_);}
	.st293{fill:url(#SVGID_79_);}
	.st294{fill:url(#SVGID_80_);}
	.st295{fill:url(#SVGID_81_);}
	.st296{fill:url(#SVGID_82_);}
	.st297{fill:url(#SVGID_83_);}
	.st298{fill:url(#SVGID_84_);}
	.st299{fill:url(#SVGID_85_);}
	.st300{fill:url(#SVGID_86_);}
	.st301{fill:url(#SVGID_87_);}
	.st302{fill:url(#SVGID_88_);}
	.st303{fill:url(#SVGID_89_);}
	.st304{fill:url(#SVGID_90_);}
	.st305{fill:url(#SVGID_91_);}
	.st306{fill:url(#SVGID_92_);}
	.st307{fill:url(#SVGID_93_);}
	.st308{fill:url(#SVGID_94_);}
	.st309{fill:url(#SVGID_95_);}
	.st310{fill:url(#SVGID_96_);}
	.st311{fill:url(#SVGID_97_);}
	.st312{fill:url(#SVGID_98_);}
	.st313{fill:url(#SVGID_99_);}
	.st314{fill:url(#SVGID_100_);}
	.st315{fill:url(#SVGID_101_);}
	.st316{fill:url(#SVGID_102_);}
	.st317{fill:url(#SVGID_103_);}
	.st318{fill:url(#SVGID_104_);}
	.st319{fill:url(#SVGID_105_);}
	.st320{fill:url(#SVGID_106_);}
	.st321{fill:url(#SVGID_107_);}
	.st322{fill:url(#SVGID_108_);}
	.st323{fill:url(#SVGID_109_);}
	.st324{fill:url(#SVGID_110_);}
	.st325{fill:url(#SVGID_111_);}
	.st326{fill:url(#SVGID_112_);}
	.st327{fill:url(#SVGID_113_);}
	.st328{fill:url(#SVGID_114_);}
	.st329{fill:url(#SVGID_115_);}
	.st330{fill:url(#SVGID_116_);}
	.st331{fill:url(#SVGID_117_);}
	.st332{fill:url(#SVGID_118_);}
	.st333{fill:url(#SVGID_119_);}
	.st334{fill:url(#SVGID_120_);}
	.st335{fill:url(#SVGID_121_);}
	.st336{fill:#E60012;}
	.st337{fill:url(#SVGID_122_);}
	.st338{fill:#070001;}
	.st339{fill:#989898;}
	.st340{fill:#040000;}
	.st341{fill:#666767;}
	.st342{fill:#333333;}
	.st343{fill:#E5E144;}
	.st344{fill:#BCBC29;}
	.st345{fill:#EAE673;}
	.st346{fill:#681217;}
	.st347{fill:#636332;}
	.st348{fill:#8A1E22;}
	.st349{fill:#DFDCE3;}
	.st350{fill:#A62224;}
</style>
<linearGradient id="SVGID_1_" gradientUnits="userSpaceOnUse" x1="212.5984" y1="-12.4016" x2="212.5984" y2="427.215">
	<stop  offset="0" style="stop-color:#FFF21F"/>
	<stop  offset="0" style="stop-color:#FFE400"/>
	<stop  offset="0" style="stop-color:#FED700"/>
	<stop  offset="0" style="stop-color:#FDCF00"/>
	<stop  offset="0" style="stop-color:#FCCD00"/>
	<stop  offset="0.416" style="stop-color:#F1942E"/>
	<stop  offset="0.8876" style="stop-color:#EA652D"/>
	<stop  offset="1" style="stop-color:#E5352B"/>
</linearGradient>
<rect x="-7.9" y="-12.4" class="st0" width="441" height="450"/>
<g>
	<path class="st41" d="M189.42,122.71c-18.43-5.83-36.86-11.66-55.28-17.49c-7.04,8.22-19.46,25.11-23.87,49.63
		c-2.16,11.99-1.81,22.49-0.85,30.43c-2.21,8.71-1.78,15.45-0.98,20.02c2.21,12.56,9,18.42,9.53,32.03
		c0.18,4.6-0.42,8.38-0.94,10.81c-2.81,4.86-7.47,12.46-14.1,21.15c-12.08,15.83-20.08,21.37-18.19,25.89
		c2.7,6.44,22.49,3.58,24.77,3.25c5.55-0.8,16.73-2.42,26.79-10.81c7.41-6.18,11.52-17.43,19.74-39.95
		c4.21-11.52,5.27-16.52,4.7-22.56c-0.88-9.33-5.2-16.32-8.13-20.24c6.67-4.22,17.89-12.62,26.49-27.07
		C193.24,154.03,190.57,130.21,189.42,122.71z"/>
	<path class="st42" d="M12.27,305.63c6.37,1.19,11.84,0.93,16.49-0.04c28.68-5.95,49.97-43.86,56.28-93.89
		c4.66-0.29,10.47-1.36,16.44-4.36c20.77-10.43,24.98-35.01,25.53-38.53c-0.57,1.57-3.28,8.57-10.94,12.45
		c-6.66,3.38-12.91,2.31-14.77,1.91c0,0-7.88,0.95-13.76,4.3c-23.15,13.2-16.69,46.5-40.92,83.25
		C35.16,288.1,21.44,299.22,12.27,305.63z"/>
	<path class="st43" d="M418.07,180.11c-1.09-7.46-25.98,0.04-47.22-17.28c-15.49-12.62-12.07-24.61-30.52-35.7
		c-5.54-3.33-5.4-1.98-25.91-11.52c-13.31-6.19-19.97-9.26-24.19-12.09c-14.75-9.92-15.76-16.84-27.76-22.58
		c-8.6-4.12-16.91-4.79-22.58-4.72c-17.73-0.55-38.67,0.04-61.96,3.12c-22.5,2.97-42.27,7.62-58.84,12.55
		c-0.07,14.82-0.14,29.64-0.21,44.46c9.32,3.8,34.83,12.77,66.54,5.76c27.59-6.1,45.41-21.09,52.86-28.15
		c7.73,7.76,19.52,17.87,35.82,26.43c19.35,10.15,37.14,13.97,48.95,15.55c1.68,5.47,6.44,18.29,19,28.79
		c4.92,4.11,18.78,14.34,38.01,13.82C399.29,198.01,419.06,186.88,418.07,180.11z"/>
	<path class="st43" d="M134.97,142.24c-10.94-11.01-21.89-22.02-32.83-33.02c-6.16,6.09-12.58,13.23-18.85,21.56
		c-12.93,17.19-21.33,34.28-26.89,48.96c0,0,0,0-0.01-0.01c-1.03,2.66-2.53,6.76-4.08,11.83c-1.22,4-5.31,17.95-7.84,40.33
		c-1.74,15.39-1.03,19.67-4.68,28.08c-2.57,5.94-5.76,10.33-8.03,13.11c-4.1,3.34-28.06,23.09-24.26,29.96
		c2.94,5.31,22.66,3.19,35.55-6.94c6.65-5.22,10.87-13.59,19.32-30.32c4.34-8.59,7.16-14.18,9.51-22.59
		c1.89-6.77,2.18-10.71,4.76-18.73c2.26-7.03,4.78-12.53,6.54-16.05c6.06-1.82,24.67-8.25,38.28-27.2
		C132.98,165.18,134.65,148.9,134.97,142.24z"/>
	<path class="st44" d="M356.12,302.43c-6.66-5.71-10.87-5.65-21.23-10.61c0,0-2.59-1.11-6.16-3.14c-3.3-1.87-8.12-4.59-12.12-8.65
		c-3.48-3.53-5.32-7.03-6.54-9.46c-12.51-24.94-19.43-56.6-40.05-72.32c-9.59-7.31-9.66-1.65-25.95-11.4
		c-19.03-11.4-30.97-26.43-38.13-35.38c-7.09-8.86-12.05-16.94-15.27-22.72c-4.02-6.29-20.95-31.21-51.38-36.47
		c-8.74-1.51-16.59-1.05-22.9,0c-2.77,1.5-12.68,7.27-14.26,16.94c-2.07,12.67,10.67,28.97,32.83,33.02
		c3.81,10.87,14.52,36.74,41.1,57.98c27.51,21.99,56.21,26.38,67.62,27.52c3.03,14.89,8.33,25.42,12.58,32.24
		c1.61,2.59,4.91,6.97,28.37,32.35c9.64,10.43,14.51,15.68,16.84,17.18c23.22,15,58.78,6.52,59.75-0.79
		C361.46,307.01,359.68,305.49,356.12,302.43z"/>
	<path class="st45" d="M231.55,333.76c-5.88-11.92-10.08-14.06-14.09-23.32c-2.26-5.22-4.66-13.18-4.37-24.29
		c-1.49-11.88-4.23-25.94-9.23-41.3c-3.46-10.62-7.41-20.02-11.34-28.14c-0.61-12.58-1.82-26.1-3.85-40.39
		c-3.62-25.38-9.13-47.97-15.13-67.38c-2.55-2.2-6.83-5.61-12.65-8.92c-6.7-3.8-25.43-14.44-41.77-8.14
		c-6.18,2.38-10.21,6.5-10.63,6.93c-3.72,3.87-5.49,7.97-6.33,10.41c1.06,21.09,6.42,60.49,34.67,94.82
		c5.98,7.27,12.24,13.4,18.38,18.57c1.46,4.76,3.8,12.2,6.89,21.27c5.39,15.83,6.75,18.06,10.2,29.15
		c2.04,6.56,3.84,13.52,7.44,27.43c5.77,22.31,5.13,21.75,6.65,25.05c1.21,2.62,9.22,19.25,27.43,27.77
		c2.37,1.11,18.58,8.47,23.24,3.06C240.63,352.17,235.78,342.34,231.55,333.76z"/>
	<path class="st44" d="M134.64,83.55c0,0,1.24,18.28-7.93,18.24c0,0,22.21,20.62,38.07,9.52c0,0-2.97-0.79-4.96-5.45
		c-1.36-3.2-1.17-19.75,0.99-28.65C152.09,79.32,143.36,81.44,134.64,83.55z"/>
	<path class="st46" d="M96.57,80.38c0.85,1.81,3.01,5.74,7.53,8.62c6.55,4.19,13.32,3.17,15,2.87c2.58,6.27,0.41,12.68-3.9,14.91
		c-3.78,1.96-8.02,0.08-8.71-0.24c0,0-6.74-14.27-18.64-14.27L96.57,80.38z"/>
	<path class="st47" d="M134.64,83.55c-0.77-9.38,6.28-16.7,13.48-16.65c5.38,0.03,10.65,4.18,12.69,10.31
		C160.81,77.21,156.05,94.66,134.64,83.55z"/>
	<path class="st48" d="M96.57,80.38c0,0,0.79,11.9-8.72,11.9C87.85,92.28,79.92,74.04,96.57,80.38z"/>
	<path class="st17" d="M86.11,86.14c0.73,0.43,1.57,0.68,2.48,0.68c2.69,0,4.87-2.18,4.87-4.87c0-1-0.3-1.94-0.82-2.71
		C86.35,78.11,85.56,82.23,86.11,86.14z"/>
	<path class="st17" d="M157.46,73.18c0-0.68-0.07-1.34-0.2-1.98c-2.51-2.68-5.8-4.28-9.13-4.3c-3.8-0.02-7.55,2.02-10.14,5.32
		c-0.03,0.32-0.05,0.63-0.05,0.96c0,5.39,4.37,9.76,9.76,9.76C153.09,82.94,157.46,78.57,157.46,73.18z"/>
	<path class="st47" d="M155.17,71.87c0-1.04-0.21-2.02-0.59-2.92c-1.98-1.3-4.21-2.04-6.46-2.05c-2.67-0.02-5.32,0.98-7.56,2.72
		c-0.22,0.71-0.35,1.46-0.35,2.25c0,4.13,3.35,7.48,7.48,7.48C151.82,79.35,155.17,76,155.17,71.87z"/>
	<path class="st48" d="M86,83.49c0.47,0.33,1.04,0.52,1.66,0.52c1.61,0,2.91-1.3,2.91-2.91c0-0.77-0.31-1.47-0.8-1.99
		C87.13,79.45,86.16,81.29,86,83.49z"/>
	<path class="st49" d="M102.14,109.22c2.47,2.4,5.49,5,9.13,7.53c2.47,1.72,4.86,3.16,7.08,4.35c6.95,0.54,16.78,0.55,28.19-1.93
		c11.7-2.54,20.84-6.78,27-10.24c-8.21,8.74-16.25,14.1-21.76,17.25c-8.74,5-17.82,10.2-29.63,9.21c-4.79-0.4-13.42-1.13-18.24-8.12
		C98.79,119.85,101.66,110.68,102.14,109.22z"/>
	<path class="st50" d="M102.14,109.22c1.06,0.96,2.7,2.16,4.93,2.72c1.9,0.47,2.81,0.13,4.25,0.55c1.5,0.44,3.44,1.66,5.2,5.22
		c2.29-0.91,5.79-2.1,10.16-2.74c4.5-0.66,6.92-0.26,11.21-0.23c6.19,0.04,10.51-0.69,18.91-2.1c4.9-0.83,10.54-2,16.73-3.7
		c-17.65,9.81-32.82,13.16-42.58,14.45c-18.09,2.39-23.18-1.56-25.28-3.98C102.87,116.2,102.23,112.13,102.14,109.22z"/>
	<path class="st51" d="M39.62,287.97c-2.49-8.46-12.84-10.84-12.85-10.84C18.64,283.96,4.48,297,7.5,303.04
		C29.63,301.69,39.62,287.97,39.62,287.97z"/>
	<path class="st52" d="M84.74,295.18c1.04,2.48,4.6,3.57,8.72,3.97h0c18.06-2.08,26.75-16.07,26.75-16.07
		c10.7-15.34-17.28-13.8-17.28-13.8C90.84,285.13,82.85,290.67,84.74,295.18z"/>
	<path class="st53" d="M231.55,333.76c-3.96-8.03-7.16-11.62-10.05-15.95l0,0c0,0-19.18,1.88-19.23,14.98
		c0,0,15.51,19.59,34.78,23.54C240.63,352.17,235.78,342.34,231.55,333.76z"/>
	<path class="st54" d="M328.73,288.68c0,0-10.88,7.37-5.55,18.19c0,0,21.03,10.08,33.02,6.52
		C356.2,313.39,425.97,294.58,328.73,288.68z"/>
	<path class="st51" d="M370.85,189.59c0,0,14.21,1.95,30.07,4.62c10.33-3.98,17.76-9.89,17.15-14.1
		c-1.09-7.46-25.98,0.04-47.22-17.28C370.85,162.83,353.1,181.54,370.85,189.59z"/>
	<path class="st17" d="M154.02,72.12c0-1.7-0.68-3.25-1.78-4.39c-1.33-0.53-2.72-0.82-4.12-0.83c-1.87-0.01-3.72,0.48-5.43,1.36
		c-0.82,1.07-1.32,2.4-1.32,3.85c0,3.49,2.83,6.32,6.32,6.32C151.19,78.44,154.02,75.61,154.02,72.12z"/>
	<path class="st17" d="M86.05,83c0.41,0.31,0.92,0.5,1.47,0.5c1.36,0,2.47-1.11,2.47-2.47c0-0.72-0.31-1.36-0.8-1.81
		C87.17,79.7,86.29,81.19,86.05,83z"/>
	<circle class="st55" cx="150.91" cy="70.95" r="3.22"/>
	<circle class="st55" cx="90.57" cy="81.06" r="2.02"/>
</g>
<g id="レイヤー_5">
</g>
<g id="レイヤー_4">
</g>
<g id="レイヤー_3">
</g>
<g id="レイヤー_2">
</g>
<g id="レイヤー_6">
	<g id="レイヤー_7">
	</g>
</g>
</svg>
