<?xml version="1.0" encoding="utf-8"?>
<!-- Generator: Adobe Illustrator 24.0.3, SVG Export Plug-In . SVG Version: 6.00 Build 0)  -->
<svg version="1.1" id="レイヤー_1" xmlns="http://www.w3.org/2000/svg" xmlns:xlink="http://www.w3.org/1999/xlink" x="0px"
	 y="0px" viewBox="0 0 425.2 425.2" style="enable-background:new 0 0 425.2 425.2;" xml:space="preserve">
<style type="text/css">
	.st0{fill:url(#SVGID_1_);stroke:url(#SVGID_3_);stroke-miterlimit:10;}
	.st1{clip-path:url(#SVGID_4_);}
	.st2{fill:#70C8DD;}
	.st3{fill:#65A2A3;}
	.st4{fill:#82CBCC;}
	.st5{fill:#7EC6C6;}
	.st6{fill:#F0F2F7;}
	.st7{fill:none;stroke:#000000;stroke-width:0.25;stroke-miterlimit:10;}
	.st8{fill:none;}
	.st9{fill:#F2DCCD;}
	.st10{fill:#D9B799;}
	.st11{fill:#C2A289;}
	.st12{fill:#B59680;}
	.st13{fill:#73172F;}
	.st14{fill:#65142D;}
	.st15{fill:#A80228;}
	.st16{fill:#5B0D27;}
	.st17{fill:#323333;}
	.st18{fill:#863156;}
	.st19{fill:#F1F9FE;}
	.st20{fill:#EAF6FD;}
	.st21{fill:#FCFEFF;}
	.st22{fill:#FFFFFF;}
	.st23{fill:#D8EFFC;}
	.st24{fill:#DFF2FC;}
	.st25{fill:#E6C6B0;}
	.st26{fill:#C8A68D;}
	.st27{fill:#323333;stroke:#000000;stroke-width:0.25;stroke-miterlimit:10;}
	.st28{fill:#F2F3F7;}
	.st29{fill:#F5F3F7;}
	.st30{fill:#EEF1F7;}
	.st31{fill:#E3E8F4;}
	.st32{fill:#F9F5F8;}
	.st33{fill:#ECECF4;}
	.st34{fill:#F1D0BC;}
	.st35{fill:#F3CCC2;}
	.st36{fill:#F2D7D1;}
	.st37{fill:#EECAC3;}
	.st38{fill:#F3E1DE;}
	.st39{fill:#5F1B32;}
	.st40{fill:#FFFFFF;stroke:#000000;stroke-miterlimit:10;}
	.st41{fill:#B29583;}
	.st42{fill:#C4A591;}
	.st43{fill:#CDAC97;}
	.st44{fill:#DEBBA3;}
	.st45{fill:#EEC7AD;}
	.st46{fill:#E3BFA6;}
	.st47{fill:#EDF7FD;}
	.st48{fill:#E6F4FD;}
	.st49{fill:#B77878;}
	.st50{fill:#E19492;}
	.st51{fill:#D2A090;}
	.st52{fill:#C09284;}
	.st53{fill:#ECB3A0;}
	.st54{fill:#E4AD9B;}
	.st55{fill:#EAEDEF;}
	.st56{fill:#70B1B2;}
	.st57{fill:#75B8B9;}
	.st58{fill:#59C4F1;}
	.st59{fill:#885D85;}
	.st60{fill:#835981;}
	.st61{fill:#91648E;}
	.st62{fill:#8D618A;}
	.st63{fill:#0E2B2B;}
	.st64{fill:#B3DCCF;}
	.st65{fill:#C5D7E2;}
	.st66{fill:#9AD3CD;}
	.st67{fill:#95D5F6;}
	.st68{fill:#82CACB;}
	.st69{fill:#8ACDCC;}
	.st70{fill:#7ABFC0;}
	.st71{fill:#A3D6CE;}
	.st72{fill:#B1DBCF;}
	.st73{fill:#6BA9AA;}
	.st74{fill:#609A9B;}
	.st75{fill:#80C8C9;}
	.st76{fill:#9BD5E0;}
	.st77{fill:#4E8182;}
	.st78{fill:#7CC3C4;}
	.st79{fill:none;stroke:#000000;stroke-miterlimit:10;}
	.st80{stroke:#000000;stroke-miterlimit:10;}
	.st81{fill:#ACA399;}
	.st82{fill:#D2C7BB;}
	.st83{fill:#C0B5AB;}
	.st84{fill:#E4D7CA;}
	.st85{fill:#727171;}
	.st86{fill:#595757;}
	.st87{fill:#DAAB9E;}
	.st88{fill:#E8B7A8;}
	.st89{fill:#898989;}
	.st90{fill:#D58289;}
	.st91{fill:#E38B92;}
	.st92{fill:#E2B1A3;}
	.st93{fill:#A36B6D;}
	.st94{fill:#B9BABA;}
	.st95{fill:#3E3A39;}
	.st96{fill:#B79086;}
	.st97{fill:#AEBBC2;}
	.st98{fill:#553D37;}
	.st99{fill:#4C4948;}
	.st100{fill:#B5B5B6;}
	.st101{fill:#9FA0A0;}
	.st102{fill:#F4E5D7;}
	.st103{fill:#F4E9D9;}
	.st104{fill:#6F1B05;}
	.st105{fill:#F4F6F7;}
	.st106{fill:#F1F3F4;}
	.st107{fill:#822510;}
	.st108{fill:#4E0500;}
	.st109{fill:#A2341F;}
	.st110{fill:#DFE1E2;}
	.st111{fill:#76200A;}
	.st112{fill:#5F1200;}
	.st113{fill:#3D0000;}
	.st114{fill:#E6EBEE;stroke:#9FA0A0;stroke-width:0.25;stroke-miterlimit:10;}
	.st115{fill:#F8FAFB;}
	.st116{fill:#F0F5F8;}
	.st117{fill:#CED9DF;stroke:#9FA0A0;stroke-width:0.25;stroke-miterlimit:10;}
	.st118{fill:#D3DEE5;stroke:#9FA0A0;stroke-width:0.25;stroke-miterlimit:10;}
	.st119{fill:#8C2A16;}
	.st120{fill:#A63620;}
	.st121{fill:#99301B;}
	.st122{fill:#A13019;}
	.st123{fill:#751B03;}
	.st124{fill:#460000;}
	.st125{fill:#7E230E;}
	.st126{fill:#E3E5E6;}
	.st127{fill:#DEE6EB;stroke:#9FA0A0;stroke-width:0.25;stroke-miterlimit:10;}
	.st128{fill:#BE3518;}
	.st129{fill:#290000;}
	.st130{fill:#320000;}
	.st131{fill:#2C0000;}
	.st132{fill:#EAEDEF;stroke:#9FA0A0;stroke-width:0.25;stroke-miterlimit:10;}
	.st133{fill:#9D9FA0;}
	.st134{fill:#110C0E;}
	.st135{fill:#181718;}
	.st136{fill:#202020;}
	.st137{fill:#252526;}
	.st138{fill:#DCDDDD;}
	.st139{fill:#1B1B1B;}
	.st140{fill:#3E3E3E;}
	.st141{fill:#3A3B3B;}
	.st142{fill:#363737;}
	.st143{fill:#2E2F2F;}
	.st144{fill:#161415;}
	.st145{fill:#530000;}
	.st146{fill:#680000;}
	.st147{fill:#7D0000;}
	.st148{fill:#910000;}
	.st149{fill:#A40000;}
	.st150{fill:#B60005;}
	.st151{fill:#470000;}
	.st152{fill:#292A2A;}
	.st153{fill:#414242;}
	.st154{fill:#D19C77;}
	.st155{fill:#D9A57D;}
	.st156{fill:#D09A77;}
	.st157{fill:#D8A07B;}
	.st158{fill:#C99A74;}
	.st159{fill:#D8A27B;}
	.st160{fill:#CC9A75;}
	.st161{fill:#BF906E;}
	.st162{fill:#D5A57C;}
	.st163{fill:#CA9D76;}
	.st164{fill:#E4AA80;}
	.st165{fill:#E1A77E;}
	.st166{fill:#E4A87F;}
	.st167{fill:#DDA37B;}
	.st168{fill:#7C3021;}
	.st169{fill:#D6A07A;}
	.st170{fill:#D59F7A;}
	.st171{fill:#644633;}
	.st172{fill:#D9A97E;}
	.st173{fill:#CEA178;}
	.st174{fill:#DCAB80;}
	.st175{fill:#E0AE82;}
	.st176{fill:#D4A07A;}
	.st177{fill:#CB9974;}
	.st178{fill:#DBA67E;}
	.st179{fill:#CF9D77;}
	.st180{fill:#DFA880;}
	.st181{fill:#D69D77;}
	.st182{fill:#D49E79;}
	.st183{fill:#E9EFF3;}
	.st184{fill:#CD9A76;}
	.st185{fill:#F0F4F7;}
	.st186{fill:#A2B4BD;}
	.st187{fill:#C6DBE7;}
	.st188{fill:#BED2DE;}
	.st189{fill:#D2E8F4;}
	.st190{fill:#C3D7E3;}
	.st191{fill:#BBCFDA;}
	.st192{fill:#CAE0EC;}
	.st193{fill:#32363A;}
	.st194{fill:#B3C6D1;}
	.st195{fill:#CCE1EE;}
	.st196{fill:#4A5257;}
	.st197{fill:#EDEFF1;}
	.st198{fill:#6A0F00;}
	.st199{fill:#C4361E;}
	.st200{fill:#772C16;}
	.st201{fill:#E85706;}
	.st202{fill:#CFE5F1;}
	.st203{fill:url(#背景_5_);}
	.st204{fill:#620F13;}
	.st205{fill:#BF1A20;}
	.st206{fill:#901D22;}
	.st207{fill:#EDF6F8;}
	.st208{fill:#F0F8F9;}
	.st209{fill:#BBCACA;}
	.st210{fill:#E83A37;}
	.st211{fill:url(#SVGID_5_);}
	.st212{fill:url(#SVGID_6_);}
	.st213{fill:#F3EEF6;}
	.st214{fill:#FBE2DE;}
	.st215{fill:#E4F3F6;}
	.st216{fill:#C13432;}
	.st217{fill:#D0C9CA;}
	.st218{fill:#00003D;}
	.st219{fill:url(#SVGID_7_);}
	.st220{fill:url(#SVGID_8_);}
	.st221{fill:#FFFFFF;stroke:#000000;stroke-width:0.5;stroke-miterlimit:10;}
	.st222{fill:url(#SVGID_9_);}
	.st223{fill:url(#SVGID_10_);}
	.st224{fill:url(#SVGID_11_);}
	.st225{fill:url(#SVGID_12_);}
	.st226{fill:url(#SVGID_13_);}
	.st227{fill:url(#SVGID_14_);}
	.st228{fill:url(#SVGID_15_);}
	.st229{fill:url(#SVGID_16_);}
	.st230{fill:url(#SVGID_17_);}
	.st231{fill:url(#SVGID_18_);}
	.st232{fill:url(#SVGID_19_);}
	.st233{fill:url(#SVGID_20_);}
	.st234{fill:url(#SVGID_21_);}
	.st235{fill:url(#SVGID_22_);}
	.st236{fill:url(#SVGID_23_);}
	.st237{fill:url(#SVGID_24_);}
	.st238{fill:url(#SVGID_25_);}
	.st239{fill:url(#SVGID_26_);}
	.st240{fill:url(#SVGID_27_);}
	.st241{fill:url(#SVGID_28_);}
	.st242{fill:url(#SVGID_29_);}
	.st243{fill:url(#SVGID_30_);}
	.st244{fill:url(#SVGID_31_);}
	.st245{fill:url(#SVGID_32_);}
	.st246{fill:url(#SVGID_33_);}
	.st247{fill:url(#SVGID_34_);}
	.st248{fill:url(#SVGID_35_);}
	.st249{fill:url(#SVGID_36_);}
	.st250{fill:url(#SVGID_37_);}
	.st251{fill:url(#SVGID_38_);}
	.st252{fill:url(#SVGID_39_);}
	.st253{fill:url(#SVGID_40_);}
	.st254{fill:url(#SVGID_41_);}
	.st255{fill:url(#SVGID_42_);}
	.st256{fill:url(#SVGID_43_);}
	.st257{fill:url(#SVGID_44_);}
	.st258{fill:url(#SVGID_45_);}
	.st259{fill:url(#SVGID_46_);}
	.st260{fill:url(#SVGID_47_);}
	.st261{fill:url(#SVGID_48_);}
	.st262{fill:url(#SVGID_49_);}
	.st263{fill:url(#SVGID_50_);}
	.st264{fill:url(#SVGID_51_);}
	.st265{fill:url(#SVGID_52_);}
	.st266{fill:url(#SVGID_53_);}
	.st267{fill:url(#SVGID_54_);}
	.st268{fill:url(#SVGID_55_);}
	.st269{fill:url(#SVGID_56_);}
	.st270{fill:url(#SVGID_57_);}
	.st271{fill:url(#SVGID_58_);}
	.st272{fill:url(#SVGID_59_);}
	.st273{fill:url(#SVGID_60_);}
	.st274{fill:url(#SVGID_61_);}
	.st275{fill:url(#SVGID_62_);}
	.st276{fill:url(#SVGID_63_);}
	.st277{fill:url(#SVGID_64_);}
	.st278{fill:url(#SVGID_65_);}
	.st279{fill:url(#SVGID_66_);}
	.st280{fill:url(#SVGID_67_);}
	.st281{fill:url(#SVGID_68_);}
	.st282{fill:url(#SVGID_69_);}
	.st283{fill:url(#SVGID_70_);}
	.st284{fill:url(#SVGID_71_);}
	.st285{fill:url(#SVGID_72_);}
	.st286{fill:url(#SVGID_73_);}
	.st287{fill:url(#SVGID_74_);}
	.st288{fill:url(#SVGID_75_);}
	.st289{fill:url(#SVGID_76_);}
	.st290{fill:url(#SVGID_77_);}
	.st291{fill:url(#SVGID_78_);}
	.st292{fill:url(#SVGID_79_);}
	.st293{fill:url(#SVGID_80_);}
	.st294{fill:url(#SVGID_81_);}
	.st295{fill:url(#SVGID_82_);}
	.st296{fill:url(#SVGID_83_);}
	.st297{fill:url(#SVGID_84_);}
	.st298{fill:url(#SVGID_85_);}
	.st299{fill:url(#SVGID_86_);}
	.st300{fill:url(#SVGID_87_);}
	.st301{fill:url(#SVGID_88_);}
	.st302{fill:url(#SVGID_89_);}
	.st303{fill:url(#SVGID_90_);}
	.st304{fill:url(#SVGID_91_);}
	.st305{fill:url(#SVGID_92_);}
	.st306{fill:url(#SVGID_93_);}
	.st307{fill:url(#SVGID_94_);}
	.st308{fill:url(#SVGID_95_);}
	.st309{fill:url(#SVGID_96_);}
	.st310{fill:url(#SVGID_97_);}
	.st311{fill:url(#SVGID_98_);}
	.st312{fill:url(#SVGID_99_);}
	.st313{fill:url(#SVGID_100_);}
	.st314{fill:url(#SVGID_101_);}
	.st315{fill:url(#SVGID_102_);}
	.st316{fill:url(#SVGID_103_);}
	.st317{fill:url(#SVGID_104_);}
	.st318{fill:url(#SVGID_105_);}
	.st319{fill:url(#SVGID_106_);}
	.st320{fill:url(#SVGID_107_);}
	.st321{fill:url(#SVGID_108_);}
	.st322{fill:url(#SVGID_109_);}
	.st323{fill:url(#SVGID_110_);}
	.st324{fill:url(#SVGID_111_);}
	.st325{fill:url(#SVGID_112_);}
	.st326{fill:url(#SVGID_113_);}
	.st327{fill:url(#SVGID_114_);}
	.st328{fill:url(#SVGID_115_);}
	.st329{fill:url(#SVGID_116_);}
	.st330{fill:url(#SVGID_117_);}
	.st331{fill:url(#SVGID_118_);}
	.st332{fill:url(#SVGID_119_);}
	.st333{fill:url(#SVGID_120_);}
	.st334{fill:url(#SVGID_121_);}
	.st335{fill:url(#SVGID_122_);}
	.st336{fill:#E60012;}
	.st337{fill:url(#SVGID_123_);}
	.st338{fill:#070001;}
	.st339{fill:#989898;}
	.st340{fill:#040000;}
	.st341{fill:#666767;}
	.st342{fill:#333333;}
	.st343{fill:#E5E144;}
	.st344{fill:#BCBC29;}
	.st345{fill:#EAE673;}
	.st346{fill:#681217;}
	.st347{fill:#636332;}
	.st348{fill:#8A1E22;}
	.st349{fill:#DFDCE3;}
	.st350{fill:#A62224;}
</style>
<radialGradient id="SVGID_1_" cx="198.237" cy="137.7948" r="283.5148" fx="28.6299" fy="147.0994" gradientTransform="matrix(0.0167 -0.9999 0.9792 0.0164 59.9999 333.7489)" gradientUnits="userSpaceOnUse">
	<stop  offset="0.3482" style="stop-color:#920783"/>
	<stop  offset="0.4752" style="stop-color:#870D84"/>
	<stop  offset="0.7197" style="stop-color:#681785"/>
	<stop  offset="0.7692" style="stop-color:#601986"/>
</radialGradient>
<linearGradient id="SVGID_3_" gradientUnits="userSpaceOnUse" x1="-8.4016" y1="212.5984" x2="433.5984" y2="212.5984">
	<stop  offset="0" style="stop-color:#187FC4"/>
	<stop  offset="1" style="stop-color:#187FC4;stop-opacity:0"/>
</linearGradient>
<rect x="-7.9" y="-12.4" class="st0" width="441" height="450"/>
<g>
	<path class="st81" d="M21.11,285.3c-3.7-2.08,9.57-40.47,34.82-76.61c17.18-24.59,50.74-72.63,90.55-69.16
		c25.45,2.22,44.89,24.75,42.97,28.7c-1.58,3.25-17.86-5.57-42.98-1.33c-11.97,2.02-18.89,5.81-20.89,6.96
		c-11.45,6.58-17.25,15.66-20.89,20.89c-12.03,17.28-15.04,13.38-41.79,41.79C33.22,268.06,23.79,286.8,21.11,285.3z"/>
	<path class="st82" d="M202.2,180.82c0.27-2.97-29.29-12.75-62.68-6.96c-13.52,2.34-33.6,5.82-48.75,20.89
		c-23.08,22.96-8.87,46.68-27.86,83.58C42.68,317.63,5,330.54,7.18,334.05c2.31,3.72,47.58-6.18,76.61-41.79
		c34.12-41.85,17.56-80.88,50.07-102.71C162.82,170.1,201.89,184.25,202.2,180.82z"/>
	<path class="st83" d="M334.53,243.51c36.49,1,67.83-80.09,62.68-83.58c-4.56-3.09-32.63,58.37-69.65,55.72
		c-38.8-2.77-47.03-73.08-91.86-77.18c-26.91-2.46-52.79,20.23-51.03,25.38c1.68,4.92,27.56-9.16,56.95-2.15
		C294.97,174.4,301.28,242.59,334.53,243.51z"/>
	<path class="st82" d="M320.6,271.37c43.25,22.46,97.84-2.35,97.51-6.96c-0.34-4.64-56.2,10.55-90.54-20.89
		c-18.58-17.01-11.53-29.97-34.82-55.72c-9.38-10.37-34.6-38.25-65.61-34.97c-27.37,2.89-49.47,29.01-45.86,36.12
		c3.6,7.08,29.03-11.84,58.27-3.59C281.15,197.09,277.09,248.77,320.6,271.37z"/>
	<path class="st84" d="M146.48,159.56c8.75-3.07,22.19-3.85,26.16,2.14c13.51,20.38-77.47,126.16-116.71,109.67
		c-30.07-12.64-21.96-93.82-20.89-104.47c5.41-54.14,30.12-98.95,34.82-97.51c2.77,0.85-2.13,17.59-6.96,62.68
		c-9.95,92.77,2.19,102.17,6.96,104.47c4.96,2.39,10.09,1.02,13.93,0C117.55,227.54,112.97,171.33,146.48,159.56z"/>
	<path class="st85" d="M241.93,259.32c8.39-5.52,7.96-17.44,9.95-28.78c2.01-11.47,7.41-27.7,23.08-46.4
		c-21.9-5-38.08-11.61-49.07-16.93c-6.49-3.14-10.51-5.51-17.98-7.57c-6.76-1.87-22.37-5.15-40.14,0c-4.74,1.37-6,2.29-15.7,6.7
		c-9.1,4.14-21.56,9.5-36.91,15.2c5.64,8.38,11.27,16.77,16.91,25.15c-3.21,27.19,3.18,39.55,10.02,45.77
		c7.19,6.54,15.12,6.5,19.53,14.19c1.02,1.78,1.68,3.68,2.06,5.65c-15.6,0.19-28.18,10.12-28.18,22.36
		c0,12.35,12.82,22.37,28.63,22.37c9.33,0,17.61-3.49,22.84-8.88c1.74,0.12,3.52,0.19,5.36,0.17c2.09-0.03,4.1-0.16,6.03-0.36
		c5.21,5.51,13.58,9.08,23.02,9.08c15.81,0,28.63-10.01,28.63-22.37s-12.82-22.37-28.63-22.37c-0.71,0-1.41,0.03-2.1,0.07
		c0.22-4.16,1.5-6.7,3.14-8.31C227.14,259.38,234.57,264.16,241.93,259.32z"/>
	<path class="st86" d="M247.34,258.14c0.08,7.89,0.47,13.06,0.53,14.48c0.59,15.77-23.48,44.4-38.71,40.16
		c-15.85-4.41-16.27-42.81-16.41-55.36c-0.13-12.31-0.7-50.98,14.84-55.09c15.79-4.17,40.28,25.8,39.98,41.6
		C247.55,245.29,247.27,250.41,247.34,258.14z"/>
	<path class="st86" d="M188.27,208.68c-1.69-1.38-10.43-8.59-20.89-6.96c-13.71,2.13-25.34,18.64-27.86,41.79
		c16.99-2.83,33.77,5.34,41.44,19.89c8.61,16.35,3.99,37.45-11.47,49.39l5.89-0.04c2.98-2.47,8.06-7.06,12.89-13.89
		C208.47,270.32,208.45,225.09,188.27,208.68z"/>
	<path class="st87" d="M207.91,178.85c-1.65,1.02-8.93,5.3-20.1,5.29c-11.13-0.01-18.39-4.26-20.04-5.29
		c0.51-2.26,0.95-5.02,1.05-8.16c0.15-4.43-0.41-8.2-1.05-11.06c16.02-7.7,32.04-15.4,48.07-23.1c-1.95,6.69-3.79,14.16-5.27,22.34
		C209.28,165.99,208.44,172.68,207.91,178.85z"/>
	<path class="st86" d="M210.2,160.97c-1.08,6.34-1.81,12.32-2.29,17.88c-1.65,1.02-8.93,5.3-20.1,5.29
		c-8.91-0.01-15.32-2.73-18.38-4.34l-2.06,1.03l27.86,13.93l27.86-20.89L210.2,160.97z"/>
	<path class="st88" d="M219.2,100.39c-17.55-2.93-35.1-5.86-52.65-8.79c-1.07,2.23-2.34,5.7-2.24,9.95c0.08,3.22,0.87,3.8,1.07,6.93
		c0.28,4.61-1.22,7.02-3.11,13.22c0,0-0.67,2.21-1.44,5.48c-3.92,4.42-6.7,8.53-5.24,10.15c0,0,1.53-0.01,3.65,0.1
		c0.04,5.3,1.87,12.59,8.53,22.21c0.62,9.37,28.57,14.64,40.14,0c2.4-5.29,4.74-11.38,6.66-18.23
		C219.07,125.4,219.69,111.11,219.2,100.39z"/>
	<path class="st89" d="M247.34,262.38c0.08,7.76,0.46,13.04,0.53,14.48c0.64,14.44-13.42,40.23-26.49,40.16
		c-14.44-0.07-26.37-31.65-28.63-55.36c-1.88-19.75,1.39-51.53,14.84-55.09c15.79-4.17,40.28,25.8,39.98,41.6
		C247.55,249.53,247.27,254.64,247.34,262.38z"/>
	<path class="st84" d="M315.39,278.61c-6.25-2-10.75-5.46-13.52-7.98c-1.02-3.86-2.54-9.94-4.04-17.49
		c-1.74-8.73-2.64-15.09-2.91-17.25c-2.08-16.47-8.94-49.14-19.91-51.6c-8.16-1.83-17.22,13.15-20.97,24.01
		c-9.88,28.58,11.6,60.7,20.06,73.56c2.38,3.62,4.49,6.47,5.87,8.27c4.25,2.41,10.58,5.7,18.6,8.7c17.34,6.49,31.64,7.56,39.91,8.18
		c67.31,5.05,71.49,5.69,72.15,3.37C412.97,302.13,327.94,282.64,315.39,278.61z"/>
	<path class="st83" d="M299.7,250.47l-2.94-2.94c0.3,1.67,0.64,3.47,1.02,5.39c0.44,0.52,0.89,1.05,1.34,1.56l0,0.02
		c5.71,6.44,12.6,12.26,21.47,16.86c43.25,22.46,97.84-2.35,97.51-6.96C369.35,292.26,299.7,250.47,299.7,250.47z"/>
	<path class="st89" d="M219.2,100.39c-17.55-2.93-35.1-5.86-52.65-8.79c-1.07,2.23-2.34,5.7-2.24,9.95c0.08,3.22,0.87,3.8,1.07,6.93
		c0.28,4.61-1.22,7.02-3.11,13.22c0,0-0.67,2.21-1.44,5.48c-3.92,4.42-6.7,8.53-5.24,10.15c0,0,1.53-0.01,3.65,0.1
		c0.01,1.87,0.26,4,0.85,6.38h0C160.09,143.8,218.86,136.96,219.2,100.39z"/>
	<g>
		<path class="st87" d="M158.55,137.39c-0.09,0-0.17-0.01-0.26-0.01C158.37,137.38,158.46,137.38,158.55,137.39z"/>
		<path class="st87" d="M159.24,137.42c-0.02,0-0.03,0-0.05,0C159.21,137.42,159.22,137.42,159.24,137.42
			c0,0.43,0.02,0.87,0.05,1.32C159.26,138.28,159.24,137.84,159.24,137.42z"/>
		<path class="st87" d="M157.06,137.34L157.06,137.34c0.1,0,0.22,0.01,0.33,0.01C157.28,137.34,157.17,137.34,157.06,137.34z"/>
		<path class="st87" d="M157.62,137.35c0.1,0,0.2,0.01,0.3,0.01C157.82,137.36,157.72,137.36,157.62,137.35z"/>
		<path class="st87" d="M159.7,142.03c-0.1-0.51-0.17-1-0.24-1.48C159.53,141.03,159.61,141.52,159.7,142.03z"/>
		<path class="st87" d="M219.2,100.39L219.2,100.39c-0.33,36.54-58.98,43.4-59.1,43.41c0.1,0.42,0.21,0.84,0.34,1.27
			c9.17,1.31,27.57-1.95,41.76-13c8.96-6.98,14.12-15.41,17.1-22.35C219.38,106.38,219.33,103.25,219.2,100.39z"/>
		<path class="st87" d="M159.44,140.31c-0.06-0.47-0.1-0.92-0.13-1.36C159.33,139.39,159.38,139.85,159.44,140.31z"/>
		<path class="st87" d="M160.06,143.64c-0.13-0.51-0.24-1.01-0.33-1.5C159.82,142.63,159.93,143.13,160.06,143.64z"/>
	</g>
	<path class="st90" d="M179.32,144.05c-2-0.25-3.87-0.31-5.56-0.25c-2.32-2.92-5.99,0.98-5.99,0.98c-2.32-1.35-3.87,0.97-3.87,0.97
		l-2.21,2.91c0.52,1.27,1.12,2.6,1.85,4c0.45,0.04,0.91,0.07,1.38,0.1c2.89,0.17,5.53,0.12,7.88-0.05c4.9-0.35,6.21-1.24,11.73-2.21
		c2.23-0.39,5.56-0.87,9.74-1.08C190.96,147.37,185.87,144.86,179.32,144.05z"/>
	<path class="st91" d="M163.9,145.75l-2.21,2.91c0.18,0.44,0.38,0.9,0.58,1.35c2.6-0.9,5.6-1.71,8.99-2.22
		c9.62-1.47,17.75,0.1,22.99,1.63c-3.3-2.06-8.38-4.56-14.94-5.37c-2-0.25-3.87-0.31-5.56-0.25c-2.32-2.92-5.99,0.98-5.99,0.98
		c-0.41-0.18-0.94-0.36-1.58-0.42C164.77,144.44,163.9,145.75,163.9,145.75z"/>
	<path class="st92" d="M213.65,119.33c0,0,11.65-20.72,9.71,0.69c0,0-2.95,26.73-11.3,12.47L213.65,119.33z"/>
	<path class="st93" d="M215.26,119.76c0,0,6.71-11.58,5.69,0l-1.61,8.08c-0.38,0.27-0.86,0.55-1.44,0.78
		c-1.64,0.66-3.15,0.52-3.95,0.38C214.39,125.93,214.83,122.85,215.26,119.76z"/>
	<path class="st85" d="M175.91,112.62c0,0-24.07,20.56-20.32,24.7c0,0,12.51-0.07,15.76,2.63L175.91,112.62z"/>
	<path class="st94" d="M175.91,112.62c0,0-24.07,20.56-20.32,24.7c2.05-0.01,4.28,0.07,6.66,0.3c1.33,0.13,2.6,0.3,3.8,0.49
		C169.34,129.61,172.62,121.12,175.91,112.62z"/>
	
		<ellipse transform="matrix(0.1647 -0.9863 0.9863 0.1647 66.0518 270.6369)" class="st86" cx="192.82" cy="96.32" rx="4.2" ry="26.69"/>
	
		<rect x="182.83" y="112.05" transform="matrix(0.9863 0.1647 -0.1647 0.9863 21.9488 -30.4593)" class="st95" width="23.61" height="10.13"/>
	
		<rect x="185.79" y="114.43" transform="matrix(0.9863 0.1647 -0.1647 0.9863 21.9277 -30.4126)" class="st96" width="17.09" height="5.16"/>
	<path class="st97" d="M203.03,116.85c-0.46-0.5-0.93-0.91-1.41-1.24l-5.85-0.98c-2.83,0.62-5.03,2.37-5.03,2.37
		c6.09,3.41,9.93,2.98,11.88,2.25L203.03,116.85z"/>
	<path class="st98" d="M203.03,116.85c-0.06-0.19-0.2-0.59-0.44-1.07l-9.51-1.59c-0.9,0.73-1.71,1.67-2.34,2.82
		c0.47,0.66,1.18,1.53,2.16,2.37l9.44,1.58L203.03,116.85z"/>
	<path class="st97" d="M203.03,116.85c-0.46-0.5-0.93-0.91-1.41-1.24l-5.85-0.98c-2.83,0.62-5.03,2.37-5.03,2.37
		c6.09,3.41,9.93,2.98,11.88,2.25L203.03,116.85z"/>
	<path class="st17" d="M200.45,119.72c0.53-0.61,0.86-1.39,0.86-2.26c0-0.75-0.25-1.45-0.66-2.02l-4.82-0.8
		c-0.88,0.63-1.46,1.66-1.46,2.82c0,0.47,0.1,0.93,0.27,1.34C197.05,119.67,198.98,119.85,200.45,119.72z"/>
	<path d="M197.83,115.16c-1.28,0-2.31,1.03-2.31,2.31c0,0.79,0.4,1.49,1,1.9c0.67,0.16,1.3,0.27,1.88,0.33
		c1-0.26,1.74-1.15,1.74-2.23C200.14,116.19,199.11,115.16,197.83,115.16z"/>
	<circle class="st97" cx="200.14" cy="117.01" r="1.41"/>
	<path class="st99" d="M155.59,137.32c0,0,1.23-5.75,15.76,2.63L155.59,137.32z"/>
	<path class="st89" d="M192.75,260.36c-1.99,23.77-13.75,56.42-28.63,56.66c-14.39,0.23-30.17-29.88-28.63-56.66
		c1.76-30.56,26.3-60.23,40.77-56.95C189.93,206.51,194.55,238.94,192.75,260.36z"/>
	<path class="st85" d="M192.75,260.36c1.79-21.43-2.82-53.86-16.48-56.95c-0.56-0.13-1.13-0.2-1.71-0.23
		c4.78,8.04,13.11,24.6,13.71,46.92c0.88,32.8-15.54,55.78-20.89,62.68l5.89-0.04C183.63,303.09,191.19,279,192.75,260.36z"/>
	<path class="st85" d="M192.75,261.66c1.76,18.48,9.39,41.73,19.51,51.13h3.87c-12.58-26.36-14.69-47.51-13.93-62.68
		c0.76-15.13,5.33-42.99,5.4-43.53l0,0C194.14,210.12,190.87,241.91,192.75,261.66z"/>
	<path class="st100" d="M210,312.47c2.29,4.84,14.62,3.56,21.86,2.8c9.06-0.94,18-1.88,20.33-7.46c2.85-6.82-4.93-18.67-14.18-20.84
		C223.15,283.47,206.7,305.49,210,312.47z"/>
	<path class="st101" d="M135.5,260.36c-1.06,18.43,6.08,38.44,15.33,49.05c-3.21-7.95-11.28-30.95-4.36-59.31
		c6.15-25.18,20.76-40.83,27.12-46.93C158.96,203.65,137.16,231.62,135.5,260.36z"/>
	<path class="st100" d="M172.54,319.25c-6.87,9.79-38.23,2.96-40-6.47c-1-5.32,7.42-11.6,13.93-13.93
		c6.81-2.43,18.07-2.87,23.9,4.75C173.55,307.76,175.57,314.93,172.54,319.25z"/>
	<path class="st102" d="M285.77,313.16c-37.47-1.29-56.2-1.93-76.61,0c-13.14,1.24-34.43,3.93-62.68,0
		c-9.94-1.38-33.61-5.1-34.82-13.93c-0.91-6.59,11.96-7.13,20.89-20.89c15.53-23.95,2.61-62.44-0.48-71.65
		c-0.05-0.16-0.1-0.3-0.1-0.3c-1.23-3.63-8.82-25.19-16.8-24.85c-12.29,0.53-19.01,45.9-19.8,51.24
		c-5.03,33.98-22.24,45.43-25.5,66.45c-2.22,14.35,2.76,27.86,6.96,34.82c11.26,18.66,41.11,30.42,201.98,13.93
		c62.76-6.43,114.81-11.77,114.73-18.76C393.44,321.41,328.39,314.62,285.77,313.16z"/>
	<path class="st84" d="M118.7,291.29c4.18-2.66,9.48-6.22,13.85-12.95c9.57-14.75,8.34-35.02,5.26-50.56
		c0.34,8.49-0.19,21.65-5.26,36.63C128.57,276.18,123.11,285.17,118.7,291.29z"/>
	<path class="st84" d="M76.83,334.05c11.26,18.66,41.11,30.42,201.98,13.93c45.04-4.62,84.56-8.67,103.26-13.17l1.21-0.76
		c-59.35-6.59-106.35-3.95-139.3,0c-29.17,3.5-62.68,9.86-111.44,6.96C109.09,339.62,89.83,336.55,76.83,334.05z"/>
	<path class="st103" d="M285.77,313.16c-37.47-1.29-56.2-1.93-76.61,0c-13.14,1.24-34.43,3.93-62.68,0
		c-9.94-1.38-33.61-5.1-34.82-13.93c0,0-90.93,25.16,281.89,29.99C393.44,321.41,328.39,314.62,285.77,313.16z"/>
	<path class="st82" d="M402.1,311.57c-11.09-2.77-28.43-7.05-49.83-12.13c-38.4-9.12-44.35-10.02-52.57-14.14
		c-13.59-6.81-34.31-22.94-47.89-67.07c-2.9,25.76,14.79,52.25,22.29,63.63c2.38,3.62,4.49,6.47,5.87,8.27
		c4.25,2.41,10.58,5.7,18.6,8.7c17.34,6.49,31.64,7.56,39.91,8.18C375.41,309.77,393.33,311.21,402.1,311.57z"/>
</g>
<g id="レイヤー_5">
</g>
<g id="レイヤー_4">
</g>
<g id="レイヤー_3">
</g>
<g id="レイヤー_2">
</g>
<g id="レイヤー_6">
	<g id="レイヤー_7">
	</g>
</g>
</svg>
