<?xml version="1.0" encoding="utf-8"?>
<!-- Generator: Adobe Illustrator 24.0.3, SVG Export Plug-In . SVG Version: 6.00 Build 0)  -->
<svg version="1.1" id="レイヤー_1" xmlns="http://www.w3.org/2000/svg" xmlns:xlink="http://www.w3.org/1999/xlink" x="0px"
	 y="0px" viewBox="0 0 300.55 300.55" style="enable-background:new 0 0 300.55 300.55;" xml:space="preserve">
<style type="text/css">
	.st0{clip-path:url(#SVGID_1_);}
	.st1{clip-path:url(#SVGID_4_);}
	.st2{fill:none;stroke:url(#SVGID_5_);stroke-miterlimit:10;}
	.st3{fill:#70C8DD;}
	.st4{fill:#65A2A3;}
	.st5{fill:#82CBCC;}
	.st6{fill:#7EC6C6;}
	.st7{fill:#F0F2F7;}
	.st8{fill:none;stroke:#000000;stroke-width:0.25;stroke-miterlimit:10;}
	.st9{fill:none;}
	.st10{fill:#F2DCCD;}
	.st11{fill:#D9B799;}
	.st12{fill:#C2A289;}
	.st13{fill:#B59680;}
	.st14{fill:#73172F;}
	.st15{fill:#65142D;}
	.st16{fill:#A80228;}
	.st17{fill:#5B0D27;}
	.st18{fill:#323333;}
	.st19{fill:#863156;}
	.st20{fill:#F1F9FE;}
	.st21{fill:#EAF6FD;}
	.st22{fill:#FCFEFF;}
	.st23{fill:#FFFFFF;}
	.st24{fill:#D8EFFC;}
	.st25{fill:#DFF2FC;}
	.st26{fill:#E6C6B0;}
	.st27{fill:#C8A68D;}
	.st28{fill:#323333;stroke:#000000;stroke-width:0.25;stroke-miterlimit:10;}
	.st29{fill:#F2F3F7;}
	.st30{fill:#F5F3F7;}
	.st31{fill:#EEF1F7;}
	.st32{fill:#E3E8F4;}
	.st33{fill:#F9F5F8;}
	.st34{fill:#ECECF4;}
	.st35{fill:#F1D0BC;}
	.st36{fill:#F3CCC2;}
	.st37{fill:#F2D7D1;}
	.st38{fill:#EECAC3;}
	.st39{fill:#F3E1DE;}
	.st40{fill:#5F1B32;}
	.st41{fill:#FFFFFF;stroke:#000000;stroke-miterlimit:10;}
	.st42{fill:#B29583;}
	.st43{fill:#C4A591;}
	.st44{fill:#CDAC97;}
	.st45{fill:#DEBBA3;}
	.st46{fill:#EEC7AD;}
	.st47{fill:#E3BFA6;}
	.st48{fill:#EDF7FD;}
	.st49{fill:#E6F4FD;}
	.st50{fill:#B77878;}
	.st51{fill:#E19492;}
	.st52{fill:#D2A090;}
	.st53{fill:#C09284;}
	.st54{fill:#ECB3A0;}
	.st55{fill:#E4AD9B;}
	.st56{fill:#EAEDEF;}
	.st57{fill:#70B1B2;}
	.st58{fill:#75B8B9;}
	.st59{fill:#59C4F1;}
	.st60{fill:#885D85;}
	.st61{fill:#835981;}
	.st62{fill:#91648E;}
	.st63{fill:#8D618A;}
	.st64{fill:#0E2B2B;}
	.st65{fill:#B3DCCF;}
	.st66{fill:#C5D7E2;}
	.st67{fill:#9AD3CD;}
	.st68{fill:#95D5F6;}
	.st69{fill:#82CACB;}
	.st70{fill:#8ACDCC;}
	.st71{fill:#7ABFC0;}
	.st72{fill:#A3D6CE;}
	.st73{fill:#B1DBCF;}
	.st74{fill:#6BA9AA;}
	.st75{fill:#609A9B;}
	.st76{fill:#80C8C9;}
	.st77{fill:#9BD5E0;}
	.st78{fill:#4E8182;}
	.st79{fill:#7CC3C4;}
	.st80{fill:none;stroke:#000000;stroke-miterlimit:10;}
	.st81{stroke:#000000;stroke-miterlimit:10;}
	.st82{fill:#ACA399;}
	.st83{fill:#D2C7BB;}
	.st84{fill:#C0B5AB;}
	.st85{fill:#E4D7CA;}
	.st86{fill:#727171;}
	.st87{fill:#595757;}
	.st88{fill:#DAAB9E;}
	.st89{fill:#E8B7A8;}
	.st90{fill:#898989;}
	.st91{fill:#D58289;}
	.st92{fill:#E38B92;}
	.st93{fill:#E2B1A3;}
	.st94{fill:#A36B6D;}
	.st95{fill:#B9BABA;}
	.st96{fill:#3E3A39;}
	.st97{fill:#B79086;}
	.st98{fill:#AEBBC2;}
	.st99{fill:#553D37;}
	.st100{fill:#4C4948;}
	.st101{fill:#B5B5B6;}
	.st102{fill:#9FA0A0;}
	.st103{fill:#F4E5D7;}
	.st104{fill:#F4E9D9;}
	.st105{fill:#6F1B05;}
	.st106{fill:#F4F6F7;}
	.st107{fill:#F1F3F4;}
	.st108{fill:#822510;}
	.st109{fill:#4E0500;}
	.st110{fill:#A2341F;}
	.st111{fill:#DFE1E2;}
	.st112{fill:#76200A;}
	.st113{fill:#5F1200;}
	.st114{fill:#3D0000;}
	.st115{fill:#E6EBEE;stroke:#9FA0A0;stroke-width:0.25;stroke-miterlimit:10;}
	.st116{fill:#F8FAFB;}
	.st117{fill:#F0F5F8;}
	.st118{fill:#CED9DF;stroke:#9FA0A0;stroke-width:0.25;stroke-miterlimit:10;}
	.st119{fill:#D3DEE5;stroke:#9FA0A0;stroke-width:0.25;stroke-miterlimit:10;}
	.st120{fill:#8C2A16;}
	.st121{fill:#A63620;}
	.st122{fill:#99301B;}
	.st123{fill:#A13019;}
	.st124{fill:#751B03;}
	.st125{fill:#460000;}
	.st126{fill:#7E230E;}
	.st127{fill:#E3E5E6;}
	.st128{fill:#DEE6EB;stroke:#9FA0A0;stroke-width:0.25;stroke-miterlimit:10;}
	.st129{fill:#BE3518;}
	.st130{fill:#290000;}
	.st131{fill:#320000;}
	.st132{fill:#2C0000;}
	.st133{fill:#EAEDEF;stroke:#9FA0A0;stroke-width:0.25;stroke-miterlimit:10;}
	.st134{fill:#9D9FA0;}
	.st135{fill:#110C0E;}
	.st136{fill:#181718;}
	.st137{fill:#202020;}
	.st138{fill:#252526;}
	.st139{fill:#DCDDDD;}
	.st140{fill:#1B1B1B;}
	.st141{fill:#3E3E3E;}
	.st142{fill:#3A3B3B;}
	.st143{fill:#363737;}
	.st144{fill:#2E2F2F;}
	.st145{fill:#161415;}
	.st146{fill:#530000;}
	.st147{fill:#680000;}
	.st148{fill:#7D0000;}
	.st149{fill:#910000;}
	.st150{fill:#A40000;}
	.st151{fill:#B60005;}
	.st152{fill:#470000;}
	.st153{fill:#292A2A;}
	.st154{fill:#414242;}
	.st155{fill:#D19C77;}
	.st156{fill:#D9A57D;}
	.st157{fill:#D09A77;}
	.st158{fill:#D8A07B;}
	.st159{fill:#C99A74;}
	.st160{fill:#D8A27B;}
	.st161{fill:#CC9A75;}
	.st162{fill:#BF906E;}
	.st163{fill:#D5A57C;}
	.st164{fill:#CA9D76;}
	.st165{fill:#E4AA80;}
	.st166{fill:#E1A77E;}
	.st167{fill:#E4A87F;}
	.st168{fill:#DDA37B;}
	.st169{fill:#7C3021;}
	.st170{fill:#D6A07A;}
	.st171{fill:#D59F7A;}
	.st172{fill:#644633;}
	.st173{fill:#D9A97E;}
	.st174{fill:#CEA178;}
	.st175{fill:#DCAB80;}
	.st176{fill:#E0AE82;}
	.st177{fill:#D4A07A;}
	.st178{fill:#CB9974;}
	.st179{fill:#DBA67E;}
	.st180{fill:#CF9D77;}
	.st181{fill:#DFA880;}
	.st182{fill:#D69D77;}
	.st183{fill:#D49E79;}
	.st184{fill:#E9EFF3;}
	.st185{fill:#CD9A76;}
	.st186{fill:#F0F4F7;}
	.st187{fill:#A2B4BD;}
	.st188{fill:#C6DBE7;}
	.st189{fill:#BED2DE;}
	.st190{fill:#D2E8F4;}
	.st191{fill:#C3D7E3;}
	.st192{fill:#BBCFDA;}
	.st193{fill:#CAE0EC;}
	.st194{fill:#32363A;}
	.st195{fill:#B3C6D1;}
	.st196{fill:#CCE1EE;}
	.st197{fill:#4A5257;}
	.st198{fill:#EDEFF1;}
	.st199{fill:#6A0F00;}
	.st200{fill:#C4361E;}
	.st201{fill:#772C16;}
	.st202{fill:#E85706;}
	.st203{fill:#CFE5F1;}
	.st204{fill:url(#背景_5_);}
	.st205{fill:#620F13;}
	.st206{fill:#BF1A20;}
	.st207{fill:#901D22;}
	.st208{fill:#EDF6F8;}
	.st209{fill:#F0F8F9;}
	.st210{fill:#BBCACA;}
	.st211{fill:#E83A37;}
	.st212{fill:url(#SVGID_6_);}
	.st213{fill:url(#SVGID_7_);}
	.st214{fill:#F3EEF6;}
	.st215{fill:#FBE2DE;}
	.st216{fill:#E4F3F6;}
	.st217{fill:#C13432;}
	.st218{fill:#D0C9CA;}
	.st219{fill:#00003D;}
	.st220{fill:url(#SVGID_8_);}
	.st221{fill:url(#SVGID_9_);}
	.st222{fill:#FFFFFF;stroke:#000000;stroke-width:0.5;stroke-miterlimit:10;}
	.st223{fill:url(#SVGID_10_);}
	.st224{fill:url(#SVGID_11_);}
	.st225{fill:url(#SVGID_12_);}
	.st226{fill:url(#SVGID_13_);}
	.st227{fill:url(#SVGID_14_);}
	.st228{fill:url(#SVGID_15_);}
	.st229{fill:url(#SVGID_16_);}
	.st230{fill:url(#SVGID_17_);}
	.st231{fill:url(#SVGID_18_);}
	.st232{fill:url(#SVGID_19_);}
	.st233{fill:url(#SVGID_20_);}
	.st234{fill:url(#SVGID_21_);}
	.st235{fill:url(#SVGID_22_);}
	.st236{fill:url(#SVGID_23_);}
	.st237{fill:url(#SVGID_24_);}
	.st238{fill:url(#SVGID_25_);}
	.st239{fill:url(#SVGID_26_);}
	.st240{fill:url(#SVGID_27_);}
	.st241{fill:url(#SVGID_28_);}
	.st242{fill:url(#SVGID_29_);}
	.st243{fill:url(#SVGID_30_);}
	.st244{fill:url(#SVGID_31_);}
	.st245{fill:url(#SVGID_32_);}
	.st246{fill:url(#SVGID_33_);}
	.st247{fill:url(#SVGID_34_);}
	.st248{fill:url(#SVGID_35_);}
	.st249{fill:url(#SVGID_36_);}
	.st250{fill:url(#SVGID_37_);}
	.st251{fill:url(#SVGID_38_);}
	.st252{fill:url(#SVGID_39_);}
	.st253{fill:url(#SVGID_40_);}
	.st254{fill:url(#SVGID_41_);}
	.st255{fill:url(#SVGID_42_);}
	.st256{fill:url(#SVGID_43_);}
	.st257{fill:url(#SVGID_44_);}
	.st258{fill:url(#SVGID_45_);}
	.st259{fill:url(#SVGID_46_);}
	.st260{fill:url(#SVGID_47_);}
	.st261{fill:url(#SVGID_48_);}
	.st262{fill:url(#SVGID_49_);}
	.st263{fill:url(#SVGID_50_);}
	.st264{fill:url(#SVGID_51_);}
	.st265{fill:url(#SVGID_52_);}
	.st266{fill:url(#SVGID_53_);}
	.st267{fill:url(#SVGID_54_);}
	.st268{fill:url(#SVGID_55_);}
	.st269{fill:url(#SVGID_56_);}
	.st270{fill:url(#SVGID_57_);}
	.st271{fill:url(#SVGID_58_);}
	.st272{fill:url(#SVGID_59_);}
	.st273{fill:url(#SVGID_60_);}
	.st274{fill:url(#SVGID_61_);}
	.st275{fill:url(#SVGID_62_);}
	.st276{fill:url(#SVGID_63_);}
	.st277{fill:url(#SVGID_64_);}
	.st278{fill:url(#SVGID_65_);}
	.st279{fill:url(#SVGID_66_);}
	.st280{fill:url(#SVGID_67_);}
	.st281{fill:url(#SVGID_68_);}
	.st282{fill:url(#SVGID_69_);}
	.st283{fill:url(#SVGID_70_);}
	.st284{fill:url(#SVGID_71_);}
	.st285{fill:url(#SVGID_72_);}
	.st286{fill:url(#SVGID_73_);}
	.st287{fill:url(#SVGID_74_);}
	.st288{fill:url(#SVGID_75_);}
	.st289{fill:url(#SVGID_76_);}
	.st290{fill:url(#SVGID_77_);}
	.st291{fill:url(#SVGID_78_);}
	.st292{fill:url(#SVGID_79_);}
	.st293{fill:url(#SVGID_80_);}
	.st294{fill:url(#SVGID_81_);}
	.st295{fill:url(#SVGID_82_);}
	.st296{fill:url(#SVGID_83_);}
	.st297{fill:url(#SVGID_84_);}
	.st298{fill:url(#SVGID_85_);}
	.st299{fill:url(#SVGID_86_);}
	.st300{fill:url(#SVGID_87_);}
	.st301{fill:url(#SVGID_88_);}
	.st302{fill:url(#SVGID_89_);}
	.st303{fill:url(#SVGID_90_);}
	.st304{fill:url(#SVGID_91_);}
	.st305{fill:url(#SVGID_92_);}
	.st306{fill:url(#SVGID_93_);}
	.st307{fill:url(#SVGID_94_);}
	.st308{fill:url(#SVGID_95_);}
	.st309{fill:url(#SVGID_96_);}
	.st310{fill:url(#SVGID_97_);}
	.st311{fill:url(#SVGID_98_);}
	.st312{fill:url(#SVGID_99_);}
	.st313{fill:url(#SVGID_100_);}
	.st314{fill:url(#SVGID_101_);}
	.st315{fill:url(#SVGID_102_);}
	.st316{fill:url(#SVGID_103_);}
	.st317{fill:url(#SVGID_104_);}
	.st318{fill:url(#SVGID_105_);}
	.st319{fill:url(#SVGID_106_);}
	.st320{fill:url(#SVGID_107_);}
	.st321{fill:url(#SVGID_108_);}
	.st322{fill:url(#SVGID_109_);}
	.st323{fill:url(#SVGID_110_);}
	.st324{fill:url(#SVGID_111_);}
	.st325{fill:url(#SVGID_112_);}
	.st326{fill:url(#SVGID_113_);}
	.st327{fill:url(#SVGID_114_);}
	.st328{fill:url(#SVGID_115_);}
	.st329{fill:url(#SVGID_116_);}
	.st330{fill:url(#SVGID_117_);}
	.st331{fill:url(#SVGID_118_);}
	.st332{fill:url(#SVGID_119_);}
	.st333{fill:url(#SVGID_120_);}
	.st334{fill:url(#SVGID_121_);}
	.st335{fill:url(#SVGID_122_);}
	.st336{fill:url(#SVGID_123_);}
	.st337{fill:#E60012;}
	.st338{fill:url(#SVGID_124_);}
	.st339{fill:#070001;}
	.st340{fill:#989898;}
	.st341{fill:#040000;}
	.st342{fill:#666767;}
	.st343{fill:#333333;}
	.st344{fill:#E5E144;}
	.st345{fill:#BCBC29;}
	.st346{fill:#EAE673;}
	.st347{fill:#681217;}
	.st348{fill:#636332;}
	.st349{fill:#8A1E22;}
	.st350{fill:#DFDCE3;}
	.st351{fill:#A62224;}
</style>
<g id="レイヤー_5">
</g>
<g id="レイヤー_4">
</g>
<g id="レイヤー_3">
</g>
<g id="レイヤー_2">
	<radialGradient id="背景_5_" cx="150.2751" cy="150.2751" r="150.2751" gradientUnits="userSpaceOnUse">
		<stop  offset="0" style="stop-color:#008A8D"/>
		<stop  offset="1" style="stop-color:#16153D"/>
	</radialGradient>
	<rect id="背景_1_" x="0" class="st204" width="300.55" height="300.55"/>
	<path d="M83.84,138.4c-16.2-6.48-23.69-15.12-27.49-21.38c-3.22-5.31-5.68-12.74-10.61-27.61c-4.27-12.88-4.04-14.66-7.22-19.67
		c-2.26-3.56-5.28-7.22-11.45-16.78c-2.01-3.12-4.84-7.63-3.33-11.56c0.69-1.79,1.57-1.62,2.05-3.27c1.12-3.87-3.36-6.01-5.38-13.17
		c-1.02-3.6-0.09-3.79-1.33-7.22c-1.8-4.98-4.49-6.63-3.8-7.95c0.88-1.68,6.67-1.83,10.4,1.11c5.45,4.29,5.9,14.69,5.9,14.69l0,0
		c0.43-0.42,1.62-1.49,3.53-1.85c1.91-0.36,3.42,0.21,3.97,0.44c0.37-0.67,1.01-1.56,2.06-1.94c1.77-0.66,3.06,0.74,5.72,1.17
		c3.43,0.55,4.21-1.31,6.11-0.58c1.88,0.72,2.3,3,4.4,11.98c1.95,8.33,1.98,8.02,2.09,9.14c0.7,7.28-1.58,9.11-0.58,13.26
		c0.92,3.85,4.39,6.29,11.29,11.03c10.37,7.12,14.28,7.17,20.11,12.54c4.49,4.13,7.09,8.64,8.58,11.75
		c3.36-0.07,9.68,0.25,16.5,3.66c4.43,2.21,7.56,4.97,9.55,7.04c2.06-1.79,12.91-10.84,28.81-9.66
		c18.05,1.34,27.96,14.76,29.31,16.65c2.48-0.67,18.46-4.72,33.65,5.23c13.29,8.71,16.82,22.15,17.53,25.14
		c4.92-0.78,13.84-1.55,24.38,1.35c10.36,2.85,17.54,7.95,21.36,11.11c1.19,2.26,10.3,20.16,1.73,36.02
		c-0.57,1.06-7.95,14.32-18.55,14.54c-4.15,0.09-4.25-1.91-13.21-4.84c-11.08-3.62-14.54-1.74-19.29-5.64
		c-1.96-1.61-3.51-4.92-6.53-11.48c-6.84-14.86-7.18-19.86-11.72-21.52c-3.27-1.19-4.53,0.86-10.45-0.15
		c-4.34-0.74-7.7-2.53-9.92-3.99c-0.78,3.02-1.56,6.04-2.35,9.05c9.79,3.88,31.1,14.11,42.39,36.79
		c0.76,1.52,15.66,32.23,3.18,44.09c-7.17,6.81-20.6,4.78-23.09,4.4c-6.95-1.05-11.62-3.86-17.2-7.23
		c-12.98-7.83-25.18-20.09-29.11-24.15c-4.5-4.65-7.53-8.26-11.92-8.07c-5.97,0.26-8.95,7.31-11.87,6.12
		c-2.62-1.08-3.57-8.14-0.67-11.8c1.99-2.51,4.15-1.34,9.46-4.95c3.08-2.09,3.77-3.45,5.57-3.45c2.73-0.01,4.94,3.1,6.35,5.62
		c1.93,0.27,3.86,0.54,5.79,0.81c-0.48-0.89-1.23-2.15-2.32-3.52c-0.69-0.87-5.95-7.51-12.13-8.09c-2.32-0.22-4.76,0.41-13.38,7.17
		c-9.4,7.37-11.7,10.71-17.58,15.16c-3.7,2.8-9.33,6.42-17.28,9.38c0.08,5.17-0.45,13.83-4.38,23.59
		c-3.52,8.75-8.38,14.89-11.75,18.53c9.04,5.05,10.49,7.81,10.12,9.39c-0.75,3.21-8.91,1.34-19.74,6.86
		c-7.51,3.83-7.9,6.93-14.74,9.01c-5.73,1.74-14.07,2.18-15.5-0.84c-1.82-3.84,9.53-8.86,16.73-20.51
		c8.19-13.24,2.06-20.59,5.47-49.51c2.19-18.63,4.18-33.74,15.65-44.62c6.94-6.58,15.01-9.39,20.68-10.72l-4.05-21.01L83.84,138.4z"
		/>
	<path class="st205" d="M196.03,234.55c-3.23-3.42-6.31-6.46-8.27-8.72c-2.31-2.65-10.23-11.44-13.31-15.5
		c-1.4-1.83-2.55-3.54-3.56-5.13c-3.34-0.51-6.68-1.01-10.02-1.52c-0.91-1.63-1.82-3.26-2.72-4.9c-0.67-0.27-1.62-0.52-2.59-0.23
		c-1.7,0.5-1.95,2.18-3.35,3.7c-2.36,2.57-4.94,1.38-7.17,3.23c-1.37,1.14-2.68,3.5-2.16,8.92c0.83-1.26,3-4.19,6.99-5.83
		c2.39-0.98,4.54-1.14,5.92-1.12c2.29,1.56,5.83,4.08,9.95,7.46c8.96,7.36,11.54,11.59,17.59,16.14c3.97,2.99,10.2,6.97,19.19,10.16
		C200.62,239.4,198.53,237.19,196.03,234.55z"/>
	<path class="st206" d="M251.52,146.04c-8.41-2.01-15.75-2.14-21.04-1.81c-0.46-3.45-2.24-13.24-10.52-21.04
		c-6.04-5.69-12.59-7.53-15.6-8.34c-9.79-2.63-18.02-0.8-21.73,0.28c-1.69-2.46-9.43-13.09-23.95-16.09
		c-18.79-3.88-32.72,8.36-34.18,9.69c-3.29-2.96-8.88-7.2-16.83-9.92c-4.81-1.64-9.16-2.28-12.54-2.49
		c-2.56-6.5-5.89-10.48-8.33-12.86c-8.63-8.4-17.38-7.66-24.64-16.42c-3.22-3.89-4.72-7.93-5.47-10.5
		c-0.46-1.72-0.71-3.81-0.01-5.62c1.5-3.84-0.66-12.43-0.66-12.43s-2.13-3.03-2.39-9.04c-0.26-6.02-4.37-5.04-4.37-5.04
		s-3.37,1.62-6.38-0.32c-0.43-0.27-1.22-0.72-1.96-0.45c-0.81,0.3-1.18,1.36-1.36,2.21c-0.13-0.13-0.36-0.31-0.69-0.45
		c-0.31-0.13-0.59-0.16-0.77-0.17c-0.25-0.12-0.63-0.27-1.09-0.26c-1.67,0.03-2.86,2.07-3.81,3.73c-0.53,0.92-0.93,1.78-1.3,2.62
		c-0.45-0.7-0.91-1.39-1.36-2.09c-0.54-2.17-1.09-4.33-1.63-6.5c0.07-0.16-1.38-5.42-1.81-5.61c-0.34-0.77-0.94-1.95-1.98-3.18
		c-1.92-2.28-5.28-4.67-6.71-3.75c-0.5,0.32-0.63,0.97-0.65,1.1c-0.2,1.05,0.61,1.85,1.49,3.22c0.47,0.73,1.06,1.8,1.58,3.22
		c0.3,2.31,0.6,4.62,0.89,6.93c0.83,2.21,1.66,4.41,2.5,6.62c0.53,0.94,1.05,1.88,1.58,2.81c0.37,0.42,0.91,1.11,1.2,2.05
		c0.33,1.06,0.22,1.57,0.38,2.62c-0.61,0.64-1.47,1.48-1.99,2.88c-0.05,0.13-0.09,0.24-0.11,0.32c-0.04,0.13-0.07,0.24-0.09,0.33
		c-0.28,1.23-0.17,2.32-0.03,3.07c0.35,0.91,0.81,1.93,1.42,3.02c0.64,1.15,1.31,2.12,1.93,2.93c1.97,2.93,3.7,5.21,4.94,6.76
		c1.59,2,2.94,3.55,4.76,6.21c0.23,0.34,0.45,0.67,0.66,0.98c0,0,1.9,2.88,3.56,5.92c3.56,6.5,8.97,42.2,26.83,54.65
		c3.12,2.17,14.3,9,28.26,10.46c3.71,0.39,8.71,0.51,11.45,4.09c2.48,3.24,1.16,6.75,1.99,13.42c0.49,3.93,1.7,8.77,4.55,14.2
		c-2.9,0.35-22.89,3.03-29.03,17.35c-0.7,1.64-1.29,3.57-1.57,5.84c-2.32,8.84-4.46,18.28-6.3,28.3
		c-3.18,17.32-4.94,33.49-5.77,48.17c0,0,0,0,0,0c-4.81,3.02-3.67,6.49-9.37,11.78c-5.49,5.1-10.34,5.37-10.07,6.63
		c0.4,1.89,11.73,3.35,18.37-2.49c2.22-1.95,1.65-2.72,3.8-4.59c6.84-5.95,16.75-1.7,18-4.76c0.82-2.01-2.72-5.58-5.82-7.25
		c-0.86-0.46-1.77-0.82-2.7-1.08c0,0,0,0,0,0c4.03-5.84,5.82-6.12,9.32-10.72c6.74-8.86,8.33-18.58,9-23.02
		c0.65-4.32,0.71-8.15,0.55-11.22c0.2,0.02,0.4,0.06,0.6,0.07c2.87,0.16,6.41-2.24,13.5-7.05c8.14-5.52,10.41-8.44,19.26-14.88
		c6.29-4.58,8.67-7.27,13.42-8.23c1.96-0.39,5.86-1.18,9.92,0.45c6.54,2.62,7.13,8.95,14.83,19.08c3.09,4.06,5.99,6.99,7.73,8.64
		c1.4,1.84,3.28,4.2,5.58,6.86c1.96,2.26,5.04,5.3,8.27,8.72c7.34,7.77,11.21,11.87,16.74,12.66c6.6,0.93,14.1-3.05,17.63-8.86
		c4.41-7.27,1.52-15.62-1.67-24.82c-1.39-4.01-5.85-16.06-17.31-28.27c-9.39-10-19.5-15.89-26.96-19.32
		c1.13-1.71,2.56-4.29,3.5-7.67c0.79-2.86,0.98-5.38,0.98-7.24c2.04,1.32,5.32,3.12,9.64,4.05c5.82,1.25,8.97-0.07,12.04,0.41
		c4.34,0.67,10.04,5.15,15.27,22.86c8.36,7.75,20.46,9.98,30.9,5.7c10.88-4.46,18.05-15.2,18.04-27.09
		C270.84,153.47,262.62,148.69,251.52,146.04z"/>
	<g>
		<path class="st23" d="M26.8,47.92c-0.36-0.9-0.78-2.33-0.54-3.98c0.31-2.12,1.5-3.21,4.94-6.64c5.58-5.56,7.01-7.26,8.66-6.77
			c0.42,0.12,0.83,0.54,1.64,1.38c2.94,3.04,4.85,5.01,4.52,7.09c-0.22,1.41-1.32,1.81-2.26,4.39c-0.48,1.33-0.58,1.63-0.58,1.63
			c-0.46,1.5-0.37,1.84-0.7,2.05c-0.76,0.49-2.71-0.45-3.35-1.92c-0.33-0.77-0.25-1.55-0.16-2.38c0.1-0.92,0.15-1.39,0.49-1.81
			c0.57-0.71,1.31-0.57,2.68-1.16c0.86-0.37,1.48-0.82,1.85-1.12c-0.55,0.08-1.32,0.23-2.2,0.5c-1.21,0.37-1.87,0.73-2.23,0.42
			c-0.24-0.2-0.14-0.51-0.19-1.12c-0.12-1.4-0.87-2.55-1.05-2.5c-0.28,0.08,1.2,3.28-0.14,4.7c-0.83,0.89-2.73,1.06-3.55,0.91
			c-0.03,0-0.07-0.01-0.16-0.03c-0.98-0.18-1.86-0.25-1.87-0.22c-0.01,0.04,1.72,0.67,3.88,0.56c0.99-0.05,1.46-0.22,1.78,0.11
			c0.5,0.5,0.21,1.74-0.32,2.54c-0.33,0.5-0.79,0.89-2.39,1.63c-0.86,0.4-2.05,0.89-3.54,1.35c1.63-0.13,2.83-0.52,3.64-0.87
			c1.52-0.65,2.09-1.24,2.94-1c0.96,0.27,0.9,1.25,2.1,1.89c0.9,0.48,1.27,0.11,2.54,0.35c2.12,0.4,3.56,1.92,4.5,2.91
			c1.07,1.13,1.65,2.18,1.77,2.41c0.16,0.29,3.15,6.07,0.21,9.61c-2.11,2.54-6.71,3.13-10.76,0.81L26.8,47.92z"/>
		<path class="st23" d="M26.6,47.39c-0.72-1.6-1.37-3.8-0.54-5.81c0.39-0.95,0.72-0.89,2.35-2.96c0.41-0.52,2.04-2.61,3.62-5.49
			c1.07-1.95,0.86-1.96,1.53-2.88c0.6-0.82,2.42-3.3,4.89-3.26c0.29,0.01,1.03,0.05,1.78,0.48c0.98,0.55,1.29,1.33,1.85,2.18
			c1.39,2.11,2.47,1.85,3.5,3.42c0.57,0.86,1.14,2.29,0.85,4.71c-0.91-2.07-1.97-3.56-2.75-4.52c-1.08-1.33-1.97-2.04-2.59-2.48
			c-0.85-0.59-1.27-0.89-1.75-0.96c-1.26-0.19-2.23,0.84-5,3.58c-1.45,1.43-2.89,2.86-4.34,4.29c-1.1,1.08-3.14,3.06-3.83,5.26
			c-0.08,0.25-0.12,0.44-0.13,0.5C25.73,45.07,26.21,46.51,26.6,47.39z"/>
		<path class="st23" d="M33.26,30.52c1.09-3.08,3.04-5.06,4.85-4.94c0.34,0.02,0.78,0.13,1.26,0.44c0.49,0.58,0.97,1.15,1.46,1.73
			c-0.5-0.5-1.29-1.09-2.31-1.21C36.52,26.29,34.31,27.86,33.26,30.52z"/>
		<path class="st23" d="M40.87,26.94c-0.64-1.84-0.46-2.5-0.16-2.74c0.81-0.65,2.53,1.54,5.56,1.6c2.21,0.04,3-1.1,4.24-0.53
			c1.41,0.64,1.71,2.72,1.95,4.16c1.63,9.65,3.96,9.48,3.82,15.81c-0.08,3.29-0.71,3.52-0.71,7.69c0,2.94,0.31,4.11-0.41,5.78
			c-1.2,2.8-4.36,4.8-5.46,4.11c-1.39-0.86,1.7-5.31-0.36-10.32c-0.07-0.16-0.93-2.19-2.71-3.69c-1.45-1.22-2.93-1.59-3.23-1.53
			c0,0-0.01,0-0.01,0c-0.16-0.07,0.49-2,1-3.33c0.88-2.29,0.91-1.7,1.63-3.63c0.27-0.72,0.47-1.37,1.11-1.91
			c0.53-0.45,1.08-0.6,1.33-0.67c0.41-0.11,1.37-0.29,3.3,0.43c1.81,0.67,2.83,1.51,2.85,1.49c0.02-0.04-2.08-2.49-4.92-2.52
			c-1.29-0.01-2.11,0.47-2.66-0.07c-0.54-0.53,0.04-1.21-0.52-2.89c-0.24-0.72-0.56-1.21-0.32-1.53c0.16-0.22,0.46-0.19,0.89-0.24
			c1.3-0.15,2.23-0.92,2.59-1.22c0.72-0.6,1.39-1.53,1.23-1.7c-0.32-0.36-3.59,3.17-6.03,2.18c-0.31-0.12-0.53-0.32-0.97-0.71
			C43.01,30.15,41.85,28.9,40.87,26.94z"/>
	</g>
	<path class="st207" d="M273.63,155.47c-0.21-0.13-0.42-0.27-0.63-0.4c-0.66,0.25-1.74,0.58-3.11,0.58c-1.35,0-2.42-0.3-3.09-0.55
		c-8.73-5.91-12.55-5.97-14.38-4.69c-1.82,1.28-1.54,3.8-4.23,5.28c-2.7,1.48-4.53-0.3-6.59,1.3c-2.32,1.81-0.93,4.31-3.24,6.5
		c-2.5,2.37-5.25,0.53-7.26,2.88c-1.54,1.8-0.27,3.29-1.9,6.63c-0.38,0.79-0.78,1.36-1.15,1.81c-0.76,0.9-1.28,1.43-1.66,1.83
		c0.17,0.55,0.34,1.11,0.51,1.69c4.16,3.86,9.25,6.35,14.6,7.35C252.2,175.61,262.91,165.54,273.63,155.47z"/>
	<path class="st207" d="M276.5,155.67c1.26,0.71,2.23,2.35,2.62,10.44c0.37,7.63,0.56,11.44-0.26,14.6
		c-1.89,7.32-7.94,17.26-15.74,18.01c-4.05,0.39-4.29-2.11-13.66-4.55c-7.6-1.98-8.66-0.65-12.87-2.76
		c-6.02-3.01-10.99-9.32-9.7-13.07c0.59-1.71,2.03-1.58,3.4-4.37c1.53-3.1,0.35-4.47,1.79-6.15c1.89-2.18,4.45-0.48,6.79-2.69
		c2.17-2.04,0.88-4.35,3.05-6.04c1.99-1.55,3.54,0.04,6.16-1.23c3.74-1.82,2.84-6.17,5.92-7.17c1.57-0.51,3.7,0.52,7.97,2.58
		c3.55,1.72,3.27,2.1,4.94,2.57C271.58,157.17,274.02,154.28,276.5,155.67z"/>
	<path class="st208" d="M268.18,158.48c-1.33-1.07-3.39-2.55-6.14-3.85c-3.47-1.64-5.76-2.72-8.09-1.78
		c-1.94,0.78-3.9,2.96-3.73,5.13c0.04,0.51,0.19,0.92,0.32,1.21c-1.92-0.6-3.5-0.56-4.43-0.46c-1.27,0.14-2.83,0.36-3.99,1.58
		c-0.89,0.94-1.18,2.09-1.47,3.25c-0.25,0.99-0.32,1.84-0.33,2.45c-0.99,0.2-2.11,0.5-3.32,0.94c-1.4,0.51-2.59,1.09-3.57,1.65
		c-0.4,0.39-1.18,1.25-1.58,2.61c-0.5,1.71-0.09,3.14,0.09,3.66c-0.58,0.31-3.3,1.86-3.69,4.6c-0.37,2.6,1.6,4.68,2.94,6.05
		c2.19,2.25,4.96,3.83,14.74,6.34c7.32,1.87,11.04,2.8,13.83,2.28c4.97-0.93,8.36-3.77,11.08-6.05c3.11-2.6,5.93-4.94,7.33-9
		c0.78-2.25,0.51-5.77-0.05-12.72c-0.52-6.46-1.04-8.29-1.88-9.09c-0.09-0.08-0.17-0.15-0.24-0.2c0,0-0.09-0.07-0.19-0.12
		c-2.08-1.23-3.97-0.55-3.97-0.55c-0.73,0.26-1.26,0.69-1.63,1.09c-0.19,0.2-0.63,0.86-0.63,0.86c0,0,2.91,3.87,5.41,8.18
		c0.82,1.42,1.45,2.62,1.86,3.44C273.98,166.13,271.08,162.3,268.18,158.48z"/>
	<ellipse class="st209" cx="150.99" cy="145.71" rx="36.25" ry="41.52"/>
	<path class="st210" d="M120.53,167.03c1.63,2.14,5.36,6.44,11.68,8.81c10.9,4.1,20.64-0.83,22.28-1.69
		c5.86-3.73,15.03-10.69,22.42-22.32c4.07-6.4,6.51-12.5,8.01-17.39c0.9,3.46,4.14,17.52-3.63,31.78
		c-4.92,9.03-11.96,13.95-15.57,16.12c-2.93,1.49-10.81,4.98-20.71,3.27C128.93,182.84,121.42,168.77,120.53,167.03z"/>
	<path class="st207" d="M104.34,220.28c1.45-0.51,3.51-1.31,5.88-2.5c4.14-2.09,6.88-4.21,10.71-7.21
		c6.59-5.16,9.89-7.74,11.35-8.91c7.79-6.2,11.72-9.32,13.31-9.96c1.15-0.47,12.15-4.93,18.35-0.01c3.31,2.62,4.12,6.97,9.52,14.53
		c2.23,3.13,3.97,5.01,7.33,8.66c6.6,7.18,14.45,15.78,23.78,25.97c0.87,0.87,4.78,4.6,10.88,4.75c7.86,0.19,12.59-5.72,13.1-6.38
		c-13.69-5.29-48.61-44.11-51.44-50.65c-1.21-2.79-1.43-5.07-0.94-7.16c0.47-2.03,1.53-3.49,2.26-4.34
		c2.24-3.89,4.48-7.79,6.72-11.68c0.91-1.61,1.87-3.59,2.67-5.93c1.21-3.53,1.67-6.71,1.83-9.16c2.23,1.41,5.85,3.32,10.67,4.32
		c3.99,0.83,7.41,0.74,9.81,0.49c0.76-0.01,1.82,0.07,3,0.47c0.64,0.22,1.18,0.48,1.62,0.73c-0.68-0.54-1.73-1.34-3.05-2.22
		c-4.47-2.99-8.28-4.41-9.11-4.74c-3.33-1.34-8.42-5.09-16.23-15.51c0.42,1.88,0.78,3.98,1.03,6.27c0.34,3.2,0.36,6.1,0.24,8.61
		c-0.37,5.38-1.91,16.87-9.79,26.29c-3.19,3.81-6.41,6.08-7.12,6.57c-6.89,4.76-13.64,5.73-15.99,5.99
		c-3.09,0.33-9.4,0.59-16.45-2.27c-8.83-3.57-13.62-9.9-15.72-12.75c-2.24-3.04-2.78-5.63-3.39-5.47c-1.46,0.38,3.65,14.4,1.1,27.75
		C118.06,206.41,110.59,214.83,104.34,220.28z"/>
	<path class="st207" d="M230.48,144.23c-0.14-1.03-0.33-2.14-0.6-3.32c-0.2-0.89-0.43-1.73-0.67-2.51
		c-1.21,1.98-2.42,4.13-3.61,6.46c-1.62,3.17-2.95,6.21-4.04,9.03c0.65-1.42,1.9-3.62,4.24-5.42c1.32-1.01,2.52-1.54,4.13-2.23
		c1.63-0.7,3.95-1.54,6.9-2.12C234.5,144.06,232.35,144.11,230.48,144.23z"/>
	<path class="st23" d="M18.28,11.15c0.31-0.47,1.49-0.19,1.81-0.12c2.88,0.67,4.61,3.23,5.31,4.31c2.15,3.28,2.51,6.71,2.53,8.72
		c0.55,1.73,1.1,3.45,1.66,5.18c0.66,0.84,1.32,1.69,1.99,2.53l-3.7,6.49c0.01-0.76-0.07-2.06-0.71-3.5
		c-1.03-2.32-4.37-8.31-4.88-10.31c-0.25-2.06-0.51-4.12-0.76-6.19c0.19,0.07,0.5,0.15,0.87,0.1c0.13-0.02,0.25-0.05,0.35-0.08
		c-0.13,0.03-0.34,0.07-0.59,0.04c-0.29-0.03-0.51-0.15-0.63-0.22c-0.25-0.82-0.7-2.08-1.5-3.51
		C18.97,12.74,17.93,11.68,18.28,11.15z"/>
	<path class="st207" d="M65.13,121.48c2.85,2.56,6.62,5.42,11.38,7.92c5.08,2.67,9.36,3.91,10.83,4.32
		c4.23,1.16,8.36,1.71,8.87,1.77c5.62,0.73,7.8,0.27,10.41,1.97c2.06,1.34,3.22,3.25,3.89,4.69c-0.12-1.9-0.09-4.85,0.93-8.25
		c0.92-3.08,2.29-5.39,3.34-6.87c-3.63,1.77-8.41,3.54-14.17,4.27C82.99,133.56,69.34,124.52,65.13,121.48z"/>
	<path class="st207" d="M95.13,96.3c-9.5-0.82-16.61,5.68-16.61,5.68c-1.42,1.3-3.88,3.91-5.53,8.22c2-2.42,5.43-5.94,10.61-8.72
		c7.9-4.24,15.37-4.34,18.84-4.16v0c-0.9-0.2-2.19-0.46-3.76-0.67C96.69,96.44,95.2,96.31,95.13,96.3z"/>
	<path class="st23" d="M149.28,104.62c-3.34,0.34-10.09,1.48-17,6.15c-7.77,5.25-11.42,12.06-12.83,15.12
		c3-3.62,7.38-8.18,13.4-12.49C138.99,109,144.82,106.3,149.28,104.62z"/>
	<path class="st211" d="M115.85,169.09c-3.95,0.16-10.92,1.02-17.9,5.32c-2.73,1.68-7.57,4.67-10.21,10.14
		c-0.87,1.81-1.64,4.16-1.89,4.94c-1.12,3.45-1.69,6.41-2.01,8.51c1.15-3.71,4.45-12.52,13.15-19.84
		C104.38,171.94,112.04,169.86,115.85,169.09z"/>
	<path class="st207" d="M84.91,266.17c1.03,0.3,2.52,0.87,4.05,1.98c2.27,1.64,4.9,4.66,4.13,6.08c-0.14,0.26-0.44,0.57-1.2,0.73
		c-1.09,0.1-2.19,0.21-3.28,0.31c0,0-2.73-0.35-6,0.04c-2.8,0.33-5.03,1.53-5.6,1.89c-2.75,1.71-4.16,4.14-4.82,5.54
		c-1.27,1.07-2.42,1.79-3.23,2.23c-1.42,0.79-6.15,3.34-11.83,2.24c-1.32-0.25-2.35-0.63-2.99-0.89c2.64,0.19,6.87,0.11,11.22-1.99
		c2.91-1.4,4.5-3.06,9.74-8.32C77.01,274.06,80.42,270.64,84.91,266.17z"/>
	<radialGradient id="SVGID_1_" cx="167.2555" cy="144.4872" r="30.9195" gradientUnits="userSpaceOnUse">
		<stop  offset="0" style="stop-color:#F2A1B2"/>
		<stop  offset="0.1777" style="stop-color:#F2E2E6"/>
		<stop  offset="0.2618" style="stop-color:#F0F8F9"/>
	</radialGradient>
	<circle style="fill:url(#SVGID_1_);" cx="167.64" cy="143.47" r="7.86"/>
	<radialGradient id="SVGID_4_" cx="127.8648" cy="143.1634" r="30.9195" gradientUnits="userSpaceOnUse">
		<stop  offset="0" style="stop-color:#F3A6B5"/>
		<stop  offset="0.1743" style="stop-color:#F2E2E5"/>
		<stop  offset="0.2618" style="stop-color:#F0F8F9"/>
	</radialGradient>
	<circle style="fill:url(#SVGID_4_);" cx="128.25" cy="142.15" r="7.86"/>
	<path d="M150.99,148.11c0.13-1.96,3.07-3.71,5.53-3.75c2.07-0.03,3.85,1.16,4.55,1.63c1.28,0.86,1.34,1.34,2.22,1.82
		c1.08,0.59,2.88,0.92,6.04-0.42c-0.71,0.51-1.73,1.12-3.03,1.57c-1.98,0.69-3.73,0.7-4.8,0.62c1.36,0.13,3.3,0.17,5.53-0.32
		c1.66-0.36,3.02-0.91,4.04-1.42c-0.8,0.63-1.91,1.36-3.31,1.94c-2.63,1.09-5.01,1.13-6.4,1.04c1.36,0.15,3.35,0.2,5.67-0.28
		c2.49-0.52,4.4-1.46,5.62-2.19c-3.4,2.79-6.61,3.93-8.52,4.43c-1.68,0.44-3.5,0.9-5.8,0.53
		C155.05,152.78,150.82,150.55,150.99,148.11z"/>
	<path d="M135.54,149.82c0.58-1.02,0.46-2.69-0.11-3.8c-0.03-0.06-0.05-0.1-0.06-0.12c-0.23-0.42-0.94-1.56-2.23-1.91
		c-2.08-0.57-3.13,1.63-6.1,1.43c-0.64-0.04-1.8-0.13-2.67-1.01c-1.09-1.1-1.01-2.68-0.99-3.06c-0.13,0.5-0.29,1.39,0.01,2.4
		c0.7,2.36,3.21,3.14,3.44,3.21c-0.56-0.1-1.47-0.35-2.41-0.98c-0.45-0.3-1.05-0.7-1.5-1.45c-0.67-1.1-0.59-2.25-0.52-2.75
		c-0.17,0.37-0.5,1.28-0.27,2.36c0.19,0.88,0.65,1.45,0.99,1.85c1.14,1.35,2.63,1.86,3.41,2.06c-0.61-0.06-1.91-0.28-3.14-1.24
		c-2.11-1.66-2.29-4.18-2.32-4.6c-0.09,0.79-0.21,2.74,0.87,4.79c0.16,0.31,0.91,1.67,2.48,2.82c2.85,2.08,6.02,1.71,7.15,1.58
		C133.26,151.21,134.86,151.03,135.54,149.82z"/>
	<path d="M141.44,129.77c0.17-5.14-3.98-9.13-8.36-8.94c-4.13,0.18-7.21,4-7.52,7.76c-0.03,0.38-0.29,4.11,2.02,5.9
		C130.46,136.71,136.63,135.42,141.44,129.77z"/>
	<path d="M152.58,129.54c2.89-5.96,9.29-8.31,13.71-6.29c3.38,1.55,6.05,5.85,5.09,9.95c-0.53,2.28-2.2,4.56-4.45,5.4
		C162.77,140.18,156.41,136.85,152.58,129.54z"/>
	<path class="st214" d="M126.61,129.67c0,0,1.15,4.17,14.11-0.27C140.71,129.4,133.47,113.81,126.61,129.67"/>
	<path class="st214" d="M153.38,129.48c0,0,12.39-13.2,15.96,3.16c-1.32,0.4-3.02,0.74-5,0.74
		C158.9,133.36,154.96,130.7,153.38,129.48z"/>
	<path class="st18" d="M131.92,128.92c0-1.77-1.13-3.28-2.7-3.86c-0.87,1.1-1.74,2.6-2.61,4.61c0,0,0.49,1.78,4.44,1.77
		C131.59,130.75,131.92,129.87,131.92,128.92z"/>
	<path class="st18" d="M167.13,127.03c-2.04,0.24-3.63,1.97-3.63,4.08c0,0.84,0.25,1.62,0.68,2.27c0.05,0,0.1,0,0.15,0.01
		c1.98,0.01,3.68-0.34,5-0.74C168.78,130.12,168.02,128.3,167.13,127.03z"/>
	<circle class="st215" cx="167.88" cy="131.46" r="1.47"/>
	<circle class="st215" cx="128.25" cy="129.32" r="1.29"/>
	<path d="M143.01,128.13c-0.63,3.01-1.74,5.03-2.63,6.32c-1,1.44-2.27,2.76-4.61,6c-1.42,1.97-1.67,2.48-1.53,3.07
		c0.51,2.06,5.32,2.68,6.69,2.65c1.93-0.04,3.66-0.11,5.13-0.17c3.76-0.17,4.8-0.32,5.44-1.14c0.69-0.89,0.53-2.08,0.41-2.99
		c-0.32-2.42-1.62-3.11-2.51-5.18c-0.09-0.21-1.61-3.86-0.09-7.2c1.33-2.93,4.27-4.1,6.37-4.93c0.97-0.38,3.3-1.21,6.37-1.11
		c1.24,0.04,4.44,0.18,7.64,2.26c1.08,0.7,1.87,1.44,2.39,1.97c-0.22-0.45-0.53-0.98-0.97-1.52c-0.76-0.94-1.6-1.52-2.2-1.87
		c0.56,0.19,1.41,0.56,2.26,1.26c1.02,0.84,1.58,1.77,1.87,2.34c-0.1-0.55-0.59-2.81-2.62-4.09c-0.65-0.41-1.29-0.61-1.8-0.71
		c0.6,0.05,1.84,0.25,3.06,1.12c1.79,1.28,2.31,3.13,2.43,3.65c-0.16-0.95-0.85-4.45-4-6.92c-0.39-0.31-2.25-1.71-5.07-2.13
		c-3.75-0.55-6.69,1.02-8.78,2.11c-2.22,1.15-3.8,2.53-4.81,3.55c-0.78,0.11-2.16,0.25-3.72,0.08c-0.5-0.05-1.52-0.17-2.77-0.58
		c-0.08-0.02-0.15-0.05-0.24-0.08c-2.28-0.83-5.46-2.93-5.52-2.97l0,0c-4.08-2.62-4.52-3.11-5.27-3.46
		c-2.3-1.09-5.12,0.24-6.58,0.94c-4.57,2.16-6.06,6.59-6.04,6.6c0.02,0.01,1.81-3.83,5-4.27c0.62-0.09,1.15-0.02,1.47,0.04
		c-0.55,0.05-1.7,0.22-2.87,1.02c-1.38,0.94-1.97,2.2-2.17,2.71c0.47-0.58,1.59-1.79,3.43-2.33c0.78-0.23,1.48-0.28,2.02-0.27
		c-0.61,0.07-1.68,0.28-2.79,1c-0.76,0.49-1.27,1.05-1.6,1.46c0.89-0.51,2.19-1.13,3.86-1.53c0.32-0.08,2.77-0.65,5.56-0.26
		C138.56,123.29,142.11,127.1,143.01,128.13z"/>
	<path class="st23" d="M140.44,135.07c-0.2,0.25-0.99,1.2-2.18,2.63c-0.49,0.59-1.11,1.38-2.05,2.67c-1.21,1.65-1.95,2.83-1.65,3.17
		c0.41,0.46,2.16-1.22,3.63-0.56c1.1,0.49,0.77,1.71,2.03,2.46c1.08,0.65,2.57,0.48,3.56,0.01c1.27-0.61,1.11-1.45,2.33-1.85
		c0.83-0.27,2.05-0.26,2.94,0.35c0.78,0.54,0.92,1.27,1.43,1.25c0.56-0.03,0.92-0.92,0.97-1.04c0.34-0.83,0.23-1.81-0.38-3.16
		c-0.93-2.08-1.84-2.31-2.61-3.68c-1.29-2.28-0.66-4.92-0.19-6.84c0.71-2.94,2.23-4.96,3.19-6.02c-1.56,0.66-3.16,1.37-4.79,2.12
		c-1.1,0.51-2.18,1.03-3.23,1.55C142.68,131.77,141.46,133.84,140.44,135.07z"/>
	<path class="st216" d="M147.7,136.27c0.18,0.62,0.51,1.49,1.18,2.36c0.54,0.7,0.77,0.71,1.27,1.4c0.93,1.31,1.03,2.57,1.04,2.85
		c0.01,0.18,0.1,1.8-0.46,1.99c0,0-0.29,0.1-2.04-1.65l0,0C148.36,140.9,148.03,138.59,147.7,136.27z"/>
	<path d="M134.86,152.61c0,0,4.99-6.95,6.71-4.24c0,0,1.93-2.11,3.68-0.67c1.22,2.12,3.19,3.41,5.12,3.22
		c0.44-0.04,1.12-0.19,1.89-0.69c0,0-5.21,7.04-8.25,4.55c0,0-2.62,2.24-4.7,0.54C139.31,155.32,137.1,152.2,134.86,152.61z"/>
	<path class="st211" d="M136.59,152c0.58-0.99,1.26-1.6,1.69-1.93c0.57-0.44,1.08-0.83,1.77-0.82c0.71,0,0.79,0.43,1.45,0.42
		c0.88-0.01,1.01-0.77,2.03-0.89c0.13-0.02,0.92-0.1,1.54,0.37c0.44,0.34,0.37,0.64,0.83,1.11c0.11,0.11,0.39,0.37,1.41,0.76
		c0.55,0.21,1.34,0.47,2.33,0.64c-0.42,0.21-1.1,0.5-1.96,0.66c-2.84,0.52-4.42-0.99-7.45-1.01
		C139.38,151.3,138.12,151.41,136.59,152z"/>
	<path class="st217" d="M137.27,152.16c0.52,0.25,0.89,0.51,1.12,0.69c0.49,0.38,0.62,0.61,1.12,0.96c0.05,0.03,0.55,0.38,0.98,0.54
		c1.14,0.41,2.39-0.3,2.78-0.54c0.6,0.11,1.73,0.24,3.06-0.12c1.5-0.41,2.48-1.22,2.93-1.65c-0.48,0.23-1.26,0.55-2.26,0.65
		c-0.32,0.03-1.04,0.08-3.09-0.31c-1.63-0.31-1.78-0.46-2.57-0.58C140.4,151.66,139.04,151.62,137.27,152.16z"/>
	<path class="st211" d="M154.09,98.95c-4.12,0.1-10.41,0.74-17.47,3.54c-3.25,1.28-7.45,2.95-11.61,6.66
		c-6.49,5.79-8.94,13.09-9.92,17.2c1.87-4.01,5.48-10.33,12.1-16.02C137.78,101.22,149.43,99.42,154.09,98.95z"/>
	<path class="st218" d="M229.06,181.75c3.08,1.86,17.21,9.95,33.8,5.29c6.81-1.91,11.78-5.33,14.9-7.96
		c-2.24,3.57-5.62,7.7-10.54,10.96c-2.38,1.58-5.16,3.37-9.02,3.59c-1.52,0.09-2.92-0.16-5.72-0.67c-0.9-0.16-4.1-0.76-9.13-2.34
		c-2.44-0.77-5.56-1.84-9.12-3.32c-0.89-0.66-1.91-1.53-2.94-2.66C230.33,183.62,229.61,182.62,229.06,181.75z"/>
	<path class="st207" d="M103.24,221.51c-6.11,14.37-12.22,28.74-18.34,43.1c3.23-2.71,7.11-6.62,10.5-12.02
		C103.31,239.98,103.52,227.2,103.24,221.51z"/>
	<path class="st211" d="M183.02,115.77c2.55-0.78,15.33-4.41,28.49,2.59c10.27,5.47,14.79,14.23,16.18,17.25
		c-2.13-3.37-7.75-11.26-18.36-16.28C197.6,113.79,186.87,115.11,183.02,115.77z"/>
	<path class="st207" d="M189.65,169.37c7.12,4.95,17.2,13.19,26.42,25.8c8.66,11.85,13.36,23.21,15.97,31.21
		c-1.45-7.1-4.69-18.31-12.53-29.98C209.28,181.19,196.52,173.08,189.65,169.37z"/>
	<path class="st211" d="M73.05,75.73c3.41,2.24,7.34,5.17,11.37,8.97c4.1,3.86,7.31,7.67,9.77,10.99c-0.76-1.84-1.95-4.28-3.79-6.9
		c-3.36-4.8-7.01-7.54-8.17-8.38C78.87,77.99,75.6,76.58,73.05,75.73z"/>
</g>
<g id="レイヤー_6">
	<g id="レイヤー_7">
	</g>
</g>
</svg>
