<?xml version="1.0" encoding="utf-8"?>
<!-- Generator: Adobe Illustrator 24.0.3, SVG Export Plug-In . SVG Version: 6.00 Build 0)  -->
<svg version="1.1" id="レイヤー_1" xmlns="http://www.w3.org/2000/svg" xmlns:xlink="http://www.w3.org/1999/xlink" x="0px"
	 y="0px" viewBox="0 0 425.2 425.2" style="enable-background:new 0 0 425.2 425.2;" xml:space="preserve">
<style type="text/css">
	.st0{fill:url(#SVGID_1_);stroke:url(#SVGID_3_);stroke-miterlimit:10;}
	.st1{clip-path:url(#SVGID_4_);}
	.st2{fill:#70C8DD;}
	.st3{fill:#65A2A3;}
	.st4{fill:#82CBCC;}
	.st5{fill:#7EC6C6;}
	.st6{fill:#F0F2F7;}
	.st7{fill:none;stroke:#000000;stroke-width:0.25;stroke-miterlimit:10;}
	.st8{fill:none;}
	.st9{fill:#F2DCCD;}
	.st10{fill:#D9B799;}
	.st11{fill:#C2A289;}
	.st12{fill:#B59680;}
	.st13{fill:#73172F;}
	.st14{fill:#65142D;}
	.st15{fill:#A80228;}
	.st16{fill:#5B0D27;}
	.st17{fill:#323333;}
	.st18{fill:#863156;}
	.st19{fill:#F1F9FE;}
	.st20{fill:#EAF6FD;}
	.st21{fill:#FCFEFF;}
	.st22{fill:#FFFFFF;}
	.st23{fill:#D8EFFC;}
	.st24{fill:#DFF2FC;}
	.st25{fill:#E6C6B0;}
	.st26{fill:#C8A68D;}
	.st27{fill:#323333;stroke:#000000;stroke-width:0.25;stroke-miterlimit:10;}
	.st28{fill:#F2F3F7;}
	.st29{fill:#F5F3F7;}
	.st30{fill:#EEF1F7;}
	.st31{fill:#E3E8F4;}
	.st32{fill:#F9F5F8;}
	.st33{fill:#ECECF4;}
	.st34{fill:#F1D0BC;}
	.st35{fill:#F3CCC2;}
	.st36{fill:#F2D7D1;}
	.st37{fill:#EECAC3;}
	.st38{fill:#F3E1DE;}
	.st39{fill:#5F1B32;}
	.st40{fill:#FFFFFF;stroke:#000000;stroke-miterlimit:10;}
	.st41{fill:#B29583;}
	.st42{fill:#C4A591;}
	.st43{fill:#CDAC97;}
	.st44{fill:#DEBBA3;}
	.st45{fill:#EEC7AD;}
	.st46{fill:#E3BFA6;}
	.st47{fill:#EDF7FD;}
	.st48{fill:#E6F4FD;}
	.st49{fill:#B77878;}
	.st50{fill:#E19492;}
	.st51{fill:#D2A090;}
	.st52{fill:#C09284;}
	.st53{fill:#ECB3A0;}
	.st54{fill:#E4AD9B;}
	.st55{fill:#EAEDEF;}
	.st56{fill:#70B1B2;}
	.st57{fill:#75B8B9;}
	.st58{fill:#59C4F1;}
	.st59{fill:#885D85;}
	.st60{fill:#835981;}
	.st61{fill:#91648E;}
	.st62{fill:#8D618A;}
	.st63{fill:#0E2B2B;}
	.st64{fill:#B3DCCF;}
	.st65{fill:#C5D7E2;}
	.st66{fill:#9AD3CD;}
	.st67{fill:#95D5F6;}
	.st68{fill:#82CACB;}
	.st69{fill:#8ACDCC;}
	.st70{fill:#7ABFC0;}
	.st71{fill:#A3D6CE;}
	.st72{fill:#B1DBCF;}
	.st73{fill:#6BA9AA;}
	.st74{fill:#609A9B;}
	.st75{fill:#80C8C9;}
	.st76{fill:#9BD5E0;}
	.st77{fill:#4E8182;}
	.st78{fill:#7CC3C4;}
	.st79{fill:none;stroke:#000000;stroke-miterlimit:10;}
	.st80{stroke:#000000;stroke-miterlimit:10;}
	.st81{fill:#ACA399;}
	.st82{fill:#D2C7BB;}
	.st83{fill:#C0B5AB;}
	.st84{fill:#E4D7CA;}
	.st85{fill:#727171;}
	.st86{fill:#595757;}
	.st87{fill:#DAAB9E;}
	.st88{fill:#E8B7A8;}
	.st89{fill:#898989;}
	.st90{fill:#D58289;}
	.st91{fill:#E38B92;}
	.st92{fill:#E2B1A3;}
	.st93{fill:#A36B6D;}
	.st94{fill:#B9BABA;}
	.st95{fill:#3E3A39;}
	.st96{fill:#B79086;}
	.st97{fill:#AEBBC2;}
	.st98{fill:#553D37;}
	.st99{fill:#4C4948;}
	.st100{fill:#B5B5B6;}
	.st101{fill:#9FA0A0;}
	.st102{fill:#F4E5D7;}
	.st103{fill:#F4E9D9;}
	.st104{fill:#6F1B05;}
	.st105{fill:#F4F6F7;}
	.st106{fill:#F1F3F4;}
	.st107{fill:#822510;}
	.st108{fill:#4E0500;}
	.st109{fill:#A2341F;}
	.st110{fill:#DFE1E2;}
	.st111{fill:#76200A;}
	.st112{fill:#5F1200;}
	.st113{fill:#3D0000;}
	.st114{fill:#E6EBEE;stroke:#9FA0A0;stroke-width:0.25;stroke-miterlimit:10;}
	.st115{fill:#F8FAFB;}
	.st116{fill:#F0F5F8;}
	.st117{fill:#CED9DF;stroke:#9FA0A0;stroke-width:0.25;stroke-miterlimit:10;}
	.st118{fill:#D3DEE5;stroke:#9FA0A0;stroke-width:0.25;stroke-miterlimit:10;}
	.st119{fill:#8C2A16;}
	.st120{fill:#A63620;}
	.st121{fill:#99301B;}
	.st122{fill:#A13019;}
	.st123{fill:#751B03;}
	.st124{fill:#460000;}
	.st125{fill:#7E230E;}
	.st126{fill:#E3E5E6;}
	.st127{fill:#DEE6EB;stroke:#9FA0A0;stroke-width:0.25;stroke-miterlimit:10;}
	.st128{fill:#BE3518;}
	.st129{fill:#290000;}
	.st130{fill:#320000;}
	.st131{fill:#2C0000;}
	.st132{fill:#EAEDEF;stroke:#9FA0A0;stroke-width:0.25;stroke-miterlimit:10;}
	.st133{fill:#9D9FA0;}
	.st134{fill:#110C0E;}
	.st135{fill:#181718;}
	.st136{fill:#202020;}
	.st137{fill:#252526;}
	.st138{fill:#DCDDDD;}
	.st139{fill:#1B1B1B;}
	.st140{fill:#3E3E3E;}
	.st141{fill:#3A3B3B;}
	.st142{fill:#363737;}
	.st143{fill:#2E2F2F;}
	.st144{fill:#161415;}
	.st145{fill:#530000;}
	.st146{fill:#680000;}
	.st147{fill:#7D0000;}
	.st148{fill:#910000;}
	.st149{fill:#A40000;}
	.st150{fill:#B60005;}
	.st151{fill:#470000;}
	.st152{fill:#292A2A;}
	.st153{fill:#414242;}
	.st154{fill:#D19C77;}
	.st155{fill:#D9A57D;}
	.st156{fill:#D09A77;}
	.st157{fill:#D8A07B;}
	.st158{fill:#C99A74;}
	.st159{fill:#D8A27B;}
	.st160{fill:#CC9A75;}
	.st161{fill:#BF906E;}
	.st162{fill:#D5A57C;}
	.st163{fill:#CA9D76;}
	.st164{fill:#E4AA80;}
	.st165{fill:#E1A77E;}
	.st166{fill:#E4A87F;}
	.st167{fill:#DDA37B;}
	.st168{fill:#7C3021;}
	.st169{fill:#D6A07A;}
	.st170{fill:#D59F7A;}
	.st171{fill:#644633;}
	.st172{fill:#D9A97E;}
	.st173{fill:#CEA178;}
	.st174{fill:#DCAB80;}
	.st175{fill:#E0AE82;}
	.st176{fill:#D4A07A;}
	.st177{fill:#CB9974;}
	.st178{fill:#DBA67E;}
	.st179{fill:#CF9D77;}
	.st180{fill:#DFA880;}
	.st181{fill:#D69D77;}
	.st182{fill:#D49E79;}
	.st183{fill:#E9EFF3;}
	.st184{fill:#CD9A76;}
	.st185{fill:#F0F4F7;}
	.st186{fill:#A2B4BD;}
	.st187{fill:#C6DBE7;}
	.st188{fill:#BED2DE;}
	.st189{fill:#D2E8F4;}
	.st190{fill:#C3D7E3;}
	.st191{fill:#BBCFDA;}
	.st192{fill:#CAE0EC;}
	.st193{fill:#32363A;}
	.st194{fill:#B3C6D1;}
	.st195{fill:#CCE1EE;}
	.st196{fill:#4A5257;}
	.st197{fill:#EDEFF1;}
	.st198{fill:#6A0F00;}
	.st199{fill:#C4361E;}
	.st200{fill:#772C16;}
	.st201{fill:#E85706;}
	.st202{fill:#CFE5F1;}
	.st203{fill:url(#背景_5_);}
	.st204{fill:#620F13;}
	.st205{fill:#BF1A20;}
	.st206{fill:#901D22;}
	.st207{fill:#EDF6F8;}
	.st208{fill:#F0F8F9;}
	.st209{fill:#BBCACA;}
	.st210{fill:#E83A37;}
	.st211{fill:url(#SVGID_5_);}
	.st212{fill:url(#SVGID_6_);}
	.st213{fill:#F3EEF6;}
	.st214{fill:#FBE2DE;}
	.st215{fill:#E4F3F6;}
	.st216{fill:#C13432;}
	.st217{fill:#D0C9CA;}
	.st218{fill:#00003D;}
	.st219{fill:url(#SVGID_7_);}
	.st220{fill:url(#SVGID_8_);}
	.st221{fill:#FFFFFF;stroke:#000000;stroke-width:0.5;stroke-miterlimit:10;}
	.st222{fill:url(#SVGID_9_);}
	.st223{fill:url(#SVGID_10_);}
	.st224{fill:url(#SVGID_11_);}
	.st225{fill:url(#SVGID_12_);}
	.st226{fill:url(#SVGID_13_);}
	.st227{fill:url(#SVGID_14_);}
	.st228{fill:url(#SVGID_15_);}
	.st229{fill:url(#SVGID_16_);}
	.st230{fill:url(#SVGID_17_);}
	.st231{fill:url(#SVGID_18_);}
	.st232{fill:url(#SVGID_19_);}
	.st233{fill:url(#SVGID_20_);}
	.st234{fill:url(#SVGID_21_);}
	.st235{fill:url(#SVGID_22_);}
	.st236{fill:url(#SVGID_23_);}
	.st237{fill:url(#SVGID_24_);}
	.st238{fill:url(#SVGID_25_);}
	.st239{fill:url(#SVGID_26_);}
	.st240{fill:url(#SVGID_27_);}
	.st241{fill:url(#SVGID_28_);}
	.st242{fill:url(#SVGID_29_);}
	.st243{fill:url(#SVGID_30_);}
	.st244{fill:url(#SVGID_31_);}
	.st245{fill:url(#SVGID_32_);}
	.st246{fill:url(#SVGID_33_);}
	.st247{fill:url(#SVGID_34_);}
	.st248{fill:url(#SVGID_35_);}
	.st249{fill:url(#SVGID_36_);}
	.st250{fill:url(#SVGID_37_);}
	.st251{fill:url(#SVGID_38_);}
	.st252{fill:url(#SVGID_39_);}
	.st253{fill:url(#SVGID_40_);}
	.st254{fill:url(#SVGID_41_);}
	.st255{fill:url(#SVGID_42_);}
	.st256{fill:url(#SVGID_43_);}
	.st257{fill:url(#SVGID_44_);}
	.st258{fill:url(#SVGID_45_);}
	.st259{fill:url(#SVGID_46_);}
	.st260{fill:url(#SVGID_47_);}
	.st261{fill:url(#SVGID_48_);}
	.st262{fill:url(#SVGID_49_);}
	.st263{fill:url(#SVGID_50_);}
	.st264{fill:url(#SVGID_51_);}
	.st265{fill:url(#SVGID_52_);}
	.st266{fill:url(#SVGID_53_);}
	.st267{fill:url(#SVGID_54_);}
	.st268{fill:url(#SVGID_55_);}
	.st269{fill:url(#SVGID_56_);}
	.st270{fill:url(#SVGID_57_);}
	.st271{fill:url(#SVGID_58_);}
	.st272{fill:url(#SVGID_59_);}
	.st273{fill:url(#SVGID_60_);}
	.st274{fill:url(#SVGID_61_);}
	.st275{fill:url(#SVGID_62_);}
	.st276{fill:url(#SVGID_63_);}
	.st277{fill:url(#SVGID_64_);}
	.st278{fill:url(#SVGID_65_);}
	.st279{fill:url(#SVGID_66_);}
	.st280{fill:url(#SVGID_67_);}
	.st281{fill:url(#SVGID_68_);}
	.st282{fill:url(#SVGID_69_);}
	.st283{fill:url(#SVGID_70_);}
	.st284{fill:url(#SVGID_71_);}
	.st285{fill:url(#SVGID_72_);}
	.st286{fill:url(#SVGID_73_);}
	.st287{fill:url(#SVGID_74_);}
	.st288{fill:url(#SVGID_75_);}
	.st289{fill:url(#SVGID_76_);}
	.st290{fill:url(#SVGID_77_);}
	.st291{fill:url(#SVGID_78_);}
	.st292{fill:url(#SVGID_79_);}
	.st293{fill:url(#SVGID_80_);}
	.st294{fill:url(#SVGID_81_);}
	.st295{fill:url(#SVGID_82_);}
	.st296{fill:url(#SVGID_83_);}
	.st297{fill:url(#SVGID_84_);}
	.st298{fill:url(#SVGID_85_);}
	.st299{fill:url(#SVGID_86_);}
	.st300{fill:url(#SVGID_87_);}
	.st301{fill:url(#SVGID_88_);}
	.st302{fill:url(#SVGID_89_);}
	.st303{fill:url(#SVGID_90_);}
	.st304{fill:url(#SVGID_91_);}
	.st305{fill:url(#SVGID_92_);}
	.st306{fill:url(#SVGID_93_);}
	.st307{fill:url(#SVGID_94_);}
	.st308{fill:url(#SVGID_95_);}
	.st309{fill:url(#SVGID_96_);}
	.st310{fill:url(#SVGID_97_);}
	.st311{fill:url(#SVGID_98_);}
	.st312{fill:url(#SVGID_99_);}
	.st313{fill:url(#SVGID_100_);}
	.st314{fill:url(#SVGID_101_);}
	.st315{fill:url(#SVGID_102_);}
	.st316{fill:url(#SVGID_103_);}
	.st317{fill:url(#SVGID_104_);}
	.st318{fill:url(#SVGID_105_);}
	.st319{fill:url(#SVGID_106_);}
	.st320{fill:url(#SVGID_107_);}
	.st321{fill:url(#SVGID_108_);}
	.st322{fill:url(#SVGID_109_);}
	.st323{fill:url(#SVGID_110_);}
	.st324{fill:url(#SVGID_111_);}
	.st325{fill:url(#SVGID_112_);}
	.st326{fill:url(#SVGID_113_);}
	.st327{fill:url(#SVGID_114_);}
	.st328{fill:url(#SVGID_115_);}
	.st329{fill:url(#SVGID_116_);}
	.st330{fill:url(#SVGID_117_);}
	.st331{fill:url(#SVGID_118_);}
	.st332{fill:url(#SVGID_119_);}
	.st333{fill:url(#SVGID_120_);}
	.st334{fill:url(#SVGID_121_);}
	.st335{fill:url(#SVGID_122_);}
	.st336{fill:#E60012;}
	.st337{fill:url(#SVGID_123_);}
	.st338{fill:#070001;}
	.st339{fill:#989898;}
	.st340{fill:#040000;}
	.st341{fill:#666767;}
	.st342{fill:#333333;}
	.st343{fill:#E5E144;}
	.st344{fill:#BCBC29;}
	.st345{fill:#EAE673;}
	.st346{fill:#681217;}
	.st347{fill:#636332;}
	.st348{fill:#8A1E22;}
	.st349{fill:#DFDCE3;}
	.st350{fill:#A62224;}
</style>
<radialGradient id="SVGID_1_" cx="212.5984" cy="212.5984" r="282.5783" gradientTransform="matrix(1 0 0 1.046 0 -9.79)" gradientUnits="userSpaceOnUse">
	<stop  offset="0" style="stop-color:#6B1685"/>
	<stop  offset="0.1018" style="stop-color:#6A1B86"/>
	<stop  offset="0.1946" style="stop-color:#692888"/>
	<stop  offset="0.284" style="stop-color:#65398A"/>
	<stop  offset="0.3711" style="stop-color:#604C8C"/>
	<stop  offset="0.4568" style="stop-color:#57608E"/>
	<stop  offset="0.5413" style="stop-color:#47778C"/>
	<stop  offset="0.6232" style="stop-color:#298E85"/>
	<stop  offset="0.6775" style="stop-color:#009C7C"/>
	<stop  offset="0.7325" style="stop-color:#0F9876"/>
	<stop  offset="0.8447" style="stop-color:#318763"/>
	<stop  offset="1" style="stop-color:#31613F"/>
</radialGradient>
<linearGradient id="SVGID_3_" gradientUnits="userSpaceOnUse" x1="-8.4016" y1="212.5984" x2="433.5984" y2="212.5984">
	<stop  offset="0" style="stop-color:#187FC4"/>
	<stop  offset="1" style="stop-color:#187FC4;stop-opacity:0"/>
</linearGradient>
<rect x="-7.9" y="-12.4" class="st0" width="441" height="450"/>
<g>
	<path class="st2" d="M418.11,361.76c0.57,14.63-55.9,27.78-71.86,31.5c-43.92,10.23-67.04,8.34-133.63,10.4
		c-99.3,3.06-140.31,10.1-183.81-17.13C7.65,373.28,6.86,365.04,7.12,361.76c2.05-25.41,90.42-37.27,106.61-39.45
		c34.47-4.63,59.67-3.85,98.88-2.44c39.62,1.42,82.97,5.27,131.56,15.39C384.05,343.56,417.67,350.57,418.11,361.76z"/>
	<path class="st3" d="M374.39,357.18c0.28,13.91-69.6,40.02-134.84,29.04c-31.04-5.22-46.56-16.4-80.19-12.95
		c-7.96,0.82-24.46,3.23-45.65-1.23c-6.88-1.45-30.41-6.4-31.12-14.86c-1-11.88,43.52-24.49,48.81-26.05
		c26.62-7.86,63.36-13.4,144.61-0.32C333.8,340.12,374.18,346.66,374.39,357.18z"/>
	<path class="st4" d="M301.77,210.86c0,6.64,1.96,51.02-20.64,91.79c-7.65,13.79-14.29,13.75-13.87,19.98
		c0.61,8.98,64.58,28.61,63.84,35.33c-0.7,6.32-59.26,3.75-121.07,2.88c-75.51-1.07-118.42,0.92-119.66-7.28
		c-1.49-9.86,57.21-34.7,57-35.49c-0.12-0.46-0.41-0.47-1.6-1.94c-2.29-2.84-6.06-7.81-9.89-14.3
		c-22.41-37.99-19.14-80.66-18.36-90.96c6.3-82.26,59.56-135.08,73.84-140.61c0.45-0.17,3.02-0.9,5.63-3.01
		c5.14-4.15,6.46-10.35,6.6-11.06c1.85-9.34-5.82-12.36-5.19-21.8c0.53-7.91,6.63-16.27,11.77-15.97
		c4.97,0.29,9.44,8.72,10.08,15.97c0.88,9.85-5.68,13.25-3.44,23.09c0.33,1.46,1.48,6.24,5.45,9.88c3.17,2.91,6.72,3.71,7.4,3.96
		C251.43,79.34,301.77,137.27,301.77,210.86z"/>
	<path class="st5" d="M175.2,82.49c-12.4,12.91-27.76,32.09-39.66,58.25c-5.36,11.78-9.08,22.92-11.7,32.87
		c18.71,13.79,56.89,39.18,86.37,40.89c-7.25-1.83-33.04-9.27-47.88-33.61C144.95,152.4,149.66,112.42,175.2,82.49z"/>
	<path class="st56" d="M221.49,156.68c3.1,3.13,5.86,5.24,7.83,6.61c1.76,1.22,2.83,1.8,4.11,3.31c1.93,2.3,2.59,4.71,3.12,6.67
		c0.79,2.95,1.21,4.57,0.34,6.15c-1.04,1.88-3.25,2.47-4.09,2.65C229.02,173.6,225.25,165.14,221.49,156.68z"/>
	<path class="st57" d="M138.77,303.81c2.07,0.55,5.18,1.24,9,1.52c14.87,1.09,26.56-5.33,39.55-12.62
		c5.74-3.22,13.3-7.94,21.61-14.57c5.82,5.09,14.06,11.16,24.88,16.14c18.68,8.6,35.78,9.69,45.82,9.52l-74.12-41.19L138.77,303.81z
		"/>
	<path class="st57" d="M272.46,193.43c0,0-14.78,36.71,10.58,55.62C283.04,249.06,316.53,200.09,272.46,193.43z"/>
	<path class="st57" d="M144.57,223.65c-0.14-2.5,0.76-3.83,1.15-4.33c2.18-2.73,7.5-3.18,12.7-0.2c0.11-0.46,1.84-7.29,6.86-8.57
		c6.26-1.6,11.77,6.94,12.38,7.89c2.29,3.56,2.87,7.11,3.03,9.14c0.29,0.88,0.57,1.77,0.86,2.65L144.57,223.65z"/>
	<path class="st4" d="M181.55,230.23c-2.91-10.63-10.45-16.48-16.09-15.4c-0.82,0.16-3.88,0.9-6.61,5.39
		c2.52,2.08,6.22,4.68,11.15,6.79C174.46,228.92,178.5,229.8,181.55,230.23z"/>
	<path class="st4" d="M181.55,230.23c0,0-33.17-20.98-37.74-4.17L181.55,230.23z"/>
	<path class="st4" d="M181.55,230.23c-9.87-1.68-17.51-3.12-22.44-4.07c-7.61-1.47-12.7-2.55-15.96,0.4
		c-2.02,1.83-2.59,4.53-2.75,6.54L181.55,230.23z"/>
	<path class="st4" d="M181.55,230.23c-10.56,0.58-18.97,0.66-24.62,0.62c-8.92-0.05-14.08-0.4-17.64,3.2
		c-3.06,3.09-3.46,7.59-3.4,10.53L181.55,230.23z"/>
	<path class="st57" d="M153.76,236.35c0,0-18.06-3.9-15.93,3.67C137.83,240.02,152.78,238.62,153.76,236.35z"/>
	<path class="st57" d="M161.74,230.86c0,0-23.67-6.32-20.22,1.27L161.74,230.86z"/>
	<path class="st57" d="M143.82,226.07c0,0-0.88-8.24,21.05,2.32L143.82,226.07z"/>
	<path class="st4" d="M237.61,230.23c-1.48,9.1-2.95,18.21-4.43,27.31c-18.42,14.87-35.32,24.52-47.61,30.63
		c-16.43,8.17-28.98,14.26-46.8,15.63c-11.57,0.89-32.82,2.53-44.73-10.84c-7.41-8.31-7.73-18.53-8.12-31
		c-1.06-33.92,14.51-59.43,19.93-67.91c6.98-10.91,14.22-18.7,19.01-23.39c7.03,7.59,14.06,15.17,21.09,22.76
		c0.58,2.91,1.27,7.37,1.23,12.81c-0.17,24.77-15.2,39.37-11.81,42.81c3.91,3.96,22.76-16.43,50.56-22.88
		C205.88,221.55,224.26,225.53,237.61,230.23z"/>
	<path class="st57" d="M180.8,230.23c6.97-3.55,15.79-6.86,26.24-8.24c39.39-5.2,69.67,21.28,76,27.06L180.8,230.23z"/>
	<path class="st56" d="M225.63,164.43c-0.84-0.84-1.56-1.43-2.23-1.9c-2.5-1.73-4.5-2.72-4.89-2.9c-5.36-2.54-6.48-21.6-10.06-22.09
		c-2.72-0.37-2.95,10.5-12.18,18.78c-5,4.48-8,4.04-12.2,9.5c-1.12,1.46-6.88,8.94-4.09,13.66c1.5,2.53,5.37,4.11,7.93,3.12
		c1.53-0.59,1.45-1.67,2.74-2.38c3.55-1.98,7.5,4.33,13.73,4.85c7.72,0.64,11.76-8.22,16.99-6.14c3.46,1.37,3.75,5.98,6.28,5.94
		c1.88-0.03,3.6-2.96,4.17-5.38C233.45,172.47,226.55,165.36,225.63,164.43z"/>
	<path class="st58" d="M276.01,162.69c0.35,0.44-6.41,10.94-18.99,21.03c-6.39,5.12-7.8,4.93-8.78,7.58
		c-3.87,10.38,14.45,22.18,10.17,32.5c-0.3,0.71-1.87,4.23-4.96,4.96c-3.3,0.78-6.48-2.06-6.95-2.48
		c-9.03-8.07,0.97-30.75-4.22-33.24c-1.09-0.52-17.58,7.41-28.19,8.5c-31.82,3.27-67.89-31.28-67.21-32.35
		c1.05-1.64,27.21,25.79,42.89,24.32c1.36-0.13,4.21-0.6,8.33-0.27c8.52,0.67,10.31,3.76,15.99,3.02c4.21-0.55,4.15-2.38,10.46-4.46
		c5.97-1.98,10.73-1.89,12.48-1.98C252.72,189.06,275.22,161.71,276.01,162.69z"/>
	<path class="st59" d="M276.01,162.69c0.23,0.29-5.91,9.65-18.99,21.03c-11.31,9.84-25.8,22.43-41.26,25.11
		c-34.59,5.99-68.12-40.5-68.86-39.65c-0.41,0.47,12.41,11.94,25.8,19.33c0,0,10.66,5.89,17.09,4.98c0.31-0.04,2.27-0.34,4.95-0.38
		c1-0.02,2.13,0.01,3.37,0.11c8.52,0.67,10.31,3.76,15.99,3.02c4.21-0.55,4.15-2.38,10.46-4.46c5.97-1.98,10.73-1.89,12.48-1.98
		C252.72,189.06,275.22,161.71,276.01,162.69z"/>
	<g>
		<path class="st60" d="M146.89,169.18c-0.13,0.15,1.01,1.34,3.02,3.13C148.07,170.24,147.01,169.04,146.89,169.18z"/>
		<path class="st60" d="M174.12,195.29c-3.77-3.5-7.36-7.61-10.53-12.41c-5.71-3.89-10.68-7.89-13.68-10.56
			C154.27,177.22,163.02,187.01,174.12,195.29z"/>
	</g>
	<path class="st61" d="M276.01,162.69c0.35,0.44-6.41,10.94-18.99,21.03c-6.39,5.12-32.32,16.73-42.92,17.82
		c-31.82,3.27-67.89-31.28-67.21-32.35c1.05-1.64,27.21,25.79,42.89,24.32c1.36-0.13,4.21-0.6,8.33-0.27
		c8.52,0.67,10.31,3.76,15.99,3.02c4.21-0.55,4.15-2.38,10.46-4.46c5.97-1.98,10.73-1.89,12.48-1.98
		C252.72,189.06,275.22,161.71,276.01,162.69z"/>
	<path class="st62" d="M164.8,184.64c-0.85-1.21-1.69-2.46-2.48-3.76c0,0,0,0,0,0c-8.37-6.33-14.91-12.49-15.43-11.69
		C146.58,169.66,153.82,177.03,164.8,184.64z"/>
	<path class="st63" d="M223.19,134.55c0,0,12.97-9.61,43.18,14.07L223.19,134.55z"/>
	<path class="st57" d="M223.19,134.55c8.73,20.09,23.95,29.52,33.34,26.2c1.35-0.48,6.48-2.6,9.84-12.13
		C266.38,148.62,237.86,139.8,223.19,134.55z"/>
	<path class="st64" d="M223.19,134.55c0,0,12.93,28.41,43.18,14.07C266.38,148.62,237.86,139.8,223.19,134.55z"/>
	<path class="st63" d="M223.19,134.55c3.06,3.34,11.58,11.74,25.3,14.34c7.47,1.42,13.82,0.61,17.88-0.27
		C266.38,148.62,237.86,139.8,223.19,134.55z"/>
	<path class="st65" d="M223.19,134.55c0,0,11.73-5.95,43.18,14.07C266.38,148.62,238.44,151.51,223.19,134.55z"/>
	<path class="st17" d="M226.83,138.03c4.98,4.15,10.79,6.74,16.41,8.33c1.21-1.58,1.94-3.55,1.94-5.7c0-1.21-0.24-2.35-0.65-3.41
		c-6.67-2.54-11.59-3.37-15.01-3.51C228.26,134.89,227.32,136.36,226.83,138.03z"/>
	<path d="M229.3,139.31c0,0.22,0.01,0.44,0.03,0.65c2.91,2.04,6.04,3.61,9.18,4.83c1.94-1.06,3.26-3.11,3.26-5.48
		c0-1.24-0.37-2.4-0.99-3.37c-3.35-1.06-6.16-1.66-8.48-1.95C230.5,135.08,229.3,137.05,229.3,139.31z"/>
	<path class="st63" d="M198.66,134.55c0,0-12.97-9.61-43.18,14.07L198.66,134.55z"/>
	<path class="st57" d="M198.66,134.55c-9.49,20.36-24.76,29.84-33.88,26.42c-1.36-0.51-6.27-2.69-9.31-12.35
		C155.48,148.62,184,139.8,198.66,134.55z"/>
	<path class="st64" d="M198.66,134.55c0,0-12.93,28.41-43.18,14.07C155.48,148.62,184,139.8,198.66,134.55z"/>
	<path class="st63" d="M198.66,134.55c-2.81,3.21-11.2,11.93-24.99,14.55c-7.71,1.47-14.21,0.48-18.19-0.48
		C155.48,148.62,184,139.8,198.66,134.55z"/>
	<path class="st65" d="M198.66,134.55c0,0-11.73-5.95-43.18,14.07C155.48,148.62,183.42,151.51,198.66,134.55z"/>
	<path class="st17" d="M195.03,138.03c-4.98,4.15-10.79,6.74-16.41,8.33c-1.21-1.58-1.94-3.55-1.94-5.7c0-1.21,0.24-2.35,0.65-3.41
		c6.67-2.54,11.59-3.37,15.01-3.51C193.6,134.89,194.54,136.36,195.03,138.03z"/>
	<path d="M192.56,139.31c0,0.22-0.01,0.44-0.03,0.65c-2.91,2.04-6.04,3.61-9.18,4.83c-1.94-1.06-3.26-3.11-3.26-5.48
		c0-1.24,0.37-2.4,0.99-3.37c3.35-1.06,6.16-1.66,8.48-1.95C191.35,135.08,192.56,137.05,192.56,139.31z"/>
	<path class="st4" d="M312.56,194.06c-5.77-10.24-11.55-18.15-15.76-23.46c-8.11,7.61-16.23,15.22-24.34,22.83
		c-0.58,2.91-1.27,7.37-1.23,12.81c0.17,24.77,15.2,39.37,11.81,42.81c-3.91,3.96-22.76-16.43-50.56-22.88
		c-19.94-4.62-38.32-0.65-51.67,4.06c0,0-17.47-10.73-19.81-9.49c0,0-4.13,8.27-7.23,15.61c-8.05,0.84-14.83,1.03-17.81,5.73
		c-1.52,2.4-1.53,5.14-1.32,6.98c3.27-0.34,6.54-0.67,9.81-1.01c0,0,2.47-0.42,6.28-0.63c0.71,0.01,14.92,0.28,25.01,3.58
		c3.54,1.53,6.83,3.64,9.5,6.55c18.42,14.87,35.32,24.52,47.61,30.63c16.43,8.17,28.98,14.26,46.8,15.63
		c11.57,0.89,32.82,2.53,44.73-10.84c7.41-8.31,7.73-18.53,8.12-31C333.43,231.83,320.56,208.26,312.56,194.06z"/>
	<path class="st66" d="M150.72,247.41c0.71,0.01,14.92,0.28,25.01,3.58c3.54,1.53,6.83,3.64,9.5,6.55
		c18.42,14.87,35.32,24.52,47.61,30.63c16.43,8.17,28.98,14.26,46.8,15.63c9.69,0.75,26.17,2.01,38.26-5.45
		c0.17-0.11,0.33-0.21,0.49-0.31c0.08-0.05,0.16-0.11,0.24-0.16c-25.37,0.91-44.17-3.77-56.44-8.04
		c-46.41-16.18-65.13-49.68-102.77-47.4c-10.94,0.66-19.61,4.11-24.8,6.6c3.27-0.34,6.54-0.67,9.81-1.01
		C144.44,248.05,146.91,247.63,150.72,247.41z"/>
	<path class="st57" d="M134.62,249.06c0,0,0.18-0.12,0.49-0.35c-2.23-4,11.91-18.45,12.07-42.47c0.04-5.44-0.65-9.9-1.23-12.81
		C145.95,193.43,124.81,250.06,134.62,249.06z"/>
	<path class="st66" d="M138.77,303.81c17.82-1.37,30.37-7.46,46.8-15.63c8.41-4.18,18.96-10.02,30.69-18.04l0,0l-3.83-3.67
		c-11.29,9.42-42.73,32.98-85.86,31.96c-12.59-0.3-23.57-2.62-32.54-5.45C105.95,306.34,127.2,304.7,138.77,303.81z"/>
	<path class="st67" d="M245.18,210.35l5.94,15.34C251.12,225.7,245.06,230.29,245.18,210.35z"/>
	<path class="st68" d="M229.39,162.18c-2.89-2.91-4.43-2.85-7.12-4.8c-4.34-3.14-9.37-19.85-12.05-22.66
		c-0.11-0.24-0.25-0.38-0.42-0.4c-0.05-0.01-0.11,0.01-0.16,0.02c-0.05-0.01-0.11-0.03-0.16-0.02c-0.17,0.02-0.31,0.16-0.42,0.4
		c-2.67,2.82-7.71,19.53-12.05,22.66c-2.7,1.95-4.23,1.89-7.12,4.8c-0.92,0.93-7.82,8.04-6.16,15.05c0.57,2.42,2.28,5.35,4.17,5.38
		c2.56,0.04,2.92-4.86,6.28-5.94c4.84-1.55,8.22,7.47,15.19,7.56c7.11,0.09,10.77-9.21,15.75-7.56c3.36,1.12,3.72,5.98,6.28,5.94
		c1.88-0.03,3.6-2.96,4.17-5.38C237.22,170.21,230.31,163.1,229.39,162.18z"/>
	<path class="st69" d="M229.39,162.18c-2.89-2.91-4.43-2.85-7.12-4.8c-4.7-3.4-11.05-23.26-12.47-23.07
		c-1.9,0.26,2.41,38.45,11.14,40.79c0.65,0.17,2.27,0.41,4.17,1.56c3.93,2.4,4.35,5.97,6.28,5.94c1.88-0.03,3.6-2.96,4.17-5.38
		C237.22,170.21,230.31,163.1,229.39,162.18z"/>
	<path class="st70" d="M199.03,176.76c-2.4-4.71,0.4-9.6,4.04-20.17c1.75-5.09,4.04-12.51,6-21.88
		c-2.67,2.82-7.71,19.53-12.05,22.66c-2.7,1.95-4.23,1.89-7.12,4.8c-0.92,0.93-7.82,8.04-6.16,15.05c0.57,2.42,2.28,5.35,4.17,5.38
		c1.14,0.02,1.94-1.09,2.72-2.35c0.01-0.01,0.01-0.02,0.02-0.03c1-1.63,1.95-3.5,3.54-3.55c4.84-1.55,8.22,7.47,15.19,7.56
		C209.69,183.32,201.85,182.29,199.03,176.76z"/>
	
		<ellipse transform="matrix(0.6559 -0.7549 0.7549 0.6559 -49.3377 228.9978)" class="st71" cx="226.49" cy="168.61" rx="3.53" ry="4.43"/>
	
		<ellipse transform="matrix(0.6559 -0.7549 0.7549 0.6559 -49.1309 229.2333)" class="st72" cx="226.85" cy="168.5" rx="2.27" ry="3.6"/>
	<path class="st73" d="M188.1,209.6c0,0,31.14,6.97,45.24-3.52C233.34,206.08,217.86,222.38,188.1,209.6z"/>
	<path class="st74" d="M151.46,162.66c-3.03-1.4-7.22-2.89-9.17-1.14c-4.28,3.84,5.47,20.41,4.9,20.68
		c-0.64,0.31-13.94-20.4-9.82-24.29C139.06,156.32,143.76,157.9,151.46,162.66z"/>
	<path class="st3" d="M270.54,159.31c3.32-0.89,6.49-1.11,8.14,0.57c4.3,4.37-4.53,18.64-3.87,18.97
		c0.78,0.39,13.81-18.67,9.77-22.91C282.91,154.2,278.23,155.32,270.54,159.31z"/>
	<path class="st56" d="M237.36,168.89c0,0,16.25-2.93,18.18,7.2C255.55,176.09,246.81,169.77,237.36,168.89z"/>
	<path class="st56" d="M179.23,168.89c0,0-16.13-2.93-18.06,7.2C161.17,176.09,169.84,169.77,179.23,168.89z"/>
	<path class="st73" d="M226.28,121.55c2.04,2.63,5.05,5.75,9.3,8.3c13.19,7.89,27.59,3.81,30.8,2.82
		c-5.47-0.56-11.75-1.58-18.59-3.36C239.33,127.11,232.12,124.29,226.28,121.55z"/>
	<path class="st63" d="M266.38,132.67c-6.65-0.85-12.48-2.1-17.35-3.39c-7.4-1.96-13.06-4.14-16-5.33c-2.59-1.06-4.76-2.04-6.4-2.81
		c-0.95-1.22-6.02-7.75-6.03-7.77c0,0-0.37-0.48-0.38-0.49c0,0-0.22-0.28-0.22-0.28l-0.39,0.3l6.67,8.64
		c4.47,2.07,9.57,4.12,15.27,5.92C250.79,130.39,259.25,131.9,266.38,132.67z"/>
	<path class="st73" d="M193.01,121.55c-1.33,1.69-13.62,16.8-30.14,14.83c-2.57-0.31-6-1.11-9.83-3.24
		c5.38-0.09,12.69-0.76,20.98-3.2C182.11,127.58,188.48,124.31,193.01,121.55z"/>
	<path d="M153.05,133.14c5.38-0.09,12.69-0.76,20.98-3.2c8.07-2.37,14.45-5.63,18.98-8.39c-0.06-0.21-0.12-0.42-0.18-0.63
		c-4.42,2.77-10.74,6.1-18.82,8.49c-8.41,2.48-15.81,3.08-21.14,3.1C152.92,132.72,152.99,132.93,153.05,133.14z"/>
	<path class="st72" d="M209.64,20.79c0,0,12.72,4.54,7.33,21.29c-0.05-2.71-0.42-6.62-1.92-11.05
		C213.49,26.42,211.3,23,209.64,20.79z"/>
	<path class="st57" d="M150.78,320.6c8.38,5.2,27.78,15.66,54.62,16.39c28.45,0.77,49.33-9.84,57.84-14.78
		c-4.13,3.89-24.57,22.31-56.23,21.98C174.93,343.86,154.72,324.53,150.78,320.6z"/>
	<path class="st75" d="M195.03,104.5c0,0-23.25,18.4-36.31,20.21L195.03,104.5z"/>
	<path class="st73" d="M224.41,108.07c0,0-16-1.32-6.69,8.5C217.72,116.57,214.62,108.83,224.41,108.07z"/>
	<path class="st3" d="M122.72,334.86c0,0-48.08,22.6,24.47,16.95c-16.64,1.95-28.55-0.68-30.12-6.12
		C116.77,344.65,116.17,341.13,122.72,334.86z"/>
	<path class="st76" d="M95.71,341.24c-24.22,8.92-43.74,18.56-42.69,26.55c2.69,20.58,140.32,17.43,140.39,15.94
		c0.06-1.38-118.76-0.42-121.52-21.7C70.98,355.03,82.89,347.44,95.71,341.24z"/>
	<path class="st77" d="M226.63,375.23c0,0,69.9,17.6,101.77,0c-13.29,2.02-28.46,3.52-45.19,3.81
		C261.8,379.4,242.72,377.68,226.63,375.23z"/>
	<path class="st4" d="M90.36,353.56c0.01,2.15,0.39,5.02,2.35,7.08c4.58,4.83,13.09,0.39,25.63,0.72
		c11.62,0.31,12.81,4.35,25.63,6.5c13.69,2.3,23.92-0.36,31.41-1.76c7.25-1.35,31.16,0.27,78.71,3.56
		c30.77,2.13,49.46,3.69,69.68-7.22c3.19-1.72,5.69-3.36,7.31-4.48C250.85,356.49,170.61,355.02,90.36,353.56z"/>
	<circle class="st65" cx="238.95" cy="137.63" r="3.64"/>
	<circle class="st65" cx="188.92" cy="136.78" r="3.64"/>
	<path class="st5" d="M208.59,18.58c-4.73,1.22-9.7,8.69-10.18,15.8c-0.57,8.48,5.56,11.79,5.47,19.15h5.77
		C198.64,35.02,207.44,20.35,208.59,18.58z"/>
	<path class="st78" d="M216.44,55.23c-0.4-3.8,0.57-6.62,1.64-9.45c-1.28,2.71-7.92,15.25-15.77,1.27c1.12,2.39,1.91,4.95,1.41,8.35
		C204.76,58.69,209.58,71.66,216.44,55.23z"/>
</g>
<g id="レイヤー_5">
</g>
<g id="レイヤー_4">
</g>
<g id="レイヤー_3">
</g>
<g id="レイヤー_2">
</g>
<g id="レイヤー_6">
	<g id="レイヤー_7">
	</g>
</g>
</svg>
