<?xml version="1.0" encoding="utf-8"?>
<!-- Generator: Adobe Illustrator 24.0.3, SVG Export Plug-In . SVG Version: 6.00 Build 0)  -->
<svg version="1.1" id="レイヤー_1" xmlns="http://www.w3.org/2000/svg" xmlns:xlink="http://www.w3.org/1999/xlink" x="0px"
	 y="0px" viewBox="0 0 425.2 425.2" style="enable-background:new 0 0 425.2 425.2;" xml:space="preserve">
<style type="text/css">
	.st0{fill:url(#SVGID_1_);stroke:url(#SVGID_3_);stroke-miterlimit:10;}
	.st1{clip-path:url(#SVGID_4_);}
	.st2{fill:#70C8DD;}
	.st3{fill:#65A2A3;}
	.st4{fill:#82CBCC;}
	.st5{fill:#7EC6C6;}
	.st6{fill:#F0F2F7;}
	.st7{fill:none;stroke:#000000;stroke-width:0.25;stroke-miterlimit:10;}
	.st8{fill:none;}
	.st9{fill:#F2DCCD;}
	.st10{fill:#D9B799;}
	.st11{fill:#C2A289;}
	.st12{fill:#B59680;}
	.st13{fill:#73172F;}
	.st14{fill:#65142D;}
	.st15{fill:#A80228;}
	.st16{fill:#5B0D27;}
	.st17{fill:#323333;}
	.st18{fill:#863156;}
	.st19{fill:#F1F9FE;}
	.st20{fill:#EAF6FD;}
	.st21{fill:#FCFEFF;}
	.st22{fill:#FFFFFF;}
	.st23{fill:#D8EFFC;}
	.st24{fill:#DFF2FC;}
	.st25{fill:#E6C6B0;}
	.st26{fill:#C8A68D;}
	.st27{fill:#323333;stroke:#000000;stroke-width:0.25;stroke-miterlimit:10;}
	.st28{fill:#F2F3F7;}
	.st29{fill:#F5F3F7;}
	.st30{fill:#EEF1F7;}
	.st31{fill:#E3E8F4;}
	.st32{fill:#F9F5F8;}
	.st33{fill:#ECECF4;}
	.st34{fill:#F1D0BC;}
	.st35{fill:#F3CCC2;}
	.st36{fill:#F2D7D1;}
	.st37{fill:#EECAC3;}
	.st38{fill:#F3E1DE;}
	.st39{fill:#5F1B32;}
	.st40{fill:#FFFFFF;stroke:#000000;stroke-miterlimit:10;}
	.st41{fill:#B29583;}
	.st42{fill:#C4A591;}
	.st43{fill:#CDAC97;}
	.st44{fill:#DEBBA3;}
	.st45{fill:#EEC7AD;}
	.st46{fill:#E3BFA6;}
	.st47{fill:#EDF7FD;}
	.st48{fill:#E6F4FD;}
	.st49{fill:#B77878;}
	.st50{fill:#E19492;}
	.st51{fill:#D2A090;}
	.st52{fill:#C09284;}
	.st53{fill:#ECB3A0;}
	.st54{fill:#E4AD9B;}
	.st55{fill:#EAEDEF;}
	.st56{fill:#70B1B2;}
	.st57{fill:#75B8B9;}
	.st58{fill:#59C4F1;}
	.st59{fill:#885D85;}
	.st60{fill:#835981;}
	.st61{fill:#91648E;}
	.st62{fill:#8D618A;}
	.st63{fill:#0E2B2B;}
	.st64{fill:#B3DCCF;}
	.st65{fill:#C5D7E2;}
	.st66{fill:#9AD3CD;}
	.st67{fill:#95D5F6;}
	.st68{fill:#82CACB;}
	.st69{fill:#8ACDCC;}
	.st70{fill:#7ABFC0;}
	.st71{fill:#A3D6CE;}
	.st72{fill:#B1DBCF;}
	.st73{fill:#6BA9AA;}
	.st74{fill:#609A9B;}
	.st75{fill:#80C8C9;}
	.st76{fill:#9BD5E0;}
	.st77{fill:#4E8182;}
	.st78{fill:#7CC3C4;}
	.st79{fill:none;stroke:#000000;stroke-miterlimit:10;}
	.st80{stroke:#000000;stroke-miterlimit:10;}
	.st81{fill:#ACA399;}
	.st82{fill:#D2C7BB;}
	.st83{fill:#C0B5AB;}
	.st84{fill:#E4D7CA;}
	.st85{fill:#727171;}
	.st86{fill:#595757;}
	.st87{fill:#DAAB9E;}
	.st88{fill:#E8B7A8;}
	.st89{fill:#898989;}
	.st90{fill:#D58289;}
	.st91{fill:#E38B92;}
	.st92{fill:#E2B1A3;}
	.st93{fill:#A36B6D;}
	.st94{fill:#B9BABA;}
	.st95{fill:#3E3A39;}
	.st96{fill:#B79086;}
	.st97{fill:#AEBBC2;}
	.st98{fill:#553D37;}
	.st99{fill:#4C4948;}
	.st100{fill:#B5B5B6;}
	.st101{fill:#9FA0A0;}
	.st102{fill:#F4E5D7;}
	.st103{fill:#F4E9D9;}
	.st104{fill:#6F1B05;}
	.st105{fill:#F4F6F7;}
	.st106{fill:#F1F3F4;}
	.st107{fill:#822510;}
	.st108{fill:#4E0500;}
	.st109{fill:#A2341F;}
	.st110{fill:#DFE1E2;}
	.st111{fill:#76200A;}
	.st112{fill:#5F1200;}
	.st113{fill:#3D0000;}
	.st114{fill:#E6EBEE;stroke:#9FA0A0;stroke-width:0.25;stroke-miterlimit:10;}
	.st115{fill:#F8FAFB;}
	.st116{fill:#F0F5F8;}
	.st117{fill:#CED9DF;stroke:#9FA0A0;stroke-width:0.25;stroke-miterlimit:10;}
	.st118{fill:#D3DEE5;stroke:#9FA0A0;stroke-width:0.25;stroke-miterlimit:10;}
	.st119{fill:#8C2A16;}
	.st120{fill:#A63620;}
	.st121{fill:#99301B;}
	.st122{fill:#A13019;}
	.st123{fill:#751B03;}
	.st124{fill:#460000;}
	.st125{fill:#7E230E;}
	.st126{fill:#E3E5E6;}
	.st127{fill:#DEE6EB;stroke:#9FA0A0;stroke-width:0.25;stroke-miterlimit:10;}
	.st128{fill:#BE3518;}
	.st129{fill:#290000;}
	.st130{fill:#320000;}
	.st131{fill:#2C0000;}
	.st132{fill:#EAEDEF;stroke:#9FA0A0;stroke-width:0.25;stroke-miterlimit:10;}
	.st133{fill:#9D9FA0;}
	.st134{fill:#110C0E;}
	.st135{fill:#181718;}
	.st136{fill:#202020;}
	.st137{fill:#252526;}
	.st138{fill:#DCDDDD;}
	.st139{fill:#1B1B1B;}
	.st140{fill:#3E3E3E;}
	.st141{fill:#3A3B3B;}
	.st142{fill:#363737;}
	.st143{fill:#2E2F2F;}
	.st144{fill:#161415;}
	.st145{fill:#530000;}
	.st146{fill:#680000;}
	.st147{fill:#7D0000;}
	.st148{fill:#910000;}
	.st149{fill:#A40000;}
	.st150{fill:#B60005;}
	.st151{fill:#470000;}
	.st152{fill:#292A2A;}
	.st153{fill:#414242;}
	.st154{fill:#D19C77;}
	.st155{fill:#D9A57D;}
	.st156{fill:#D09A77;}
	.st157{fill:#D8A07B;}
	.st158{fill:#C99A74;}
	.st159{fill:#D8A27B;}
	.st160{fill:#CC9A75;}
	.st161{fill:#BF906E;}
	.st162{fill:#D5A57C;}
	.st163{fill:#CA9D76;}
	.st164{fill:#E4AA80;}
	.st165{fill:#E1A77E;}
	.st166{fill:#E4A87F;}
	.st167{fill:#DDA37B;}
	.st168{fill:#7C3021;}
	.st169{fill:#D6A07A;}
	.st170{fill:#D59F7A;}
	.st171{fill:#644633;}
	.st172{fill:#D9A97E;}
	.st173{fill:#CEA178;}
	.st174{fill:#DCAB80;}
	.st175{fill:#E0AE82;}
	.st176{fill:#D4A07A;}
	.st177{fill:#CB9974;}
	.st178{fill:#DBA67E;}
	.st179{fill:#CF9D77;}
	.st180{fill:#DFA880;}
	.st181{fill:#D69D77;}
	.st182{fill:#D49E79;}
	.st183{fill:#E9EFF3;}
	.st184{fill:#CD9A76;}
	.st185{fill:#F0F4F7;}
	.st186{fill:#A2B4BD;}
	.st187{fill:#C6DBE7;}
	.st188{fill:#BED2DE;}
	.st189{fill:#D2E8F4;}
	.st190{fill:#C3D7E3;}
	.st191{fill:#BBCFDA;}
	.st192{fill:#CAE0EC;}
	.st193{fill:#32363A;}
	.st194{fill:#B3C6D1;}
	.st195{fill:#CCE1EE;}
	.st196{fill:#4A5257;}
	.st197{fill:#EDEFF1;}
	.st198{fill:#6A0F00;}
	.st199{fill:#C4361E;}
	.st200{fill:#772C16;}
	.st201{fill:#E85706;}
	.st202{fill:#CFE5F1;}
	.st203{fill:url(#背景_5_);}
	.st204{fill:#620F13;}
	.st205{fill:#BF1A20;}
	.st206{fill:#901D22;}
	.st207{fill:#EDF6F8;}
	.st208{fill:#F0F8F9;}
	.st209{fill:#BBCACA;}
	.st210{fill:#E83A37;}
	.st211{fill:url(#SVGID_5_);}
	.st212{fill:url(#SVGID_6_);}
	.st213{fill:#F3EEF6;}
	.st214{fill:#FBE2DE;}
	.st215{fill:#E4F3F6;}
	.st216{fill:#C13432;}
	.st217{fill:#D0C9CA;}
	.st218{fill:#00003D;}
	.st219{fill:url(#SVGID_7_);}
	.st220{fill:url(#SVGID_8_);}
	.st221{fill:#FFFFFF;stroke:#000000;stroke-width:0.5;stroke-miterlimit:10;}
	.st222{fill:url(#SVGID_9_);}
	.st223{fill:url(#SVGID_10_);}
	.st224{fill:url(#SVGID_11_);}
	.st225{fill:url(#SVGID_12_);}
	.st226{fill:url(#SVGID_13_);}
	.st227{fill:url(#SVGID_14_);}
	.st228{fill:url(#SVGID_15_);}
	.st229{fill:url(#SVGID_16_);}
	.st230{fill:url(#SVGID_17_);}
	.st231{fill:url(#SVGID_18_);}
	.st232{fill:url(#SVGID_19_);}
	.st233{fill:url(#SVGID_20_);}
	.st234{fill:url(#SVGID_21_);}
	.st235{fill:url(#SVGID_22_);}
	.st236{fill:url(#SVGID_23_);}
	.st237{fill:url(#SVGID_24_);}
	.st238{fill:url(#SVGID_25_);}
	.st239{fill:url(#SVGID_26_);}
	.st240{fill:url(#SVGID_27_);}
	.st241{fill:url(#SVGID_28_);}
	.st242{fill:url(#SVGID_29_);}
	.st243{fill:url(#SVGID_30_);}
	.st244{fill:url(#SVGID_31_);}
	.st245{fill:url(#SVGID_32_);}
	.st246{fill:url(#SVGID_33_);}
	.st247{fill:url(#SVGID_34_);}
	.st248{fill:url(#SVGID_35_);}
	.st249{fill:url(#SVGID_36_);}
	.st250{fill:url(#SVGID_37_);}
	.st251{fill:url(#SVGID_38_);}
	.st252{fill:url(#SVGID_39_);}
	.st253{fill:url(#SVGID_40_);}
	.st254{fill:url(#SVGID_41_);}
	.st255{fill:url(#SVGID_42_);}
	.st256{fill:url(#SVGID_43_);}
	.st257{fill:url(#SVGID_44_);}
	.st258{fill:url(#SVGID_45_);}
	.st259{fill:url(#SVGID_46_);}
	.st260{fill:url(#SVGID_47_);}
	.st261{fill:url(#SVGID_48_);}
	.st262{fill:url(#SVGID_49_);}
	.st263{fill:url(#SVGID_50_);}
	.st264{fill:url(#SVGID_51_);}
	.st265{fill:url(#SVGID_52_);}
	.st266{fill:url(#SVGID_53_);}
	.st267{fill:url(#SVGID_54_);}
	.st268{fill:url(#SVGID_55_);}
	.st269{fill:url(#SVGID_56_);}
	.st270{fill:url(#SVGID_57_);}
	.st271{fill:url(#SVGID_58_);}
	.st272{fill:url(#SVGID_59_);}
	.st273{fill:url(#SVGID_60_);}
	.st274{fill:url(#SVGID_61_);}
	.st275{fill:url(#SVGID_62_);}
	.st276{fill:url(#SVGID_63_);}
	.st277{fill:url(#SVGID_64_);}
	.st278{fill:url(#SVGID_65_);}
	.st279{fill:url(#SVGID_66_);}
	.st280{fill:url(#SVGID_67_);}
	.st281{fill:url(#SVGID_68_);}
	.st282{fill:url(#SVGID_69_);}
	.st283{fill:url(#SVGID_70_);}
	.st284{fill:url(#SVGID_71_);}
	.st285{fill:url(#SVGID_72_);}
	.st286{fill:url(#SVGID_73_);}
	.st287{fill:url(#SVGID_74_);}
	.st288{fill:url(#SVGID_75_);}
	.st289{fill:url(#SVGID_76_);}
	.st290{fill:url(#SVGID_77_);}
	.st291{fill:url(#SVGID_78_);}
	.st292{fill:url(#SVGID_79_);}
	.st293{fill:url(#SVGID_80_);}
	.st294{fill:url(#SVGID_81_);}
	.st295{fill:url(#SVGID_82_);}
	.st296{fill:url(#SVGID_83_);}
	.st297{fill:url(#SVGID_84_);}
	.st298{fill:url(#SVGID_85_);}
	.st299{fill:url(#SVGID_86_);}
	.st300{fill:url(#SVGID_87_);}
	.st301{fill:url(#SVGID_88_);}
	.st302{fill:url(#SVGID_89_);}
	.st303{fill:url(#SVGID_90_);}
	.st304{fill:url(#SVGID_91_);}
	.st305{fill:url(#SVGID_92_);}
	.st306{fill:url(#SVGID_93_);}
	.st307{fill:url(#SVGID_94_);}
	.st308{fill:url(#SVGID_95_);}
	.st309{fill:url(#SVGID_96_);}
	.st310{fill:url(#SVGID_97_);}
	.st311{fill:url(#SVGID_98_);}
	.st312{fill:url(#SVGID_99_);}
	.st313{fill:url(#SVGID_100_);}
	.st314{fill:url(#SVGID_101_);}
	.st315{fill:url(#SVGID_102_);}
	.st316{fill:url(#SVGID_103_);}
	.st317{fill:url(#SVGID_104_);}
	.st318{fill:url(#SVGID_105_);}
	.st319{fill:url(#SVGID_106_);}
	.st320{fill:url(#SVGID_107_);}
	.st321{fill:url(#SVGID_108_);}
	.st322{fill:url(#SVGID_109_);}
	.st323{fill:url(#SVGID_110_);}
	.st324{fill:url(#SVGID_111_);}
	.st325{fill:url(#SVGID_112_);}
	.st326{fill:url(#SVGID_113_);}
	.st327{fill:url(#SVGID_114_);}
	.st328{fill:url(#SVGID_115_);}
	.st329{fill:url(#SVGID_116_);}
	.st330{fill:url(#SVGID_117_);}
	.st331{fill:url(#SVGID_118_);}
	.st332{fill:url(#SVGID_119_);}
	.st333{fill:url(#SVGID_120_);}
	.st334{fill:url(#SVGID_121_);}
	.st335{fill:url(#SVGID_122_);}
	.st336{fill:#E60012;}
	.st337{fill:url(#SVGID_123_);}
	.st338{fill:#070001;}
	.st339{fill:#989898;}
	.st340{fill:#040000;}
	.st341{fill:#666767;}
	.st342{fill:#333333;}
	.st343{fill:#E5E144;}
	.st344{fill:#BCBC29;}
	.st345{fill:#EAE673;}
	.st346{fill:#681217;}
	.st347{fill:#636332;}
	.st348{fill:#8A1E22;}
	.st349{fill:#DFDCE3;}
	.st350{fill:#A62224;}
</style>
<linearGradient id="SVGID_1_" gradientUnits="userSpaceOnUse" x1="212.5984" y1="420.4897" x2="212.5984" y2="15.9627">
	<stop  offset="0" style="stop-color:#171C61"/>
	<stop  offset="0.0509" style="stop-color:#1F1D60"/>
	<stop  offset="0.1284" style="stop-color:#35205D"/>
	<stop  offset="0.2227" style="stop-color:#532557"/>
	<stop  offset="0.3303" style="stop-color:#7B2F4E"/>
	<stop  offset="0.449" style="stop-color:#AC3C3E"/>
	<stop  offset="0.5755" style="stop-color:#E44F1C"/>
	<stop  offset="0.5901" style="stop-color:#EA5114"/>
	<stop  offset="1" style="stop-color:#E60012"/>
</linearGradient>
<linearGradient id="SVGID_3_" gradientUnits="userSpaceOnUse" x1="-8.4016" y1="212.5984" x2="433.5984" y2="212.5984">
	<stop  offset="0" style="stop-color:#187FC4"/>
	<stop  offset="1" style="stop-color:#187FC4;stop-opacity:0"/>
</linearGradient>
<rect x="-7.9" y="-12.4" class="st0" width="441" height="450"/>
<g id="レイヤー_5">
</g>
<g id="レイヤー_4">
</g>
<g>
	<path class="st155" d="M145.51,390.72c3.41,11.01,1.82,14.86,0,16.43c-4.61,3.97-14.25-3.59-32.87-5.48
		c-7.09-0.72-12.91-0.36-16.43,0c2.32-3.81,6-9.61,10.96-16.43c6.29-8.66,9.03-11.23,10.96-16.43c1.69-4.56,2.93-11.62,0-21.91
		c10.96,1.83,21.91,3.65,32.87,5.48c-2.18,5.38-4.54,12.82-5.48,21.91C144.85,380.59,145.04,386.17,145.51,390.72z"/>
	<path class="st156" d="M293.41,66.22c0.27-0.79,1.37-3.87,0-5.48c-3.56-4.2-20.3,4.63-21.91,5.48
		c-20.58,10.85-26.89,31.75-46.73,72.42c-20.57,42.17-25.48,42.56-24.48,53.57c2.59,28.47,26.55,53.43,60.26,65.74
		c-10.07,16.32-11.57,29.31-10.96,38.35c1.73,25.4,21.5,39,16.43,60.26c-0.7,2.94-2.7,9.5,0,16.43c0.42,1.07,3.38,8.03,10.96,10.96
		c8.06,3.11,18.19,0.42,21.91-5.48c3.77-5.98-1.58-11.26-5.48-27.39c-5.61-23.25-2.44-45.46,0-54.78c1.79-6.83,3.81-14.63,5.4-27.13
		c0.71-5.59,0.16-9.84,0.08-11.22c-0.79-13.38,0.81-41.73,0-76.69C297.39,116.53,288.81,79.69,293.41,66.22z"/>
	<path class="st157" d="M293.41,66.22c0.27-0.76,1.37-3.86,0-5.48c-3.56-4.2-20.3,4.63-21.91,5.48
		c-20.58,10.85-26.89,31.75-46.73,72.42c-13.55,27.78-23.66,34.08-24.76,42.88c-0.32,2.6,0.05,4.4,0.38,5.41
		c1.29,3.91,4.57,6.02,5.38,6.59c7.28,5.12,10.04,23.22,10.96,27.39c2.08,9.41,11.26,22.39,43.82,37.04
		c-10.07,16.32-11.57,29.31-10.96,38.35c1.73,25.4,21.5,39,16.43,60.26c-0.7,2.94-2.7,9.5,0,16.43c0.42,1.07,3.38,8.03,10.96,10.96
		c8.06,3.11,18.19,0.42,21.91-5.48c3.77-5.98-1.58-11.26-5.48-27.39c-5.61-23.25-2.44-45.46,0-54.78c1.79-6.83,3.81-14.63,5.4-27.13
		c0.67-5.31,0.19-9.37,0.08-11.22c-5.25-91.58-5.48-124.69-5.48-124.69C293.11,89.43,292.96,67.52,293.41,66.22z"/>
	<path class="st158" d="M175.67,121.4c-14.65-12.81-24.81-8.65-35.64-22.32c-17.41-21.96-8.45-54.5-10.96-54.78
		c-1.57-0.18-6.89,12.47-10.96,49.3c-4.25,38.45-6.06,93.59,5.48,164.34c-4.93,13.42-10.88,34.36-10.96,60.26
		c-0.07,21.74,3.95,63.89,16.43,65.74c12.98,1.92,33.84-39.87,37.66-79.33c1.48-15.26,0.22-28.2-1.3-37.38
		c9.33-9.61,32.52-36.18,34.85-75.03C200.71,185.08,201.94,144.38,175.67,121.4z"/>
	<path class="st155" d="M175.67,121.4c-12.97-13.3-24.31-8.02-35.64-22.32c-17.41-21.96-8.45-54.5-10.96-54.78
		c-1.57-0.18-6.89,12.47-10.96,49.3c-4.25,38.45-6.06,93.59,5.48,164.34c-2.82,20.86-4.47,38.23-5.48,50.61
		c-5.4,66.46,0.95,75.13,5.48,76.69c1.86,0.64,3.97,0.27,5.48,0c9.51-1.69,14.7-11.4,16.22-14.51c0,0,0.21-0.33,0.41-0.68
		c7.73-13.14,10.51-57.75,10.76-61.51c0.6-9.06,3.39-19.81,8.98-41.32C177.54,220.62,193.92,140.12,175.67,121.4z"/>
	<path class="st154" d="M287.93,108.61c-3.5,10.42-30.13,84.91-84.91,84.91c-53.38,0-78.53-56.47-84.91-84.91
		c-0.13-0.58-0.33-1.46-0.56-2.59c-1.24-6-9.92-52.2,17-76.84c4.42-4.04,11.87-10.86,21.91-10.96
		c15.83-0.15,32.87,16.43,32.87,16.43l0,0c26.3-20.16,54.78-21.91,54.78-21.91c1.99-0.18,23.91-1.93,38.35,10.96
		C308.61,47.05,290.51,100.93,287.93,108.61z"/>
	<path class="st159" d="M331.75,396.2c-12.2,0.25-21.22,2.92-27.39,5.48c-8.6,3.56-11.68,6.9-16.43,5.48
		c-7.35-2.19-6.24-11.25-16.43-16.43c-5.25-2.67-8.72-1.85-10.96-5.48c-2.17-3.53-0.9-7.97,0-10.96
		c6.66-22.07,10.01-33.11,10.96-32.87c6.57,1.66,13.63,11.86,16.71,10.11c1.63-0.92,0.97-5.36-0.28-10.11
		c2.79,9.9,9.74,28.74,27.39,43.82C320.99,390.09,326.68,393.62,331.75,396.2z"/>
	<path class="st160" d="M334.49,392.09c0.7,2.26-2.41,6.86-6.85,6.85c-4.51-0.01-6.44-4.77-6.85-6.85c-0.18-0.93-0.05-1.26,0-1.37
		C322.1,387.91,333.4,388.56,334.49,392.09z"/>
	<path class="st161" d="M320.71,391.4c0.01,0.18,0.03,0.41,0.09,0.69c0.41,2.08,2.34,6.84,6.85,6.85c1.21,0,2.32-0.35,3.29-0.89
		c0.17-0.25,0.38-0.62,0.47-1.09c0.48-2.37-2.17-5.38-5.13-6.23C323.73,389.99,321.48,391,320.71,391.4z"/>
	<path class="st162" d="M107.37,398.92c0.95,2.74-3.3,8.21-8.32,8.2c-4.95,0-9.23-5.31-8.32-8.2c0.93-2.95,7.26-3.32,10.96-2.72
		C103.54,396.5,106.71,397.01,107.37,398.92z"/>
	<path class="st163" d="M102.84,396.4c-3.5,0.56-7.07,2.34-7.73,5.3c-0.35,1.55,0.13,3.28,1.14,4.87c0.88,0.35,1.83,0.56,2.8,0.56
		c5.03,0,9.27-5.46,8.32-8.2C106.83,397.37,104.64,396.74,102.84,396.4z"/>
	<path class="st164" d="M287.93,103.13c-3.5,10.42-30.13,84.91-84.91,84.91c-53.38,0-78.53-56.47-84.91-84.91
		c-0.13-0.58-0.33-1.46-0.56-2.59c-1.24-6-9.92-52.2,17-76.84c4.42-4.04,11.87-10.86,21.91-10.96
		c15.83-0.15,32.87,16.43,32.87,16.43l0,0c26.3-20.16,54.78-21.91,54.78-21.91c1.99-0.18,23.91-1.93,38.35,10.96
		C308.61,41.58,290.51,95.45,287.93,103.13z"/>
	<path class="st165" d="M287.93,103.13c-3.5,10.42-30.13,84.91-84.91,84.91c-53.38,0-78.53-56.47-84.91-84.91
		c-0.29-1.31-0.56-2.59-0.56-2.59s-2.68-13.78,0.56-27.53c2.94-12.49,28.8-36.29,71.21-43.82c26.3-20.16,54.78-21.91,54.78-21.91
		c1.99-0.18,23.91-1.93,38.35,10.96C308.61,41.58,290.51,95.45,287.93,103.13z"/>
	<path class="st166" d="M115.67,86.9c0.56,6.88,1.53,11.91,1.89,13.64c0.23,1.13,0.43,2.01,0.56,2.59
		c6.37,28.43,31.53,84.91,84.91,84.91c54.78,0,81.41-74.49,84.91-84.91c2.58-7.68,20.68-61.55-5.48-84.91
		C268.02,5.34,246.1,7.08,244.11,7.27c0,0-28.48,1.75-54.78,21.91C173.5,33.47,143.19,44.44,123.59,73
		C120.39,77.66,117.79,82.34,115.67,86.9z"/>
	<path class="st167" d="M244.11,116.82c-14.23,39.66-53.4,53.66-66.88,66.35c7.75,3.08,16.32,4.87,25.79,4.87
		c54.78,0,81.41-74.49,84.91-84.91c0.39-1.35,0.73-2.22,0.98-3c0.03-0.08,0.05-0.15,0.08-0.24c0.02-0.06,0.04-0.13,0.06-0.2
		c0.05-0.17,0.11-0.35,0.17-0.53c0.02-0.08,0.05-0.15,0.07-0.23c0.06-0.18,0.11-0.36,0.17-0.54c0.03-0.09,0.06-0.18,0.08-0.27
		c0.06-0.19,0.12-0.38,0.17-0.57c0.03-0.09,0.06-0.18,0.08-0.28c0.06-0.2,0.12-0.42,0.19-0.63c0.03-0.09,0.05-0.18,0.08-0.27
		c0.07-0.23,0.14-0.48,0.21-0.72c0.02-0.08,0.04-0.15,0.07-0.23c0.19-0.65,0.38-1.33,0.57-2.04c0.02-0.06,0.03-0.12,0.05-0.18
		c0.08-0.29,0.16-0.58,0.24-0.88c0.03-0.11,0.06-0.23,0.09-0.35c0.07-0.25,0.13-0.5,0.2-0.75c0.04-0.14,0.07-0.29,0.11-0.43
		c0.06-0.24,0.12-0.47,0.18-0.71c0.04-0.15,0.08-0.31,0.12-0.46c0.06-0.24,0.12-0.49,0.18-0.73c0.04-0.16,0.08-0.32,0.12-0.48
		c0.06-0.25,0.12-0.49,0.18-0.74c0.04-0.17,0.08-0.33,0.12-0.5c0.06-0.25,0.12-0.5,0.18-0.76c0.04-0.17,0.08-0.34,0.12-0.51
		c0.06-0.26,0.12-0.52,0.18-0.79c0.04-0.17,0.08-0.34,0.11-0.51c0.06-0.29,0.13-0.58,0.19-0.87c0.03-0.15,0.07-0.3,0.1-0.45
		c0.08-0.36,0.15-0.72,0.23-1.08c0.02-0.09,0.04-0.18,0.06-0.27c0.09-0.46,0.19-0.93,0.28-1.39c0.01-0.07,0.03-0.15,0.04-0.22
		c0.08-0.39,0.15-0.78,0.22-1.18c0.03-0.16,0.06-0.31,0.09-0.47c0.06-0.32,0.12-0.64,0.17-0.96c0.03-0.18,0.06-0.37,0.09-0.55
		c0.05-0.3,0.1-0.6,0.15-0.9c0.03-0.2,0.06-0.39,0.1-0.59c0.05-0.29,0.09-0.58,0.14-0.88c0.03-0.21,0.06-0.41,0.09-0.62
		c0.04-0.29,0.09-0.58,0.13-0.87c0.03-0.21,0.06-0.42,0.09-0.64c0.04-0.29,0.08-0.59,0.12-0.88c0.03-0.21,0.06-0.42,0.08-0.63
		c0.04-0.3,0.08-0.61,0.11-0.91c0.02-0.21,0.05-0.41,0.07-0.62c0.04-0.32,0.07-0.64,0.11-0.96c0.02-0.2,0.04-0.39,0.06-0.59
		c0.04-0.36,0.07-0.71,0.1-1.07c0.02-0.16,0.03-0.32,0.05-0.48c0.05-0.52,0.09-1.05,0.13-1.57c0-0.02,0-0.04,0-0.05
		c0.04-0.51,0.07-1.01,0.11-1.52c0.01-0.17,0.02-0.33,0.03-0.5c0.02-0.36,0.04-0.72,0.06-1.08c0.01-0.2,0.02-0.41,0.03-0.61
		c0.01-0.32,0.03-0.65,0.04-0.97c0.01-0.22,0.01-0.44,0.02-0.67c0.01-0.31,0.02-0.62,0.02-0.93c0-0.23,0.01-0.45,0.01-0.68
		c0-0.31,0.01-0.61,0.01-0.92c0-0.23,0-0.46,0-0.69c0-0.3-0.01-0.61-0.01-0.92c0-0.23-0.01-0.46-0.01-0.69
		c-0.01-0.31-0.02-0.62-0.03-0.93c-0.01-0.22-0.01-0.45-0.02-0.67c-0.01-0.32-0.03-0.63-0.05-0.95c-0.01-0.21-0.02-0.43-0.03-0.64
		c-0.02-0.34-0.05-0.68-0.07-1.01c-0.01-0.19-0.03-0.38-0.04-0.58c-0.03-0.43-0.07-0.86-0.12-1.29c-0.01-0.1-0.02-0.2-0.03-0.29
		c-0.05-0.52-0.11-1.05-0.18-1.57c-0.02-0.16-0.04-0.31-0.06-0.47c-0.05-0.37-0.1-0.73-0.15-1.1c-0.03-0.2-0.06-0.4-0.09-0.6
		c-0.05-0.32-0.1-0.64-0.15-0.96c-0.04-0.21-0.08-0.43-0.12-0.64c-0.05-0.3-0.11-0.6-0.17-0.9c-0.04-0.22-0.09-0.44-0.13-0.66
		c-0.06-0.29-0.12-0.59-0.19-0.88c-0.05-0.22-0.1-0.44-0.15-0.66c-0.07-0.29-0.14-0.58-0.21-0.86c-0.06-0.22-0.11-0.44-0.17-0.65
		c-0.08-0.29-0.16-0.57-0.24-0.86c-0.06-0.21-0.12-0.43-0.18-0.64c-0.09-0.29-0.18-0.58-0.27-0.86c-0.06-0.2-0.13-0.41-0.2-0.61
		c-0.1-0.3-0.2-0.6-0.31-0.89c-0.07-0.19-0.13-0.37-0.2-0.56c-0.12-0.34-0.26-0.68-0.39-1.01c-0.05-0.14-0.11-0.28-0.16-0.42
		c-0.19-0.47-0.39-0.94-0.59-1.4c-0.04-0.1-0.09-0.2-0.14-0.3c-0.16-0.36-0.33-0.72-0.5-1.08c-0.08-0.17-0.17-0.33-0.25-0.5
		c-0.14-0.29-0.29-0.57-0.44-0.86c-0.1-0.18-0.2-0.36-0.3-0.54c-0.15-0.26-0.29-0.53-0.44-0.79c-0.11-0.19-0.22-0.37-0.33-0.55
		c-0.15-0.25-0.3-0.5-0.46-0.75c-0.12-0.19-0.24-0.37-0.36-0.55c-0.16-0.24-0.32-0.48-0.49-0.72c-0.13-0.18-0.25-0.36-0.38-0.54
		c-0.17-0.24-0.34-0.47-0.52-0.7c-0.13-0.18-0.27-0.35-0.4-0.52c-0.18-0.23-0.37-0.46-0.56-0.69c-0.14-0.17-0.27-0.33-0.41-0.5
		c-0.2-0.24-0.41-0.47-0.62-0.7c-0.14-0.15-0.27-0.3-0.41-0.45c-0.24-0.25-0.48-0.5-0.72-0.74c-0.12-0.12-0.24-0.25-0.36-0.37
		c-0.37-0.36-0.75-0.72-1.14-1.07C268.02,5.34,246.1,7.08,244.11,7.27C225.71,19.91,261.87,67.34,244.11,116.82z"/>
	<path class="st168" d="M156.46,149.69c3.86-3.6,17.53-15.46,38.35-16.43c28.79-1.35,47.03,19.25,49.3,21.91
		c-10.84-7.19-20.23-12.58-27.39-16.43c-6.46-3.48-10.73-5.49-16.43-5.48c-6.29,0.02-10.43,2.5-16.43,5.48
		C177.59,141.84,168.47,145.9,156.46,149.69z"/>
	<path class="st169" d="M178.37,81.55c-9.7-15.33-21.29-22.42-27.39-19.5c-1,0.48-4.41,2.45-5.48,10.96
		c3.21,0.04,6.78,0.31,10.64,0.94C165.49,75.49,173,78.67,178.37,81.55z"/>
	<path class="st170" d="M216.27,81.55c8.14-16.23,21.11-26.26,33.31-24.98c8.77,0.92,17.26,7.68,16.43,10.96
		c-0.85,3.39-11.28,1.51-27.39,5.48C228.83,75.41,221.21,78.93,216.27,81.55z"/>
	<path class="st159" d="M183.85,144.02c3.18,1.86,8.03,4.2,14.33,5.48c7.92,1.6,14.55,0.8,18.53,0c-1.8,1.7-5.55,4.69-10.96,5.48
		C197.63,156.16,189.15,151.84,183.85,144.02z"/>
	<path class="st171" d="M216.72,81.55c0,0,16.43-21.91,21.91-10.96c0.19,0.8,0.39,1.96,0.32,3.36c-0.21,4.04-2.55,7.96-5.79,10.01
		C228.43,86.94,221.54,86.11,216.72,81.55z"/>
	<path class="st171" d="M178.37,83.96c-7.12-11.2-14.54-17.74-18.84-16.09c-0.85,0.33-1.81,1.06-2.63,2.72
		c-0.19,0.8-0.38,1.96-0.32,3.36c0.19,4.18,2.56,7.91,5.35,10.01C166.37,87.29,172.97,87.34,178.37,83.96z"/>
	<path class="st172" d="M116.39,401.68c0.97,4.25-4.3,9.97-10.05,9.97c-5.74,0-11-5.7-10.05-9.97c0.87-3.88,6.69-5.73,10.86-5.48
		C110.46,396.4,115.57,398.08,116.39,401.68z"/>
	<path class="st173" d="M109.98,396.66c-4.31,1.36-8.67,5.44-8.29,10.5c0.11,1.42,0.57,2.71,1.29,3.84
		c1.07,0.41,2.22,0.64,3.38,0.64c5.75,0,11.02-5.72,10.05-9.97C115.78,399.01,112.81,397.4,109.98,396.66z"/>
	<path class="st174" d="M127.15,404.42c0.78,5.81-5.31,11.73-11.77,11.73c-6.51,0-12.56-5.98-11.77-11.73
		c0.62-4.5,5.23-7.45,9.03-8.22C118.59,395,126.35,398.43,127.15,404.42z"/>
	<path class="st162" d="M118.12,401.68c-2.07,4.1-0.59,9.59,2.65,13.11c4.04-2.08,6.94-6.25,6.38-10.37
		c-0.39-2.9-2.42-5.2-5.09-6.67C120.41,398.65,118.99,399.94,118.12,401.68z"/>
	<path class="st175" d="M145.51,404.42c1.22,6.18-5.94,13.7-13.69,13.69c-7.72-0.01-14.88-7.46-13.69-13.69
		c1.15-6.07,9.87-9.26,16.43-8.22C138.57,396.84,144.54,399.51,145.51,404.42z"/>
	<path class="st174" d="M145.51,404.42c1.22,6.18-5.94,13.7-13.69,13.69c-0.28,0-1.48-0.15-1.55-0.56c-0.15-0.93,5.8-1.03,9.76-4.92
		c3.61-3.55,4.33-9.02,5.17-8.8C145.41,403.89,145.47,404.25,145.51,404.42z"/>
	<path class="st176" d="M330.49,394.83c0.83,3.39-3.51,8.28-8.32,8.28c-4.84,0-9.18-4.94-8.32-8.28c0.86-3.35,6.65-4.07,6.95-4.11
		C324.46,390.3,329.71,391.64,330.49,394.83z"/>
	<path class="st177" d="M323.01,397.57c-0.39-2.82-2.65-4.95-5.41-6.06c-1.62,0.6-3.32,1.62-3.76,3.32
		c-0.81,3.16,3.02,7.74,7.53,8.23C322.61,401.44,323.28,399.5,323.01,397.57z"/>
	<path class="st178" d="M320.8,397.57c0.66,4.78-4.33,9.58-9.59,9.59c-5.29,0-10.25-4.85-9.59-9.59c0.55-3.9,4.72-6.42,8.22-6.85
		C314.46,390.15,320.16,392.93,320.8,397.57z"/>
	<path class="st179" d="M312.48,401.68c0.01-3.34-3.27-6.7-7.78-8.88c-1.58,1.18-2.8,2.8-3.07,4.78c-0.61,4.35,3.52,8.78,8.29,9.48
		C311.51,405.36,312.48,403.48,312.48,401.68z"/>
	<path class="st180" d="M309.84,398.94c1.18,6.24-5.98,13.69-13.69,13.69c-7.76,0.01-14.91-7.51-13.69-13.69
		c0.97-4.91,6.93-7.58,10.96-8.22C299.97,389.68,308.69,392.87,309.84,398.94z"/>
	<path class="st181" d="M211.24,62.04c0,0-16.43,5.48-10.96,10.96L211.24,62.04z"/>
	<path class="st181" d="M172.89,111.35c-1.69,0.35-16.95,3.73-21.91,16.43c-0.89,2.28-3.81,9.78,0,16.43
		c1.63,2.85,3.93,4.55,5.48,5.48c-0.77-3.46-1.66-9.81,0.38-17.19C160.38,119.65,170.21,113.03,172.89,111.35z"/>
	<path class="st181" d="M216.72,111.35c1.23,0.59,28.75,13.97,32.87,27.39c0.73,2.37,2.06,6.71,0,10.96
		c-1.48,3.05-4.05,4.71-5.48,5.48c-0.99-4.77-2.65-10.41-5.48-16.43C232.16,124.95,222.81,116.16,216.72,111.35z"/>
	<path class="st182" d="M214.14,100.39c4.38,10.93,10.21,15.72,7.25,22.05c-1.22,2.6-4.01,5.72-6.67,5.48
		c-3.06-0.28-3.01-4.28-6.67-5.48c-6.2-2.03-13.26,7.49-20.02,5.48c-1.29-0.38-3.08-2.08-6.67-5.48c-4.06-3.84-4.85-5.5-6.67-5.48
		c-3.39,0.03-5.44,5.81-6.67,5.48c-0.82-0.22-0.74-3.02,0-5.48c2.39-7.9,11.16-10.71,19.45-16.57
		c15.03-10.63,16.19-22.62,20.59-21.77C211.64,79.31,208.73,86.9,214.14,100.39z"/>
	<path class="st180" d="M210.11,94.81c3.6,10.93,8.38,15.72,5.95,22.05c-1,2.6-3.29,5.72-5.48,5.48c-2.51-0.28-2.47-4.28-5.48-5.48
		c-5.09-2.03-10.88,7.49-16.43,5.48c-1.06-0.38-2.53-2.08-5.48-5.48c-3.33-3.84-3.98-5.5-5.48-5.48c-2.79,0.03-4.46,5.81-5.48,5.48
		c-0.68-0.22-0.61-3.02,0-5.48c1.96-7.9,9.16-10.71,15.96-16.57c12.34-10.63,13.29-22.62,16.9-21.77
		C208.05,73.73,205.67,81.32,210.11,94.81z"/>
	<path class="st183" d="M178.37,83.96c0,0-16.43-21.91-21.91-10.96C156.46,73,150.98,83.96,178.37,83.96z"/>
	<path class="st183" d="M216.72,83.96c0,0,16.43-21.91,21.91-10.96C238.63,73,244.11,83.96,216.72,83.96z"/>
	<path class="st17" d="M233.15,78.48c0-3.03-2.45-5.48-5.48-5.48c-0.13,0-0.25,0.01-0.38,0.02c-1.76,1.33-3.48,2.93-5.01,4.5
		c-0.05,0.31-0.09,0.63-0.09,0.96c0,2.24,1.35,4.16,3.27,5.01c2.46-0.3,4.49-0.72,6.16-1.23C232.57,81.28,233.15,79.95,233.15,78.48
		z"/>
	<path class="st184" d="M211.24,78.48c1.98,0.97,4.03,1.89,6.16,2.74c23.78,9.51,47.53,7.11,65.05,2.74
		c-0.87,5.07-4.51,23.16-16.43,27.39c-13.61,4.83-31.29-10.82-43.82-21.91C217.36,85.16,213.69,81.24,211.24,78.48z"/>
	<circle class="st185" cx="230.09" cy="76.06" r="2.42"/>
	<path class="st17" d="M176.99,82.22c-1.6-1.96-4.43-5.21-7.55-7.87c-1.65,0.98-2.76,2.77-2.76,4.82c0,1.67,0.73,3.16,1.88,4.18
		c1.93,0.27,4.16,0.47,6.72,0.55C175.97,83.47,176.55,82.9,176.99,82.22z"/>
	<path class="st185" d="M172.61,81.34c1.19,0,2.16-0.97,2.16-2.16c0-0.21-0.04-0.4-0.09-0.59c-0.32-0.43-0.64-0.85-0.96-1.26
		c-0.32-0.19-0.7-0.31-1.1-0.31c-1.19,0-2.16,0.97-2.16,2.16C170.46,80.37,171.42,81.34,172.61,81.34z"/>
	<path class="st154" d="M183.85,78.48c-3.81,17.8-18.89,28.99-32.87,27.39c-13.83-1.58-21.18-15.05-21.91-16.43
		c10.46,1.28,26.61,1.57,43.82-5.48C176.96,82.29,180.6,80.42,183.85,78.48z"/>
</g>
<g id="レイヤー_3">
</g>
<g id="レイヤー_2">
</g>
<g id="レイヤー_6">
	<g id="レイヤー_7">
	</g>
</g>
</svg>
