<?xml version="1.0" encoding="utf-8"?>
<!-- Generator: Adobe Illustrator 24.0.3, SVG Export Plug-In . SVG Version: 6.00 Build 0)  -->
<svg version="1.1" id="レイヤー_1" xmlns="http://www.w3.org/2000/svg" xmlns:xlink="http://www.w3.org/1999/xlink" x="0px"
	 y="0px" viewBox="0 0 300.55 300.55" style="enable-background:new 0 0 300.55 300.55;" xml:space="preserve">
<style type="text/css">
	.st0{clip-path:url(#SVGID_1_);}
	.st1{clip-path:url(#SVGID_4_);}
	.st2{fill:none;stroke:url(#SVGID_5_);stroke-miterlimit:10;}
	.st3{fill:#70C8DD;}
	.st4{fill:#65A2A3;}
	.st5{fill:#82CBCC;}
	.st6{fill:#7EC6C6;}
	.st7{fill:#F0F2F7;}
	.st8{fill:none;stroke:#000000;stroke-width:0.25;stroke-miterlimit:10;}
	.st9{fill:none;}
	.st10{fill:#F2DCCD;}
	.st11{fill:#D9B799;}
	.st12{fill:#C2A289;}
	.st13{fill:#B59680;}
	.st14{fill:#73172F;}
	.st15{fill:#65142D;}
	.st16{fill:#A80228;}
	.st17{fill:#5B0D27;}
	.st18{fill:#323333;}
	.st19{fill:#863156;}
	.st20{fill:#F1F9FE;}
	.st21{fill:#EAF6FD;}
	.st22{fill:#FCFEFF;}
	.st23{fill:#FFFFFF;}
	.st24{fill:#D8EFFC;}
	.st25{fill:#DFF2FC;}
	.st26{fill:#E6C6B0;}
	.st27{fill:#C8A68D;}
	.st28{fill:#323333;stroke:#000000;stroke-width:0.25;stroke-miterlimit:10;}
	.st29{fill:#F2F3F7;}
	.st30{fill:#F5F3F7;}
	.st31{fill:#EEF1F7;}
	.st32{fill:#E3E8F4;}
	.st33{fill:#F9F5F8;}
	.st34{fill:#ECECF4;}
	.st35{fill:#F1D0BC;}
	.st36{fill:#F3CCC2;}
	.st37{fill:#F2D7D1;}
	.st38{fill:#EECAC3;}
	.st39{fill:#F3E1DE;}
	.st40{fill:#5F1B32;}
	.st41{fill:#FFFFFF;stroke:#000000;stroke-miterlimit:10;}
	.st42{fill:#B29583;}
	.st43{fill:#C4A591;}
	.st44{fill:#CDAC97;}
	.st45{fill:#DEBBA3;}
	.st46{fill:#EEC7AD;}
	.st47{fill:#E3BFA6;}
	.st48{fill:#EDF7FD;}
	.st49{fill:#E6F4FD;}
	.st50{fill:#B77878;}
	.st51{fill:#E19492;}
	.st52{fill:#D2A090;}
	.st53{fill:#C09284;}
	.st54{fill:#ECB3A0;}
	.st55{fill:#E4AD9B;}
	.st56{fill:#EAEDEF;}
	.st57{fill:#70B1B2;}
	.st58{fill:#75B8B9;}
	.st59{fill:#59C4F1;}
	.st60{fill:#885D85;}
	.st61{fill:#835981;}
	.st62{fill:#91648E;}
	.st63{fill:#8D618A;}
	.st64{fill:#0E2B2B;}
	.st65{fill:#B3DCCF;}
	.st66{fill:#C5D7E2;}
	.st67{fill:#9AD3CD;}
	.st68{fill:#95D5F6;}
	.st69{fill:#82CACB;}
	.st70{fill:#8ACDCC;}
	.st71{fill:#7ABFC0;}
	.st72{fill:#A3D6CE;}
	.st73{fill:#B1DBCF;}
	.st74{fill:#6BA9AA;}
	.st75{fill:#609A9B;}
	.st76{fill:#80C8C9;}
	.st77{fill:#9BD5E0;}
	.st78{fill:#4E8182;}
	.st79{fill:#7CC3C4;}
	.st80{fill:none;stroke:#000000;stroke-miterlimit:10;}
	.st81{stroke:#000000;stroke-miterlimit:10;}
	.st82{fill:#ACA399;}
	.st83{fill:#D2C7BB;}
	.st84{fill:#C0B5AB;}
	.st85{fill:#E4D7CA;}
	.st86{fill:#727171;}
	.st87{fill:#595757;}
	.st88{fill:#DAAB9E;}
	.st89{fill:#E8B7A8;}
	.st90{fill:#898989;}
	.st91{fill:#D58289;}
	.st92{fill:#E38B92;}
	.st93{fill:#E2B1A3;}
	.st94{fill:#A36B6D;}
	.st95{fill:#B9BABA;}
	.st96{fill:#3E3A39;}
	.st97{fill:#B79086;}
	.st98{fill:#AEBBC2;}
	.st99{fill:#553D37;}
	.st100{fill:#4C4948;}
	.st101{fill:#B5B5B6;}
	.st102{fill:#9FA0A0;}
	.st103{fill:#F4E5D7;}
	.st104{fill:#F4E9D9;}
	.st105{fill:#6F1B05;}
	.st106{fill:#F4F6F7;}
	.st107{fill:#F1F3F4;}
	.st108{fill:#822510;}
	.st109{fill:#4E0500;}
	.st110{fill:#A2341F;}
	.st111{fill:#DFE1E2;}
	.st112{fill:#76200A;}
	.st113{fill:#5F1200;}
	.st114{fill:#3D0000;}
	.st115{fill:#E6EBEE;stroke:#9FA0A0;stroke-width:0.25;stroke-miterlimit:10;}
	.st116{fill:#F8FAFB;}
	.st117{fill:#F0F5F8;}
	.st118{fill:#CED9DF;stroke:#9FA0A0;stroke-width:0.25;stroke-miterlimit:10;}
	.st119{fill:#D3DEE5;stroke:#9FA0A0;stroke-width:0.25;stroke-miterlimit:10;}
	.st120{fill:#8C2A16;}
	.st121{fill:#A63620;}
	.st122{fill:#99301B;}
	.st123{fill:#A13019;}
	.st124{fill:#751B03;}
	.st125{fill:#460000;}
	.st126{fill:#7E230E;}
	.st127{fill:#E3E5E6;}
	.st128{fill:#DEE6EB;stroke:#9FA0A0;stroke-width:0.25;stroke-miterlimit:10;}
	.st129{fill:#BE3518;}
	.st130{fill:#290000;}
	.st131{fill:#320000;}
	.st132{fill:#2C0000;}
	.st133{fill:#EAEDEF;stroke:#9FA0A0;stroke-width:0.25;stroke-miterlimit:10;}
	.st134{fill:#9D9FA0;}
	.st135{fill:#110C0E;}
	.st136{fill:#181718;}
	.st137{fill:#202020;}
	.st138{fill:#252526;}
	.st139{fill:#DCDDDD;}
	.st140{fill:#1B1B1B;}
	.st141{fill:#3E3E3E;}
	.st142{fill:#3A3B3B;}
	.st143{fill:#363737;}
	.st144{fill:#2E2F2F;}
	.st145{fill:#161415;}
	.st146{fill:#530000;}
	.st147{fill:#680000;}
	.st148{fill:#7D0000;}
	.st149{fill:#910000;}
	.st150{fill:#A40000;}
	.st151{fill:#B60005;}
	.st152{fill:#470000;}
	.st153{fill:#292A2A;}
	.st154{fill:#414242;}
	.st155{fill:#D19C77;}
	.st156{fill:#D9A57D;}
	.st157{fill:#D09A77;}
	.st158{fill:#D8A07B;}
	.st159{fill:#C99A74;}
	.st160{fill:#D8A27B;}
	.st161{fill:#CC9A75;}
	.st162{fill:#BF906E;}
	.st163{fill:#D5A57C;}
	.st164{fill:#CA9D76;}
	.st165{fill:#E4AA80;}
	.st166{fill:#E1A77E;}
	.st167{fill:#E4A87F;}
	.st168{fill:#DDA37B;}
	.st169{fill:#7C3021;}
	.st170{fill:#D6A07A;}
	.st171{fill:#D59F7A;}
	.st172{fill:#644633;}
	.st173{fill:#D9A97E;}
	.st174{fill:#CEA178;}
	.st175{fill:#DCAB80;}
	.st176{fill:#E0AE82;}
	.st177{fill:#D4A07A;}
	.st178{fill:#CB9974;}
	.st179{fill:#DBA67E;}
	.st180{fill:#CF9D77;}
	.st181{fill:#DFA880;}
	.st182{fill:#D69D77;}
	.st183{fill:#D49E79;}
	.st184{fill:#E9EFF3;}
	.st185{fill:#CD9A76;}
	.st186{fill:#F0F4F7;}
	.st187{fill:#A2B4BD;}
	.st188{fill:#C6DBE7;}
	.st189{fill:#BED2DE;}
	.st190{fill:#D2E8F4;}
	.st191{fill:#C3D7E3;}
	.st192{fill:#BBCFDA;}
	.st193{fill:#CAE0EC;}
	.st194{fill:#32363A;}
	.st195{fill:#B3C6D1;}
	.st196{fill:#CCE1EE;}
	.st197{fill:#4A5257;}
	.st198{fill:#EDEFF1;}
	.st199{fill:#6A0F00;}
	.st200{fill:#C4361E;}
	.st201{fill:#772C16;}
	.st202{fill:#E85706;}
	.st203{fill:#CFE5F1;}
	.st204{fill:url(#背景_5_);}
	.st205{fill:#620F13;}
	.st206{fill:#BF1A20;}
	.st207{fill:#901D22;}
	.st208{fill:#EDF6F8;}
	.st209{fill:#F0F8F9;}
	.st210{fill:#BBCACA;}
	.st211{fill:#E83A37;}
	.st212{fill:url(#SVGID_6_);}
	.st213{fill:url(#SVGID_7_);}
	.st214{fill:#F3EEF6;}
	.st215{fill:#FBE2DE;}
	.st216{fill:#E4F3F6;}
	.st217{fill:#C13432;}
	.st218{fill:#D0C9CA;}
	.st219{fill:#00003D;}
	.st220{fill:url(#SVGID_8_);}
	.st221{fill:url(#SVGID_9_);}
	.st222{fill:#FFFFFF;stroke:#000000;stroke-width:0.5;stroke-miterlimit:10;}
	.st223{fill:url(#SVGID_10_);}
	.st224{fill:url(#SVGID_11_);}
	.st225{fill:url(#SVGID_12_);}
	.st226{fill:url(#SVGID_13_);}
	.st227{fill:url(#SVGID_14_);}
	.st228{fill:url(#SVGID_15_);}
	.st229{fill:url(#SVGID_16_);}
	.st230{fill:url(#SVGID_17_);}
	.st231{fill:url(#SVGID_18_);}
	.st232{fill:url(#SVGID_19_);}
	.st233{fill:url(#SVGID_20_);}
	.st234{fill:url(#SVGID_21_);}
	.st235{fill:url(#SVGID_22_);}
	.st236{fill:url(#SVGID_23_);}
	.st237{fill:url(#SVGID_24_);}
	.st238{fill:url(#SVGID_25_);}
	.st239{fill:url(#SVGID_26_);}
	.st240{fill:url(#SVGID_27_);}
	.st241{fill:url(#SVGID_28_);}
	.st242{fill:url(#SVGID_29_);}
	.st243{fill:url(#SVGID_30_);}
	.st244{fill:url(#SVGID_31_);}
	.st245{fill:url(#SVGID_32_);}
	.st246{fill:url(#SVGID_33_);}
	.st247{fill:url(#SVGID_34_);}
	.st248{fill:url(#SVGID_35_);}
	.st249{fill:url(#SVGID_36_);}
	.st250{fill:url(#SVGID_37_);}
	.st251{fill:url(#SVGID_38_);}
	.st252{fill:url(#SVGID_39_);}
	.st253{fill:url(#SVGID_40_);}
	.st254{fill:url(#SVGID_41_);}
	.st255{fill:url(#SVGID_42_);}
	.st256{fill:url(#SVGID_43_);}
	.st257{fill:url(#SVGID_44_);}
	.st258{fill:url(#SVGID_45_);}
	.st259{fill:url(#SVGID_46_);}
	.st260{fill:url(#SVGID_47_);}
	.st261{fill:url(#SVGID_48_);}
	.st262{fill:url(#SVGID_49_);}
	.st263{fill:url(#SVGID_50_);}
	.st264{fill:url(#SVGID_51_);}
	.st265{fill:url(#SVGID_52_);}
	.st266{fill:url(#SVGID_53_);}
	.st267{fill:url(#SVGID_54_);}
	.st268{fill:url(#SVGID_55_);}
	.st269{fill:url(#SVGID_56_);}
	.st270{fill:url(#SVGID_57_);}
	.st271{fill:url(#SVGID_58_);}
	.st272{fill:url(#SVGID_59_);}
	.st273{fill:url(#SVGID_60_);}
	.st274{fill:url(#SVGID_61_);}
	.st275{fill:url(#SVGID_62_);}
	.st276{fill:url(#SVGID_63_);}
	.st277{fill:url(#SVGID_64_);}
	.st278{fill:url(#SVGID_65_);}
	.st279{fill:url(#SVGID_66_);}
	.st280{fill:url(#SVGID_67_);}
	.st281{fill:url(#SVGID_68_);}
	.st282{fill:url(#SVGID_69_);}
	.st283{fill:url(#SVGID_70_);}
	.st284{fill:url(#SVGID_71_);}
	.st285{fill:url(#SVGID_72_);}
	.st286{fill:url(#SVGID_73_);}
	.st287{fill:url(#SVGID_74_);}
	.st288{fill:url(#SVGID_75_);}
	.st289{fill:url(#SVGID_76_);}
	.st290{fill:url(#SVGID_77_);}
	.st291{fill:url(#SVGID_78_);}
	.st292{fill:url(#SVGID_79_);}
	.st293{fill:url(#SVGID_80_);}
	.st294{fill:url(#SVGID_81_);}
	.st295{fill:url(#SVGID_82_);}
	.st296{fill:url(#SVGID_83_);}
	.st297{fill:url(#SVGID_84_);}
	.st298{fill:url(#SVGID_85_);}
	.st299{fill:url(#SVGID_86_);}
	.st300{fill:url(#SVGID_87_);}
	.st301{fill:url(#SVGID_88_);}
	.st302{fill:url(#SVGID_89_);}
	.st303{fill:url(#SVGID_90_);}
	.st304{fill:url(#SVGID_91_);}
	.st305{fill:url(#SVGID_92_);}
	.st306{fill:url(#SVGID_93_);}
	.st307{fill:url(#SVGID_94_);}
	.st308{fill:url(#SVGID_95_);}
	.st309{fill:url(#SVGID_96_);}
	.st310{fill:url(#SVGID_97_);}
	.st311{fill:url(#SVGID_98_);}
	.st312{fill:url(#SVGID_99_);}
	.st313{fill:url(#SVGID_100_);}
	.st314{fill:url(#SVGID_101_);}
	.st315{fill:url(#SVGID_102_);}
	.st316{fill:url(#SVGID_103_);}
	.st317{fill:url(#SVGID_104_);}
	.st318{fill:url(#SVGID_105_);}
	.st319{fill:url(#SVGID_106_);}
	.st320{fill:url(#SVGID_107_);}
	.st321{fill:url(#SVGID_108_);}
	.st322{fill:url(#SVGID_109_);}
	.st323{fill:url(#SVGID_110_);}
	.st324{fill:url(#SVGID_111_);}
	.st325{fill:url(#SVGID_112_);}
	.st326{fill:url(#SVGID_113_);}
	.st327{fill:url(#SVGID_114_);}
	.st328{fill:url(#SVGID_115_);}
	.st329{fill:url(#SVGID_116_);}
	.st330{fill:url(#SVGID_117_);}
	.st331{fill:url(#SVGID_118_);}
	.st332{fill:url(#SVGID_119_);}
	.st333{fill:url(#SVGID_120_);}
	.st334{fill:url(#SVGID_121_);}
	.st335{fill:url(#SVGID_122_);}
	.st336{fill:url(#SVGID_123_);}
	.st337{fill:#E60012;}
	.st338{fill:url(#SVGID_124_);}
	.st339{fill:#070001;}
	.st340{fill:#989898;}
	.st341{fill:#040000;}
	.st342{fill:#666767;}
	.st343{fill:#333333;}
	.st344{fill:#E5E144;}
	.st345{fill:#BCBC29;}
	.st346{fill:#EAE673;}
	.st347{fill:#681217;}
	.st348{fill:#636332;}
	.st349{fill:#8A1E22;}
	.st350{fill:#DFDCE3;}
	.st351{fill:#A62224;}
</style>
<g id="レイヤー_5">
</g>
<g id="レイヤー_4">
</g>
<g id="レイヤー_3">
</g>
<g id="レイヤー_2">
</g>
<g id="レイヤー_6">
	<g id="レイヤー_7">
		
			<radialGradient id="SVGID_1_" cx="151.1698" cy="151.1698" r="156.1698" gradientTransform="matrix(1.0085 0 0 1.0373 -2.6178 -8.9178)" gradientUnits="userSpaceOnUse">
			<stop  offset="0" style="stop-color:#09112C"/>
			<stop  offset="0.2447" style="stop-color:#0A112E"/>
			<stop  offset="0.4021" style="stop-color:#0F1333"/>
			<stop  offset="0.5349" style="stop-color:#17163B"/>
			<stop  offset="0.6539" style="stop-color:#231846"/>
			<stop  offset="0.7639" style="stop-color:#321A56"/>
			<stop  offset="0.8671" style="stop-color:#441C69"/>
			<stop  offset="0.9633" style="stop-color:#571A7E"/>
			<stop  offset="1" style="stop-color:#601986"/>
		</radialGradient>
		<rect x="-7.66" y="-14.1" style="fill:url(#SVGID_1_);" width="315" height="324"/>
		<g>
			<path class="st339" d="M138.98,19.14c3.66-12.56,16.94-19.62,28.05-19.11c9.52,0.43,15.81,6.34,21.91,12.05
				c15.9,14.92,19.27,33.94,19.95,38.45c0.48,3.17,2.72,19.58-5.27,38.28c-4.72,11.04-11.19,18.63-15.57,23.04
				c7.48,9.22,16.15,18.9,26.15,28.64c20.82,20.28,41.68,35.26,59.78,46.24c-11.76,12.18-22.08,15.44-29.3,16.18
				c-15.39,1.58-21.76-7.76-51.27-14.37c-10.23-2.29-17.86-4-28.01-3.69c-20,0.61-28.03,8.19-47.9,15.13
				c-2.49,0.87-29.86,10.11-61.81,6.76C43.4,205.45,23.1,201.51,0,187.7c11.53-5.08,26.1-12.84,41.22-24.68
				c17.97-14.08,30.34-28.93,38.41-40.3c0.04-3.02-0.23-7.51-1.9-12.55c-4.87-14.73-16.16-17.35-15.45-26.62
				c0.04-0.54,1.1-3.56,3.17-9.6c1.41-4.14,2.06-5.84,2.13-8.57c0.05-1.95-0.21-3.53-0.71-6.53c-0.58-3.52-1.25-6.08-1.34-6.45
				c-1-3.99-1.92-20.32,8.51-34c2.41-3.16,14.07-18.47,30.3-16.41c11.1,1.41,17.38,10.04,17.86,10.72
				c8.55,12.16,2.38,26.43,2.03,27.19c1.72-0.74,4.85-1.84,8.91-1.79c3.99,0.05,7.05,1.18,8.75,1.95
				C140.74,38.04,136.04,29.25,138.98,19.14z"/>
			<path class="st340" d="M159.81,59.16c4.12-1.26-8.91-35.47,2.11-43.48c6.42-4.66,18.22,1.6,22.22,3.73
				c16.12,8.56,21.77,24.72,23.28,29.66c0.9,8.26,1.55,25.44-7.44,43.61c-4.1,8.28-9.08,14.51-13.3,18.92
				c7.36,10.15,16.56,21.3,27.96,32.52c20.53,20.21,41.29,33.87,58,42.98c-4.99,4.54-13,10.49-23.89,13
				c-14.31,3.3-21.99-5.48-55.82-14.11c-9.88-2.52-14.82-3.78-20.03-4.1c-19.91-1.22-31.92,6.87-47.86,13.21
				c-2.61,1.04-42.18,16.27-83.28,8.29C24.3,200,10.69,193.21,1.6,187.7c46.43-3.46,78.53-33.2,79.51-62.78
				c0.65-19.74-12.69-35.17-18.81-41.38c1.98-1.98,5.6-6.14,7.29-12.5c2.89-10.89-2.11-19.84-3.24-21.75
				c2.43-16.57,6.12-20.24,8.91-20.73c9.35-1.65,30.58,28.62,34.48,28.04c0.35-0.05,0.68-0.15,0.68-0.15
				c0.93-0.36,1.63-1.38,3.86-3.88c3.02-3.4,11.34-12.75,19.55-13.03c7.04-0.24,13.31,6.23,18.47,11.56
				C157.21,56.17,158.51,59.56,159.81,59.16z"/>
			<path class="st341" d="M126.09,155.58c0,0-0.02,0.01-0.04,0.03c-2.26,1.97,16.89,39.72,49.66,62.34
				c32.82,22.65,67.53,21.99,73.79,21.78c17.56-0.58,31.58-4.95,40.45-8.45c-10.98,1.07-26.1,1.58-43.79-0.89
				c-13.64-1.9-39.2-5.47-64.01-21.34C150.15,188.58,128.98,153.75,126.09,155.58z"/>
			<path class="st342" d="M126.09,155.58c-0.01,0-0.02,0.01-0.04,0.03c-1.98,1.78,17.38,37.8,49.29,59.31
				c29.54,19.92,60.71,21.24,71.02,21.54c16.24,0.49,29.71-1.94,38.97-4.27c-9.76,1.34-23.27,2.28-39.14,0.54
				c-11.18-1.22-36.74-4.29-61.69-19.95C150.24,191.28,129.15,153.57,126.09,155.58z"/>
			<path class="st343" d="M126.09,155.58c-0.01,0-0.02,0.01-0.04,0.03c-1.97,1.81,23.74,41.4,51.59,60.98
				c32.82,23.07,73.51,21.8,101.16,17.09c-56.63,4.74-86.52-9.81-103.41-24.34C155.67,192.37,128.73,154,126.09,155.58z"/>
			<path class="st341" d="M121.93,203.04c0.29-7.69,0.52-13.84-1.86-21.49c-0.74-2.4-6.42-20.59-13.88-20.56
				c-8.75,0.03-17.4,25.12-18.31,46.03c-0.14,3.3,0.96,8.69,0.94,17.18c-0.02,5.72,0.47,8.9,0.5,9.42c0.36,6.58,1.77,18.6,6.47,42.5
				c4.76,0.4,9.53,0.81,14.29,1.21c-0.04-3.69,0.17-9.24,1.59-15.81c1.13-5.26,2.19-7.28,2.82-10.43c1-4.96,0.87-12.42-4.75-22.81
				c2.29-1.29,5.63-3.6,8.23-7.51C118.83,219.47,121.48,215.18,121.93,203.04z"/>
			<path class="st343" d="M111.44,225.28c9.1-6.93,9.29-20.14,8.64-43.73c-0.48-17.33-16.74-31.94-22.44-8.3
				c-7.02,29.1-8.61,42.99-6.78,49.85c0.01,6.29,0.42,11.75,0.91,16.16c0.19,1.72,1.07,6.68,2.79,16.52
				c2.46,14.08,2.52,14.16,2.53,15.55c0.02,5.18-0.83,7.95,1.05,9.61c1.98,1.74,6.01,1.41,8.4-0.53c2.86-2.32,2.52-6.09,2.84-12.69
				c0.55-11.17,3.56-11.43,3.78-19.84c0.12-4.59-0.58-11.66-5.21-20.44C109.23,226.8,110.41,226.07,111.44,225.28z"/>
			<path class="st341" d="M177.4,259.27c-0.72-5.59-1.08-8.38-0.87-11.89c0.32-5.36,1.42-7.3,0.49-11.73
				c-0.53-2.55-1.63-5.39-2.25-6.99c-0.86-2.22-1.7-4.03-2.33-5.32c0.83-5.63,1.46-15.01-1.5-25.95
				c-4.06-15.04-12.65-24.68-16.99-28.96c-4.7,2.03-9.41,4.06-14.11,6.1c-2.23,9.43-5.74,30.72,6.07,48.1
				c1.19,1.75,2.58,3.52,4.2,5.27c-0.77,4.14-0.72,7.61-0.53,10.03c0.19,2.34,0.38,4.81,1.51,7.77c1.4,3.67,2.86,4.5,4.74,7.96
				c1.79,3.3,2.21,5.75,3.15,9.85c0.99,4.32,2.58,10.57,5.19,18.66c0.67,0.51,3.87,2.84,8.15,2.23c4-0.57,7.39-3.5,8.83-7.54
				C179.08,269.97,178,263.95,177.4,259.27z"/>
			<path class="st343" d="M175.63,256.96c-1.6-13.67,2.71-15.26-0.22-24.18c-1.04-3.16-2.7-6.37-4.68-9.15
				c6.09-17.74-12.53-48.41-16.77-55.19c-4.7,2.03-9.41,4.06-14.11,6.1c-1.52,10.05-4.18,35.72,9.14,50.59
				c0.44,0.5,1.44,0.86,2.78,1.12c-1.13,4.71-1.32,10.3-0.18,15.24c1.23,5.37,3.17,6.26,5.27,9.77c0.41,0.69,1.3,2.14,2.56,5.9
				c3.54,10.54,3.19,18.37,8.43,24.48c1.18,1.37,2.61,2.62,4.46,2.76c2.19,0.17,4.31-1.32,5.57-2.78
				C181.95,276.88,177.14,269.81,175.63,256.96z"/>
			<path class="st341" d="M188.54,282.95c2.19,4.34,1.5,8.6,1.16,10.17c-3.8,0.65-8.4,1.15-13.62,1.12
				c-5.37-0.03-10.08-0.61-13.95-1.33c-0.4-1.51-0.98-4.61,0.11-8.15c1.37-4.45,5.16-8.85,10.59-9.96
				C179.55,273.43,185.88,277.68,188.54,282.95z"/>
			<path class="st341" d="M108.99,275.53c5.42,5.21,6.93,10.74,5.19,12.71c-1.41,1.6-5.17,1.14-8.86-0.42
				c-2.63-0.14-6.58-0.27-11.39-0.11c-9.81,0.32-12.64,1.48-15.23-0.57c-3.71-2.93-4.49-10.51-1.32-13.92
				c4.75-5.12,16.33,0.8,17.26,1.37c0.04,0.02,0.21,0.13,0.44,0.27c2.19,1.3,2.64,0.97,3.8,1.75c0.75,0.5,3.37,2.51,3.42,2.52
				c0,0,0.01,0,0.03,0.01c0.02,0,0.03,0.01,0.05,0.01c2.14,0.43,4.34-1,4.34-1C108.03,277.29,108.69,276.15,108.99,275.53z"/>
			<path class="st344" d="M95.79,276.12c3.63,2.45,5.58,4.77,8.55,4.35c2.23-0.32,3.82-2.11,4.78-3.48
				c4.38,6.66,3.86,8.76,3.21,9.55c-1.12,1.38-4.23-0.1-10.74-0.32c-4.19-0.14-8.68-0.69-10.27-0.46c-0.22,0.03-0.39,0.07-0.46,0.08
				c-4.96,0.85-8.32,1.42-11.03-0.07c-0.49-0.27-1.5-0.85-2.28-2.01c-1.89-2.85-1.23-7.82,2.02-10.46
				C83.15,270.39,95.3,275.79,95.79,276.12z"/>
			<path class="st344" d="M188.96,285.66c0.68,2.45,0.46,4.64,0.17,6.08c-3.93,0.54-8.72,0.89-14.16,0.62
				c-4.72-0.24-8.88-0.89-12.38-1.66c-0.32-1.38-0.65-3.81,0.22-6.5c1.67-5.11,6.93-8.66,12.38-8.82
				C181.94,275.17,187.45,280.22,188.96,285.66z"/>
			<path class="st345" d="M77.08,281.46c3.07,1.38,5.65,2.07,7.29,2.44c2.68,0.6,6.5,1.14,21.57,0.15c2.33-0.15,4.21-0.3,5.38-0.39
				c0.55,1.85,0.17,2.47-0.08,2.7c-0.49,0.46-1.23,0.16-4.47-0.13c-0.29-0.03-0.78-0.08-1.78-0.14c-1.51-0.09-3.03-0.13-4.54-0.26
				c-5.17-0.43-7.75-0.63-9.12-0.54c-3.17,0.22-4.15,0.9-5.71,1.02c-0.53,0.04-1.05,0.01-1.75-0.08c-0.82-0.11-3.1-0.46-5.01-2.29
				C78.37,283.48,77.65,282.68,77.08,281.46z"/>
			<path class="st346" d="M163.29,283.04c3.07-4.99,8.63-7.71,14.07-6.93c6.37,0.92,9.59,6.21,10.01,6.93
				c-2.41,0.86-5.64,1.73-9.51,2C171.52,285.49,166.4,284.14,163.29,283.04z"/>
			<path class="st345" d="M163.29,283.72c2.32,1.03,6.6,2.58,12.15,2.54c5.71-0.04,10.06-1.74,12.37-2.84
				c0.11,0.38,0.21,0.9,0.13,1.48c-0.5,3.65-7.25,6.1-12.58,6.16c-3.8,0.04-10.29-1.1-11.78-5.15
				C163.28,285.08,163.26,284.3,163.29,283.72z"/>
			<path class="st339" d="M92.53,159.23c-1.35,6.76-1.05,8.73-1.97,15.52c-0.63,4.65-1.84,11.47-4.38,19.77
				c5.63-2.75,9.73-2.65,12.35-2.14c9.35,1.83,12.98,11.61,20.95,11.13c2.69-0.16,4.78-1.43,5.98-2.3
				c-0.38-6.24,0.2-11.28,0.88-14.9c0.11-0.57,1.38-7.32,2.39-7.24c0.64,0.05,0.48,2.88,1.63,7.89c0.52,2.24,1.46,6.05,3.86,10.08
				c1.51,2.55,3.13,4.39,4.25,5.53c1.21-1.68,3.31-4.06,6.55-5.19c5.49-1.92,9.64,1.37,16.42,1.97c3.63,0.32,9.08-0.03,16.08-3.67
				c-4.88-8.17-7.19-15.27-8.4-20.28c-2.55-10.6-1.41-17.08-5.25-33.31c-1.16-4.89-1.73-6.32-2.25-8.49
				c-2.28-9.53-1.4-24.71,14.12-48.84c-6.67-17.6-23.13-29.03-40.59-28.59c-21.05,0.54-32.87,18.08-33.93,19.7
				c4.53,38.6,1.54,56.49-2.72,65.46C97.53,143.31,94.4,149.83,92.53,159.23z"/>
			<path class="st347" d="M93.51,146.27c4.75,1.04,11.32,2.13,19.19,2.31c0.89,0.02,1.79,0.03,2.77,0.02
				c9.74-0.13,17.9-1.37,26.64-2.82c9.5-1.57,16.97-2.86,21.73-3.68c-0.27,2.26-0.57,5.71-0.42,9.89c0.14,3.73,0.55,6.08,2.04,14.67
				c2.21,12.76,2.21,12.87,2.52,13.85c1.14,3.59,3.31,8.74,7.86,14.4c-7.16-0.63-12.76-1.23-16.29-1.63
				c-7.78-0.88-10.8-1.38-14.16,0.31c-3.93,1.98-5.95,5.73-6.95,8.18c-2.47-2.94-5.39-7.27-7-13.01c-1.74-6.21-1.1-11.11-2.35-11.3
				c-1.32-0.2-3.42,4.98-4.36,9.35c-1.21,5.6-0.67,10.47,0,13.71c-5.28-0.23-8.63-1.82-10.74-3.26c-2.16-1.48-2.35-2.37-5.28-4.56
				c-2.44-1.82-5.48-4.1-8.86-4.65c-6.34-1.03-11.89,4.34-13.15,5.62c2.63-4.96,3.83-9.27,4.43-12.31
				c0.77-3.89,0.86-7.24,1.04-13.96c0.13-4.95-0.05-5.83,0.14-9.74C92.56,152.79,93.09,148.85,93.51,146.27z"/>
			<path class="st339" d="M153.88,161.58c0.5,8.58-5.91,17.89-10.84,17.35c-4.64-0.51-8.41-9.81-7.12-17.43
				c0.99-5.83,5.35-13.04,10.06-12.66C150.45,149.19,153.57,156.21,153.88,161.58z"/>
			
				<ellipse transform="matrix(0.1151 -0.9934 0.9934 0.1151 -35.051 288.7794)" class="st348" cx="144.56" cy="164.06" rx="12.86" ry="7.1"/>
			<path class="st339" d="M123.33,162.44c2.13,7.92-1.32,18-6.19,18.82c-4.82,0.81-10.75-7.48-12.09-15.03
				c-1.11-6.21,0.33-15.1,4.85-16.46C114.56,148.39,121.41,155.31,123.33,162.44z"/>
			
				<ellipse transform="matrix(0.9779 -0.2092 0.2092 0.9779 -32.0471 27.5788)" class="st348" cx="114.33" cy="165.26" rx="7.1" ry="12.86"/>
			<path class="st349" d="M147.95,192.04c2.27-1.78,5.94-4.21,10.96-5.81c3.81-1.21,7.2-1.56,9.7-1.61
				c0.83,1.58,1.77,3.24,2.85,4.96c1.06,1.7,2.12,3.26,3.16,4.69c-1.71-0.16-4.41-0.43-7.74-0.82c-4.95-0.58-6.62-0.88-9.7-1.14
				C155.05,192.14,151.88,191.96,147.95,192.04z"/>
			<path class="st342" d="M167.74,199.09c1.18,2.6,2.6,6.48,3.17,11.37c0.62,5.32,0,9.74-0.64,12.65
				c-2.09-3.75-4.75-7.92-8.09-12.23c-4.58-5.9-9.26-10.54-13.37-14.08C155.12,197.56,161.43,198.33,167.74,199.09z"/>
			<path class="st342" d="M170.21,224.36c1.51,7.11,3.02,14.22,4.53,21.33c0.58-1.75,1.11-4.08,1.09-6.83
				C175.78,231.45,171.77,226.2,170.21,224.36z"/>
			<path class="st341" d="M138.11,106.39c9.82-14.73,19.65-29.46,29.47-44.2c2.6-0.53,5.19-1.07,7.79-1.6
				c6.49,2.07,16.39,6.1,26.33,14.21c4.39,3.58,9.04,7.44,13.2,14.05c7.81,12.44,7.58,24.63,7.43,32.87
				c-0.14,7.38-0.25,13.39-3.66,15c-3.68,1.73-10.1-2.16-16.07-9.56c0.61-2.06,1.88-7.38,0.01-13.74
				c-1.85-6.29-5.73-10.05-7.36-11.46c-0.69,0.49-7.82,5.38-15.98,2.5c-6.83-2.41-11.53-9.26-11.56-17.08
				C157.85,93.71,147.98,100.05,138.11,106.39z"/>
			<path class="st343" d="M138.11,106.39c9.82-14.73,19.65-29.46,29.47-44.2c3.76,0.63,7.53,1.26,11.29,1.9
				c9,4.49,15.95,9.09,20.86,12.68c7.93,5.81,10.7,9.12,12.6,12.08c2.47,3.84,3.79,7.52,5.03,12.31
				c2.69,10.41,6.76,33.49,1.31,35.56c-1.95,0.74-5.78-0.95-14.16-12.78c0.82-1.71,2.44-5.68,1.65-10.61
				c-1.48-9.21-10.03-13.42-10.9-13.83c-0.51,0.38-7.9,5.6-16.5,2.31c-6.04-2.31-10.3-7.89-11.03-14.43
				C157.85,93.71,147.98,100.05,138.11,106.39z"/>
			<path class="st341" d="M129,81.32c-0.47-1.67-3.76-12.62-14.76-17.58c-6.81-3.07-13.11-2.07-18.18-1.18
				C79.55,65.44,68.32,76,63.05,81.82c-4.55,3.42-12.57,10.42-18.17,22c-7.77,16.06-6.1,30.96-5.17,36.58
				c0.97,1.44,3.05,4.06,6.58,5.47c6.53,2.61,15.12-0.06,16.99-4.72c1.84-4.61-4.19-7.95-4.88-15.08
				c-0.52-5.3,1.94-12.58,13.53-22.03c2.89,1.43,15.4,7.2,30.36,2.65C121.23,100.93,128.19,83.47,129,81.32z"/>
			<path class="st343" d="M129,81.32c-0.47-1.67-3.76-12.62-14.76-17.58c-6.88-3.1-13.24-2.06-18.18-1.18
				c-11.44,2.04-19.2,8.57-29.29,17.15c-6.61,5.62-9.91,8.43-13.29,12.87c-13.76,18.11-16.83,47.15-7.19,53.29
				c4.97,3.17,13.91,0.62,15.75-3.68c1.93-4.5-4.88-8.61-5.78-16.12c-0.65-5.43,1.69-13.49,15.66-24.63
				c2.85,1.47,15.24,7.42,30.36,3.16C120.52,99.46,127.97,83.6,129,81.32z"/>
			<path class="st342" d="M206.42,82.4c2.09,2.1,4.95,5.41,7.34,10.06c2.16,4.2,3,7.67,4.12,12.46c1.86,7.93,2.88,16,2.4,16.09
				c-0.53,0.1-2.06-10.03-7.2-23.62C210.63,90.92,208.16,85.78,206.42,82.4z"/>
			<circle class="st343" cx="100.28" cy="28.56" r="25.02"/>
			<path class="st341" d="M192.57,32.56c-1.31,11.82-11.41,21.62-23.29,22.68c-14.81,1.32-29.02-11.26-28.55-26.68
				c0.41-13.4,11.78-24.59,25.02-25.02C181.34,3.02,194.23,17.56,192.57,32.56z"/>
			<circle class="st343" cx="165.76" cy="28.56" r="25.02"/>
			<path class="st339" d="M208.41,51.75c-1.14-1.49-2.81-3.64-4.92-6.16c-4.79-5.72-7.24-8.62-10.54-10.46
				c-2.29-1.28-6.44-3.6-10.44-2.29c-5.04,1.64-6.93,8.1-7.56,10.08c-5.81,18.36,12.78,36.47,6.03,44.2
				c-0.65,0.74-1.86,1.77-4.26,2.3c2.36,8.82,5.78,14.97,8.43,18.92c1.09,1.62-0.33-0.67,22.12,26.73l0,0
				c8.71,9.98,20.2,21.42,34.92,32.55c10.78,8.15,21.17,14.52,30.46,19.49c-0.18,0.16-0.36,0.33-0.54,0.49
				c-5.14,1.34-12.21,2.76-20.68,3.2c-1.47,0.08-13.66,0.65-23.79-1.54c-14.35-3.1-17.39-10.21-41.86-28.18
				c-28.82-21.18-37.05-20.44-41.33-19.17c-7.29,2.16-10.5,8.57-14.32,14.03c-8.49,12.16-24.45,26.58-57.23,36.09
				c4.02-13.62,3.26-17.76,1.53-18.74c-4.13-2.34-12.35,14.15-32.45,20.43c-3.27,1.02-14.06,4.24-26.75,0.62
				c-6.15-1.76-10.75-4.55-13.64-6.62c2.42-1.09,5.79-2.66,9.78-4.65c7.22-3.61,12.72-6.75,14.52-7.81
				c16.05-9.39,30.29-23.11,30.29-23.11c6-5.4,11.85-11.71,28.13-36.3c2.06-3.11,3.23-4.93,3.15-7.5
				c-0.12-3.72-2.77-6.53-11.03-13.47c-3.74-3.14-8.5-7.01-14.15-11.32c1.29-3.17,3.5-7.73,7.29-12.5c2.08-2.62,2.53-3.35,4.1-4.97
				c3.87-3.96,3.19-10.21,3.26-16.77c0.06-5.41,0.66-12.9,3.03-22.2c-1.01,1.21-2.21,2.73-3.52,4.52
				c-7.62,10.47-9.48,17.87-10.11,17.67c-1.09-0.34-0.7-23.77,15.46-38.03c3.63-3.2,10.47-9.24,20.05-8.77
				c10,0.49,19.76,7.92,22.78,18.37c3.03,10.47-2.13,19.33-3.13,20.97c2.01-0.99,6.09-2.65,11.47-2.54
				c5.92,0.12,10.25,2.33,12.2,3.49c-1.58-1.96-4.15-5.7-5.13-10.97c-1.64-8.85,1.95-18.03,8.52-23.79
				c1.17-1.02,7.43-6.32,16.78-6.37c7.35-0.04,12.63,3.24,15.83,5.28C199.57,18.64,207.1,46.68,208.41,51.75z"/>
			<path class="st350" d="M207.43,49.07c-8.03-13.91-18.77-21.19-26.41-18.89c-5,1.51-7.51,6.8-8.78,9.44
				c-4.56,9.51,1.92,17.09,4,38.57c0.2,2.05,0.64,5.97,0.56,8.76c-0.07,2.24-0.08,2.47-0.08,2.47c-0.13,2.8-0.28,2.99-0.12,3.86
				c0.15,0.8,0.28,0.65,1.26,3.16c0.69,1.78,0.54,1.62,0.89,2.41c0.7,1.55,1.06,1.63,2.26,3.75c0.77,1.35,0.71,1.48,1.47,2.74
				c0.55,0.92,0.96,1.48,1.51,2.26c1.48,2.11,2.38,3.53,2.68,3.98c2.4,3.54,19.22,21.97,20.58,23.47
				c8.71,9.98,20.2,21.42,34.92,32.55c10.78,8.15,21.17,14.52,30.46,19.49c-31.61,6.37-49.25-0.02-59.52-7.05
				c-9.16-6.27-53.01-43.89-66.25-40.58c-8.08,2.02-12.67,7.8-16.91,13.83c-7.57,10.75-22.44,24.61-54.82,36.67
				c0.97-3.11,1.55-5.74,1.91-7.67c0.61-3.29,0.57-4.42,0.43-5.31c-0.31-2.1-1.35-4.76-2.55-5.61
				c-4.59-3.26-17.64,15.48-34.88,21.21c-7.95,2.64-20.24,3.67-38.47-4.88c2.42-1.09,5.79-2.66,9.78-4.65
				c7.22-3.61,12.72-6.75,14.52-7.81c14.79-8.65,28.9-21.81,30.29-23.11c4.71-4.42,16.81-16.24,28.13-33.37
				c1.47-2.23,3.74-3.81,4.3-6.85c2.06-11.24-16.74-23.35-25.28-28.37c0.45-1.23,1.15-3.06,2.04-5.27c1.1-2.73,1.49-3.44,1.92-4.78
				c0.47-1.47,1.23-3.93,1.48-7.11c0.55-6.99-2.04-9.34-2.44-17.1c-0.19-3.69,0.23-6.39,0.67-9.27c0.53-3.42,1.52-9.51,5.1-16.29
				c1.35-2.56,4.15-7.75,9.68-12.47c3.95-3.37,10.76-9.23,20.05-8.77c10,0.49,19.76,7.92,22.78,18.37
				c3.03,10.47-2.13,19.33-3.13,20.97c2.01-0.99,6.09-2.65,11.47-2.54c5.92,0.12,10.25,2.33,12.2,3.49
				c-1.58-1.96-4.15-5.7-5.13-10.97c-1.64-8.85,1.95-18.03,8.52-23.79c1.17-1.02,7.43-6.32,16.78-6.37
				c7.33-0.04,12.59,3.22,15.83,5.28C199.03,18.28,205.96,43.37,207.43,49.07z"/>
			<path class="st340" d="M75.15,189.97c3.34-2.94,8.01-7.63,12.13-14.3c11.31-18.31,12.71-42.2,12.74-42.68c0,0,0-0.01,0-0.01
				c-0.03-0.01-1.61,7.31-4.2,14.22c-0.7,1.88-1.39,3.72-2.4,5.82c0,0-0.54,1.11-1.16,2.25c-1.53,2.81-7.01,10.81-14.77,21.33
				c-0.42,3.05-0.93,6.2-1.55,9.45C75.69,187.38,75.42,188.68,75.15,189.97z"/>
			<path class="st339" d="M82.14,97.52c2.51-2.46,5.44-5.83,8.07-10.26c4.77-8.03,6.27-15.7,6.79-20.48
				c0.26,3.67,0.18,8.96-1.47,15.01c-2.58,9.42-7.65,15.75-10.61,18.93L82.14,97.52z"/>
			<path class="st339" d="M123.59,40.18c-2.47,0.61-6.13,1.86-9.88,4.54c-6.16,4.41-8.93,10.11-10.03,12.79
				c1.96-3.23,5.73-8.44,12.18-12.65c3.73-2.44,7.3-3.84,10.08-4.68H123.59z"/>
			<path class="st339" d="M134.99,99.2c11.29-1.15,21.02-8.29,25.14-18.53c4.7-11.67,1.32-25.4-8.51-34.03
				c13.84,9.9,17.59,27.63,10.37,39.6C156.76,94.94,146.19,99.85,134.99,99.2z"/>
			<path class="st339" d="M71.02,25.95c-1.17,1.77-3.65,6.06-3.66,11.96c0,0.91,0.05,4.98,1.73,8.44
				c5.54,11.38,26.3,10.99,26.45,10.3c0.12-0.59-15.07-0.31-21.98-10.36C69.15,39.88,69.82,31.73,71.02,25.95z"/>
			<path class="st339" d="M176.73,89.42c-0.38,3.59-2,14.58-11.03,24.37c-9.05,9.82-19.9,12.32-23.45,12.98
				c7.4-0.7,19.22-3.12,28.29-12.21c1.05-1.05,1.99-2.12,2.85-3.21c1.35,1.28,2.83,2.56,4.46,3.82c7.49,5.77,15.23,8.7,21.33,10.26
				c-3.9-3.97-6.95-7.47-9.14-10.12c-1.91-2.31-3.28-4-5-6.47c-2.01-2.9-4.4-6.37-6.23-11.29
				C178.09,95.59,177.25,92.84,176.73,89.42z"/>
			<path class="st339" d="M98.8,99.72c3.52,12.27,10.12,16.48,12.36,17.72c13.67,7.52,37.42-0.75,53.89-24.34
				c-3.56,6.83-15.18,26.89-37.38,32.6c-3.3,0.85-24.57,6.32-31.27-4.35C91.35,113.28,97.92,101.28,98.8,99.72z"/>
			<path class="st339" d="M71.66,171.58c4-2.49,8.86-6.11,13.57-11.27c9.26-10.16,13.11-21,14.8-27.33
				c-1.11,5.31-2.92,11.62-5.93,18.41c-5.25,11.83-12.06,20.41-17.35,26c0.03-0.34,0.16-2.42-1.42-4.12
				C73.89,171.74,72.05,171.6,71.66,171.58z"/>
			<path class="st339" d="M155.38,140.75c-1.72-0.37-4.29-0.94-7.43-1.66c-4.11-0.95-6.17-1.42-7.21-1.75
				c-2.74-0.88-6.74-2.85-11.01-7.89c0.61,1.69,2.09,5.02,5.45,7.7c3.03,2.42,6.06,3.08,8.47,3.6
				C148.3,141.76,152.4,141.37,155.38,140.75z"/>
			<g>
				<path class="st339" d="M219.46,120.82c7.57,1.59,11.49,7.87,15.73,14.66c4.64,7.43,11.74,18.8,6.79,26.06
					c-3.73,5.47-12.29,5.64-15.32,5.56c0,0-6.9,1.06-10.58-1.56c-0.94-0.67-1.76-3.28-2.31-3.68c-1.51-1.1-7.6,2.2-11.44,1.01
					c-3.64-1.13-5.82-6.48-5.51-10.35c0.15-1.86,0.75-1.96,1.59-5.06c0.36-1.32,0.52-2.38,0.6-2.94c0.45-3.19,0.67-4.79,0.9-8.6
					c0.16-2.71,1.09-6.67,4.59-11.98C206.84,122.51,212.71,119.4,219.46,120.82z"/>
				<path class="st23" d="M215.97,147.33c-0.51,0.32-5.39,3.04-5.02,6.02c0.13,1.05,0.82,1.47,1.95,2.72c1,1.11,1.66,2.12,2.12,3.02
					c1.82,3.55,1.58,4.46,2.67,5.09c1.68,0.97,3.13-1.52,8.4-3.17c2.89-0.9,4.09-0.66,9.73-2.23c2.61-0.73,2.91-0.93,3.17-1.18
					c2.97-2.81-0.48-10.55-2.57-15.3c-1.86-4.2-4.68-7.78-6.41-9.85c-0.82-0.99-1.85-2.75-3.75-4.58c-1-0.97-2.29-2.22-3.82-3.02
					c-5.09-2.68-11.35,0.39-11.76,0.6c-5.13,2.6-7.09,7.52-8.01,9.82c-1.2,3-1.67,6.64-1.76,7.68c-0.05,0.66-0.08,1.34-0.08,1.34
					c-0.03,0.94,0.03,1.56-0.01,2.75c-0.18,5.85-1.96,6.78-1.07,9.42c0.67,1.99,2.52,3.96,4.64,4.44c2.22,0.5,3.16-1,6.66-0.83
					c2.43,0.11,3.77,0.91,4.02,0.48c0.5-0.86-5.21-3.3-5.29-7.25c-0.03-1.79,1.06-4.34,2.84-6.03c0.16-0.15,0.28-0.26,0.35-0.32
					c2.21-1.96,4.58-2.27,8.27-2.76c2.92-0.38,5.99-0.74,8.62,1.08c0.75,0.52,1.27,1.08,1.6,1.48c0,0,0,0,0,0
					c0.29,0.69,0.03,1.03,0.09,2.06c0.11,2.01,1.26,3.41,1.46,3.65c0.31,0.37,0.86,0.92,1.72,1.39c-0.45-0.15-1.24-0.48-1.99-1.21
					c-0.95-0.92-1.29-1.96-1.41-2.43c-1.43,0.69-2.6,1.34-3.47,1.84c-1.28,0.74-1.8,1.12-1.89,1.71c-0.02,0.16-0.04,0.5,0.73,1.78
					c0.48,0.81,0.94,1.44,1.27,1.87c-0.41-0.35-0.84-0.77-1.27-1.25c-0.69-0.76-1.21-1.51-1.61-2.17c-0.59-0.06-1.93-0.13-3.34,0.62
					c-2.37,1.25-2.94,3.76-3.02,4.13c-0.05-0.3-0.25-1.59,0.56-2.81c0.57-0.86,1.34-1.24,1.67-1.39c-0.08-0.26-0.45-1.45-1.69-2.17
					c-1.43-0.83-2.87-0.34-3.08-0.26c0.3-0.15,1.05-0.48,2.03-0.4c1.01,0.08,1.7,0.54,1.97,0.74c0.81,0.24,2.67,0.67,4.54-0.17
					c0.92-0.42,1.5-0.99,2.4-1.88c1.25-1.23,1.93-1.9,1.84-2.63c-0.14-1.04-1.65-1.94-3.75-2.14c0,0.01,0,0.03,0.01,0.04
					C224.12,145.47,219.99,144.85,215.97,147.33z"/>
				<path class="st23" d="M240.69,153.89c0.26,3.22-0.6,4.88-1.46,5.81c-2.08,2.25-5.35,1.47-11.62,2.54
					c-3.14,0.54-5.67,1.31-7.38,1.91c2.21-1.52,4.16-2.28,5.49-2.69c2.18-0.68,3.14-0.55,8.25-1.54c3.32-0.64,4.32-0.97,5.19-1.88
					C240.41,156.74,240.66,155,240.69,153.89z"/>
				<path class="st23" d="M239.72,159.57c-0.47,0.98-1.3,2.33-2.79,3.17c-2.24,1.25-4.05,0.27-8.31,0.31
					c-4.45,0.04-7.56,1.16-7.59,1.04c-0.02-0.11,2.63-0.85,5.7-1.37c3.61-0.6,5.42-0.9,7.4-0.87c0.56,0.01,1.29,0.04,2.24-0.22
					C237.93,161.22,239.03,160.28,239.72,159.57z"/>
				<path class="st23" d="M234.3,163.62c-0.78,0.37-1.94,0.8-3.39,0.89c-1.73,0.1-2.68-0.37-4.29-0.58
					c-1.25-0.17-3.05-0.21-5.33,0.43c2.45-0.87,4.41-1.03,5.76-1.02c1.05,0.01,1.96,0.13,4.54,0.22
					C232.74,163.6,233.68,163.62,234.3,163.62z"/>
			</g>
			<g>
				<path class="st339" d="M48.91,135.18c-6.75,1.04-10.51,6.39-14.57,12.17c-4.44,6.33-11.25,16.02-7.24,22.65
					c3.03,5,10.56,5.56,13.24,5.63c0,0,6.04,1.26,9.4-0.87c0.86-0.55,1.71-2.81,2.21-3.13c1.39-0.89,6.6,2.31,10.04,1.44
					c3.26-0.82,5.44-5.43,5.35-8.86c-0.04-1.64-0.57-1.76-1.16-4.53c-0.25-1.18-0.35-2.12-0.39-2.62c-0.24-2.83-0.37-4.25-0.39-7.63
					c-0.01-2.39-0.64-5.94-3.47-10.78C59.95,137.28,54.93,134.25,48.91,135.18z"/>
				<path class="st23" d="M50.72,158.72c0.44,0.3,4.61,2.94,4.14,5.55c-0.16,0.92-0.8,1.25-1.85,2.3c-0.94,0.93-1.56,1.79-2.01,2.57
					c-1.78,3.05-1.6,3.86-2.6,4.36c-1.53,0.77-2.69-1.49-7.26-3.19c-2.51-0.93-3.57-0.78-8.47-2.43c-2.27-0.77-2.52-0.96-2.74-1.19
					c-2.49-2.62,0.92-9.28,3-13.36c1.84-3.62,4.5-6.64,6.12-8.38c0.77-0.83,1.76-2.33,3.52-3.86c0.93-0.8,2.13-1.85,3.51-2.48
					c4.62-2.12,9.99,0.88,10.34,1.09c4.4,2.54,5.89,6.97,6.59,9.04c0.91,2.71,1.16,5.93,1.18,6.86c0.02,0.59,0.01,1.18,0.01,1.18
					c-0.02,0.83-0.1,1.37-0.12,2.43c-0.12,5.17,1.4,6.07,0.5,8.36c-0.68,1.73-2.41,3.37-4.3,3.69c-1.98,0.33-2.73-1.03-5.84-1.05
					c-2.15-0.02-3.36,0.62-3.57,0.23c-0.4-0.78,4.75-2.66,5.01-6.14c0.12-1.57-0.73-3.88-2.22-5.45c-0.13-0.14-0.23-0.24-0.3-0.3
					c-1.85-1.83-3.93-2.22-7.16-2.83c-2.56-0.48-5.24-0.94-7.66,0.54c-0.69,0.42-1.17,0.89-1.48,1.23c0,0,0,0,0,0
					c-0.29,0.59-0.08,0.9-0.18,1.81c-0.2,1.77-1.27,2.95-1.46,3.15c-0.29,0.31-0.8,0.77-1.58,1.15c0.4-0.11,1.12-0.36,1.81-0.97
					c0.88-0.77,1.23-1.67,1.36-2.08c1.23,0.68,2.23,1.3,2.97,1.79c1.09,0.72,1.53,1.07,1.58,1.6c0.01,0.15,0.01,0.44-0.73,1.54
					c-0.46,0.69-0.9,1.23-1.21,1.59c0.38-0.29,0.78-0.64,1.18-1.04c0.64-0.64,1.14-1.27,1.53-1.83c0.52-0.03,1.71-0.02,2.92,0.7
					c2.03,1.22,2.41,3.45,2.46,3.79c0.06-0.26,0.3-1.39-0.36-2.51c-0.46-0.78-1.12-1.16-1.41-1.3c0.08-0.23,0.47-1.26,1.59-1.83
					c1.3-0.66,2.55-0.16,2.73-0.09c-0.26-0.15-0.9-0.47-1.77-0.45c-0.89,0.02-1.52,0.39-1.78,0.56c-0.72,0.18-2.39,0.46-3.99-0.37
					c-0.79-0.41-1.27-0.94-2.03-1.78c-1.04-1.15-1.61-1.77-1.49-2.41c0.17-0.91,1.55-1.63,3.41-1.71c0,0.01-0.01,0.02-0.01,0.03
					C43.62,156.69,47.29,156.34,50.72,158.72z"/>
				<path class="st23" d="M28.61,163.32c-0.38,2.82,0.29,4.33,1.01,5.19c1.73,2.08,4.65,1.55,10.12,2.8
					c2.74,0.63,4.94,1.43,6.42,2.04c-1.88-1.44-3.56-2.21-4.71-2.63c-1.89-0.7-2.74-0.63-7.2-1.75c-2.9-0.73-3.77-1.06-4.49-1.91
					C28.72,165.85,28.59,164.31,28.61,163.32z"/>
				<path class="st23" d="M29.2,168.38c0.36,0.89,1.03,2.12,2.31,2.93c1.91,1.21,3.56,0.43,7.31,0.67c3.92,0.25,6.61,1.38,6.64,1.28
					c0.02-0.09-2.27-0.88-4.96-1.48c-3.16-0.7-4.74-1.06-6.48-1.12c-0.49-0.02-1.14-0.02-1.96-0.3
					C30.7,169.91,29.77,169.04,29.2,168.38z"/>
				<path class="st23" d="M33.78,172.21c0.67,0.36,1.67,0.8,2.94,0.95c1.52,0.17,2.38-0.19,3.81-0.31c1.11-0.09,2.7-0.04,4.68,0.64
					c-2.12-0.88-3.84-1.12-5.03-1.17c-0.92-0.04-1.73,0.02-4.01-0.02C35.16,172.26,34.33,172.23,33.78,172.21z"/>
			</g>
			<path class="st340" d="M64.85,83.53c0.66,0.31,11.68,5.28,21.65-1.23c7.54-4.93,9.17-12.97,9.45-14.46
				c-0.35,2.97-1.06,6.5-2.44,10.33c-3.07,8.52-7.99,14.36-11.37,17.71c-1.63-1.71-3.56-3.51-5.82-5.31
				C72.21,87.33,68.21,85.08,64.85,83.53z"/>
			<path class="st340" d="M129.63,129.67c0.16,2.25,0.59,5.19,1.68,8.49c1.11,3.37,2.56,6.03,3.79,7.95
				c0.71-0.81,1.61-1.71,2.73-2.59c1.69-1.33,3.33-2.18,4.63-2.73c-1.49-0.3-3.51-0.9-5.61-2.19
				C132.19,135.74,130.27,131.38,129.63,129.67z"/>
			<path class="st339" d="M108.21,66.78c0,0,14.73,27.14,47.84,9.18c-6.58,12.27-20.67,17.58-32.03,13.24
				C115.2,85.82,109.01,77,108.21,66.78z"/>
			<path class="st347" d="M110.48,71.11c2.29,2.77,5.63,6.01,10.23,8.38c13.7,7.06,27.64,0.79,30.97-0.83
				c-9.18,8.12-20.62,10.41-29.64,5.68C115.11,80.71,111.76,74.06,110.48,71.11z"/>
			<path class="st339" d="M135.2,82.1L135.2,82.1c-2.79,0.04-5.35-0.28-7.68-0.85c-3.23-0.79-6.04-2.06-8.44-3.53v0
				c0.57,5.31-0.33,7.29-1.34,8.08c-1.77,1.38-3.95-0.87-7.09,0.55c-1.68,0.76-3.44,2.48-3.98,4.34
				c-1.58,5.4,5.71,15.29,14.16,15.15c9.02-0.14,13.4-11.62,13.65-12.29C136.24,88.72,135.67,84.34,135.2,82.1z"/>
			<path class="st349" d="M119.87,79.14c1.27,0.86,2.97,1.82,5.08,2.55c4.02,1.4,7.58,1.32,9.72,1.09
				c0.23,10.85-5.38,19.29-12.38,20.8c-1.28,0.28-4.76,0.79-9.36-1.68c-4.52-3.35-6.59-8.01-5.29-11.24
				c0.47-1.17,1.54-2.55,3.06-3.34c3.24-1.68,6.24,0.49,7.98-1.35c0.63-0.67,0.79-1.54,1.09-3.15
				C120.03,81.31,119.97,80.02,119.87,79.14z"/>
			<path class="st351" d="M117.3,87.15c0.72-0.17,1.27-0.47,1.62-0.7c1.33,0.99,3.47,2.31,6.35,3.18c3.32,1,6.19,0.96,7.94,0.79
				c-1.28,6.51-5.6,11.51-10.79,12.58c-1.8,0.37-5.09,0.56-8.34-1.05c-2.41-1.19-3.69-2.85-3.98-3.15c-0.33-0.35-2.8-3.03-2.19-6.63
				c0.08-0.49,0.41-2.55,2.15-3.93c1.43-1.13,3.1-1.25,3.35-1.26C114.98,86.9,115.73,87.52,117.3,87.15z"/>
			<path class="st339" d="M109.79,99.29c2.45-0.78,5.6-2.16,8.46-4.79c5.51-5.07,6.78-11.86,6.84-11.83
				c0.06,0.02-1.05,6.04-5.85,11.57c-2.9,3.34-6.11,5.32-8.41,6.48C110.48,100.24,110.14,99.77,109.79,99.29z"/>
			<path class="st339" d="M156.97,70.79c-2.16,2.93-2.1,5.94-0.67,7.04c0.2,0.16,1.02,0.73,2.76,0.43c-0.5-0.43-1.64-1.52-2.18-3.33
				C156.3,72.99,156.76,71.39,156.97,70.79z"/>
			<path class="st339" d="M109.52,61.91c0.81,3.55-0.45,6.28-2.2,6.72c-0.25,0.06-1.23,0.26-2.7-0.71c0.63-0.19,2.11-0.74,3.33-2.18
				C109.25,64.2,109.47,62.54,109.52,61.91z"/>
			<path class="st339" d="M125.38,77.26c0.17-0.05,0.19-1.26-0.48-2.2c-0.11-0.15-0.69-0.96-1.15-0.8c-0.27,0.1-0.42,0.51-0.42,1.01
				c0.26,0.1,0.59,0.27,0.92,0.53C125.09,76.47,125.23,77.3,125.38,77.26z"/>
			<path class="st339" d="M127.37,77.68c0.13-0.35,0.53-1.23,1.47-1.76c0.56-0.31,1.79-0.77,2.27-0.21c0.4,0.48,0.03,1.37-0.02,1.49
				c-0.37-0.07-0.83-0.12-1.35-0.1C128.69,77.14,127.88,77.44,127.37,77.68z"/>
			<path class="st339" d="M129.47,70.32c5.53-6.36,8.82-7.15,10.84-6.6c2.01,0.54,3.45,2.6,7.95,4.16c1.23,0.43,2.27,0.67,2.93,0.81
				c0.05,0.88,0.08,3.78-1.94,6.16c-2.48,2.91-6.24,2.91-7.64,2.91C134.51,77.76,130,71.12,129.47,70.32z"/>
			<path class="st339" d="M126.67,69.8c0.06-0.25,1.07-4.5-1.77-7.3c-0.44-0.43-2.02-2-4.07-1.89c-2.5,0.13-3.97,2.67-5.34,2.05
				c-0.51-0.23-0.76-0.77-0.88-1.16c-0.44,0.72-1.7,3-1.29,5.98c0.09,0.65,0.45,3.32,2.27,4.73
				C118.06,74.12,122.8,73.39,126.67,69.8z"/>
			<path class="st23" d="M130.27,70.3c3.98-4.52,9.29-5.5,11.99-3.47c1.62,1.22,2.06,3.33,2.19,4.64c-1.18,0.57-4.17,1.81-8.02,1.27
				C133.45,72.33,131.33,71.05,130.27,70.3z"/>
			<path class="st23" d="M125.95,69.31c-0.58-4.7-3.87-7.32-6.15-6.88c-2.16,0.41-3.21,3.48-3.3,3.77
				C116.49,66.19,121.44,70.99,125.95,69.31z"/>
			<path class="st339" d="M140.19,68.07c0.01,2.94-1.54,5.93-2.42,5.76c-0.88-0.17-1.21-3.51-0.11-6.24
				c0.36-0.9,1.16-2.44,1.76-2.33C140.02,65.36,140.19,67.1,140.19,68.07z"/>
			<path class="st339" d="M122.85,64.89c-0.09,2.92-1.47,5.94-2.2,5.8c-0.73-0.14-0.9-3.45,0.1-6.2c0.33-0.9,1.05-2.47,1.54-2.37
				C122.79,62.21,122.88,63.93,122.85,64.89z"/>
			<path class="st339" d="M135.73,62.07c-0.06-0.08,9.14-11.01,14.47-8.78c3.95,1.65,5.41,10.36,2.59,21.28
				c0.59-9.19,0.1-18.11-4.01-19.76C143.84,52.83,135.79,62.14,135.73,62.07z"/>
			<path class="st339" d="M128.57,61.18c-1.52-5.33-4.27-8.33-5.87-9.76c-1.55-1.39-3.76-3.39-5.79-2.78
				c-1.98,0.6-2.7,3.37-3.48,6.37c-0.62,2.38-1.24,5.97-0.86,10.53c-0.03-3.35,0.55-7.82,3.21-11.89c1.4-2.14,2.23-2.43,2.56-2.51
				C121.09,50.41,125.03,54.38,128.57,61.18z"/>
			<ellipse class="st23" cx="139.15" cy="69.05" rx="1.04" ry="1.65"/>
			<ellipse class="st23" cx="121.64" cy="66.41" rx="1.04" ry="1.65"/>
		</g>
	</g>
</g>
</svg>
