<?xml version="1.0" encoding="utf-8"?>
<!-- Generator: Adobe Illustrator 24.0.3, SVG Export Plug-In . SVG Version: 6.00 Build 0)  -->
<svg version="1.1" id="レイヤー_1" xmlns="http://www.w3.org/2000/svg" xmlns:xlink="http://www.w3.org/1999/xlink" x="0px"
	 y="0px" viewBox="0 0 425.2 425.2" style="enable-background:new 0 0 425.2 425.2;" xml:space="preserve">
<style type="text/css">
	.st0{fill:url(#SVGID_1_);stroke:url(#SVGID_3_);stroke-miterlimit:10;}
	.st1{clip-path:url(#SVGID_4_);}
	.st2{fill:#70C8DD;}
	.st3{fill:#65A2A3;}
	.st4{fill:#82CBCC;}
	.st5{fill:#7EC6C6;}
	.st6{fill:#F0F2F7;}
	.st7{fill:none;stroke:#000000;stroke-width:0.25;stroke-miterlimit:10;}
	.st8{fill:none;}
	.st9{fill:#F2DCCD;}
	.st10{fill:#D9B799;}
	.st11{fill:#C2A289;}
	.st12{fill:#B59680;}
	.st13{fill:#73172F;}
	.st14{fill:#65142D;}
	.st15{fill:#A80228;}
	.st16{fill:#5B0D27;}
	.st17{fill:#323333;}
	.st18{fill:#863156;}
	.st19{fill:#F1F9FE;}
	.st20{fill:#EAF6FD;}
	.st21{fill:#FCFEFF;}
	.st22{fill:#FFFFFF;}
	.st23{fill:#D8EFFC;}
	.st24{fill:#DFF2FC;}
	.st25{fill:#E6C6B0;}
	.st26{fill:#C8A68D;}
	.st27{fill:#323333;stroke:#000000;stroke-width:0.25;stroke-miterlimit:10;}
	.st28{fill:#F2F3F7;}
	.st29{fill:#F5F3F7;}
	.st30{fill:#EEF1F7;}
	.st31{fill:#E3E8F4;}
	.st32{fill:#F9F5F8;}
	.st33{fill:#ECECF4;}
	.st34{fill:#F1D0BC;}
	.st35{fill:#F3CCC2;}
	.st36{fill:#F2D7D1;}
	.st37{fill:#EECAC3;}
	.st38{fill:#F3E1DE;}
	.st39{fill:#5F1B32;}
	.st40{fill:#FFFFFF;stroke:#000000;stroke-miterlimit:10;}
	.st41{fill:#B29583;}
	.st42{fill:#C4A591;}
	.st43{fill:#CDAC97;}
	.st44{fill:#DEBBA3;}
	.st45{fill:#EEC7AD;}
	.st46{fill:#E3BFA6;}
	.st47{fill:#EDF7FD;}
	.st48{fill:#E6F4FD;}
	.st49{fill:#B77878;}
	.st50{fill:#E19492;}
	.st51{fill:#D2A090;}
	.st52{fill:#C09284;}
	.st53{fill:#ECB3A0;}
	.st54{fill:#E4AD9B;}
	.st55{fill:#EAEDEF;}
	.st56{fill:#70B1B2;}
	.st57{fill:#75B8B9;}
	.st58{fill:#59C4F1;}
	.st59{fill:#885D85;}
	.st60{fill:#835981;}
	.st61{fill:#91648E;}
	.st62{fill:#8D618A;}
	.st63{fill:#0E2B2B;}
	.st64{fill:#B3DCCF;}
	.st65{fill:#C5D7E2;}
	.st66{fill:#9AD3CD;}
	.st67{fill:#95D5F6;}
	.st68{fill:#82CACB;}
	.st69{fill:#8ACDCC;}
	.st70{fill:#7ABFC0;}
	.st71{fill:#A3D6CE;}
	.st72{fill:#B1DBCF;}
	.st73{fill:#6BA9AA;}
	.st74{fill:#609A9B;}
	.st75{fill:#80C8C9;}
	.st76{fill:#9BD5E0;}
	.st77{fill:#4E8182;}
	.st78{fill:#7CC3C4;}
	.st79{fill:none;stroke:#000000;stroke-miterlimit:10;}
	.st80{stroke:#000000;stroke-miterlimit:10;}
	.st81{fill:#ACA399;}
	.st82{fill:#D2C7BB;}
	.st83{fill:#C0B5AB;}
	.st84{fill:#E4D7CA;}
	.st85{fill:#727171;}
	.st86{fill:#595757;}
	.st87{fill:#DAAB9E;}
	.st88{fill:#E8B7A8;}
	.st89{fill:#898989;}
	.st90{fill:#D58289;}
	.st91{fill:#E38B92;}
	.st92{fill:#E2B1A3;}
	.st93{fill:#A36B6D;}
	.st94{fill:#B9BABA;}
	.st95{fill:#3E3A39;}
	.st96{fill:#B79086;}
	.st97{fill:#AEBBC2;}
	.st98{fill:#553D37;}
	.st99{fill:#4C4948;}
	.st100{fill:#B5B5B6;}
	.st101{fill:#9FA0A0;}
	.st102{fill:#F4E5D7;}
	.st103{fill:#F4E9D9;}
	.st104{fill:#6F1B05;}
	.st105{fill:#F4F6F7;}
	.st106{fill:#F1F3F4;}
	.st107{fill:#822510;}
	.st108{fill:#4E0500;}
	.st109{fill:#A2341F;}
	.st110{fill:#DFE1E2;}
	.st111{fill:#76200A;}
	.st112{fill:#5F1200;}
	.st113{fill:#3D0000;}
	.st114{fill:#E6EBEE;stroke:#9FA0A0;stroke-width:0.25;stroke-miterlimit:10;}
	.st115{fill:#F8FAFB;}
	.st116{fill:#F0F5F8;}
	.st117{fill:#CED9DF;stroke:#9FA0A0;stroke-width:0.25;stroke-miterlimit:10;}
	.st118{fill:#D3DEE5;stroke:#9FA0A0;stroke-width:0.25;stroke-miterlimit:10;}
	.st119{fill:#8C2A16;}
	.st120{fill:#A63620;}
	.st121{fill:#99301B;}
	.st122{fill:#A13019;}
	.st123{fill:#751B03;}
	.st124{fill:#460000;}
	.st125{fill:#7E230E;}
	.st126{fill:#E3E5E6;}
	.st127{fill:#DEE6EB;stroke:#9FA0A0;stroke-width:0.25;stroke-miterlimit:10;}
	.st128{fill:#BE3518;}
	.st129{fill:#290000;}
	.st130{fill:#320000;}
	.st131{fill:#2C0000;}
	.st132{fill:#EAEDEF;stroke:#9FA0A0;stroke-width:0.25;stroke-miterlimit:10;}
	.st133{fill:#9D9FA0;}
	.st134{fill:#110C0E;}
	.st135{fill:#181718;}
	.st136{fill:#202020;}
	.st137{fill:#252526;}
	.st138{fill:#DCDDDD;}
	.st139{fill:#1B1B1B;}
	.st140{fill:#3E3E3E;}
	.st141{fill:#3A3B3B;}
	.st142{fill:#363737;}
	.st143{fill:#2E2F2F;}
	.st144{fill:#161415;}
	.st145{fill:#530000;}
	.st146{fill:#680000;}
	.st147{fill:#7D0000;}
	.st148{fill:#910000;}
	.st149{fill:#A40000;}
	.st150{fill:#B60005;}
	.st151{fill:#470000;}
	.st152{fill:#292A2A;}
	.st153{fill:#414242;}
	.st154{fill:#D19C77;}
	.st155{fill:#D9A57D;}
	.st156{fill:#D09A77;}
	.st157{fill:#D8A07B;}
	.st158{fill:#C99A74;}
	.st159{fill:#D8A27B;}
	.st160{fill:#CC9A75;}
	.st161{fill:#BF906E;}
	.st162{fill:#D5A57C;}
	.st163{fill:#CA9D76;}
	.st164{fill:#E4AA80;}
	.st165{fill:#E1A77E;}
	.st166{fill:#E4A87F;}
	.st167{fill:#DDA37B;}
	.st168{fill:#7C3021;}
	.st169{fill:#D6A07A;}
	.st170{fill:#D59F7A;}
	.st171{fill:#644633;}
	.st172{fill:#D9A97E;}
	.st173{fill:#CEA178;}
	.st174{fill:#DCAB80;}
	.st175{fill:#E0AE82;}
	.st176{fill:#D4A07A;}
	.st177{fill:#CB9974;}
	.st178{fill:#DBA67E;}
	.st179{fill:#CF9D77;}
	.st180{fill:#DFA880;}
	.st181{fill:#D69D77;}
	.st182{fill:#D49E79;}
	.st183{fill:#E9EFF3;}
	.st184{fill:#CD9A76;}
	.st185{fill:#F0F4F7;}
	.st186{fill:#A2B4BD;}
	.st187{fill:#C6DBE7;}
	.st188{fill:#BED2DE;}
	.st189{fill:#D2E8F4;}
	.st190{fill:#C3D7E3;}
	.st191{fill:#BBCFDA;}
	.st192{fill:#CAE0EC;}
	.st193{fill:#32363A;}
	.st194{fill:#B3C6D1;}
	.st195{fill:#CCE1EE;}
	.st196{fill:#4A5257;}
	.st197{fill:#EDEFF1;}
	.st198{fill:#6A0F00;}
	.st199{fill:#C4361E;}
	.st200{fill:#772C16;}
	.st201{fill:#E85706;}
	.st202{fill:#CFE5F1;}
	.st203{fill:url(#背景_5_);}
	.st204{fill:#620F13;}
	.st205{fill:#BF1A20;}
	.st206{fill:#901D22;}
	.st207{fill:#EDF6F8;}
	.st208{fill:#F0F8F9;}
	.st209{fill:#BBCACA;}
	.st210{fill:#E83A37;}
	.st211{fill:url(#SVGID_5_);}
	.st212{fill:url(#SVGID_6_);}
	.st213{fill:#F3EEF6;}
	.st214{fill:#FBE2DE;}
	.st215{fill:#E4F3F6;}
	.st216{fill:#C13432;}
	.st217{fill:#D0C9CA;}
	.st218{fill:#00003D;}
	.st219{fill:url(#SVGID_7_);}
	.st220{fill:url(#SVGID_8_);}
	.st221{fill:#FFFFFF;stroke:#000000;stroke-width:0.5;stroke-miterlimit:10;}
	.st222{fill:url(#SVGID_9_);}
	.st223{fill:url(#SVGID_10_);}
	.st224{fill:url(#SVGID_11_);}
	.st225{fill:url(#SVGID_12_);}
	.st226{fill:url(#SVGID_13_);}
	.st227{fill:url(#SVGID_14_);}
	.st228{fill:url(#SVGID_15_);}
	.st229{fill:url(#SVGID_16_);}
	.st230{fill:url(#SVGID_17_);}
	.st231{fill:url(#SVGID_18_);}
	.st232{fill:url(#SVGID_19_);}
	.st233{fill:url(#SVGID_20_);}
	.st234{fill:url(#SVGID_21_);}
	.st235{fill:url(#SVGID_22_);}
	.st236{fill:url(#SVGID_23_);}
	.st237{fill:url(#SVGID_24_);}
	.st238{fill:url(#SVGID_25_);}
	.st239{fill:url(#SVGID_26_);}
	.st240{fill:url(#SVGID_27_);}
	.st241{fill:url(#SVGID_28_);}
	.st242{fill:url(#SVGID_29_);}
	.st243{fill:url(#SVGID_30_);}
	.st244{fill:url(#SVGID_31_);}
	.st245{fill:url(#SVGID_32_);}
	.st246{fill:url(#SVGID_33_);}
	.st247{fill:url(#SVGID_34_);}
	.st248{fill:url(#SVGID_35_);}
	.st249{fill:url(#SVGID_36_);}
	.st250{fill:url(#SVGID_37_);}
	.st251{fill:url(#SVGID_38_);}
	.st252{fill:url(#SVGID_39_);}
	.st253{fill:url(#SVGID_40_);}
	.st254{fill:url(#SVGID_41_);}
	.st255{fill:url(#SVGID_42_);}
	.st256{fill:url(#SVGID_43_);}
	.st257{fill:url(#SVGID_44_);}
	.st258{fill:url(#SVGID_45_);}
	.st259{fill:url(#SVGID_46_);}
	.st260{fill:url(#SVGID_47_);}
	.st261{fill:url(#SVGID_48_);}
	.st262{fill:url(#SVGID_49_);}
	.st263{fill:url(#SVGID_50_);}
	.st264{fill:url(#SVGID_51_);}
	.st265{fill:url(#SVGID_52_);}
	.st266{fill:url(#SVGID_53_);}
	.st267{fill:url(#SVGID_54_);}
	.st268{fill:url(#SVGID_55_);}
	.st269{fill:url(#SVGID_56_);}
	.st270{fill:url(#SVGID_57_);}
	.st271{fill:url(#SVGID_58_);}
	.st272{fill:url(#SVGID_59_);}
	.st273{fill:url(#SVGID_60_);}
	.st274{fill:url(#SVGID_61_);}
	.st275{fill:url(#SVGID_62_);}
	.st276{fill:url(#SVGID_63_);}
	.st277{fill:url(#SVGID_64_);}
	.st278{fill:url(#SVGID_65_);}
	.st279{fill:url(#SVGID_66_);}
	.st280{fill:url(#SVGID_67_);}
	.st281{fill:url(#SVGID_68_);}
	.st282{fill:url(#SVGID_69_);}
	.st283{fill:url(#SVGID_70_);}
	.st284{fill:url(#SVGID_71_);}
	.st285{fill:url(#SVGID_72_);}
	.st286{fill:url(#SVGID_73_);}
	.st287{fill:url(#SVGID_74_);}
	.st288{fill:url(#SVGID_75_);}
	.st289{fill:url(#SVGID_76_);}
	.st290{fill:url(#SVGID_77_);}
	.st291{fill:url(#SVGID_78_);}
	.st292{fill:url(#SVGID_79_);}
	.st293{fill:url(#SVGID_80_);}
	.st294{fill:url(#SVGID_81_);}
	.st295{fill:url(#SVGID_82_);}
	.st296{fill:url(#SVGID_83_);}
	.st297{fill:url(#SVGID_84_);}
	.st298{fill:url(#SVGID_85_);}
	.st299{fill:url(#SVGID_86_);}
	.st300{fill:url(#SVGID_87_);}
	.st301{fill:url(#SVGID_88_);}
	.st302{fill:url(#SVGID_89_);}
	.st303{fill:url(#SVGID_90_);}
	.st304{fill:url(#SVGID_91_);}
	.st305{fill:url(#SVGID_92_);}
	.st306{fill:url(#SVGID_93_);}
	.st307{fill:url(#SVGID_94_);}
	.st308{fill:url(#SVGID_95_);}
	.st309{fill:url(#SVGID_96_);}
	.st310{fill:url(#SVGID_97_);}
	.st311{fill:url(#SVGID_98_);}
	.st312{fill:url(#SVGID_99_);}
	.st313{fill:url(#SVGID_100_);}
	.st314{fill:url(#SVGID_101_);}
	.st315{fill:url(#SVGID_102_);}
	.st316{fill:url(#SVGID_103_);}
	.st317{fill:url(#SVGID_104_);}
	.st318{fill:url(#SVGID_105_);}
	.st319{fill:url(#SVGID_106_);}
	.st320{fill:url(#SVGID_107_);}
	.st321{fill:url(#SVGID_108_);}
	.st322{fill:url(#SVGID_109_);}
	.st323{fill:url(#SVGID_110_);}
	.st324{fill:url(#SVGID_111_);}
	.st325{fill:url(#SVGID_112_);}
	.st326{fill:url(#SVGID_113_);}
	.st327{fill:url(#SVGID_114_);}
	.st328{fill:url(#SVGID_115_);}
	.st329{fill:url(#SVGID_116_);}
	.st330{fill:url(#SVGID_117_);}
	.st331{fill:url(#SVGID_118_);}
	.st332{fill:url(#SVGID_119_);}
	.st333{fill:url(#SVGID_120_);}
	.st334{fill:url(#SVGID_121_);}
	.st335{fill:url(#SVGID_122_);}
	.st336{fill:#E60012;}
	.st337{fill:url(#SVGID_123_);}
	.st338{fill:#070001;}
	.st339{fill:#989898;}
	.st340{fill:#040000;}
	.st341{fill:#666767;}
	.st342{fill:#333333;}
	.st343{fill:#E5E144;}
	.st344{fill:#BCBC29;}
	.st345{fill:#EAE673;}
	.st346{fill:#681217;}
	.st347{fill:#636332;}
	.st348{fill:#8A1E22;}
	.st349{fill:#DFDCE3;}
	.st350{fill:#A62224;}
</style>
<radialGradient id="SVGID_1_" cx="198.237" cy="137.7948" r="283.5148" fx="28.6299" fy="147.0994" gradientTransform="matrix(0.0167 -0.9999 0.9792 0.0164 59.9999 333.7489)" gradientUnits="userSpaceOnUse">
	<stop  offset="0.1838" style="stop-color:#1D2088"/>
	<stop  offset="0.4057" style="stop-color:#601986"/>
	<stop  offset="0.4774" style="stop-color:#6D1885"/>
	<stop  offset="0.6161" style="stop-color:#8C1581"/>
	<stop  offset="0.8078" style="stop-color:#BA137A"/>
	<stop  offset="1" style="stop-color:#E61673"/>
</radialGradient>
<linearGradient id="SVGID_3_" gradientUnits="userSpaceOnUse" x1="-8.4016" y1="212.5984" x2="433.5984" y2="212.5984">
	<stop  offset="0" style="stop-color:#187FC4"/>
	<stop  offset="1" style="stop-color:#187FC4;stop-opacity:0"/>
</linearGradient>
<rect x="-7.9" y="-12.4" class="st0" width="441" height="450"/>
<g>
	<path class="st112" d="M341.06,63.56c-6.83,13.83-18.99,34.98-39.55,55.59c-39.56,39.65-78.8,45.31-79.11,65.92
		c-0.29,19.49,34.62,23.07,49.88,47.98c15.5,25.3,11.1,73.16-59.34,169.56c-73.54-99.29-78.53-147.02-63.05-171.39
		c15.5-24.42,51.97-26.08,52.74-46.14c0.74-19.25-32.46-27.94-72.51-65.92c-22.36-21.2-36.87-42.08-45.29-55.59
		C170.24,63.56,255.65,63.56,341.06,63.56z"/>
	<path class="st113" d="M84.13,63.56c23.25-8.2,52.05-15.89,85.54-19.59c73.55-8.12,134.02,6.95,170.7,19.59
		c-9.63,11.91-42.57,49.51-98.18,59.52C152.05,139.3,87.7,67.67,84.13,63.56z"/>
	<path class="st114" d="M321.37,83.53c1.27-4.41,0.7-5.99-0.08-6.59c-2.26-1.73-8.71,2.94-13.18,6.59c0,3.6,0,7.2,0,10.81
		C313.04,90.7,317.46,87.04,321.37,83.53z"/>
	<circle class="st115" cx="212.52" cy="86.82" r="62.49"/>
	<circle class="st17" cx="212.52" cy="86.82" r="36.26"/>
	<circle cx="212.25" cy="86.82" r="19.64"/>
	
		<ellipse transform="matrix(0.2229 -0.9748 0.9748 0.2229 106.9521 278.0012)" class="st116" cx="227.85" cy="71.92" rx="10.01" ry="11.46"/>
	<path class="st114" d="M209.22,109.9v15.43c10.53,0.45,21.53-0.19,32.96-2.24V109.9c-1.63-1.6-6.16-5.61-13.18-6.59
		C218.08,101.78,210.29,108.89,209.22,109.9z"/>
	<path class="st114" d="M242.18,123.08c12.06-2.17,23.04-5.64,32.96-9.86v-3.33c-6.92-6.79-10.85-7.44-13.18-6.59
		c-2.95,1.07-3.14,4.44-6.59,6.59c-3.98,2.49-9.19,1.42-13.18,0C242.18,114.29,242.18,118.69,242.18,123.08z"/>
	<path class="st117" d="M110.34,76.94H97.72c3.57,3.16,7.79,6.68,12.62,10.34c3.35,0.22,6.11-1.64,6.59-3.74
		C117.53,80.95,114.88,77.18,110.34,76.94z"/>
	<path class="st118" d="M143.3,107.77V96.71c-2.77-5.52-8.56-8.1-13.18-6.59c-4.36,1.42-6.05,5.93-6.28,6.59
		C126.75,98.59,129.41,101.36,143.3,107.77z"/>
	<path class="st114" d="M275.14,96.71v16.51c11.27-4.8,21.15-10.56,29.65-16.51c-1.28-1.62-4.53-5.21-9.87-6.59
		C288.04,88.34,280.46,90.94,275.14,96.71z"/>
	<path class="st119" d="M215.81,191.67c-13.19,3.79-78.31,132.59,0,85.7c79.83,40.31,102.05,44.77,105.47,39.55
		c3.82-5.81-41.51-81.05-46.14-85.7C253.35,209.36,230.5,197.72,215.81,191.67z"/>
	<path class="st108" d="M215.81,191.67c-13.19,3.79-41.03,13.73-65.92,39.55c-3.22,3.34-43.73,87.06-39.55,92.29
		c4.61,5.77,27.16,0.74,105.47-46.14C295.65,317.67,230.5,197.72,215.81,191.67z"/>
	<path class="st113" d="M215.81,310.32c8.07,79.67-2.06,101.1-13.18,105.47c-6.74,2.65-12.38-1.54-39.55,0
		c-14.81,0.84-25.42,2.78-26.37,0c-1.18-3.46,15.1-7.12,19.78-19.78c4.56-12.34-6.2-21.64-6.59-32.96
		C149.45,350.19,162.33,332.63,215.81,310.32z"/>
	<path class="st104" d="M215.81,310.32c17.3,53.8,17.55,79.31,13.18,92.29c-0.69,2.06-3.29,9.14,0,13.18
		c4.17,5.13,13.56,0.14,32.96,0c17.21-0.13,23.93,3.7,26.37,0c3.42-5.18-9.08-13.74-13.18-32.96c-2.75-12.85,0.32-18.26,0-26.37
		C274.68,344.66,263.39,328.67,215.81,310.32z"/>
	<path class="st120" d="M292.05,297.14c2.87,46.04-32.86,105.48-79.11,105.47c-46.18-0.01-81.68-59.29-79.11-105.47
		c1.66-29.87,19.06-50.89,42.42-79.11c19.89-24.03,30.24-26.42,36.69-26.37c7.73,0.07,17.35,3.73,35.83,26.37
		C274.25,249.25,290.29,268.92,292.05,297.14z"/>
	<path class="st112" d="M133.75,299.31c-0.01,0.32-0.01,0.65-0.02,0.97c0,0.14,0,0.28-0.01,0.43c0,0.26-0.01,0.53-0.01,0.79
		c0,0.26,0,0.52,0.01,0.78c0,0.23,0,0.45,0.01,0.68c0,0.25,0,0.5,0.01,0.75c0.01,0.29,0.02,0.58,0.03,0.87
		c0.01,0.18,0.01,0.36,0.02,0.54c0.01,0.27,0.01,0.54,0.03,0.81c0.02,0.36,0.04,0.73,0.06,1.1c0,0,0,0.01,0,0.01
		c0,0.02,0,0.04,0,0.06c0.02,0.36,0.04,0.71,0.06,1.07c0.02,0.33,0.05,0.66,0.08,0.99c0.03,0.42,0.06,0.83,0.1,1.25
		c0.03,0.33,0.07,0.67,0.1,1.01c0.04,0.42,0.08,0.83,0.13,1.25c0.05,0.4,0.1,0.81,0.15,1.21c0.04,0.34,0.08,0.68,0.13,1.02
		c0,0.01,0,0.02,0,0.03c0,0,0,0.01,0,0.01c0.06,0.46,0.13,0.93,0.2,1.39c0.01,0.04,0.01,0.09,0.02,0.13
		c0.04,0.25,0.07,0.49,0.11,0.74c0.07,0.47,0.15,0.93,0.23,1.4c0.04,0.22,0.07,0.43,0.11,0.65c0.01,0.08,0.02,0.15,0.04,0.23
		c0.09,0.49,0.18,0.99,0.28,1.48c0.02,0.11,0.04,0.21,0.06,0.32c0.03,0.16,0.06,0.32,0.09,0.47c0.1,0.5,0.21,1.01,0.32,1.51
		c0.03,0.15,0.06,0.29,0.09,0.44c0.02,0.1,0.04,0.2,0.06,0.3c0,0.01,0,0.02,0.01,0.02c0.11,0.51,0.24,1.03,0.36,1.54
		c0.06,0.24,0.11,0.49,0.17,0.73c0.13,0.55,0.27,1.1,0.42,1.64c0.03,0.1,0.05,0.2,0.08,0.3c0.01,0.05,0.03,0.1,0.04,0.16
		c0.02,0.06,0.03,0.11,0.04,0.17c0.14,0.54,0.29,1.08,0.44,1.61c0.05,0.17,0.09,0.33,0.14,0.5c0.01,0.05,0.03,0.1,0.04,0.15
		c0.16,0.56,0.33,1.12,0.49,1.67c0.03,0.09,0.05,0.18,0.08,0.27c0.03,0.1,0.06,0.21,0.09,0.32c0.18,0.59,0.37,1.18,0.56,1.77
		c0.05,0.16,0.1,0.32,0.15,0.48c0.19,0.58,0.39,1.16,0.59,1.74c0.06,0.17,0.11,0.33,0.17,0.5c0.21,0.62,0.44,1.23,0.66,1.84
		c0.05,0.13,0.09,0.26,0.14,0.39c0.22,0.59,0.45,1.19,0.68,1.78c0.01,0.02,0.01,0.04,0.02,0.05c0.05,0.13,0.1,0.26,0.15,0.39
		c0.25,0.64,0.51,1.28,0.77,1.92c0.04,0.1,0.08,0.19,0.12,0.29c0.27,0.66,0.56,1.33,0.84,1.98c0.02,0.04,0.03,0.07,0.05,0.11
		c0.01,0.02,0.02,0.04,0.03,0.07c0.01,0.01,0.01,0.02,0.02,0.04c0.29,0.66,0.59,1.33,0.89,1.99c0.01,0.02,0.01,0.03,0.02,0.05
		c0.02,0.05,0.04,0.09,0.06,0.13c0.3,0.64,0.6,1.29,0.9,1.92c0.03,0.07,0.07,0.14,0.1,0.21c0,0.01,0,0.01,0.01,0.02
		c0.33,0.68,0.66,1.36,1,2.03c0.01,0.02,0.02,0.03,0.02,0.05c0.01,0.02,0.02,0.04,0.03,0.06c0.35,0.7,0.71,1.39,1.07,2.07
		c0,0.01,0.01,0.01,0.01,0.02c0,0.01,0.01,0.01,0.01,0.01c0.42,0.8,0.85,1.59,1.29,2.37c0.09,0.17,0.19,0.34,0.29,0.5
		c0.34,0.6,0.68,1.2,1.03,1.79c0.14,0.23,0.27,0.46,0.41,0.69c0.32,0.54,0.64,1.07,0.97,1.6c0.06,0.1,0.13,0.21,0.19,0.31
		c0.08,0.13,0.16,0.27,0.25,0.4c0.34,0.54,0.68,1.07,1.03,1.6c0.05,0.07,0.09,0.14,0.14,0.21c0.09,0.14,0.18,0.28,0.27,0.41
		c0.42,0.64,0.85,1.27,1.28,1.9c0.01,0.01,0.01,0.02,0.02,0.03c0.05,0.08,0.11,0.16,0.16,0.24c0.51,0.74,1.03,1.47,1.56,2.2
		c0.04,0.06,0.09,0.11,0.13,0.17c0.47,0.64,0.95,1.28,1.43,1.91c0.07,0.09,0.13,0.17,0.2,0.26c0.07,0.09,0.14,0.17,0.2,0.26
		c0.4,0.52,0.8,1.03,1.21,1.53c0.16,0.19,0.31,0.39,0.47,0.58c0.4,0.49,0.81,0.98,1.22,1.47c0.15,0.18,0.3,0.36,0.45,0.54
		c0.46,0.54,0.93,1.07,1.4,1.59c0.1,0.11,0.2,0.22,0.3,0.33c1.17,1.29,2.37,2.55,3.59,3.76c0.11,0.11,0.23,0.22,0.34,0.33
		c0.49,0.48,0.98,0.96,1.48,1.42c0.13,0.13,0.27,0.25,0.4,0.38c0.03,0.02,0.05,0.05,0.08,0.07c0.47,0.43,0.94,0.86,1.41,1.28
		c0.17,0.15,0.33,0.3,0.5,0.44c0.5,0.44,1.01,0.87,1.52,1.3c0.06,0.05,0.13,0.11,0.19,0.16c0.06,0.05,0.13,0.11,0.19,0.16
		c1.32,1.08,2.65,2.12,4.02,3.1c0.06,0.04,0.11,0.08,0.17,0.12c0.61,0.44,1.22,0.86,1.84,1.28c0.04,0.03,0.08,0.05,0.12,0.08
		c0.11,0.07,0.22,0.15,0.33,0.22c0.53,0.35,1.07,0.7,1.61,1.04c0.15,0.1,0.31,0.19,0.46,0.29c0.02,0.01,0.04,0.02,0.06,0.04
		c0.54,0.33,1.09,0.66,1.63,0.97c0.13,0.07,0.25,0.15,0.38,0.22c0.03,0.02,0.06,0.04,0.1,0.06c0.65,0.37,1.31,0.73,1.97,1.08
		c0.05,0.02,0.09,0.05,0.14,0.07c1.46,0.76,2.94,1.47,4.44,2.11c0.03,0.01,0.06,0.03,0.09,0.04c0.1,0.04,0.21,0.09,0.31,0.13
		c0.6,0.25,1.2,0.5,1.81,0.73c0.09,0.04,0.19,0.07,0.29,0.11c0.09,0.03,0.18,0.07,0.26,0.1c0.58,0.22,1.16,0.42,1.74,0.62
		c0.18,0.06,0.36,0.12,0.54,0.18c0.63,0.21,1.27,0.41,1.91,0.59c0.06,0.02,0.11,0.03,0.17,0.05c0.06,0.02,0.13,0.04,0.19,0.06
		c1.56,0.44,3.14,0.82,4.73,1.13c0.1,0.02,0.21,0.04,0.32,0.06c0.67,0.13,1.34,0.24,2.02,0.34c0.09,0.01,0.19,0.03,0.28,0.04
		c0.1,0.01,0.19,0.03,0.29,0.04c0.61,0.08,1.22,0.16,1.83,0.22c0.07,0.01,0.14,0.01,0.21,0.02c0.13,0.01,0.27,0.03,0.4,0.04
		c0.63,0.06,1.26,0.1,1.89,0.14c0.12,0.01,0.24,0.02,0.35,0.02c0.05,0,0.1,0.01,0.16,0.01c0.8,0.04,1.6,0.06,2.4,0.07
		c-3.39-2.51-8.03-6.26-12.99-11.35c-25.98-26.64-31.13-59.66-32.96-72.51c-2.33-16.36-10.49-73.8,26.37-105.47
		c11.79-10.13,24.68-14.62,33.79-16.79c0,0,0,0,0,0c-5.04-3.36-9.02-4.5-12.55-4.76c-0.23-0.02-0.46-0.03-0.69-0.04
		c-0.02,0-0.04,0-0.06,0c-0.25-0.01-0.49-0.02-0.74-0.02c-0.2,0-0.4,0-0.6,0c-0.07,0-0.15,0-0.22,0.01c-0.14,0-0.27,0.01-0.42,0.01
		c-0.08,0-0.17,0.01-0.26,0.02c-0.06,0-0.13,0.01-0.19,0.01c-0.07,0-0.13,0.01-0.2,0.01c-0.09,0.01-0.19,0.02-0.28,0.03
		c-0.13,0.01-0.26,0.02-0.4,0.04c-0.11,0.01-0.22,0.03-0.33,0.04c-0.12,0.02-0.24,0.03-0.37,0.05c-0.11,0.02-0.23,0.04-0.34,0.06
		c-0.13,0.02-0.26,0.04-0.39,0.07c-0.12,0.02-0.25,0.05-0.37,0.08c-0.13,0.03-0.25,0.05-0.38,0.08c-0.13,0.03-0.26,0.06-0.38,0.09
		c-0.13,0.03-0.27,0.07-0.41,0.1c-0.14,0.04-0.28,0.08-0.42,0.12c-0.13,0.04-0.26,0.07-0.4,0.12c-0.15,0.04-0.29,0.09-0.44,0.14
		c-0.13,0.04-0.27,0.09-0.4,0.13c-0.15,0.05-0.3,0.11-0.45,0.16c-0.09,0.03-0.18,0.07-0.27,0.1c-0.05,0.02-0.1,0.04-0.16,0.06
		c-0.16,0.06-0.32,0.13-0.49,0.2c-0.14,0.06-0.28,0.12-0.43,0.18c-0.17,0.07-0.34,0.15-0.51,0.23c-0.08,0.03-0.15,0.07-0.23,0.11
		c-0.07,0.03-0.14,0.06-0.21,0.1c-0.17,0.08-0.35,0.17-0.53,0.26c-0.15,0.07-0.3,0.15-0.45,0.23c-0.18,0.09-0.36,0.19-0.55,0.29
		c-0.16,0.08-0.31,0.17-0.47,0.26c-0.19,0.1-0.38,0.21-0.57,0.32c-0.16,0.09-0.32,0.18-0.48,0.28c-0.2,0.12-0.4,0.24-0.6,0.37
		c-0.16,0.1-0.33,0.2-0.49,0.31c-0.21,0.13-0.41,0.27-0.63,0.41c-0.06,0.04-0.11,0.08-0.17,0.12c-0.11,0.07-0.22,0.15-0.33,0.22
		c-0.21,0.15-0.43,0.3-0.65,0.45c-0.17,0.12-0.34,0.24-0.51,0.37c-0.22,0.16-0.45,0.32-0.67,0.49c-0.13,0.1-0.27,0.2-0.4,0.3
		c-0.04,0.03-0.09,0.07-0.13,0.1c-0.23,0.18-0.47,0.36-0.71,0.54c-0.18,0.14-0.37,0.29-0.55,0.44c-0.24,0.19-0.48,0.39-0.73,0.59
		c-0.12,0.1-0.24,0.2-0.35,0.3c-0.07,0.06-0.13,0.11-0.2,0.17c-0.25,0.21-0.51,0.42-0.76,0.65c-0.19,0.16-0.38,0.33-0.57,0.5
		c-0.26,0.23-0.52,0.46-0.79,0.7c-0.19,0.17-0.38,0.35-0.57,0.52c-0.28,0.25-0.56,0.51-0.84,0.77c-0.19,0.17-0.38,0.36-0.57,0.54
		c-0.29,0.28-0.59,0.56-0.89,0.85c-0.18,0.18-0.37,0.37-0.56,0.55c-0.31,0.31-0.62,0.61-0.94,0.93c-0.18,0.18-0.36,0.37-0.54,0.55
		c-0.33,0.34-0.67,0.68-1.01,1.03c-0.17,0.18-0.35,0.37-0.52,0.55c-0.36,0.38-0.71,0.75-1.08,1.15c-0.1,0.1-0.19,0.21-0.29,0.32
		c-0.63,0.69-1.28,1.4-1.94,2.14c-0.19,0.21-0.37,0.42-0.56,0.63c-0.28,0.31-0.56,0.63-0.84,0.96c-0.44,0.5-0.88,1.01-1.32,1.53
		c-0.03,0.03-0.06,0.07-0.09,0.1c-0.06,0.07-0.11,0.13-0.16,0.19c-0.57,0.68-1.15,1.37-1.74,2.08c-1.13,1.37-2.49,3.02-3.41,4.12
		c-0.38,0.46-0.76,0.92-1.13,1.37c-0.12,0.15-0.24,0.3-0.36,0.44c0,0,0,0,0,0c0,0,0,0,0,0c-0.65,0.79-1.29,1.57-1.92,2.34
		c-0.02,0.03-0.05,0.06-0.07,0.09c-3,3.66-5.87,7.22-8.59,10.72c-0.18,0.24-0.37,0.48-0.55,0.71c-0.36,0.47-0.72,0.93-1.07,1.4
		c-0.23,0.31-0.47,0.61-0.7,0.92c-0.33,0.44-0.66,0.87-0.99,1.31c-0.25,0.33-0.49,0.66-0.74,0.98c-0.31,0.42-0.62,0.85-0.93,1.27
		c-0.25,0.34-0.5,0.68-0.74,1.02c-0.3,0.41-0.59,0.82-0.89,1.23c-0.25,0.35-0.5,0.7-0.74,1.04c-0.28,0.4-0.57,0.81-0.85,1.21
		c-0.24,0.35-0.49,0.7-0.73,1.06c-0.27,0.4-0.54,0.8-0.81,1.2c-0.24,0.35-0.47,0.71-0.71,1.06c-0.26,0.4-0.52,0.79-0.78,1.19
		c-0.23,0.36-0.46,0.72-0.69,1.08c-0.25,0.39-0.5,0.78-0.74,1.17c-0.23,0.37-0.45,0.73-0.67,1.1c-0.23,0.39-0.47,0.77-0.7,1.16
		c-0.22,0.38-0.44,0.75-0.66,1.13c-0.22,0.38-0.44,0.76-0.66,1.14c-0.22,0.4-0.44,0.8-0.66,1.19c-0.2,0.36-0.4,0.72-0.59,1.08
		c-0.27,0.51-0.53,1.01-0.79,1.52c-0.25,0.48-0.5,0.97-0.74,1.46c-0.26,0.52-0.51,1.03-0.76,1.55c-0.16,0.34-0.31,0.67-0.47,1.01
		c-0.2,0.43-0.4,0.87-0.6,1.31c-0.16,0.35-0.31,0.71-0.46,1.06c-0.18,0.42-0.36,0.85-0.54,1.27c-0.15,0.36-0.29,0.73-0.43,1.09
		c-0.17,0.42-0.33,0.84-0.49,1.27c-0.14,0.37-0.27,0.73-0.4,1.1c-0.15,0.43-0.31,0.85-0.45,1.28c-0.13,0.37-0.25,0.74-0.37,1.12
		c-0.14,0.43-0.28,0.86-0.41,1.29c-0.12,0.37-0.23,0.75-0.34,1.12c-0.13,0.44-0.25,0.88-0.37,1.32c-0.1,0.37-0.2,0.75-0.3,1.13
		c-0.12,0.45-0.23,0.9-0.34,1.35c-0.09,0.38-0.18,0.75-0.26,1.13c-0.1,0.46-0.2,0.93-0.3,1.39c-0.08,0.37-0.15,0.75-0.23,1.12
		c-0.09,0.48-0.17,0.97-0.26,1.45c-0.06,0.37-0.13,0.73-0.19,1.1c-0.08,0.51-0.15,1.03-0.22,1.55c-0.05,0.35-0.1,0.69-0.14,1.04
		c-0.07,0.58-0.13,1.16-0.19,1.75c-0.03,0.3-0.07,0.59-0.09,0.89c-0.08,0.89-0.14,1.78-0.19,2.68
		C133.8,297.86,133.77,298.58,133.75,299.31C133.75,299.31,133.75,299.31,133.75,299.31z"/>
	<path class="st121" d="M206.37,277.36c-0.5-1.28-6.1-14.84-19.78-17.95c-12.58-2.86-26.65,4.35-32.96,17.95
		C153.63,277.36,180,297.14,206.37,277.36z"/>
	<path class="st112" d="M153.63,277.36c0,0,4.18,3.13,10.87,5.65c0.22-6.43,0.85-13.25,2.12-20.15
		C161.22,266.05,156.58,271.01,153.63,277.36z"/>
	<path class="st119" d="M206.37,277.36c0,0-19.78-26.37-52.74,0c0.21,1.61,2.34,16.49,13.18,21.61
		C178.69,304.57,197.91,296.98,206.37,277.36z"/>
	<path class="st108" d="M153.63,277.36c0.19,1.5,2.06,14.45,11.02,20.38c-0.43-8.29-0.39-17.97,0.9-28.04
		C161.8,271.51,157.82,274.01,153.63,277.36z"/>
	<path class="st122" d="M206.37,277.36c0,0-19.78-26.37-52.74,0c1.98,4.33,4.49,6.87,6.59,8.42
		C170.69,293.52,189.27,290.23,206.37,277.36z"/>
	<path class="st123" d="M160.23,285.79c1.28,0.94,2.68,1.72,4.18,2.34c0.01-5.81,0.33-12.04,1.14-18.42
		c-3.75,1.81-7.73,4.31-11.92,7.66C155.61,281.69,158.13,284.23,160.23,285.79z"/>
	<path class="st112" d="M143.3,310.32c11.8,2.6,20.71,1.55,26.81,0c10.89-2.77,16.79-7.79,26.37-6.59
		c5.85,0.73,10.32,3.96,13.18,6.59c4.31-2.84,11.19-6.43,19.78-6.59c9.77-0.18,14.61,4.21,25.92,6.59c5.87,1.23,14.74,2.19,26.37,0
		c-1.43,1.7-36.51,42.11-85.7,32.96C165.82,337.66,148.23,316.66,143.3,310.32z"/>
	<path class="st124" d="M143.3,310.32c3.24,4.17,11.95,14.67,26.13,22.97c-1.36-6-2.11-11.03-2.61-14.55
		c-0.28-1.96-0.64-4.51-1-7.53C160.07,312.15,152.59,312.37,143.3,310.32z"/>
	<path class="st125" d="M143.3,310.32c11.8,2.6,20.71,1.55,26.81,0c10.89-2.77,16.79-7.79,26.37-6.59
		c5.85,0.73,10.32,3.96,13.18,6.59c4.31-2.84,11.19-6.43,19.78-6.59c9.77-0.18,14.61,4.21,25.92,6.59c5.87,1.23,14.74,2.19,26.37,0
		c-14.24,5.64-37.1,12.68-65.92,13.18C183.58,324.07,158.18,316.2,143.3,310.32z"/>
	<path class="st112" d="M143.3,310.32c6.11,2.41,13.99,5.16,23.39,7.53c-0.26-1.82-0.57-4.05-0.87-6.64
		C160.07,312.15,152.59,312.37,143.3,310.32z"/>
	<path class="st126" d="M212.52,149.31c0.97,0,1.93-0.03,2.89-0.07c0.18-0.01,0.36-0.01,0.54-0.02c0.9-0.05,1.79-0.12,2.68-0.2
		c0.23-0.02,0.46-0.05,0.68-0.07c0.85-0.09,1.7-0.2,2.54-0.32c0.23-0.03,0.46-0.08,0.69-0.11c0.65-0.11,1.31-0.22,1.95-0.35
		c0.32-0.06,0.65-0.12,0.97-0.19c0.7-0.15,1.4-0.31,2.09-0.48c0.42-0.11,0.85-0.22,1.27-0.33c0.39-0.11,0.78-0.22,1.16-0.33
		c0.74-0.22,1.48-0.44,2.21-0.69c0.23-0.08,0.45-0.15,0.68-0.23c2.75-0.95,5.41-2.08,7.96-3.38c0,0,0,0,0,0
		c-29.91,2.72-58.28-12.99-71.04-39.08c-9.7-19.84-9.15-43.21,0.86-63.01c-2.62,2.37-5.03,4.96-7.22,7.73
		c-5.91,8.99-9.4,16.33-10.71,20.44c-0.21,0.69-0.4,1.38-0.59,2.08c-0.74,2.81-1.22,5.47-1.53,7.66c-0.38,2.78-0.59,5.61-0.59,8.49
		c0,5.39,0.68,10.63,1.97,15.62c0.51,2,1.12,3.95,1.82,5.87C162.58,132.24,185.56,149.31,212.52,149.31z"/>
	<path class="st118" d="M176.26,120.26V109.9c-0.63-1.4-2.57-5.2-6.59-6.59c-2-0.69-3.9-0.58-6.59,0c-3.43,0.74-8.94,2.4-15.36,6.59
		C151.88,111.83,156.46,113.77,176.26,120.26z"/>
	<path class="st114" d="M209.22,125.32V109.9c-1.07-1.01-8.86-8.11-19.78-6.59c-7.02,0.98-11.56,5-13.18,6.59c0,3.46,0,6.91,0,10.37
		C186.59,123,197.61,124.83,209.22,125.32z"/>
	<path class="st127" d="M176.26,43.31c-2.19,0.2-4.38,0.42-6.59,0.67c-9.15,1.01-17.94,2.33-26.37,3.86v15.92
		c2.28,4.69,4.74,6.14,6.59,6.59c5.52,1.34,9.62-5.31,19.78-6.59c2.75-0.35,5.07-0.19,6.59,0
		C176.26,56.94,176.26,50.12,176.26,43.31z"/>
	<path class="st121" d="M219.55,277.36c4.26-10.81,14.75-17.95,26.37-17.95c11.62,0,22.11,7.14,26.37,17.95
		C272.29,277.36,245.92,297.14,219.55,277.36z"/>
	<path class="st119" d="M219.55,277.73c0,0,19.78-26.37,52.74,0c-0.24,1.71-2.48,16.19-13.18,21.24
		C247.24,304.57,228.14,297.11,219.55,277.73z"/>
	<path class="st128" d="M219.55,277.73c0,0,19.78-26.37,52.74,0c-2.01,4.07-4.48,6.52-6.59,8.06
		C255.07,293.52,236.6,290.27,219.55,277.73z"/>
	<path class="st129" d="M234.79,271.08l-1.03,0.47c-0.24,0.11-0.52,0-0.63-0.23l-4.77-10.48c-0.11-0.24,0-0.52,0.23-0.63l1.03-0.47
		c0.24-0.11,0.52,0,0.63,0.23l4.77,10.48C235.14,270.69,235.03,270.97,234.79,271.08z"/>
	<path class="st113" d="M245.45,268.09h-1.13c-0.26,0-0.47-0.21-0.47-0.47l0-11.51c0-0.26,0.21-0.47,0.47-0.47l1.13,0
		c0.26,0,0.47,0.21,0.47,0.47l0,11.51C245.92,267.87,245.71,268.09,245.45,268.09z"/>
	<path class="st130" d="M258.2,269.51l-1.04-0.45c-0.24-0.1-0.35-0.38-0.25-0.62l4.55-10.57c0.1-0.24,0.38-0.35,0.62-0.25l1.04,0.45
		c0.24,0.1,0.35,0.38,0.25,0.62l-4.55,10.57C258.72,269.51,258.44,269.62,258.2,269.51z"/>
	<path class="st129" d="M188.89,272.05l1.03,0.47c0.24,0.11,0.52,0,0.63-0.23l4.77-10.48c0.11-0.24,0-0.52-0.23-0.63l-1.03-0.47
		c-0.24-0.11-0.52,0-0.63,0.23l-4.77,10.48C188.54,271.66,188.65,271.94,188.89,272.05z"/>
	<path class="st113" d="M178.23,269.05h1.13c0.26,0,0.47-0.21,0.47-0.47l0-11.51c0-0.26-0.21-0.47-0.47-0.47h-1.13
		c-0.26,0-0.47,0.21-0.47,0.47l0,11.51C177.76,268.84,177.97,269.05,178.23,269.05z"/>
	<path class="st129" d="M165.48,270.48l1.04-0.45c0.24-0.1,0.35-0.38,0.25-0.62l-4.56-10.57c-0.1-0.24-0.38-0.35-0.62-0.25
		l-1.04,0.45c-0.24,0.1-0.35,0.38-0.25,0.62l4.55,10.57C164.96,270.47,165.24,270.59,165.48,270.48z"/>
	<path class="st129" d="M166.73,279.74l-1.03-0.47c-0.24-0.11-0.52,0-0.63,0.23l-4.77,10.48c-0.11,0.24,0,0.52,0.23,0.63l1.03,0.47
		c0.24,0.11,0.52,0,0.63-0.23l4.77-10.48C167.07,280.13,166.97,279.85,166.73,279.74z"/>
	<path class="st113" d="M177.39,282.74h-1.13c-0.26,0-0.47,0.21-0.47,0.47l0,11.51c0,0.26,0.21,0.47,0.47,0.47h1.13
		c0.26,0,0.47-0.21,0.47-0.47l0-11.51C177.86,282.95,177.65,282.74,177.39,282.74z"/>
	<path class="st130" d="M190.14,281.31l-1.04,0.45c-0.24,0.1-0.35,0.38-0.25,0.62l4.56,10.57c0.1,0.24,0.38,0.35,0.62,0.25
		l1.04-0.45c0.24-0.1,0.35-0.38,0.25-0.62l-4.55-10.57C190.65,281.32,190.38,281.21,190.14,281.31z"/>
	<g>
		<path class="st129" d="M259.2,279.12l1.03-0.47c0.24-0.11,0.52,0,0.63,0.23l4.77,10.48c0.11,0.24,0,0.52-0.23,0.63l-1.03,0.47
			c-0.24,0.11-0.52,0-0.63-0.23l-4.77-10.48C258.85,279.51,258.96,279.23,259.2,279.12z"/>
		<path class="st113" d="M248.54,282.12h1.13c0.26,0,0.47,0.21,0.47,0.47l0,11.51c0,0.26-0.21,0.47-0.47,0.47h-1.13
			c-0.26,0-0.47-0.21-0.47-0.47l0-11.51C248.07,282.33,248.28,282.12,248.54,282.12z"/>
		<path class="st130" d="M235.79,280.69l1.04,0.45c0.24,0.1,0.35,0.38,0.25,0.62l-4.56,10.57c-0.1,0.24-0.38,0.35-0.62,0.25
			l-1.04-0.45c-0.24-0.1-0.35-0.38-0.25-0.62l4.55-10.57C235.27,280.7,235.55,280.59,235.79,280.69z"/>
	</g>
	<path class="st113" d="M219.55,277.36c11.55-12,27.27-16.48,39.55-11.35c6.73,2.81,10.9,7.86,13.18,11.35
		C272.29,277.36,245.92,297.14,219.55,277.36z"/>
	<path class="st129" d="M219.55,277.73c0,0,19.78-26.37,52.74,0c-3.02,2.84-7.37,6.07-13.18,8.06
		C239.79,292.4,221.82,279.42,219.55,277.73z"/>
	<path class="st110" d="M219.55,277.36c0,0,19.78-26.37,52.74,0C272.29,277.36,245.92,297.14,219.55,277.36z"/>
	<path class="st17" d="M259.11,275.9c0-2.95-0.98-5.67-2.62-7.86c-7.74-2.9-14.4-2.85-19.85-1.5c-2.41,2.39-3.9,5.7-3.9,9.36
		c0,3.69,1.52,7.02,3.96,9.41c6.93,1.45,13.42,0.87,18.91-0.48C257.77,282.48,259.11,279.35,259.11,275.9z"/>
	<circle cx="245.92" cy="275.9" r="9.89"/>
	<circle class="st110" cx="254.12" cy="271.38" r="3.32"/>
	<path class="st131" d="M206.37,277.36c0,0-19.78-26.37-52.74,0c2.95,2.94,7.28,6.34,13.18,8.42
		C186.19,292.62,204.43,278.87,206.37,277.36z"/>
	<path class="st132" d="M242.18,42.93c-10.53-0.85-21.53-1.3-32.96-1.24v22.06c8.36,7.94,18.96,10.5,26.37,6.59
		c1.62-0.85,4.33-2.68,6.59-6.59C242.18,56.81,242.18,49.87,242.18,42.93z"/>
	<path class="st114" d="M209.22,41.69c-10.64,0.06-21.63,0.57-32.96,1.62v20.44c1.63,1.6,6.16,5.61,13.18,6.59
		c10.92,1.52,18.71-5.58,19.78-6.59C209.22,56.4,209.22,49.04,209.22,41.69z"/>
	<path class="st132" d="M242.18,42.93v20.82c6.09,6.24,10.34,7.11,13.18,6.59c4.53-0.82,6.55-5.33,13.18-6.59
		c2.7-0.52,5.03-0.28,6.59,0c0-5.59,0-11.18,0-16.76C264.77,45.26,253.76,43.86,242.18,42.93z"/>
	<path class="st117" d="M110.38,55.35c-9.12,2.58-17.64,5.36-25.5,8.21c0.04,0.05,13.27,9.4,19.08,6.78
		c3.63-1.63,5.56-4.86,6.41-6.59C110.38,60.95,110.38,58.15,110.38,55.35z"/>
	<path class="st114" d="M275.14,46.99v16.76c7.48,7.06,11.19,7.48,13.18,6.59c3.36-1.49,4.4-6.88,6.59-6.59
		c1.67,0.22,1.62,3.5,3.74,4.5c2.54,1.19,6.44-1.72,9.44-4.5c0-3.28,0-6.56,0-9.84C298.02,51.35,286.99,48.96,275.14,46.99z"/>
	<path class="st114" d="M308.1,63.75c0.73,1.98,1.88,4.05,3.74,4.5c3.77,0.91,7.93-5.45,9.44-4.5c1.22,0.77-1.32,4.99,0,6.59
		c1.22,1.48,6.03,0.55,18.92-6.59c0.03-0.03,0.05-0.06,0.08-0.09c0.03-0.03,0.05-0.06,0.08-0.09c-9.29-3.2-20.1-6.55-32.26-9.65
		V63.75z"/>
	<path class="st118" d="M143.3,47.84c-11.71,2.13-22.71,4.7-32.96,7.52v8.4c8.36,7.94,18.96,10.5,26.37,6.59
		c1.62-0.85,4.33-2.68,6.59-6.59C143.3,58.45,143.3,53.14,143.3,47.84z"/>
	<path class="st119" d="M341.06,63.56c0,0-76.87-76.87-128.12-51.25C161.7-13.31,84.83,63.56,84.83,63.56
		c23.25-8.2,52.05-15.89,85.54-19.59C243.92,35.86,304.39,50.93,341.06,63.56z"/>
	<path class="st107" d="M130.12,119.15c3.89,3.69,7.71,7.09,11.44,10.26c22.19,13.45,48.09,20.72,74.96,20.03
		c37.6-0.96,72.6-17.38,97.63-44.19c13.13-15.85,21.63-30.97,26.92-41.69c-9.63,11.91-42.57,49.51-98.18,59.52
		C152.74,139.3,88.4,67.67,84.83,63.56C93.24,77.07,107.76,97.95,130.12,119.15z"/>
	<path class="st112" d="M112.74,88.55c-3.33-2.52-10.67-7.95-19.69-16.55c-4.73-4.51-7.55-7.66-8.22-8.44
		c8.41,13.51,22.93,34.39,45.29,55.59c3.89,3.69,7.71,7.09,11.44,10.26c0.65,0.4,1.31,0.79,1.97,1.17c0.05,0.03,0.11,0.06,0.16,0.09
		c0.63,0.36,1.26,0.72,1.89,1.08c0.09,0.05,0.18,0.1,0.27,0.15c0.61,0.34,1.22,0.67,1.83,1c0.12,0.06,0.23,0.13,0.35,0.19
		c0.6,0.32,1.2,0.63,1.8,0.95c0.13,0.07,0.27,0.14,0.4,0.21c0.59,0.3,1.19,0.6,1.78,0.9c0.14,0.07,0.29,0.14,0.43,0.21
		c0.59,0.29,1.18,0.58,1.78,0.86c0.15,0.07,0.3,0.14,0.45,0.21c0.59,0.28,1.19,0.55,1.79,0.82c0.15,0.07,0.3,0.13,0.45,0.2
		c0.6,0.27,1.2,0.53,1.81,0.79c0.15,0.06,0.3,0.13,0.44,0.19c0.61,0.26,1.22,0.52,1.84,0.77c0.14,0.06,0.28,0.11,0.41,0.17
		c0.63,0.26,1.26,0.51,1.89,0.75c0.11,0.04,0.22,0.08,0.33,0.13c0.66,0.26,1.32,0.51,1.99,0.75c0.06,0.02,0.11,0.04,0.17,0.06
		c3.69,1.35,7.44,2.55,11.24,3.59c0.09,0.03,0.18,0.05,0.27,0.08c0.59,0.16,1.18,0.31,1.77,0.46c0.23,0.06,0.45,0.12,0.68,0.18
		c0.53,0.13,1.06,0.26,1.59,0.39c0.29,0.07,0.58,0.14,0.87,0.21c0.5,0.12,1,0.22,1.5,0.33c0.33,0.07,0.65,0.14,0.98,0.21
		c0.48,0.1,0.96,0.2,1.43,0.29c0.35,0.07,0.7,0.14,1.06,0.21c0.46,0.09,0.92,0.17,1.38,0.26c0.37,0.07,0.75,0.14,1.12,0.2
		c0.45,0.08,0.9,0.15,1.35,0.23c0.39,0.06,0.78,0.13,1.17,0.19c0.44,0.07,0.88,0.13,1.33,0.2c0.4,0.06,0.8,0.11,1.2,0.17
		c0.43,0.06,0.87,0.12,1.3,0.17c0.41,0.05,0.83,0.1,1.24,0.15c0.42,0.05,0.85,0.1,1.27,0.14c0.43,0.05,0.86,0.09,1.29,0.13
		c0.42,0.04,0.83,0.08,1.25,0.12c0.44,0.04,0.88,0.07,1.33,0.11c0.41,0.03,0.81,0.06,1.22,0.09c0.46,0.03,0.91,0.06,1.37,0.08
		c0.4,0.02,0.79,0.05,1.19,0.07c0.47,0.02,0.95,0.04,1.42,0.06c0.38,0.02,0.76,0.03,1.14,0.04c0.51,0.02,1.01,0.03,1.52,0.04
		c0.35,0.01,0.7,0.02,1.06,0.02c0.56,0.01,1.13,0.01,1.69,0.01c0.3,0,0.59,0,0.89,0c0.86-0.01,1.73-0.02,2.59-0.04
		c0.09,0,0.12-0.04,0.13-0.05c0.28-0.81-44.36-7.23-76.19-35.01C130.3,105.54,126.87,99.24,112.74,88.55z"/>
	<path class="st125" d="M193.19,28.69c-41.4,0.15-66.41,10.54-72.51,13.18c-15.66,6.79-27.44,14.94-35.14,21
		c-0.45,0.44-0.7,0.68-0.7,0.68c23.25-8.2,52.05-15.89,85.54-19.59c71.99-7.95,131.42,6.32,168.3,18.78
		C315,52.22,256.35,28.46,193.19,28.69z"/>
	<path class="st113" d="M206.37,277.36c-11.55-12-27.27-16.48-39.55-11.35c-6.73,2.81-10.9,7.86-13.18,11.35
		C153.63,277.36,180,297.14,206.37,277.36z"/>
	<path d="M153.63,277.36c0,0,4.18,3.13,10.87,5.65c0.18-5.34,0.65-10.95,1.52-16.65C159.76,269.23,155.83,274.01,153.63,277.36z"/>
	<path class="st110" d="M206.37,277.36c0,0-19.78-26.37-52.74,0C153.63,277.36,180,297.14,206.37,277.36z"/>
	<path class="st133" d="M164.5,283.02c0.15-4.3,0.47-8.76,1.05-13.31c-3.75,1.81-7.73,4.31-11.92,7.66
		C153.63,277.36,157.81,280.49,164.5,283.02z"/>
	<path class="st17" d="M166.82,275.9c0-2.95,0.98-5.67,2.62-7.86c7.74-2.9,14.4-2.85,19.85-1.5c2.41,2.39,3.9,5.7,3.9,9.36
		c0,3.69-1.52,7.02-3.96,9.41c-6.93,1.45-13.42,0.87-18.91-0.48C168.15,282.48,166.82,279.35,166.82,275.9z"/>
	<circle cx="180" cy="275.9" r="9.89"/>
	<circle class="st110" cx="186.41" cy="271.38" r="3.32"/>
</g>
<g id="レイヤー_5">
</g>
<g id="レイヤー_4">
</g>
<g id="レイヤー_3">
</g>
<g id="レイヤー_2">
</g>
<g id="レイヤー_6">
	<g id="レイヤー_7">
	</g>
</g>
</svg>
